<?xml version="1.0" encoding="UTF-8"?>
<svg width="200" height="262.31" clip-rule="evenodd" fill-rule="evenodd" stroke-linejoin="round" stroke-miterlimit="2" version="1.1" viewBox="0 0 200 262.31" xmlns="http://www.w3.org/2000/svg">
 <g transform="matrix(1.3908 0 0 1.3908 -100.14 -11.961)" fill-rule="nonzero">
  <path d="m105.8 8.8-0.2-0.2c0.2 0 0.2 0 0.2 0.2z" fill="#fefefe"/>
  <path d="m145.3 197.2h-3c0-0.2-0.2-0.3-0.4-0.4-1.5-0.2-3-0.5-4.4-1-3.8-1.1-7.4-2.5-10.9-4.2-4.5-2.2-8.9-4.8-13.1-7.7-3.5-2.4-6.7-5.1-9.8-8-1.8-1.7-3.5-3.4-5.2-5.1-2.2-2.3-4.3-4.7-6.3-7.2-2.2-2.8-4.3-5.6-6.3-8.6-1.8-2.8-3.5-5.7-5-8.8-2.6-5.1-4.6-10.4-6.1-15.9-0.7-2.6-1.2-5.1-1.6-7.8-0.5-2.8-0.8-5.7-0.9-8.6 0-0.2 0-0.5-0.3-0.5v-104.8h143.6l0.2 0.2v104.4c-0.3 0-0.4 0.2-0.3 0.5 0 2.1-0.2 4.1-0.5 6.2-0.3 2.7-0.7 5.4-1.4 8-0.8 3.1-1.7 6.2-2.8 9.2-1.2 3.3-2.6 6.5-4.2 9.7-2 3.9-4.2 7.6-6.7 11.1-3.1 4.4-6.5 8.6-10.2 12.6-2.1 2.1-4.2 4.2-6.4 6.3s-4.2 3.8-6.5 5.5c-2.7 2.1-5.6 4-8.6 5.8-3.8 2.3-7.8 4.2-11.9 5.9-3.1 1.3-6.4 2.3-9.7 2.9-0.4 0-1.1-0.3-1.3 0.3zm-1.5-184.3h-66.5c-1.2 0-1.2 0-1.2 1.2v95.7c0 1.7 0 3.3 0.1 5 0.2 3.3 0.6 6.6 1.3 9.9 1.3 6.4 3.4 12.5 6.2 18.3 1.9 4 4.2 7.8 6.6 11.4 3.2 4.7 6.7 9.1 10.6 13.2 3.8 4.1 8 7.9 12.4 11.3s9.1 6.3 14.1 8.7c4 2 8.3 3.6 12.7 4.8 1.7 0.5 3.5 0.6 5.2 0.4 2.8-0.5 5.5-1.3 8.1-2.3 4-1.5 7.8-3.4 11.5-5.5 2-1.1 3.9-2.4 5.8-3.7 3.8-2.6 7.3-5.5 10.6-8.6 2.2-2 4.3-4.2 6.3-6.4 2.1-2.2 4.1-4.6 5.9-7 3-3.9 5.7-8 8.1-12.3 2.7-4.9 4.9-10.1 6.5-15.5 0.8-2.8 1.5-5.6 2-8.4 0.7-3.4 1-6.8 1.1-10.2v-98.7c0-1.2 0-1.2-1.2-1.2z" fill="#f1f1f1"/>
  <path d="m77.5 12.9h132.8c1.2 0 1.2 0 1.2 1.2v98.7c0 3.4-0.4 6.8-1.1 10.2-0.5 2.8-1.2 5.6-2 8.4-1.7 5.4-3.9 10.6-6.6 15.6-2.4 4.3-5.1 8.4-8.1 12.4-1.8 2.4-3.8 4.8-5.9 7-2 2.2-4.1 4.4-6.3 6.4-3.3 3.2-6.9 6-10.6 8.6-1.9 1.3-3.8 2.6-5.8 3.7-3.7 2.1-7.5 3.9-11.5 5.5-2.6 1-5.3 1.8-8.1 2.3-1.7 0.2-3.5 0.1-5.2-0.4-4.4-1.1-8.6-2.7-12.7-4.8-5-2.4-9.7-5.4-14.1-8.8s-8.6-7.2-12.4-11.3c-3.9-4.1-7.5-8.5-10.6-13.2-2.5-3.6-4.7-7.5-6.6-11.4-2.8-5.8-4.9-12-6.2-18.3-0.7-3.3-1.1-6.6-1.3-9.9-0.1-1.7-0.1-3.3-0.1-5v-95.7c0-1.2 0-1.2 1.2-1.2z" fill="#fdfdfd"/>
  <path d="m120.3 23.5h2.8v2.2h-2.8zm4 0h2.8v2.2h-2.8zm-8.9 6.6 3.2-3.2h10.1c1 1.1 2.1 2.1 3.2 3.2v7l-3.2 3.2h-10.1c-1-1.1-2.1-2.1-3.2-3.2zm3.1 1v4.9l1.8 1.8h6.7l1.8-1.8v-5l-1.8-1.8h-6.5c-0.8 0.6-1.3 1.2-2 1.9m16.3-4.3h17.2v3.9h-3.1v-1.4h-8.6v2.9h7.4v2.5h-7.4v3.3h2.3v2.4h-7.8v-2.4h2.3v-8.6h-2.3zm20.1 0.1h15l2.3 2.3v3.3c-0.4 0.3-0.7 0.7-1.1 1 0.3 0.4 0.7 0.8 1.1 1.1v3.4c-0.8 0.8-1.5 1.6-2.3 2.3h-14.9v-2.5h2.3v-8.5h-2.3c0-0.8 0-1.6-0.1-2.4m5.6 5.3h7.7c0.3-0.3 0.6-0.6 0.9-0.8v-1.2c-0.4-0.3-0.7-1-1.4-0.9h-7.2zm0 5.7h7.7l0.9-0.9v-1.5c-0.3-0.3-0.6-0.6-0.9-0.8h-7.6zm-66.5-6.5c0.8-0.3 1.8-0.2 2.5 0.4-0.2 0.3-0.5 0.5-0.7 0.8-0.4-0.3-1.3-0.5-1.5 0.2 0 0.3 0.4 0.3 0.6 0.4 0.5 0 1.1 0.2 1.4 0.6 0.5 0.7 0.3 1.6-0.4 2.1 0 0-0.1 0-0.1 0.1-0.9 0.4-2.1 0.3-2.9-0.4 0.2-0.2 0.5-0.5 0.8-0.7 0.5 0.3 1 0.4 1.6 0.2 0.3-0.1 0.3-0.7-0.1-0.7-0.6-0.1-1.3-0.1-1.7-0.6-0.5-0.7-0.3-1.6 0.4-2.1 0-0.3 0-0.3 0.1-0.3m4.6-0.2h3.2v1.1h-2.1v0.8h2v1h-1.9v0.8h2v1h-3.2c-0.1-1.6-0.1-3.1 0-4.7m5.1 0h1.2v4.7h-1.2c0.1-1.6 0.1-3.1 0-4.7m3.1 0h3.5v1h-1.2v3.7h-1.2c0-1.2 0.1-2.5 0-3.7h-1.1zm71.5 0h1.2v4.7h-1.2zm3.2 1.3c0.1-1.3 2-1.7 2.8-0.8 0.4 0.5 0.5 1.2 0.2 1.8-0.4 0.8-0.8 1.7-1.2 2.5h-1.2l0.9-1.8c-0.8 0.1-1.5-0.5-1.5-1.3zm1.4-0.3c-0.5 0.2-0.3 1.2 0.3 1s0.4-1.3-0.3-1m4.5-0.9c0.8-0.3 1.7 0 2 0.8 0 0.1 0 0.1 0.1 0.2 0.1 0.9 0.1 1.7 0 2.6-0.3 0.8-1.1 1.3-2 1-0.4-0.1-0.7-0.4-0.9-0.8-0.1-0.8-0.2-1.6-0.1-2.3-0.2-0.7 0.2-1.3 0.9-1.5m0.4 0.9c-0.3 0.2-0.2 0.5-0.2 0.8v1.7c0.1 0.2 0.3 0.3 0.6 0.2 0.1 0 0.2-0.1 0.2-0.2 0.1-0.7 0-1.4 0-2.1 0-0.2-0.2-0.4-0.4-0.5-0.1 0-0.2 0-0.2 0.1m3.6 1.8c0.5-0.9 0.9-1.9 1.4-2.8h1.2c-0.5 1-1.1 2-1.6 3.1h0.7v-0.6h1c0 0.3-0.1 0.7 0.4 0.7v1h-0.4v0.6h-1.1v-0.6h-1.9c0.1-0.6 0.1-1 0.3-1.4m-103.5 6c6.6 2.4 13.2 4.5 19.9 6.3 6.1 1.7 12.3 3.1 18.6 4.4 1.1 0.1 2.1 0.6 2.9 1.4 0.6 0.9 0.8 1.9 0.8 3v14.8c0 1.7 1.4 3.1 3.1 3.1 0.2 0 0.4 0 0.6-0.1 1.7-0.4 2.5-2.2 3-3.7 0.7-2.9 1.2-5.8 1.4-8.8-1.3 0-2.5 0-3.8 0.2 0-1.3 0.1-2.6 0.5-3.9 0.2-0.8 0.8-1.3 1.6-1.6 1.3-0.3 2.7-0.4 4-0.4 0-1.4 1-2.5 2.4-2.7h5.2c1.3 0.1 2.4 1 2.6 2.3 0.6 5.1 1.1 10.2 1.9 15.3 0.1 1.5 1 2.8 2.3 3.3 1.7 0.4 3.4-0.7 3.8-2.5 0-0.2 0.1-0.4 0.1-0.5v-13.7c-0.2-1.3 0-2.6 0.6-3.8 0.7-0.9 1.7-1.4 2.8-1.6 7.4-1.6 14.7-3.4 21.9-5.5 5.3-1.6 10.6-3.3 15.8-5.2v19.9c-9.1 1.2-18.3 2.1-27.5 2.7v4.1c9.2-0.6 18.4-1.4 27.5-2.7v17.4c-9.2-0.3-18.3-0.5-27.5-0.6v4c9.1 0.1 18.3 0.3 27.4 0.6v20.7c-8.8-4-18-7-27.5-8.8v4.1c9.5 1.9 18.7 5 27.4 9.1 0.1 3.6 0 7.2-0.4 10.7-0.6 4.9-1.7 9.7-3.4 14.3-2.6-4.5-5.8-8.6-9.7-12-4.6-4.1-9.8-7.3-15.5-9.8-0.5 1.3-1 2.5-1.6 3.7 5.9 2.4 11.2 5.9 15.8 10.3 3.8 3.6 6.9 7.9 9 12.7-5 11-12.9 20.6-22 28.5 5.7-11.2 4.2-24.8-3.9-34.4-2.2-2.7-4.9-4.9-7.8-6.7-1.1 0.9-2.2 1.9-3.3 2.7 5.3 2.9 9.5 7.3 12 12.8 6.3 13.8 0.3 30-13.5 36.3s-30 0.3-36.3-13.5c-6.1-13.2-0.8-28.8 12-35.6-1.2-0.8-2.3-1.8-3.4-2.7-12.5 7.5-18.2 22.6-13.7 36.5 0.5 1.5 1.1 3.1 1.8 4.5-9.1-7.8-16.9-17.4-21.9-28.3 2.8-6.1 6.9-11.4 12.2-15.5 3.8-3.1 8.1-5.6 12.6-7.5-0.6-1.2-1.2-2.4-1.7-3.7-6.3 2.7-12 6.4-16.9 11.1-3.2 3.1-6 6.7-8.3 10.6-1.4-4-2.5-8.1-3.1-12.3s-0.8-8.5-0.7-12.7c8.7-4.1 18-7.2 27.4-9.1v-4.2c-9.5 1.8-18.7 4.8-27.5 8.8v-20.7c9.1-0.3 18.3-0.5 27.4-0.6v-4c-9.2 0.1-18.3 0.4-27.5 0.6v-17.3c9.1 1.2 18.3 2.1 27.5 2.6v-4c-9.2-0.6-18.3-1.5-27.5-2.7 0.1-6.7 0.1-13.3 0.1-20m41.1 40.7v14.4c0.1 2.7 0 5.4 0 8.1 0.1 2.4 0.6 4.8 1.6 7 1.3 3.1 3.3 5.8 5.8 8.1 1.9 1.9 4.1 3.4 6.6 4.5 0.9 0.4 1.9-0.1 2.7-0.5 2.1-1.2 4.1-2.7 5.9-4.4 2.3-2.2 4.1-4.8 5.4-7.8 1-2.3 1.5-4.7 1.6-7.2v-7.9c0.1-4.8 0-9.6 0-14.4-9.8-0.1-19.7-0.1-29.5 0m15.7 56.8c-0.3 0.9-0.6 1.8-1.1 2.7-0.7-0.8-0.8-1.9-1.2-2.7-2.3-0.8-4.5-1.8-6.5-3.1-3.2 1.2-6.1 3.2-8.5 5.7 0.7 2.9 0.9 5.9 0.8 8.9 0.6 0.4 1.3 0.9 1.8 1.4-0.8 0.3-1.6 0.4-2.4 0.3-1.7 2.1-3.7 3.9-6 5.4 0.2 3.6 1.4 7.2 3.3 10.3 2.7 0.2 5.3 0.8 7.9 1.6 0.7-0.6 1.6-1 2.4-1.4-0.1 0.9-0.4 1.7-0.7 2.6 1.5 2.1 2.6 4.4 3.5 6.8 3.5 1 7.1 1.1 10.7 0.4 0.2-0.1 0.5 0 0.6-0.2 0.9-2.5 2.1-4.8 3.6-7-0.3-0.8-0.5-1.7-0.7-2.5 0.9 0.3 1.7 0.8 2.4 1.4 2.9-0.9 5.8-1.5 8.8-1.7 1.8-2.9 2.9-6.1 3.2-9.5-2.6-1.7-4.9-3.7-6.9-6.1-0.8 0-1.6 0-2.4-0.2 0.5-0.6 1.1-1.2 1.8-1.6-0.1-3.3 0.2-6.5 0.9-9.7-2.3-2.3-5.1-4-8.2-5.1-2.2 1.4-4.6 2.5-7.1 3.3m-2.1 8.5c0.2-0.9 0.6-1.8 1.2-2.6 0.4 0.8 0.8 1.7 1 2.6 2.6 1.4 5.1 3.1 7.2 5.2 0.9-0.1 1.7 0.1 2.6 0.3-0.6 0.6-1.3 1.2-2.1 1.6-0.3 1.3-0.6 2.6-1 3.8-0.5 1.6-1.2 3.1-1.8 4.6 0.1 0.8 0.5 1.5 0.5 2.3-0.8-0.3-1.6-0.7-2.3-1.3h-8.5c-0.7 0.6-1.5 1-2.3 1.3 0.1-0.8 0.3-1.6 0.5-2.3-0.8-1.8-1.5-3.6-2-5.4-0.3-1-0.4-2-0.7-3-0.7-0.5-1.4-1-2-1.6 0.1-0.2 0.4-0.2 0.6-0.2 0.6-0.1 1.3-0.1 1.9-0.1 2.2-2.1 4.6-3.8 7.2-5.2z"/>
  <path d="m129 80.7c9.8-0.1 19.7-0.1 29.5 0v14.4c-9.8-0.9-19.7-0.9-29.5 0 0.1-4.8 0.1-9.6 0-14.4m1.6 29.2c8.8-1.7 17.7-1.7 26.5 0 0 0.1-0.1 0.3-0.1 0.4-1.3 2.9-3.1 5.6-5.4 7.8-1.7 1.7-3.7 3.2-5.9 4.4-0.8 0.4-1.8 0.9-2.7 0.5-2.4-1.1-4.7-2.6-6.6-4.5-2.5-2.3-4.4-5-5.8-8.1 0.1-0.2 0-0.4 0-0.5z" fill="#fe0101"/>
 </g>
</svg>
