<?xml version="1.0" encoding="UTF-8" standalone="no"?>
<!-- Created with Inkscape (http://www.inkscape.org/) -->

<svg
   xmlns:dc="http://purl.org/dc/elements/1.1/"
   xmlns:cc="http://creativecommons.org/ns#"
   xmlns:rdf="http://www.w3.org/1999/02/22-rdf-syntax-ns#"
   xmlns:svg="http://www.w3.org/2000/svg"
   xmlns="http://www.w3.org/2000/svg"
   xmlns:sodipodi="http://sodipodi.sourceforge.net/DTD/sodipodi-0.dtd"
   xmlns:inkscape="http://www.inkscape.org/namespaces/inkscape"
   width="316"
   height="316"
   id="svg3295"
   version="1.1"
   inkscape:version="0.48.4 r9939"
   sodipodi:docname="Nevermind_the_Buzzcocks.svg">
  <defs
     id="defs3297">
    <clipPath
       id="clipPath5208"
       clipPathUnits="userSpaceOnUse">
      <path
         id="path5210"
         d="m 259.02,672 93.96,0 0,90 -93.96,0 0,-90 z"
         inkscape:connector-curvature="0" />
    </clipPath>
    <clipPath
       id="clipPath5168"
       clipPathUnits="userSpaceOnUse">
      <path
         id="path5170"
         d="m 303.707,751.075 c -0.385,-0.477 -0.979,-0.703 -1.773,-0.457 l 0,0 c -0.83,0.256 -1.84,0.797 -2.425,1.19 l 0,0 c 0.492,-2.044 1.17,-4.564 1.716,-6.735 l 0,0 c 0.134,-0.535 0.356,-1.196 -0.179,-1.328 l 0,0 c -0.64,-0.161 -1.18,0.409 -1.479,0.687 l 0,0 c -1.062,0.992 -2.134,2.125 -3.193,2.887 l 0,0 c -0.066,-0.399 -0.298,-0.868 -0.532,-1.239 l 0,0 c -0.19,-0.299 -0.545,-0.668 -1.006,-0.731 l 0,0 c -0.611,-0.086 -1.63,0.116 -2.484,0.227 l 0,0 c -0.847,0.113 -1.661,0.272 -2.307,0.322 l 0,0 c 0.368,-0.86 0.833,-2.091 1.243,-3.115 l 0,0 c 0.156,-0.395 0.391,-0.77 0.355,-1.054 l 0,0 c -0.116,-0.876 -1.544,-1.096 -2.425,-1.239 l 0,0 c 0.121,-0.073 0.244,-0.146 0.366,-0.218 l 0,0 c 4.347,1.13 9.975,2.091 16.548,2.092 l 0,0 c 6.575,-10e-4 12.203,-0.962 16.549,-2.092 l 0,0 c 0.123,0.072 0.245,0.145 0.368,0.218 l 0,0 c -0.883,0.143 -2.312,0.363 -2.427,1.239 l 0,0 c -0.037,0.284 0.199,0.659 0.355,1.054 l 0,0 c 0.409,1.024 0.875,2.255 1.243,3.115 l 0,0 c -0.645,-0.05 -1.46,-0.209 -2.307,-0.322 l 0,0 c -0.853,-0.111 -1.874,-0.313 -2.485,-0.227 l 0,0 c -0.461,0.063 -0.815,0.432 -1.003,0.731 l 0,0 c -0.236,0.371 -0.467,0.84 -0.535,1.239 l 0,0 c -1.058,-0.762 -2.13,-1.895 -3.192,-2.887 l 0,0 c -0.299,-0.278 -0.839,-0.848 -1.48,-0.687 l 0,0 c -0.534,0.132 -0.312,0.793 -0.177,1.328 l 0,0 c 0.545,2.171 1.222,4.691 1.714,6.735 l 0,0 c -0.584,-0.393 -1.594,-0.934 -2.424,-1.19 l 0,0 c -0.795,-0.246 -1.389,-0.02 -1.773,0.457 l 0,0 c -0.22,0.274 -1.912,3.664 -2.426,4.491 l 0,0 c -0.515,-0.827 -2.204,-4.217 -2.425,-4.491"
         inkscape:connector-curvature="0" />
    </clipPath>
    <clipPath
       id="clipPath5156"
       clipPathUnits="userSpaceOnUse">
      <path
         id="path5158"
         d="m 283.242,759.362 0,-21.128 c 4.31,1.679 12.394,4.129 22.89,4.13 l 0,0 c 10.406,-10e-4 18.44,-2.407 22.776,-4.086 l 0,0 0,21.084 -45.666,0 z"
         inkscape:connector-curvature="0" />
    </clipPath>
    <clipPath
       id="clipPath5144"
       clipPathUnits="userSpaceOnUse">
      <path
         id="path5146"
         d="m 259.02,672 93.96,0 0,90 -93.96,0 0,-90 z"
         inkscape:connector-curvature="0" />
    </clipPath>
    <clipPath
       id="clipPath4074"
       clipPathUnits="userSpaceOnUse">
      <path
         id="path4076"
         d="M 0,0 792,0 792,612 0,612 0,0 z"
         inkscape:connector-curvature="0" />
    </clipPath>
    <clipPath
       id="clipPath4070"
       clipPathUnits="userSpaceOnUse">
      <path
         id="path4072"
         d="M 0,0 792,0 792,612 0,612 0,0 z"
         inkscape:connector-curvature="0" />
    </clipPath>
    <clipPath
       id="clipPath4066"
       clipPathUnits="userSpaceOnUse">
      <path
         id="path4068"
         d="m 332.598,243.597 c -2.835,-5.629 -1.151,-9.057 -1.151,-9.057 l 0,0 c 6.56,-9.318 17.462,-1.405 17.462,-1.405 l 0,0 83.893,0 c 0,0 10.903,-7.913 17.462,1.405 l 0,0 c 0,0 1.684,3.428 -1.15,9.057 l 0,0 -58.275,101.993 -58.241,-101.993 z"
         inkscape:connector-curvature="0" />
    </clipPath>
    <clipPath
       id="clipPath4062"
       clipPathUnits="userSpaceOnUse">
      <path
         id="path4064"
         d="M 0,0 792,0 792,612 0,612 0,0 z"
         inkscape:connector-curvature="0" />
    </clipPath>
    <clipPath
       id="clipPath4058"
       clipPathUnits="userSpaceOnUse">
      <path
         id="path4060"
         d="M 0,0 792,0 792,612 0,612 0,0 z"
         inkscape:connector-curvature="0" />
    </clipPath>
    <clipPath
       id="clipPath4054"
       clipPathUnits="userSpaceOnUse">
      <path
         id="path4056"
         d="m 453.785,320.137 -124.878,0 c -0.76,0 -1.615,-0.151 -2.566,-0.454 l 0,0 c -0.949,-0.306 -1.73,-0.683 -2.335,-1.142 l 0,0 -6.155,-5.362 c -0.607,-0.381 -1.122,-1.008 -1.536,-1.883 l 0,0 c -0.42,-0.873 -0.629,-1.691 -0.629,-2.448 l 0,0 0,-7.189 c 0,-0.765 0.209,-1.562 0.629,-2.396 l 0,0 c 0.414,-0.837 0.929,-1.484 1.536,-1.94 l 0,0 6.155,-5.359 c 0.605,-0.382 1.386,-0.743 2.335,-1.083 l 0,0 c 0.951,-0.347 1.806,-0.518 2.566,-0.518 l 0,0 7.975,0 9.996,0 113.197,12.587 c 0,0 12.042,4.874 5.136,14.271 l 0,0 c 0,0 -2.74,2.916 -11.39,2.916 l 0,0 c -0.012,0 -0.023,0 -0.036,0"
         inkscape:connector-curvature="0" />
    </clipPath>
    <clipPath
       id="clipPath4050"
       clipPathUnits="userSpaceOnUse">
      <path
         id="path4052"
         d="M 0,0 792,0 792,612 0,612 0,0 z"
         inkscape:connector-curvature="0" />
    </clipPath>
    <clipPath
       id="clipPath4046"
       clipPathUnits="userSpaceOnUse">
      <path
         id="path4048"
         d="m 444.482,289.331 -11.643,0 -111.55,-12.586 c 0,0 -12.046,-4.875 -5.136,-14.272 l 0,0 c 0,0 2.747,-2.929 11.424,-2.919 l 0,0 124.879,0 c 0.758,0 1.611,0.152 2.561,0.458 l 0,0 c 0.953,0.306 1.733,0.683 2.34,1.141 l 0,0 6.151,5.361 c 0.611,0.384 1.122,1.007 1.539,1.881 l 0,0 c 0.421,0.878 0.629,1.694 0.629,2.455 l 0,0 0,7.185 c 0,0.765 -0.208,1.561 -0.629,2.399 l 0,0 c -0.417,0.837 -0.928,1.481 -1.539,1.938 l 0,0 -6.151,5.362 c -0.607,0.381 -1.387,0.739 -2.34,1.082 l 0,0 c -0.95,0.342 -1.803,0.515 -2.561,0.515 l 0,0 -7.974,0 z"
         inkscape:connector-curvature="0" />
    </clipPath>
    <clipPath
       id="clipPath4042"
       clipPathUnits="userSpaceOnUse">
      <path
         id="path4044"
         d="M 0,0 792,0 792,612 0,612 0,0 z"
         inkscape:connector-curvature="0" />
    </clipPath>
    <clipPath
       id="clipPath4038"
       clipPathUnits="userSpaceOnUse">
      <path
         id="path4040"
         d="M 0,0 792,0 792,612 0,612 0,0 z"
         inkscape:connector-curvature="0" />
    </clipPath>
    <clipPath
       id="clipPath4034"
       clipPathUnits="userSpaceOnUse">
      <path
         id="path4036"
         d="m 253.717,286.27 c 0,-75.678 61.345,-137.026 137.024,-137.026 l 0,0 c 75.675,0 137.023,61.348 137.023,137.026 l 0,0 c 0,75.675 -61.348,137.021 -137.023,137.021 l 0,0 c -75.679,0 -137.024,-61.346 -137.024,-137.021"
         inkscape:connector-curvature="0" />
    </clipPath>
    <clipPath
       clipPathUnits="userSpaceOnUse"
       id="clipPath2999">
      <path
         inkscape:connector-curvature="0"
         d="m 461.9,268.95 150.1,0 0,523.05 -150.1,0 0,-523.05 z"
         id="path3001" />
    </clipPath>
    <clipPath
       clipPathUnits="userSpaceOnUse"
       id="clipPath3013">
      <path
         inkscape:connector-curvature="0"
         d="m 539.04,45.84 39.96,0 0,47.924 -39.96,0 0,-47.924 z"
         id="path3015" />
    </clipPath>
    <clipPath
       clipPathUnits="userSpaceOnUse"
       id="clipPath3027">
      <path
         inkscape:connector-curvature="0"
         d="m 539.041,45.84 39.959,0 0,47.924 -39.959,0 0,-47.924 z"
         id="path3029" />
    </clipPath>
    <clipPath
       id="clipPath8695">
      <path
         id="path8697"
         d="m -33.024,-84.5 0,42.915 18.284,0 0,-42.915 -18.284,0 z"
         inkscape:connector-curvature="0" />
    </clipPath>
    <linearGradient
       id="linearGradient3933">
      <stop
         id="stop3935"
         offset="0"
         style="stop-color:#ffffff;stop-opacity:0" />
      <stop
         id="stop3937"
         offset="1"
         style="stop-color:#ffffff;stop-opacity:0;" />
    </linearGradient>
    <linearGradient
       id="linearGradient3941">
      <stop
         id="stop3943"
         offset="0"
         style="stop-color:#ffc3ed;stop-opacity:1;" />
      <stop
         id="stop3945"
         offset="1"
         style="stop-color:#ffffff;stop-opacity:0;" />
    </linearGradient>
  </defs>
  <sodipodi:namedview
     id="base"
     pagecolor="#ffffff"
     bordercolor="#666666"
     borderopacity="1.0"
     inkscape:pageopacity="0.0"
     inkscape:pageshadow="2"
     inkscape:zoom="1.4"
     inkscape:cx="435.92938"
     inkscape:cy="68.679822"
     inkscape:document-units="px"
     inkscape:current-layer="g3613"
     showgrid="false"
     inkscape:window-width="1513"
     inkscape:window-height="1069"
     inkscape:window-x="28"
     inkscape:window-y="46"
     inkscape:window-maximized="0" />
  <metadata
     id="metadata3300">
    <rdf:RDF>
      <cc:Work
         rdf:about="">
        <dc:format>image/svg+xml</dc:format>
        <dc:type
           rdf:resource="http://purl.org/dc/dcmitype/StillImage" />
        <dc:title></dc:title>
      </cc:Work>
    </rdf:RDF>
  </metadata>
  <g
     inkscape:label="Layer 1"
     inkscape:groupmode="layer"
     id="layer1"
     transform="translate(0,-736.36218)">
    <g
       id="g3613"
       transform="matrix(0.97277831,0,0,0.97277831,5.682844,741.90593)">
      <g
         id="g4046"
         transform="matrix(0.64594684,0,0,0.64594684,-5.5389474,-5.4687462)">
        <path
           id="path3802"
           d="m 501.134,251.133 c 0,138.068 -111.932,250 -250,250 -138.068,0 -250,-111.932 -250,-250 0,-138.068 111.932,-250 250,-250 138.068,0 250,111.932 250,250"
           inkscape:connector-curvature="0"
           style="fill:#ffffff" />
        <path
           id="path3804"
           d="m 501.134,251.133 c 0,138.068 -111.932,250 -250,250 -138.068,0 -250,-111.932 -250,-250 0,-138.068 111.932,-250 250,-250 138.068,0 250,111.932 250,250 z"
           inkscape:connector-curvature="0"
           style="fill:none;stroke:#c1272d;stroke-width:2.26749992" />
        <path
           id="path3806"
           d="M 60.498,239.819 C 66.693,139.151 149.16,59.448 249.981,59.448 c 100.655,0 183.008,79.434 189.459,179.872 m -57.507,151.162 c -34.149,33.496 -80.676,54.115 -131.951,54.115 -51.185,0 -97.634,-20.542 -131.796,-53.949 M 10.465,239.333 C 16.621,111.76 122.012,10.196 251.134,10.196 c 128.904,0 234.153,101.231 240.618,228.535 m -73.149,185.618 c -43.352,41.932 -102.396,67.722 -167.469,67.722 -65.239,0 -124.398,-25.906 -167.776,-68.004"
           inkscape:connector-curvature="0"
           style="fill:none;stroke:#9d9fa2;stroke-width:2.26749992" />
        <path
           id="path3808"
           d="m 428.433,251.133 c 0,98.748 -80.035,178.783 -178.771,178.783 -98.748,0 -178.783,-80.035 -178.783,-178.783 0,-98.735 80.035,-178.771 178.783,-178.771 98.735,0.001 178.771,80.036 178.771,178.771"
           inkscape:connector-curvature="0"
           style="fill:#9d9fa2" />
        <path
           id="path3810"
           d="M 110.723,379.321 C 79.864,345.696 61.01,300.897 61.01,251.774 L 9.761,252.9 c 0.282,60.989 23.423,116.667 61.259,158.894 l 39.703,-32.473 z"
           inkscape:connector-curvature="0"
           style="fill:#9d9fa2" />
        <path
           id="path3812"
           d="M 59.627,252.9 17.171,309.704 82.576,342.42 71.914,409.246 M 11.284,252.9 l 54.949,45.426 -28.44,68.259 71.088,10.675"
           inkscape:connector-curvature="0"
           style="fill:none;stroke:#ffffff;stroke-width:6.02909994" />
        <path
           id="path3814"
           d="M 59.627,252.9 17.171,309.704 82.576,342.42 71.914,409.246 M 11.284,252.9 l 54.949,45.426 -28.44,68.259 71.088,10.675"
           inkscape:connector-curvature="0"
           style="fill:none;stroke:#9d9fa2;stroke-width:1.50730002" />
        <path
           id="path3816"
           d="m 429.828,411.793 c 37.835,-42.227 60.989,-97.904 61.258,-158.894 l -51.249,-1.126 c 0,49.123 -18.854,93.922 -49.714,127.547 l 39.705,32.473 z"
           inkscape:connector-curvature="0"
           style="fill:#9d9fa2" />
        <path
           id="path3818"
           d="m 441.22,252.9 42.455,56.804 -65.404,32.716 10.648,66.826 m 60.644,-156.346 -54.947,45.426 28.439,68.259 -71.088,10.675"
           inkscape:connector-curvature="0"
           style="fill:none;stroke:#ffffff;stroke-width:6.02909994" />
        <path
           id="path3820"
           d="m 441.22,252.9 42.455,56.804 -65.404,32.716 10.648,66.826 m 60.644,-156.346 -54.947,45.426 28.439,68.259 -71.088,10.675"
           inkscape:connector-curvature="0"
           style="fill:none;stroke:#9d9fa2;stroke-width:1.50730002" />
        <path
           id="path3822"
           d="m 190.17,214.399 c 0,0 48.229,-31.103 57.764,-34.277 9.51,4.441 46.974,20.94 61.579,34.904 1.254,13.325 6.335,55.857 0,72.982 -6.989,6.988 -45.08,34.291 -59.685,34.918 -10.15,-0.627 -59.658,-29.823 -60.926,-34.265 -0.627,-7.616 -3.174,-59.67 1.268,-74.262"
           inkscape:connector-curvature="0"
           style="fill:#ffffff" />
        <path
           id="path3824"
           d="m 361.555,187.738 c 19.29,9.638 45.055,32.997 48.242,38.718 3.174,5.708 2.533,44.427 0.626,50.149 -1.894,5.708 -35.544,36.811 -48.868,39.346 -12.696,-5.082 -46.974,-26.649 -49.521,-27.289 4.441,-9.522 1.919,-67.927 0,-73.636 8.256,-5.068 45.707,-29.209 49.521,-27.288"
           inkscape:connector-curvature="0"
           style="fill:#ffffff" />
        <path
           id="path3826"
           d="m 219.314,171.879 h 66.34 c 4.16,0.422 0.831,-9.945 -1.651,-14.105 -2.496,-4.147 -11.199,-15.346 8.704,-27.365 6.771,-3.238 18.06,-2.534 25.304,0.41 6.196,3.929 23.334,0.064 6.631,-9.536 -14.515,-5.798 -18.662,-6.22 -21.977,-7.475 -3.315,-1.242 -11.008,-9.523 -14.515,-11.609 -3.687,-2.188 -17.421,-3.737 -25.728,2.074 -8.703,2.906 -68.836,9.126 -97.455,23.641 -4.147,2.906 -5.811,7.885 1.664,8.294 7.462,0.41 14.515,0.422 20.313,0.832 -2.074,3.737 -5.389,5.812 -6.63,8.716 -1.242,2.893 -4.979,7.462 8.294,7.053 13.286,-0.422 15.756,-0.013 12.031,4.134 -3.737,4.147 -6.221,5.811 5.389,6.643 11.609,0.832 12.441,-1.651 12.864,0.832 -2.496,2.482 0.422,7.461 0.422,7.461"
           inkscape:connector-curvature="0"
           style="fill:#ffffff" />
        <path
           id="path3828"
           d="m 166.631,132.06 c 5.389,-3.725 63.038,-20.735 80.458,-21.145 -14.105,4.966 -54.744,13.683 -61.796,20.735 -6.63,0.832 -18.662,0.41 -18.662,0.41"
           inkscape:connector-curvature="0"
           style="fill:#9d9fa2" />
        <path
           id="path3830"
           d="m 185.293,146.575 c 2.074,-1.665 53.08,-26.124 59.723,-26.956 6.643,-0.819 2.483,0.832 0,2.073 -2.483,1.242 -38.987,17.011 -47.704,25.305 -7.04,0.409 -12.019,-0.422 -12.019,-0.422"
           inkscape:connector-curvature="0"
           style="fill:#9d9fa2" />
        <path
           id="path3832"
           d="m 204.787,159.016 c 2.483,-2.893 35.506,-27.75 42.303,-29.03 -2.906,4.161 -29.03,22.399 -32.357,29.452 -4.148,0.41 -9.946,-0.422 -9.946,-0.422"
           inkscape:connector-curvature="0"
           style="fill:#9d9fa2" />
        <path
           id="path3834"
           d="m 222.207,166.491 c 1.242,-1.665 25.714,-27.788 29.452,-29.03 3.725,-1.254 -1.37,3.328 -2.355,4.429 -1.139,1.28 -16.716,18.149 -17.983,24.601 -3.597,0.115 -9.114,0 -9.114,0"
           inkscape:connector-curvature="0"
           style="fill:#9d9fa2" />
        <path
           id="path3836"
           d="m 242.942,166.068 c 2.483,-1.651 17.42,-14.105 17.42,-23.218 2.483,1.664 3.725,12.031 -7.885,24.05 -5.797,0 -9.535,-0.832 -9.535,-0.832"
           inkscape:connector-curvature="0"
           style="fill:#9d9fa2" />
        <path
           id="path3838"
           d="M 283.171,167.31 H 271.14 c -0.41,-6.221 0.422,-31.512 10.789,-34.828 0.832,2.483 -6.643,12.428 -4.146,19.903 2.483,7.463 5.388,14.925 5.388,14.925"
           inkscape:connector-curvature="0"
           style="fill:#9d9fa2" />
        <path
           id="path3840"
           d="m 267.415,109.673 c 2.061,0 14.092,-1.664 19.902,0.819 5.812,2.496 8.295,0.422 5.812,-0.819 -2.496,-1.242 -11.826,-6.528 -18.675,-5.811 -4.607,0.486 -8.294,1.254 -9.535,2.496 -3.521,3.802 2.496,3.315 2.496,3.315"
           inkscape:connector-curvature="0"
           style="fill:#9d9fa2" />
        <path
           id="path3842"
           d="m 298.108,122.524 v -4.979 c 0,0 4.595,0.474 6.207,0.832 4.301,0.935 19.917,5.798 21.58,8.294 1.651,2.496 -2.56,2.636 -7.053,0.422 -6.821,-3.365 -20.734,-4.569 -20.734,-4.569"
           inkscape:connector-curvature="0"
           style="fill:#9d9fa2" />
        <path
           id="path3844"
           d="m 284.003,117.545 c 0,0 1.242,5.389 5.812,2.906 4.557,-2.483 -0.832,-7.091 -3.329,-7.053 -1.663,0.039 -8.844,0.922 -10.521,3.725 -1.139,1.907 -0.256,2.918 1.817,2.918 2.061,0 3.725,-2.496 6.221,-2.496"
           inkscape:connector-curvature="0"
           style="fill:#9d9fa2" />
        <path
           id="path3846"
           d="m 72.632,217.688 c 2.022,1.498 11.609,7.155 15.142,8.166 m 1.164,50.751 c -2.675,1.766 -14.015,9.151 -16.038,10.163 m 74.968,91.592 c -1.421,1.166 -12.518,9.549 -14.541,11.072 m 57.969,15.181 c -0.512,1.522 -1.472,14.745 -1.472,17.278 m 118.639,-16.766 c 0.499,2.534 1.651,14.45 1.651,16.485 m 41.765,-43.25 c 3.033,2.535 12.594,10.202 14.63,11.712 m 44.452,-112.2 c 2.022,1.511 14.067,7.386 16.089,8.896 m -17.253,-60.312 c 3.187,-1.101 16.575,-6.976 18.086,-8.499 m -76.004,-91.593 c 0,0 10.316,-10.214 13.35,-12.735 M 309.282,81.182 c 0,2.01 -0.832,16.908 -1.331,17.919 m -115.643,1.511 c 0,0 -2.304,-17.638 -3.315,-19.161 m -56.511,31.896 c 0,0 13.363,9.996 14.886,12.019 m 141.435,-21.171 c 7.68,-2.201 14.489,-3.737 18.649,-4.095 13.119,4.057 35.352,16.677 44.427,26.264 8.588,17.177 10.111,49.496 9.1,60.593 10.599,4.057 45.362,31.563 48.984,37.887 3.584,6.271 3.533,44.939 1.51,51.505 -2.021,6.565 -35.301,37.054 -47.921,40.075 0,5.056 -4.097,53.348 -11.673,61.936 -7.577,8.59 -34.84,25.241 -43.416,26.765 -9.101,-2.534 -50.008,-12.122 -58.084,-14.144 -7.078,1.522 -52.017,13.133 -59.083,13.632 -8.089,-2.022 -35.352,-13.632 -43.428,-26.253 -8.077,-12.62 -10.893,-55.601 -10.893,-61.654 0,0 -43.646,-26.726 -48.203,-39.846 -2.01,-13.132 -3.52,-40.906 0.512,-51.505 5.056,-11.635 48.484,-38.398 48.484,-38.398 0,-4.032 2.521,-50.494 9.6,-61.591 10.086,-7.578 22.719,-18.7 43.416,-24.255 8.23,0.615 24.383,5.465 37.669,10.547"
           inkscape:connector-curvature="0"
           style="fill:none;stroke:#ffffff;stroke-width:3.0144999" />
        <path
           id="path3848"
           d="m 290.058,251.133 c 0,21.977 -17.817,39.794 -39.794,39.794 -21.977,0 -39.793,-17.817 -39.793,-39.794 0,-21.964 17.816,-39.794 39.793,-39.794 21.976,0 39.794,17.83 39.794,39.794"
           inkscape:connector-curvature="0"
           style="fill:#c1272d" />
        <path
           id="path3850"
           d="m 262.833,243.338 c -2.944,-2.752 -10.022,-6.016 -12.71,-7.257 0,0 -0.384,-0.18 -0.563,-0.256 -2.15,0.781 -11.776,6.976 -12.454,7.398 -0.41,1.434 -0.525,4.429 -0.525,7.488 0,3.725 0.179,7.527 0.269,8.602 0.486,0.984 11.123,7.219 13.119,7.333 3.148,-0.127 11.469,-6.118 12.877,-7.475 0.499,-1.356 0.665,-3.469 0.665,-5.733 0,-3.418 -0.384,-7.207 -0.602,-9.306 0,0 -0.051,-0.602 -0.076,-0.794"
           inkscape:connector-curvature="0"
           style="fill:#9d9fa2" />
        <path
           id="path3852"
           d="m 274.558,265.482 c 2.764,-0.794 10.393,-7.564 10.789,-8.87 0.423,-1.396 -0.025,-9.741 -0.332,-11.213 -0.295,-1.331 -7.898,-6.976 -10.471,-8.051 l -11.046,6.003 0.09,0.717 c 0.358,3.699 1.126,11.25 -0.077,15.04 l 11.047,6.374 z"
           inkscape:connector-curvature="0"
           style="fill:#9d9fa2" />
        <path
           id="path3854"
           d="m 272.919,223.691 c 1.522,3.264 1.983,8.55 1.983,11.635 0,0.588 -0.025,1.049 -0.051,1.446 2.368,1.037 10.265,6.63 10.776,8.435 1.012,-0.397 2.881,-1.19 3.712,-1.613 -1.728,-9.011 -6.501,-16.947 -13.221,-22.681 l -3.199,2.778 z"
           inkscape:connector-curvature="0"
           style="fill:#9d9fa2" />
        <path
           id="path3856"
           d="m 275.632,220.466 c -3.597,-2.969 -7.705,-5.299 -12.185,-6.874 -0.052,0.909 -0.218,2.944 -0.346,3.981 2.777,0.934 7.181,3.405 9.407,5.593 l 3.124,-2.7 z"
           inkscape:connector-curvature="0"
           style="fill:#9d9fa2" />
        <path
           id="path3858"
           d="m 272.547,279.664 c -1.817,1.869 -7.064,5.081 -9.228,5.721 0.128,0.884 0.319,2.381 0.396,3.213 4.313,-1.548 8.281,-3.813 11.75,-6.669 l -2.918,-2.265 z"
           inkscape:connector-curvature="0"
           style="fill:#9d9fa2" />
        <path
           id="path3860"
           d="m 285.744,245.86 c 0.229,1.638 0.447,5.299 0.447,7.986 0,1.357 -0.063,2.472 -0.204,2.944 0,0.025 -0.039,0.064 -0.039,0.09 l 3.366,1.958 c 0.487,-2.495 0.743,-5.056 0.743,-7.705 0,-2.329 -0.205,-4.633 -0.603,-6.86 -1.048,0.525 -2.891,1.293 -3.71,1.587"
           inkscape:connector-curvature="0"
           style="fill:#9d9fa2" />
        <path
           id="path3862"
           d="m 287.472,258.532 -1.869,-1.088 c -1.638,2.239 -7.986,7.757 -10.764,8.614 -0.025,1.126 -0.281,10.572 -1.882,13.081 l 3.021,2.354 c 6.579,-5.58 11.314,-13.247 13.184,-21.976 l -1.69,-0.985 z"
           inkscape:connector-curvature="0"
           style="fill:#9d9fa2" />
        <polygon
           id="polygon3864"
           points="381.561,245.783 375.494,261.245 363.283,261.194 369.747,275.67 361.376,295.023 334.101,233.688 340.884,217.113 381.202,217.113 386.847,232.933 350.676,232.933 356.346,245.681 "
           style="fill:#c1272d" />
        <polygon
           id="polygon3866"
           points="382.444,243.479 386.13,235.198 354.067,235.198 357.83,243.479 "
           style="fill:#9d9fa2" />
        <polygon
           id="polygon3868"
           points="366.765,263.447 374.419,263.447 370.655,272.125 "
           style="fill:#9d9fa2" />
        <path
           id="path3870"
           d="m 285.987,256.791 c 0.141,-0.473 0.204,-1.587 0.204,-2.944 0,-2.687 -0.218,-6.348 -0.447,-7.986 1.088,-0.41 4.083,-1.638 4.453,-2.01 l -0.46,-0.474 c -0.269,0.23 -2.867,1.344 -4.109,1.831 -0.512,-1.805 -8.408,-7.398 -10.776,-8.435 0.025,-0.397 0.051,-0.858 0.051,-1.446 0,-3.084 -0.461,-8.371 -1.983,-11.635 l 3.455,-2.996 -0.435,-0.511 -3.431,2.982 c -2.214,-2.176 -6.579,-4.633 -9.356,-5.555 0.154,-0.768 0.333,-4.3 0.333,-4.479 h -0.665 c 0,0.5 -0.218,3.994 -0.308,4.313 l 0.09,0.051 c -2.867,0.294 -10.086,2.56 -13.056,4.492 -1.932,-1.318 -8.588,-3.737 -11.941,-4.223 -0.18,-1.652 -0.5,-4.339 -0.717,-4.685 l -0.563,0.358 c 0.115,0.256 0.384,2.33 0.602,4.262 -4.173,1.113 -6.822,3.136 -8.947,4.774 l -0.589,0.448 c -0.755,-0.678 -2.854,-2.15 -3.328,-2.47 l -0.371,0.538 c 1.165,0.819 2.829,2.022 3.276,2.458 -1.485,2.969 -2.022,11.993 -2.048,13.337 -0.96,0.602 -9.395,5.875 -10.649,8.448 -0.716,-0.217 -3.007,-1.548 -3.468,-1.882 l -0.397,0.525 c 0.435,0.32 2.803,1.728 3.674,1.984 -0.308,1.152 -0.436,2.79 -0.436,4.531 0,2.304 0.218,4.71 0.423,6.221 l -3.623,2.138 0.308,0.602 3.533,-2.1 c 1.562,3.021 9.792,8.281 10.739,8.883 0.025,1.907 0.41,10.022 2.022,12.992 l -3.354,2.533 0.41,0.525 3.302,-2.496 c 1.971,2.649 7.321,4.979 9.28,5.568 -0.128,0.934 -0.269,3.34 -0.269,3.725 h 0.666 c 0,-0.551 0.153,-2.982 0.256,-3.687 1.664,-0.218 6.22,-1.344 9.625,-2.188 0,0 3.2,-0.769 3.212,-0.769 0,0.025 3.571,0.896 3.571,0.896 l 8.896,2.176 c 0.128,0.833 0.461,3.342 0.461,3.699 h 0.652 c 0,-0.409 -0.319,-2.854 -0.46,-3.763 2.342,-0.69 7.461,-3.853 9.253,-5.683 l 3.276,2.548 0.397,-0.539 -3.264,-2.533 c 1.601,-2.509 1.856,-11.955 1.882,-13.081 2.777,-0.857 9.126,-6.375 10.764,-8.614 l 1.869,1.088 2.022,1.189 0.409,-0.524 -3.955,-2.316 c 0,-0.027 0.039,-0.066 0.039,-0.091 m -11.75,-21.414 c 0,0.563 -0.014,1.024 -0.039,1.396 l -10.995,5.99 c -3.071,-2.816 -9.868,-5.926 -12.812,-7.283 l -0.486,-0.23 -0.039,-12.697 c 2.918,-1.895 10.368,-4.211 12.863,-4.429 2.599,0.832 7.527,3.559 9.536,5.696 1.511,3.046 1.972,8.498 1.972,11.557 m -11.391,23.794 c -1.408,1.356 -9.729,7.348 -12.877,7.475 -1.997,-0.114 -12.633,-6.349 -13.119,-7.333 -0.09,-1.075 -0.269,-4.877 -0.269,-8.602 0,-3.059 0.115,-6.054 0.525,-7.488 0.678,-0.422 10.304,-6.617 12.454,-7.398 0.179,0.077 0.563,0.256 0.563,0.256 2.688,1.241 9.766,4.505 12.71,7.257 0.025,0.192 0.076,0.794 0.076,0.794 0.218,2.099 0.602,5.888 0.602,9.306 0,2.265 -0.166,4.377 -0.665,5.733 M 228.389,223 c 2.086,-1.613 4.685,-3.597 8.639,-4.659 2.829,0.217 10.266,2.879 12.186,4.211 l 0.013,12.684 c -2.368,0.96 -11.123,6.566 -12.428,7.398 l -11.212,-5.862 c 0.051,-1.587 0.614,-10.943 2.061,-13.222 0.024,10e-4 0.741,-0.55 0.741,-0.55 m -13.644,33.702 c -0.218,-1.498 -0.436,-3.981 -0.436,-6.298 0,-1.971 0.154,-3.802 0.538,-4.838 0.986,-2.253 9.19,-7.45 10.406,-8.205 l 11.174,5.837 c -0.896,3.533 -0.372,14.143 -0.243,16.038 l -10.816,6.322 c -1.279,-0.806 -9.74,-6.284 -10.623,-8.856 m 32.063,25.764 c -3.481,0.858 -8.704,2.138 -9.766,2.215 -1.511,-0.385 -7.552,-2.931 -9.293,-5.645 -1.625,-2.548 -2.035,-10.969 -2.061,-12.902 l 10.79,-6.297 c 1.69,1.791 10.714,6.874 13.171,7.411 v 14.54 c -0.96,0.218 -2.841,0.678 -2.841,0.678 m 16.063,2.343 c -0.013,-0.025 -8.973,-2.24 -8.973,-2.24 l -3.584,-0.845 v -14.463 c 3.481,-0.461 11.008,-5.837 12.889,-7.565 l 10.982,6.336 c -0.025,2.573 -0.513,11.38 -1.933,12.967 -1.561,1.791 -7.525,5.477 -9.381,5.81 m 11.687,-19.327 -11.047,-6.374 c 1.203,-3.789 0.436,-11.341 0.077,-15.04 l -0.09,-0.717 11.046,-6.003 c 2.572,1.075 10.176,6.72 10.471,8.051 0.218,1.037 0.512,5.555 0.512,8.563 0,1.241 -0.051,2.239 -0.18,2.649 -0.397,1.306 -8.026,8.077 -10.789,8.871"
           inkscape:connector-curvature="0"
           style="fill:#ffffff" />
        <polygon
           id="polygon3872"
           points="54.188,236.337 20.641,232.779 22.752,212.901 25.901,213.234 24.186,229.4 35.437,230.59 36.704,218.597 39.865,218.942 38.598,230.936 54.585,232.625 "
           style="fill:#c1272d" />
        <polygon
           id="polygon3874"
           points="54.188,236.337 20.641,232.779 22.752,212.901 25.901,213.234 24.186,229.4 35.437,230.59 36.704,218.597 39.865,218.942 38.598,230.936 54.585,232.625 "
           style="fill:none;stroke:#c1272d;stroke-width:1.50730002" />
        <path
           id="path3876"
           d="m 27.936,185.933 4.044,6.221 -0.64,2.483 -4.441,-4.646 1.037,-4.058 z m 7.411,-1.05 2.521,0.64 -3.34,13.146 9.024,2.291 2.368,-9.344 2.535,0.64 -2.381,9.344 10.278,2.624 3.545,-13.887 2.521,0.64 -4.288,16.869 -26.892,-6.847 4.109,-16.116 z"
           inkscape:connector-curvature="0"
           style="fill:#c1272d" />
        <path
           id="path3878"
           d="m 27.936,185.933 4.044,6.221 -0.64,2.483 -4.441,-4.646 1.037,-4.058 z m 7.411,-1.05 2.521,0.64 -3.34,13.146 9.024,2.291 2.368,-9.344 2.535,0.64 -2.381,9.344 10.278,2.624 3.545,-13.887 2.521,0.64 -4.288,16.869 -26.892,-6.847 4.109,-16.116 z"
           inkscape:connector-curvature="0"
           style="fill:none;stroke:#c1272d;stroke-width:0.76020002" />
        <path
           id="path3880"
           d="m 39.456,172.442 2.829,-6.898 c 2.867,-6.976 9.164,-9.792 17.599,-6.323 7.526,3.084 11.161,9.318 8.012,16.998 l -2.764,6.745 -25.676,-10.522 z m 24.421,6.694 1.575,-3.84 c 2.419,-5.914 0.153,-10.406 -6.746,-13.234 -7.5,-3.085 -11.865,-0.73 -14.028,4.544 l -1.638,3.98 20.837,8.55 z"
           inkscape:connector-curvature="0"
           style="fill:#c1272d" />
        <path
           id="path3882"
           d="m 39.456,172.442 2.829,-6.898 c 2.867,-6.976 9.164,-9.792 17.599,-6.323 7.526,3.084 11.161,9.318 8.012,16.998 l -2.764,6.745 -25.676,-10.522 z m 24.421,6.694 1.575,-3.84 c 2.419,-5.914 0.153,-10.406 -6.746,-13.234 -7.5,-3.085 -11.865,-0.73 -14.028,4.544 l -1.638,3.98 20.837,8.55 z"
           inkscape:connector-curvature="0"
           style="fill:none;stroke:#c1272d;stroke-width:0.76020002" />
        <path
           id="path3884"
           d="m 52.857,128.95 2.227,7.091 -1.292,2.227 -3.021,-5.683 2.086,-3.635 z m 7.411,0.985 2.266,1.293 -6.758,11.775 8.076,4.62 4.8,-8.357 2.266,1.293 -4.8,8.37 9.203,5.274 7.129,-12.416 2.266,1.292 -8.666,15.103 -24.064,-13.822 8.282,-14.425 z"
           inkscape:connector-curvature="0"
           style="fill:#c1272d" />
        <path
           id="path3886"
           d="m 52.857,128.95 2.227,7.091 -1.292,2.227 -3.021,-5.683 2.086,-3.635 z m 7.411,0.985 2.266,1.293 -6.758,11.775 8.076,4.62 4.8,-8.357 2.266,1.293 -4.8,8.37 9.203,5.274 7.129,-12.416 2.266,1.292 -8.666,15.103 -24.064,-13.822 8.282,-14.425 z"
           inkscape:connector-curvature="0"
           style="fill:none;stroke:#c1272d;stroke-width:0.76020002" />
        <path
           id="path3888"
           d="m 89.489,136.066 -21.913,-17.01 5.465,-7.053 c 3.661,-4.736 7.795,-5.658 11.443,-2.829 3.098,2.394 3.468,5.555 2.317,8.793 l 14.054,3.469 -2.061,2.637 -13.401,-3.29 -3.981,5.133 9.958,7.731 -1.881,2.419 z m -10.137,-11.75 3.405,-4.403 c 2.598,-3.341 2.726,-6.067 -0.039,-8.218 -2.944,-2.291 -5.375,-0.959 -7.807,2.164 l -3.393,4.377 7.834,6.08 z"
           inkscape:connector-curvature="0"
           style="fill:#c1272d" />
        <path
           id="path3890"
           d="m 89.489,136.066 -21.913,-17.01 5.465,-7.053 c 3.661,-4.736 7.795,-5.658 11.443,-2.829 3.098,2.394 3.468,5.555 2.317,8.793 l 14.054,3.469 -2.061,2.637 -13.401,-3.29 -3.981,5.133 9.958,7.731 -1.881,2.419 z m -10.137,-11.75 3.405,-4.403 c 2.598,-3.341 2.726,-6.067 -0.039,-8.218 -2.944,-2.291 -5.375,-0.959 -7.807,2.164 l -3.393,4.377 7.834,6.08 z"
           inkscape:connector-curvature="0"
           style="fill:none;stroke:#c1272d;stroke-width:0.76020002" />
        <path
           id="path3892"
           d="m 104.874,116.79 -13.35,-25.778 3.277,-3.212 25.51,13.823 -2.291,2.266 -7.962,-4.365 -7.104,6.963 4.224,8.038 -2.304,2.265 z m -3.2,-12.697 6.016,-5.901 -12.864,-7.411 -0.307,0.307 7.155,13.005 z"
           inkscape:connector-curvature="0"
           style="fill:#c1272d" />
        <path
           id="path3894"
           d="m 104.874,116.79 -13.35,-25.778 3.277,-3.212 25.51,13.823 -2.291,2.266 -7.962,-4.365 -7.104,6.963 4.224,8.038 -2.304,2.265 z m -3.2,-12.697 6.016,-5.901 -12.864,-7.411 -0.307,0.307 7.155,13.005 z"
           inkscape:connector-curvature="0"
           style="fill:none;stroke:#c1272d;stroke-width:0.76020002" />
        <polygon
           id="polygon3896"
           points="130.012,94.007 114.781,74.014 108.189,79.031 106.602,76.958 122.255,65.029 123.843,67.115 117.238,72.145 132.457,92.138 "
           style="fill:#c1272d" />
        <polygon
           id="polygon3898"
           points="130.012,94.007 114.781,74.014 108.189,79.031 106.602,76.958 122.255,65.029 123.843,67.115 117.238,72.145 132.457,92.138 "
           style="fill:none;stroke:#c1272d;stroke-width:0.76020002" />
        <polygon
           id="polygon3900"
           points="144.245,83.972 129.462,60.485 132.073,58.847 146.856,82.334 "
           style="fill:#c1272d" />
        <polygon
           id="polygon3902"
           points="144.245,83.972 129.462,60.485 132.073,58.847 146.856,82.334 "
           style="fill:none;stroke:#c1272d;stroke-width:0.76020002" />
        <path
           id="path3904"
           d="m 150.927,47.954 c 6.093,-3.008 11.929,-0.307 16.025,8.013 4.083,8.307 2.675,14.565 -3.431,17.574 -6.105,3.008 -11.941,0.294 -16.025,-8.013 -4.082,-8.307 -2.675,-14.578 3.431,-17.574 m 11.429,23.231 c 4.39,-2.15 5.312,-6.796 1.843,-13.862 -3.495,-7.078 -7.744,-9.177 -12.122,-7.027 -4.377,2.163 -5.298,6.81 -1.817,13.888 3.469,7.066 7.719,9.164 12.096,7.001"
           inkscape:connector-curvature="0"
           style="fill:#c1272d" />
        <path
           id="path3906"
           d="m 150.927,47.954 c 6.093,-3.008 11.929,-0.307 16.025,8.013 4.083,8.307 2.675,14.565 -3.431,17.574 -6.105,3.008 -11.941,0.294 -16.025,-8.013 -4.082,-8.307 -2.675,-14.578 3.431,-17.574 z m 11.429,23.231 c 4.39,-2.15 5.312,-6.796 1.843,-13.862 -3.495,-7.078 -7.744,-9.177 -12.122,-7.027 -4.377,2.163 -5.298,6.81 -1.817,13.888 3.469,7.066 7.719,9.164 12.096,7.001 z"
           inkscape:connector-curvature="0"
           style="fill:none;stroke:#c1272d;stroke-width:0.76020002" />
        <polygon
           id="polygon3908"
           points="191.501,32.863 199.859,59.32 197.44,60.088 176.564,40.735 176.487,40.761 183.962,64.351 181.313,65.182 172.955,38.726 177.153,37.407 195.149,54.124 195.302,54.072 188.852,33.708 "
           style="fill:#c1272d" />
        <polygon
           id="polygon3910"
           points="191.501,32.863 199.859,59.32 197.44,60.088 176.564,40.735 176.487,40.761 183.962,64.351 181.313,65.182 172.955,38.726 177.153,37.407 195.149,54.124 195.302,54.072 188.852,33.708 "
           style="fill:none;stroke:#c1272d;stroke-width:0.76020002" />
        <path
           id="path3912"
           d="m 261.616,42.885 c -1.407,6.272 -4.787,10.637 -11.711,10.739 -7.552,0.141 -12.966,-5.286 -13.171,-17.113 -0.179,-10.982 4.493,-17.42 12.608,-17.548 6.272,-0.103 9.984,3.481 11.571,9.625 l -3.443,1.075 c -1.293,-4.735 -3.481,-7.603 -8.524,-7.513 -4.864,0.077 -8.627,4.621 -8.474,14.297 0.167,9.766 4.07,14.093 9.677,14.003 5.184,-0.09 7.129,-4.044 8.09,-8.179 l 3.377,0.614 z"
           inkscape:connector-curvature="0"
           style="fill:#c1272d" />
        <path
           id="path3914"
           d="m 261.616,42.885 c -1.407,6.272 -4.787,10.637 -11.711,10.739 -7.552,0.141 -12.966,-5.286 -13.171,-17.113 -0.179,-10.982 4.493,-17.42 12.608,-17.548 6.272,-0.103 9.984,3.481 11.571,9.625 l -3.443,1.075 c -1.293,-4.735 -3.481,-7.603 -8.524,-7.513 -4.864,0.077 -8.627,4.621 -8.474,14.297 0.167,9.766 4.07,14.093 9.677,14.003 5.184,-0.09 7.129,-4.044 8.09,-8.179 l 3.377,0.614 z"
           inkscape:connector-curvature="0"
           style="fill:none;stroke:#c1272d;stroke-width:1.50730002" />
        <path
           id="path3916"
           d="m 267.799,53.701 12.492,-26.213 4.519,0.678 4.391,28.697 -3.188,-0.474 -1.318,-8.972 -9.855,-1.459 -3.854,8.217 -3.187,-0.474 z m 8.179,-10.214 8.332,1.229 -1.868,-14.719 -0.422,-0.064 -6.042,13.554 z"
           inkscape:connector-curvature="0"
           style="fill:#c1272d" />
        <path
           id="path3918"
           d="m 267.799,53.701 12.492,-26.213 4.519,0.678 4.391,28.697 -3.188,-0.474 -1.318,-8.972 -9.855,-1.459 -3.854,8.217 -3.187,-0.474 z m 8.179,-10.214 8.332,1.229 -1.868,-14.719 -0.422,-0.064 -6.042,13.554 z"
           inkscape:connector-curvature="0"
           style="fill:none;stroke:#c1272d;stroke-width:0.76020002" />
        <polygon
           id="polygon3920"
           points="295.292,58.398 302.626,31.647 305.583,32.467 298.94,56.696 311.624,60.165 310.921,62.699 "
           style="fill:#c1272d" />
        <polygon
           id="polygon3922"
           points="295.292,58.398 302.626,31.647 305.583,32.467 298.94,56.696 311.624,60.165 310.921,62.699 "
           style="fill:none;stroke:#c1272d;stroke-width:0.76020002" />
        <path
           id="path3924"
           d="m 344.391,46.239 -1.011,2.406 -12.506,-5.248 -3.608,8.576 8.895,3.725 -0.997,2.406 -8.909,-3.712 -4.096,9.779 13.222,5.542 -1.011,2.406 -16.052,-6.732 10.715,-25.586 15.358,6.438 z m 0.064,-7.488 -6.771,3.098 -2.367,-0.999 5.273,-3.712 3.865,1.613 z"
           inkscape:connector-curvature="0"
           style="fill:#c1272d" />
        <path
           id="path3926"
           d="m 344.391,46.239 -1.011,2.406 -12.506,-5.248 -3.608,8.576 8.895,3.725 -0.997,2.406 -8.909,-3.712 -4.096,9.779 13.222,5.542 -1.011,2.406 -16.052,-6.732 10.715,-25.586 15.358,6.438 z m 0.064,-7.488 -6.771,3.098 -2.367,-0.999 5.273,-3.712 3.865,1.613 z"
           inkscape:connector-curvature="0"
           style="fill:none;stroke:#c1272d;stroke-width:0.76020002" />
        <path
           id="path3928"
           d="m 356.09,52.153 6.412,3.801 c 6.464,3.853 8.333,10.509 3.661,18.329 -4.16,7.001 -10.842,9.689 -17.996,5.44 l -6.259,-3.738 14.182,-23.832 z m -10.214,23.166 3.57,2.112 c 5.492,3.264 10.278,1.689 14.093,-4.723 4.134,-6.976 2.444,-11.635 -2.444,-14.54 l -3.699,-2.202 -11.52,19.353 z"
           inkscape:connector-curvature="0"
           style="fill:#c1272d" />
        <path
           id="path3930"
           d="m 356.09,52.153 6.412,3.801 c 6.464,3.853 8.333,10.509 3.661,18.329 -4.16,7.001 -10.842,9.689 -17.996,5.44 l -6.259,-3.738 14.182,-23.832 z m -10.214,23.166 3.57,2.112 c 5.492,3.264 10.278,1.689 14.093,-4.723 4.134,-6.976 2.444,-11.635 -2.444,-14.54 l -3.699,-2.202 -11.52,19.353 z"
           inkscape:connector-curvature="0"
           style="fill:none;stroke:#c1272d;stroke-width:0.76020002" />
        <path
           id="path3932"
           d="m 389.126,73.771 c 5.324,4.249 5.362,10.674 -0.41,17.907 -5.773,7.244 -12.045,8.639 -17.356,4.39 -5.324,-4.236 -5.363,-10.662 0.41,-17.907 5.771,-7.232 12.043,-8.64 17.356,-4.39 M 372.985,94.02 c 3.813,3.059 8.409,1.907 13.324,-4.262 4.914,-6.157 5.005,-10.905 1.189,-13.938 -3.813,-3.046 -8.421,-1.907 -13.323,4.262 -4.915,6.156 -5.004,10.904 -1.19,13.938"
           inkscape:connector-curvature="0"
           style="fill:#c1272d" />
        <path
           id="path3934"
           d="m 389.126,73.771 c 5.324,4.249 5.362,10.674 -0.41,17.907 -5.773,7.244 -12.045,8.639 -17.356,4.39 -5.324,-4.236 -5.363,-10.662 0.41,-17.907 5.771,-7.232 12.043,-8.64 17.356,-4.39 z M 372.985,94.02 c 3.813,3.059 8.409,1.907 13.324,-4.262 4.914,-6.157 5.005,-10.905 1.189,-13.938 -3.813,-3.046 -8.421,-1.907 -13.323,4.262 -4.915,6.156 -5.004,10.904 -1.19,13.938 z"
           inkscape:connector-curvature="0"
           style="fill:none;stroke:#c1272d;stroke-width:0.76020002" />
        <polygon
           id="polygon3936"
           points="420.65,104.669 400.248,123.472 398.533,121.603 407.211,94.493 407.146,94.429 388.946,111.209 387.077,109.174 407.479,90.372 410.488,93.61 402.961,116.995 403.064,117.123 418.782,102.634 "
           style="fill:#c1272d" />
        <polygon
           id="polygon3938"
           points="420.65,104.669 400.248,123.472 398.533,121.603 407.211,94.493 407.146,94.429 388.946,111.209 387.077,109.174 407.479,90.372 410.488,93.61 402.961,116.995 403.064,117.123 418.782,102.634 "
           style="fill:none;stroke:#c1272d;stroke-width:0.76020002" />
        <polygon
           id="polygon3940"
           points="405.905,130.985 428.177,114.435 430.007,116.892 407.748,133.442 "
           style="fill:#c1272d" />
        <polygon
           id="polygon3942"
           points="405.905,130.985 428.177,114.435 430.007,116.892 407.748,133.442 "
           style="fill:none;stroke:#c1272d;stroke-width:0.76020002" />
        <polygon
           id="polygon3944"
           points="426.142,136.885 417.079,142.376 424.49,154.638 422.264,155.995 413.239,141.096 436.97,126.709 445.597,140.942 443.37,142.313 436.329,130.69 428.368,135.516 433.373,143.771 431.134,145.128 "
           style="fill:#c1272d" />
        <polygon
           id="polygon3946"
           points="426.142,136.885 417.079,142.376 424.49,154.638 422.264,155.995 413.239,141.096 436.97,126.709 445.597,140.942 443.37,142.313 436.329,130.69 428.368,135.516 433.373,143.771 431.134,145.128 "
           style="fill:none;stroke:#c1272d;stroke-width:0.76020002" />
        <polygon
           id="polygon3948"
           points="459.074,170.1 433.553,180.992 432.554,178.663 449.782,156.007 449.757,155.931 427.012,165.658 425.924,163.111 451.421,152.219 453.174,156.276 438.275,175.808 438.34,175.936 457.974,167.553 "
           style="fill:#c1272d" />
        <polygon
           id="polygon3950"
           points="459.074,170.1 433.553,180.992 432.554,178.663 449.782,156.007 449.757,155.931 427.012,165.658 425.924,163.111 451.421,152.219 453.174,156.276 438.275,175.808 438.34,175.936 457.974,167.553 "
           style="fill:none;stroke:#c1272d;stroke-width:0.76020002" />
        <polygon
           id="polygon3952"
           points="468.393,201.804 441.526,208.792 440.886,206.348 461.302,186.496 461.276,186.407 437.328,192.653 436.624,189.978 463.49,182.976 464.604,187.251 446.966,204.364 447.004,204.518 467.688,199.129 "
           style="fill:#c1272d" />
        <polygon
           id="polygon3954"
           points="468.393,201.804 441.526,208.792 440.886,206.348 461.302,186.496 461.276,186.407 437.328,192.653 436.624,189.978 463.49,182.976 464.604,187.251 446.966,204.364 447.004,204.518 467.688,199.129 "
           style="fill:none;stroke:#c1272d;stroke-width:0.76020002" />
        <polygon
           id="polygon3956"
           points="456.745,220.466 446.198,221.669 447.836,235.915 445.226,236.209 443.267,218.904 470.824,215.756 472.718,232.292 470.121,232.587 468.585,219.109 459.343,220.159 460.431,229.758 457.833,230.04 "
           style="fill:#c1272d" />
        <polygon
           id="polygon3958"
           points="456.745,220.466 446.198,221.669 447.836,235.915 445.226,236.209 443.267,218.904 470.824,215.756 472.718,232.292 470.121,232.587 468.585,219.109 459.343,220.159 460.431,229.758 457.833,230.04 "
           style="fill:none;stroke:#c1272d;stroke-width:0.76020002" />
        <path
           id="path3960"
           d="m 109.981,402.103 5.721,4.787 c 5.772,4.825 6.553,11.699 0.704,18.675 -5.222,6.26 -12.249,7.833 -18.623,2.508 l -5.606,-4.684 17.804,-21.286 z m -13.773,21.248 3.187,2.662 c 4.89,4.108 9.869,3.302 14.656,-2.419 5.197,-6.222 4.275,-11.11 -0.09,-14.745 l -3.289,-2.765 -14.464,17.267 z"
           inkscape:connector-curvature="0"
           style="fill:#c1272d" />
        <path
           id="path3962"
           d="m 109.981,402.103 5.721,4.787 c 5.772,4.825 6.553,11.699 0.704,18.675 -5.222,6.26 -12.249,7.833 -18.623,2.508 l -5.606,-4.684 17.804,-21.286 z m -13.773,21.248 3.187,2.662 c 4.89,4.108 9.869,3.302 14.656,-2.419 5.197,-6.222 4.275,-11.11 -0.09,-14.745 l -3.289,-2.765 -14.464,17.267 z"
           inkscape:connector-curvature="0"
           style="fill:none;stroke:#c1272d;stroke-width:0.76020002" />
        <polygon
           id="polygon3964"
           points="127.977,434.244 122.333,443.228 134.467,450.87 133.084,453.083 118.339,443.804 133.109,420.318 147.189,429.175 145.807,431.389 134.326,424.17 129.372,432.042 137.539,437.174 136.143,439.388 "
           style="fill:#c1272d" />
        <polygon
           id="polygon3966"
           points="127.977,434.244 122.333,443.228 134.467,450.87 133.084,453.083 118.339,443.804 133.109,420.318 147.189,429.175 145.807,431.389 134.326,424.17 129.372,432.042 137.539,437.174 136.143,439.388 "
           style="fill:none;stroke:#c1272d;stroke-width:0.76020002" />
        <polygon
           id="polygon3968"
           points="180.25,473.5 189.056,440.924 208.358,446.147 207.526,449.219 191.833,444.982 188.89,455.9 200.524,459.036 199.693,462.095 188.045,458.958 183.859,474.472 "
           style="fill:#c1272d" />
        <polygon
           id="polygon3970"
           points="180.25,473.5 189.056,440.924 208.358,446.147 207.526,449.219 191.833,444.982 188.89,455.9 200.524,459.036 199.693,462.095 188.045,458.958 183.859,474.472 "
           style="fill:none;stroke:#c1272d;stroke-width:1.50730002" />
        <path
           id="path3972"
           d="m 226.751,454.389 c 6.745,0.743 10.227,6.157 9.203,15.373 -1.011,9.202 -5.568,13.721 -12.339,12.979 -6.758,-0.743 -10.213,-6.145 -9.215,-15.359 1.023,-9.204 5.593,-13.735 12.351,-12.993 m -2.842,25.753 c 4.852,0.537 8.128,-2.893 8.985,-10.714 0.87,-7.846 -1.587,-11.89 -6.426,-12.428 -4.863,-0.537 -8.14,2.881 -9.01,10.727 -0.857,7.82 1.6,11.877 6.451,12.415"
           inkscape:connector-curvature="0"
           style="fill:#c1272d" />
        <path
           id="path3974"
           d="m 226.751,454.389 c 6.745,0.743 10.227,6.157 9.203,15.373 -1.011,9.202 -5.568,13.721 -12.339,12.979 -6.758,-0.743 -10.213,-6.145 -9.215,-15.359 1.023,-9.204 5.593,-13.735 12.351,-12.993 z m -2.842,25.753 c 4.852,0.537 8.128,-2.893 8.985,-10.714 0.87,-7.846 -1.587,-11.89 -6.426,-12.428 -4.863,-0.537 -8.14,2.881 -9.01,10.727 -0.857,7.82 1.6,11.877 6.451,12.415 z"
           inkscape:connector-curvature="0"
           style="fill:none;stroke:#c1272d;stroke-width:0.76020002" />
        <path
           id="path3976"
           d="m 257.393,455.516 c 6.81,-0.244 11.021,4.595 11.366,13.849 0.346,9.255 -3.507,14.399 -10.316,14.643 -6.784,0.257 -11.008,-4.595 -11.353,-13.849 -0.334,-9.255 3.519,-14.387 10.303,-14.643 m 0.96,25.893 c 4.877,-0.191 7.616,-4.057 7.321,-11.929 -0.282,-7.885 -3.302,-11.532 -8.191,-11.353 -4.877,0.179 -7.616,4.044 -7.321,11.916 0.281,7.872 3.315,11.533 8.191,11.366"
           inkscape:connector-curvature="0"
           style="fill:#c1272d" />
        <path
           id="path3978"
           d="m 257.393,455.516 c 6.81,-0.244 11.021,4.595 11.366,13.849 0.346,9.255 -3.507,14.399 -10.316,14.643 -6.784,0.257 -11.008,-4.595 -11.353,-13.849 -0.334,-9.255 3.519,-14.387 10.303,-14.643 z m 0.96,25.893 c 4.877,-0.191 7.616,-4.057 7.321,-11.929 -0.282,-7.885 -3.302,-11.532 -8.191,-11.353 -4.877,0.179 -7.616,4.044 -7.321,11.916 0.281,7.872 3.315,11.533 8.191,11.366 z"
           inkscape:connector-curvature="0"
           style="fill:none;stroke:#c1272d;stroke-width:0.76020002" />
        <polygon
           id="polygon3980"
           points="289.071,480.5 284.72,455.747 276.541,457.18 276.08,454.594 295.472,451.19 295.92,453.776 287.753,455.221 292.104,479.963 "
           style="fill:#c1272d" />
        <polygon
           id="polygon3982"
           points="289.071,480.5 284.72,455.747 276.541,457.18 276.08,454.594 295.472,451.19 295.92,453.776 287.753,455.221 292.104,479.963 "
           style="fill:none;stroke:#c1272d;stroke-width:0.76020002" />
        <path
           id="path3984"
           d="m 305.237,448.694 9.728,-3.148 c 4.607,-1.485 8.332,0.537 9.484,4.121 0.935,2.893 0.333,5.389 -2.496,7.514 l 0.063,0.051 c 3.188,-0.218 6.17,1.728 7.232,5.031 1.28,3.941 -0.115,7.871 -7.296,10.188 l -8.191,2.649 -8.524,-26.406 z m 6.592,10.393 5.106,-1.652 c 4.429,-1.445 5.415,-4.261 4.698,-6.488 -0.961,-2.97 -3.021,-3.84 -6.388,-2.739 l -6.271,2.035 2.855,8.844 z m 4.057,12.582 5.492,-1.767 c 4.313,-1.408 5.964,-3.559 4.889,-6.849 -1.075,-3.365 -4.428,-4.466 -8.588,-3.122 l -5.057,1.638 3.264,10.1 z"
           inkscape:connector-curvature="0"
           style="fill:#c1272d" />
        <path
           id="path3986"
           d="m 305.237,448.694 9.728,-3.148 c 4.607,-1.485 8.332,0.537 9.484,4.121 0.935,2.893 0.333,5.389 -2.496,7.514 l 0.063,0.051 c 3.188,-0.218 6.17,1.728 7.232,5.031 1.28,3.941 -0.115,7.871 -7.296,10.188 l -8.191,2.649 -8.524,-26.406 z m 6.592,10.393 5.106,-1.652 c 4.429,-1.445 5.415,-4.261 4.698,-6.488 -0.961,-2.97 -3.021,-3.84 -6.388,-2.739 l -6.271,2.035 2.855,8.844 z m 4.057,12.582 5.492,-1.767 c 4.313,-1.408 5.964,-3.559 4.889,-6.849 -1.075,-3.365 -4.428,-4.466 -8.588,-3.122 l -5.057,1.638 3.264,10.1 z"
           inkscape:connector-curvature="0"
           style="fill:none;stroke:#c1272d;stroke-width:0.76020002" />
        <path
           id="path3988"
           d="m 341.805,465.294 -4.364,-28.696 4.108,-1.983 19.737,21.298 -2.906,1.396 -6.117,-6.694 -8.973,4.326 1.421,8.96 -2.906,1.393 z m 1.049,-13.042 7.578,-3.648 -9.805,-11.147 -0.384,0.178 2.611,14.617 z"
           inkscape:connector-curvature="0"
           style="fill:#c1272d" />
        <path
           id="path3990"
           d="m 341.805,465.294 -4.364,-28.696 4.108,-1.983 19.737,21.298 -2.906,1.396 -6.117,-6.694 -8.973,4.326 1.421,8.96 -2.906,1.393 z m 1.049,-13.042 7.578,-3.648 -9.805,-11.147 -0.384,0.178 2.611,14.617 z"
           inkscape:connector-curvature="0"
           style="fill:none;stroke:#c1272d;stroke-width:0.76020002" />
        <polygon
           id="polygon3992"
           points="372.333,449.372 357.178,426.116 359.764,424.439 373.484,445.495 384.491,438.327 385.926,440.515 "
           style="fill:#c1272d" />
        <polygon
           id="polygon3994"
           points="372.333,449.372 357.178,426.116 359.764,424.439 373.484,445.495 384.491,438.327 385.926,440.515 "
           style="fill:none;stroke:#c1272d;stroke-width:0.76020002" />
        <polygon
           id="polygon3996"
           points="395.947,432.822 378.066,411.601 380.435,409.617 396.613,428.841 406.673,420.369 408.351,422.365 "
           style="fill:#c1272d" />
        <polygon
           id="polygon3998"
           points="395.947,432.822 378.066,411.601 380.435,409.617 396.613,428.841 406.673,420.369 408.351,422.365 "
           style="fill:none;stroke:#c1272d;stroke-width:0.76020002" />
        <path
           id="path4000"
           d="m 278.973,424.862 3.737,-10.189 3.725,-8.754 -18.163,-40.319 -18.163,-40.319 h -0.039 -0.038 l -18.174,40.319 -18.163,40.318 3.75,8.754 3.737,10.189 c 0,0 20.799,1.42 28.888,1.42 8.089,0 28.903,-1.419 28.903,-1.419"
           inkscape:connector-curvature="0"
           style="fill:#c1272d" />
        <path
           id="path4002"
           d="m 278.973,424.862 3.737,-10.189 3.725,-8.754 -18.163,-40.319 -18.163,-40.319 h -0.039 -0.038 l -18.174,40.319 -18.163,40.318 3.75,8.754 3.737,10.189 c 0,0 20.799,1.42 28.888,1.42 8.089,0 28.903,-1.419 28.903,-1.419 z"
           inkscape:connector-curvature="0"
           style="fill:none;stroke:#ffffff;stroke-width:1.50730002" />
        <path
           id="path4004"
           d="m 250.071,324.513 h -0.486 c -0.039,0 -0.243,0.448 -0.243,0.448 l -18.163,40.33 -18.163,40.318 -0.128,0.296 0.128,0.319 3.737,8.754 c -0.026,-0.038 3.725,10.125 3.725,10.125 l 1.395,-0.498 -3.725,-10.189 c -0.025,-0.025 -3.75,-8.794 -3.75,-8.794 v 0.603 l 18.162,-40.318 18.163,-40.331 -0.691,0.448 0.039,-1.511 z"
           inkscape:connector-curvature="0"
           style="fill:#ffffff" />
        <path
           id="path4006"
           d="m 226.7,424.9 -3.123,-10.15 c -0.013,-0.039 -3.111,-8.818 -3.111,-8.818 l -0.013,0.524 15.129,-40.421 15.142,-40.408 -1.408,-0.524 -15.129,40.407 -15.142,40.422 -0.103,0.256 0.09,0.256 3.123,8.767 c -0.013,-0.025 3.097,10.125 3.097,10.125 L 226.7,424.9 z"
           inkscape:connector-curvature="0"
           style="fill:#ffffff" />
        <path
           id="path4008"
           d="m 231.5,425.194 -2.496,-10.124 c 0,-0.025 -2.483,-8.807 -2.483,-8.807 v 0.422 l 12.095,-40.497 12.108,-40.511 -1.434,-0.422 -12.121,40.497 -12.096,40.498 -0.064,0.205 0.052,0.217 2.496,8.794 c 0,-0.026 2.482,10.086 2.482,10.086 l 1.461,-0.358 z"
           inkscape:connector-curvature="0"
           style="fill:#ffffff" />
        <path
           id="path4010"
           d="m 236.312,425.501 -1.881,-10.1 c 0,-0.013 -1.856,-8.818 -1.856,-8.818 v 0.319 l 9.062,-40.587 9.087,-40.587 -1.459,-0.333 -9.075,40.587 -9.088,40.601 -0.038,0.153 0.038,0.153 1.856,8.807 c 0,-0.025 1.869,10.073 1.869,10.073 l 1.485,-0.268 z"
           inkscape:connector-curvature="0"
           style="fill:#ffffff" />
        <path
           id="path4012"
           d="m 241.099,425.808 -1.242,-10.073 c 0,-0.013 -1.242,-8.832 -1.242,-8.832 v 0.23 l 6.055,-40.689 6.054,-40.676 -1.484,-0.218 -6.054,40.677 -6.055,40.676 -0.013,0.104 0.013,0.114 1.242,8.819 c 0,-0.013 1.254,10.048 1.254,10.048 l 1.472,-0.18 z"
           inkscape:connector-curvature="0"
           style="fill:#ffffff" />
        <path
           id="path4014"
           d="m 245.912,426.102 -0.627,-10.034 -0.614,-8.832 v 0.103 l 3.02,-40.767 3.034,-40.753 -1.498,-0.129 -3.021,40.768 -3.034,40.778 -0.013,0.052 0.013,0.051 0.615,8.832 c 0,-0.013 0.627,10.021 0.627,10.021 l 1.498,-0.09 z"
           inkscape:connector-curvature="0"
           style="fill:#ffffff" />
        <rect
           id="rect4016"
           height="100.565"
           width="1.498"
           y="325.85699"
           x="249.214"
           style="fill:#ffffff" />
        <path
           id="path4018"
           d="m 249.854,326.024 -0.652,-0.448 18.163,40.331 18.175,40.318 v -0.603 l -3.75,8.769 c -0.013,0.025 -3.75,10.215 -3.75,10.215 l 1.42,0.498 3.725,-10.163 c -0.013,0.038 3.725,-8.716 3.725,-8.716 l 0.141,-0.319 -0.141,-0.296 -18.162,-40.318 -18.163,-40.33 -0.205,-0.448 h -0.473 l -0.053,1.51 z"
           inkscape:connector-curvature="0"
           style="fill:#ffffff" />
        <path
           id="path4020"
           d="m 274.672,425.322 3.123,-10.15 c -0.013,0.025 3.098,-8.742 3.098,-8.742 l 0.077,-0.255 -0.09,-0.256 -15.129,-40.409 -15.142,-40.407 -1.408,0.524 15.142,40.408 15.142,40.408 -0.013,-0.512 -3.11,8.767 c -0.013,0.026 -3.136,10.189 -3.136,10.189 l 1.446,0.435 z"
           inkscape:connector-curvature="0"
           style="fill:#ffffff" />
        <path
           id="path4022"
           d="m 269.885,425.527 2.497,-10.112 c 0,0.025 2.482,-8.755 2.482,-8.755 l 0.051,-0.217 -0.063,-0.205 -12.109,-40.498 -12.108,-40.484 -1.446,0.422 12.108,40.498 12.12,40.484 v -0.422 l -2.495,8.794 c 0,0.025 -2.496,10.149 -2.496,10.149 l 1.459,0.346 z"
           inkscape:connector-curvature="0"
           style="fill:#ffffff" />
        <path
           id="path4024"
           d="m 265.085,425.745 1.882,-10.1 c 0,0.014 1.855,-8.78 1.855,-8.78 l 0.038,-0.153 -0.038,-0.153 -9.087,-40.588 -9.075,-40.574 -1.472,0.333 9.088,40.574 9.074,40.574 v -0.319 l -1.855,8.806 c 0,0.013 -1.869,10.1 -1.869,10.1 l 1.459,0.28 z"
           inkscape:connector-curvature="0"
           style="fill:#ffffff" />
        <path
           id="path4026"
           d="m 260.311,425.95 1.242,-10.061 c 0,0.013 1.242,-8.819 1.242,-8.819 l 0.013,-0.103 -0.013,-0.103 -6.055,-40.651 -6.054,-40.663 -1.485,0.218 6.054,40.663 6.055,40.651 v -0.218 l -1.242,8.819 c -0.013,0.013 -1.254,10.073 -1.254,10.073 l 1.497,0.194 z"
           inkscape:connector-curvature="0"
           style="fill:#ffffff" />
        <path
           id="path4028"
           d="m 255.511,426.141 0.628,-10.034 c 0,0.013 0.614,-8.819 0.614,-8.819 l 0.013,-0.052 -0.013,-0.051 -3.033,-40.741 -3.021,-40.754 -1.498,0.129 3.033,40.728 3.021,40.754 v -0.115 l -0.614,8.831 -0.627,10.035 1.497,0.089 z"
           inkscape:connector-curvature="0"
           style="fill:#ffffff" />
        <rect
           id="rect4030"
           height="100.502"
           width="1.498"
           y="325.85699"
           x="249.214"
           style="fill:#ffffff" />
        <path
           id="path4032"
           d="m 138.152,187.738 c -19.314,9.638 -45.08,32.997 -48.241,38.718 -3.174,5.708 -2.534,44.427 -0.64,50.149 1.908,5.708 35.544,36.811 48.881,39.346 12.697,-5.082 46.975,-26.649 49.521,-27.289 -4.454,-9.522 -1.919,-67.927 0,-73.636 -8.268,-5.068 -45.706,-29.209 -49.521,-27.288"
           inkscape:connector-curvature="0"
           style="fill:#ffffff" />
        <polygon
           id="polygon4034"
           points="159.72,245.783 153.653,261.245 141.442,261.194 147.906,275.67 139.522,295.023 112.246,233.688 119.043,217.113 159.361,217.113 165.019,232.933 128.848,232.933 134.505,245.681 "
           style="fill:#c1272d" />
        <polygon
           id="polygon4036"
           points="160.603,243.479 164.289,235.198 132.227,235.198 136.002,243.479 "
           style="fill:#9d9fa2" />
        <polygon
           id="polygon4038"
           points="144.911,263.447 152.578,263.447 148.802,272.125 "
           style="fill:#9d9fa2" />
      </g>
    </g>
  </g>
  <style
     id="style4"
     type="text/css" />
</svg>
