<svg height="334.955403" viewBox="0 0 61.6 69.133" width="298.547207" xmlns="http://www.w3.org/2000/svg"><path d="m201.96-74.887v1.168h-1.168v.84375h1.168v1.168h.84375v-1.168h1.168v-.84375h-1.168v-1.168z" fill="#b59e51"/><g stroke-width=".75412" transform="matrix(1.3261 0 0 1.3261 1.7554 1.4044)"><g><path d="m20.988 48.41c-8.9453-6.7148-14.184-13.008-16.977-20.418-2.5664-6.793-3.0508-14.094-3.0508-25.188v-1.8438h42.27v1.8438c0 11.094-.48438 18.395-3.0508 25.188-2.793 7.4062-8.0273 13.703-16.977 20.418l-1.1094.82812z" fill="#fff"/><path d="m27.711 9.1836c-.64062.51953-2.1367.55078-2.8438.36719.004 0 2-.39454 2.4766-.87891-.15625-.17578-.79297-.40625-.8086-.41797.004 0 3.2188-.63281 3.4883-.8125-.0117.12109-.10156.72266-2.2734 2.3086-.0508-.30078.0117-.47656-.0391-.5664m-16.379 17.555.004-.004c-.008 0-.008 0-.004.004m12.098-5.8867c2.6797 1.3125 3.1016 2.0547 3.0938 2.1211-.67968 5.4727 5.5938 5.3984 6.4844 2.6445-.0508.1211-.63672.84375-2.1484 1.0312-3.6289.44531-4.5312-3.4961-.375-4.4805.98828-.23047 2.3281.0234 3.0977.53516 0 0 .8789-1.4414 2.0078-2.1992-.30859-.0508-.82812-.0469-1.3906-.26172.61328-.19531 2.7305-1.2734 3.6055-3.0859.0273.14844.29688 2.5039-.85937 5.3516-.0508-.79297-.38281-1.207-.68359-1.6211-.6211.57813-1.6992 1.6445-1.8906 2.6172.92188 1.4453.64453 3.1602.0664 4.1641-2.1484 3.7344-7.9531 3.5117-9.4141 1.4219-.17968 1.7656.58985 3.0156 3.0547 4.2226-1.1094.4961-2.0195.54297-2.7891.60938-.20703.30859-1.2305 1.7148-1.2617 1.7578.74219-.12891 2.4219-.44922 3.1094-.75781.0977.21484.082.6914.082.6914s1.0117.88672-.0117 2.7617c0 0-.51172-1.2891-.70703-1.3633-2.6875-.67187-3.8555 2.2227-2.9492 3.5898-.008-.004-.92188-.10938-1.4141 1.8438-.34766-.26954-.66407-.97266-.60157-1.5234.004-.0547-.52343-.58985-.55468-.625 1.3008-1.8672 1.168-2.4297 1.1992-2.4336-1.0234.0937-1.957 1.8125-1.957 1.8125l-.55078-.38281s-.60937.41797-.33203 1.082c-1.0664-.625-.71094-1.3398-.59766-1.793-.0117-.0117-.27343-.29687-.26562-.30078.10156-.0859 1.8359-.76172 2.4688-1.2148-.47266-.21094-1.6758-.0742-2.0742.69922l-.61328-.41016s-.45313.29297-.625.98047c-.32422-.3125-.41016-1.7852.50391-1.918.0391-.004.10546-.38281.10156-.40625l3.6523-.23437s.9336-1.4453.97266-1.7774c-.0234.008-.82813-.0352-1.9844.33594 0 0-1.3359-1.6875-1.3398-1.8906.43359-3.5312 1.1797-5.3438 1.1797-5.3438-.85547.24218-1.375 1.3164-1.8828 3.5234-.60546-.45703-.82812-1.2344-.82812-1.2344l-1.6445.53125c.004.0117 1.1055 1.3203 1.2031 1.4102.0586.008.42188.0469.42188.043.0898.96485-.008 1.8672-.76172 2.4297.34766-1.043-.14844-1.6289-.14844-1.6289l-.7539.3086s-.20313-1.6914-1.5781-1.6914c-.68359 0-.94531 1.8594-.94531 1.8594s-.85547-.125-.86328-.11328c-.40625.68359.35547 1.0195.35547 1.0195-.043.0117-.51954.0195-.98047-.36328-.44141-.44141-.48047-1.0664-.19532-1.6211 0 .0234 1.5195-1.4219 1.625-1.6328-1.1523-.75781-1.7148.50781-1.7812.57031-.004 0-.48437-.0898-.63281-.11719 0 0-.27734.22266-.0937.85547-.0391.0234-.85547-.70312-.66015-1.668 0 .004.19921-.52734 1.0352-.63671.10547-.0156 1.7227-.19532 1.7227-.19532-1.0664-1.0938-2.0234-.19922-2.0274-.21484-.004-.004-.28906-.39063-.41406-.38281-.25-.0234-.78906.16015-.90234.67578-.11719-.21094-.41797-1 .4414-1.5352.0781-.0469.88282-.2539 1.0352-.27734.0117.004 1.3242.21094 1.8633.3164.0117 0 1.4844 1.2344 1.6562 1.3516.004.008 1.5156-.70313 1.7617-.79688.0586-.0234-2.6094-1.0078-2.6094-1.0078 0-.21484.42968-1.4961 1.2188-2.1016.28906-.22656 2.1719-.39844 3.332-.9961-.57422-.19921-2.3672-.77343-3.3359-2.168-.0312-.0469-.11719 1.6797-.11719 1.6797s-2.4258-2.6445-3.5273-2.7773c.14062.0898.82812 1.5273 1.1133 1.9414-.0312.0195-.082.0703-.30859.12109.0937.75781-.75 1.332-1.7539 1.0273.38281-.20312.55078-.60156.61328-.98047 0 0-.56641-.29687-.57031-.30078 0 0 .35547-.61718.28906-.79687-.6875-1.8945-2.3633-.27344-2.418.33594 0 0-.5664-.35938-.57031-.35938-.28516.34766-.15234.93359-.0273 1.3125-.95704-.48047-1.1953-2.2031-.60157-2.7617.0352-.0352 2.0898-.66406 2.0977-.66797-.56641-.61718-1.5156-.32422-1.5156-.32422s-.35937-.49609-.38671-.5039c-.21485.0664-.57813.54297-.63282.88281-.6289-.54297-.23047-1.9453.58985-2.0625.0547-.008 1.5352.30469 1.7695.32813-.10156-.62891-.69922-1.5274-1.3594-1.1641 0-.008.37891-.65234.37891-.64843l-1.2344.0586c.76563-1 1.8008-1.0195 2.8438-.46484-.0156.1914.79688 2.418.96485 2.6914.14844.23828 2.5742.28906 2.8008.32031-.0156-.0898-.082-.25781-.0625-.34375-.17578-.17968-1.2109-1.5078-1.2539-1.4766-.0391.0391-.84765.95703-.875.98828-.44531-1.7266 1.0078-2.3789-.50781-4.9648 0 .004-1.4883 1.2539-1.4961 1.2578-.94922.34766-1.7305.1875-1.9062-.83984.29297.50781 1.1641.21875 1.1641.21875l-.0156-.63281c2.1289-.25391 1.1484-2.1836.48047-2.2461-.51562-.0508-1.3711.33594-1.3711.35547-.0195.0273-.51953-.1875-.74219-.19531-.49609.41797-.55469.66015-.51562 1.1094-.73047-1-.53907-1.8203.375-2.5352.0273 0 2.25.12109 2.4219-.0781.0234-.0977.26953-1.375-1.332-1.6328 0-.29297-.0234-.375-.0234-.66797-.44531.0937-.92968.48047-1.0586.91797-.30859-.67969.0898-1.4609.78516-1.7188.69531-.26172 1.6836-.008 2.0391.64844.24219.44922.77734 1.3359 1.0352 2.082.21485-.17578 1.0781-.91797.5-1.8281.45313-.30468-.39062-.80078-.82812-.88672.30078-.14453 1.2227-.14453 1.6172-.0469.42187.10547.76953.65625.95703 1.0859-.3711 1.5-.97656 3.3711-.75781 3.9883.0156.0391 2.0976 3.3672 2.2656 3.4258.0156-.0312.57422-2.3555 2.2812-2.7461l-2.8828.32031c.35937-.91797 1.0976-1.7539 1.9844-2.2578l-.91797.0273c-.63671-.42188-1.7578-1.8945-1.9258-3.6797 1.207.75391 2.2188.85938 3.6406.8711-.53125-.21485-1.1055-.9961-1.1055-.9961s2.6133.3125 2.6523.3125c.14844 0 2.7812-.34375 2.957-.38281.0859-.0234 1.0078.57812 1.0703.55469.14062-.0469 2.4297-.58985 2.5859-.63672.17969.42187 1.0547.18359 1.5117.17187.73047-.0234 1.1836.6211 1.4219 1.3164-.85547-.31641-1.7344.32422-2.4727 1.4102-1.4062-.79688-3.0938-.58985-3.3516 1.2188 1.5117-.45313 2.7656.80468 3.5508-.0625.48828 1.5039-1.4336 2.1055-2.3867 2.5273 0-.004-.24219-.83203-.24609-.83203-.0664.0156-2.4258.93359-1.8984 2.5664.004.0117 7.8008-1.957 10.941-8.1562.74218.89844.29297 2.7305.1875 3.1445 0 .008 4.5039-2.3789 5.9258-3.2305-.0352.24218-1.9922 7.1172-.33594 9.8125-3.0703.375-4.7969 3.1719-4.9492 5.6094-2.3711-.7539-4.8555.42969-5.3984 1.5117-.74218-1.0469-2.7617-1.9141-4.0938-2.0273m.69922-13.77.98828.0547s.53516-.47265.53125-.47265c-.13281-.28907-1.1562.0664-1.1562.0664zm-2.5039.57421c.004 0 .27734-.72265.27734-.72265s-.51172-.11719-.51953-.11719c0 0-.82031.19922-1.8984.26563-.0156.008 1.3086.23046 1.3086.23046-.0586.3711.61328.44141.83203.34375m11.113 16.758c-.16797-1.2461-3.3516-.59766-3.3281.36328.0312 1.1914 3.3789.42187 3.3281-.36328" fill="#cf1e26"/><path d="m38.203 5.9492-8.9922 6.168-1.7226.17578zm-27.105 15.605c.0273.15235-.16406.52735-.29687.76953.14844-.0586.74219-.59375.75781-.71875.008-.10156-.20703-.84375-.53516-1.0859-1.4102-1.0781-2.375 1.2344-2.375 1.2344l-1.1719-1.6953.28125.94531c-.52734.75781.30469 1.8047.31641 1.8164-.34375-.98047.0273-1.3125.0273-1.3125.0742.0469.55078.33984.57031.35156.0273-.55859 1.7383-2.2656 2.4258-.30469m1.7188.90235s-1.7266-.0937-2.0156-.13282c0 .004.57031.30078.57031.30078s-.0937.73047-.61719.97657c.0117 0 1.2227-.0625 1.375-.98047.55469-.0234.6875-.16406.6875-.16406m-4.6016-3.7695-.58594-1.3047s-.0625.78125-.0664.78125c-.83985.18359-.6836 1.043-.53125 1.2773 0-.0977.25-.71094.63672-.88281.0195-.008.38671.50781.38671.5039.0156 0 .94922-.29296 1.5117.32422l.1875-.0117c-1.0312-1.2734-1.5391-.6875-1.5391-.6875m1.1797-.98437c-.004.004.16797.0234.16797.0234-.004-.004.17187-1.4258-1.1211-1.2656.76172.1836.95313 1.2422.95313 1.2422m4.7578 9.168s.008 0 .0156.004c-.008-.004-.0117-.008-.0156-.0117v.008m12.348 9.9375s-.125-.52735-.125-.5586c-4.5664-.082-3.1719 4.0781-3.1719 4.0781l-1.2305-.26172-.78125.28516s.34375.39453.34766.38281c.20312-.63672 1.1875-.004 1.1211.0937-.0117.0156-.51172-.082-.55468-.0156-.44141.64063.0195 1.625.0312 1.6328.46484-1.8906 1.375-1.8555 1.418-1.8438-1.0039-1.6758.57422-4.2578 2.9453-3.5898.10937-.0234.55078.95703.70703 1.3633.19531-.6875.28125-1.8711-.17188-2.5391-.33984.22656-.52734.96875-.53515.97266m-7.125 1.9297c-.91797.78125-.043 1.6328-.0312 1.6406-.28125-.64063.30468-1.0742.32812-1.0859.0352-.4375-.29687-.55469-.29687-.55469m-6.4648-18.77.17188-.44531s-.54688-.29687-1.3047.13281l-.0742.85938c.96485.10156 3.1211 2.3281 3.5312 2.7812-.5-.66016-2.3242-3.3281-2.3242-3.3281m5.875 16.77-.18359.375-.23047-.625s-.20312.41407-.21094.41407c-.55078.11328-.64843.875-.52734 1.4336.16797-.68359.625-.98047.625-.98047l.61328.41016c.44531-.83594 1.6953-.88281 2.0781-.69531-.004-.004.25-.26563.25-.26954 0 0-1.207-.70703-2.4141-.0625m-4.625-9.9336-.004.004c.004-.004.0117-.004.0156-.008zm7.6758-12.547c4.0274.66015 4.7266-1.8555 4.7266-1.8555l5.7188-3.2266c.0937-.34766.5625-2.2461-.1875-3.1445-.11328.26563-1.4024 4.9531-10.258 8.2266m.29688-4.2617c.72656.85547 1.4453.96875 1.5977.98437-.0352.0625-.21485.73438-.4375 1.4727 0 0-.23829-.82813-.2461-.82422-.0625.0195-2.3672.90625-1.9062 2.5469-.15234.0625-.98828.0508-.98828.0508s-1.7578.52734-2.0156 1.2188c-.14063.38281-.41016 1.6992-.41016 1.6992l-.73438.0234s.52735-.84375.52344-.84375c-1.3281-.20703-3.207.36719-3.207.36719s-.0391 1.0547.0391 1.3828c0-.004 1.1914-.44922 1.5938-.5039-.5039.26562-1.7031.94922-1.7031.94922l-.45313-.0195s-.0664-.21875-.0625-.34375c0-.004.0156-.20312.0156-.20312l-1.0938-2.0312-.17188.76172-.875.98437c-.45312-1.7109 1.0117-2.3516-.50781-4.9648 0 .0156-1.1406.95312-1.4961 1.2578-.92969.34375-1.7148.20703-1.9062-.83984.0508.12109.42968.82422 1.3789.60156.004-.004-.0156-.84766-.0156-.84766l-.21485-.16796s.25782-.0273.49219-.10547c.008 0 .55469.008.55469.008s.53516-.39453.38672-1.2773c-.26953-1.5898-2.3164-.51563-2.3281-.51563-.0273-.008-.28906-.56641-.73828-.19531-.49219.40625-.55078.65625-.51562 1.1055-.6875-1.2969.5625-1.9102.5625-1.9102l-.11328-.47266s2.0547.66407 2.8242.29297c0-.004-.83203-.42968-.83203-.42968s.30469-.0234.35157-.0859c.2539-1.4766-1.3281-1.6406-1.3281-1.6406l-.0273-.66015s-.78907.15234-1.0586.91406c-.0156-.1875.33203-1.457 1.1289-1.5195.75391-.0469 1.2617.35156 1.2734.36328-.42969.004-1.0703.0117-1.0703.0117l1.7305 1.3984.60157 1.3476.19921-.59375s1.1328-.82422.50391-1.8242c.46094-.33203-.46484-.82031-.83203-.88672 1.9531.0547 1.8945.76563 1.8867.77344-.004 0 .55078.21094.55078.21094l-.51563.41016s-.97265 3.4375-.63281 3.8984c.004-.004 2.6445 3.2383 2.7774 3.207 0 0-.0625.22657-.0742.31641.0937-.0234.55078-.21484 2.1367-.25781l.28515.20703 1.1953-1.1211s-.74218-.35938-3.2617.0625c.0117-.0312.0703-.16797.0937-.20704 1.2383-.26953 2.2461-.20312 2.2461-.20312l.27734.1875 1.207-1.0625c-1.2422-.48438-2.8555-.043-2.9844-.0234.26562-.27344.60547-.54687 1.1406-.6875 1.25-.125 2.3438-.1875 2.3984-.17578.8125-2 2.293-3.0156 2.6445-3.2109-.22656.26172-1.1719 1.1133-.9375 3.207.082.17969.22657-2.5898 1.9414-3.3984 1-.41016 2.1914.1289 2.5.59765-1.5859-.85156-3.1055-.43359-3.3438 1.2344m-4.2695 4.9102c-1.6836-.26953-3.3242.19141-3.3242.19141-.0117.0547-.18359.85156-.21484 1.3633.61328-.30859 2.1562-.40234 2.1562-.40234s.30859.19531.30859.1914c0 0 1.0625-1.3398 1.0742-1.3438m6.9766-.39453c-.17969.14063-.66406.26172-.66406.26172l.30078.94141 8.4414 5.6523zm2.6758 8.3555-3.9062-7.9141c-.61328.125-1.0234.16016-1.582.0469 0 .0781.0781 1.1836-.0898 1.9219-.0703.29687-.17969.55078-.35547.66797l-2.3516.45703-2.3594 1.1758v1.4102l-3.3477-1.4492 1.8281 2.4258 1.418-.44531c-.46875.66406-.65235 1.1797-.67578 1.2578.0352.0352.16797.13672.18359.15234.008-.12109.38672-.92187.86719-1.6289l1.0703-.82032.75 1.2266c.26172-.30469.44922-.48438.45313-.48828v.004c0 .004.004.0117.0117.0273l.37891.67187.46094.82031c.17187-.26562.46484-.46484.47656-.46875l.92188 1.2148 2.6953-.73438 2.1562.5586c-.44922-.85547-3.0312-2.0781-3.0859-2.1016-.17969-.0937-1.5195.0234-1.8281.0625.16406-.33203 1.9336-5.0352 1.9336-5.0352s4.0117 7.0703 3.9766 6.9844m-2.293-8.543.19141.10938c.82422.10547 1.6758-.78906 1.6758-.78906l10.781 2.1172-10.965-3.0859c-.10157.49218-.82032 1.2734-1.6836 1.6484m-10.074-4.4922c.1211-.0625 4.6562-1.9805 6.5156-1.7812-2.1445-.48047-3.8203-.36329-4.3711-.16797-2.6094 2.5391-3.8125-.97266-4.0703-1.7344.14063 1.7578 1.2812 3.2578 1.9258 3.6836m7.2695-3.3125h.004.004zm-12.52 8.9062-1.1523.23828s-.24609-.65235-1.5664.29297l1.2305-.0625c.004-.008-.375.64453-.37109.64453.10156-.13282 1.9844-1.0508 1.9844-1.0508zm7.6289 7.9023.19141.0859c.30078-.83985.85937-1.6055 1.2461-2.0625l-.27734.082c-.94141 1.0625-1.1406 1.8438-1.1602 1.8945m-3.4453-11.27 7.9375-3.9258s-3.3984.97265-3.5898.97265c-3.4453.25782-4.3476 2.9531-4.3476 2.9531m11.344-5.9492s-.3125-.0156-.40235-.23828c-.004.004-1.4883.84375-2.0234 1.1836.004 0 .11328.0195.12109.0234.66797-.25391 2.3047-.96875 2.3047-.96875m-.55469 3.4453c.71875.1875 2.1406.16406 2.8398-.35547.0547.0898-.0195.23828.0391.55078.47656-.32421 2.2226-1.668 2.2734-2.3086-.25781.35156-2.9492 2.3359-5.1523 2.1133m-2.7383 27.816c-.59766.0937-2.0977.46484-2.3359 1.0742l.36328.53515s.0547.67188.0625.69531c0 0 .89844-1.6758 1.957-1.8125-.0117-.0859-.0391-.48828-.0469-.49218m3.1562-3.4492c.3125-.0391 1.5352-.0352 2.7891-.60938 0 0-4.9336-.48047-6.6797-1.8594-.51171-1.1328.24219-8.1797.24219-8.1797 0 .0156-.92187 1.1133-.91797 1.1133-.64453-.13672-1.1133-.26953-1.4141-.36718.12109-.23047.57813-1.0938.96094-1.6328l-.23047.0273c-.0781.11328-.67188.98828-.92188 1.543-.14843-.0547-.21093-.082-.21093-.082l.55859 1.0703-4.5312 1.7695 2.3555.62109.26172.62109-2.6797 1.0703.11328-.34375s-1.6523-1.3516-1.6562-1.3516l-1.1953.14844-.875.75391c-.0273-.0781-.54688-.53906-.55469-.55469-.73437.22266-.78906.73828-.71484 1.1484.10547-.48828.61719-.69922.91406-.67578.13281.0117.38281.35937.40234.38281 1.2148-.89844 2.1445.3125 2.1133.35937l-1.7031.48829s-.41406.58203-.41406.66015c0 .0781-.51172-.34375-.51953-.35156-.21485.25.0625 1.2266.45312 1.5703-.16797-.64453.0937-.86328.0937-.86328.0352 0 .63672.11719.63672.11719.87109-1.5156 1.9297-.44141 1.9297-.44141l-1.1641 2.0898-.38282-.26172c-.26172.42187.10157 1.5273.94141 1.6562-.38672-.20313-.62891-.54297-.35156-1.0195.008-.0117.86328.10937.86328.10937s.26172-1.8516.94531-1.8555c1.3672-.008 1.5781 1.6914 1.5781 1.6914l.7539-.3086s.48828.6211.14844 1.6172c.75-.5625.85156-1.4531.76172-2.418-.008.004-.42188-.043-.42188-.043-.14453-.14453-1.2031-1.4062-1.2031-1.4102l1.6445-.53125c.0742.20703.23828.75781.82812 1.2344.0664-.16406.57422-3.2188 1.875-3.5078-.78515 2.0117-1.1719 5.3281-1.1719 5.3281.0195.21875 1.3398 1.8906 1.3398 1.8906.13672-.0586 1.0078-.30859 1.9844-.33594.0117.23047-.97266 1.7774-.97266 1.7774l1.1133.78125s2.8008-.80469 4.1367-1.6367c-.72656.32812-3.1133.75781-3.1133.75781s1.1445-1.5586 1.2617-1.7578m-10.418-4.8945-.004-.004v.004zm13.207 4.2852s.004 0 0 0zm-5.8203-26.621-.59375-.20312-3.3945.20312c-.125-.0195-2.5117-.66797-2.5117-.66797s.59375.80078 1.1055.9961c.15625.008 2.5898.0703 2.6211.0625 1.0039-.0547 1.8945-.25782 1.8945-.25782.008 0 .52344.10938.52344.10938l-.27734.72265zm15.547 10.465s.19532 2.3867-.78906 4.7891c-.0156.0312.0547-.375-.54687-1.3008.39453-.4336.73047-.86329.92578-1.457.16797-.49609.30859-1.1055.35156-1.75-.42578 3.2656-2.2734 2.8398-3.7461 5.5586.14453.16015.28906.36328.37109.50781.25781-1.0781 1.1797-1.9219 1.8906-2.6172.13281.20313.62109.69922.68359 1.6133 1.2148-3.0273.85937-5.3438.85937-5.3438m-2.2148 3.3477.30469-.17578s-.37891.0859-1.6953-.082c.54687.21875 1.3672.23828 1.3906.25781m-.96484 3.4766c.72656 2.2539-.41407 3.9648-3.043 4.7383-1.707.5-4.4648.33985-5.5508-1.375.004-.0117-.0859-.78515.23047-2.7148-.28125.59766-1.0352 2.4336-1.2383 4.4609 1.4258 1.8789 4.8477 1.6289 6.2383 1.1133 4.0156-1.4883 4.0703-4.8398 3.3633-6.2227m-4.0234-.80859c-1.0664.21484-2.1602 1.3086-.99219 2.0039-1.0312-1.043 2.2578-1.9883 2.9844-1.0859.0195.0234.40234.43359-.21094.79687.24609.47266-.0664.95313-.10547.96094 0 0-2.2031 1.2266-4.1211-.0234 1.0625 1.3164 3.9219 1.0156 4.8476-.1914.004-.004.55078-1.0703-.0625-1.9688-.3164-.47266-1.0938-.7461-2.3398-.49219m-6.1836-16.559-.29297.46875s.375-.33594.3789-.34375c.95313-.21875 1.168-.043 1.1445-.0742 0 0 .35547-.53516-1.2305-.0508" fill="#ae2630"/></g><path d="m42.27 1.9219v.88281c0 10.98-.47656 18.191-2.9844 24.848-2.7305 7.2266-7.8672 13.391-16.66 19.988l-.52735.39844-.53125-.39844c-8.793-6.5977-13.93-12.762-16.656-19.988-2.5117-6.6562-2.9883-13.867-2.9883-24.848v-.88281zm1.9219-1.9219h-44.191v2.8047c0 11.207.49609 18.594 3.1094 25.527 2.8633 7.5898 8.1992 14.016 17.305 20.844l.52734.39844 1.1562.86328 1.1524-.86328.52734-.39844c9.1055-6.8281 14.441-13.254 17.305-20.844 2.6133-6.9336 3.1094-14.32 3.1094-25.527z" fill="#174a3f" stroke-width=".75412"/></g></svg>