<svg version="1.2" xmlns="http://www.w3.org/2000/svg" viewBox="0 0 1082 1082" width="300" height="300">
	<style>
		.s0 { fill: #007025 } 
		.s1 { fill: #ffffff;stroke: #1d1e1c;stroke-width: 9.3 } 
		.s2 { fill: #ffffff;stroke: #1d1e1c;stroke-width: 8.9 } 
		.s3 { fill: #ffffff } 
		.s4 { fill: #ff8300 } 
		.s5 { fill: #009845 } 
		.s6 { fill: #f18a00 } 
	</style>
			<path id="BG" class="s0" d="m539.9 1036.1c-273.7 0-495.5-221.8-495.5-495.5 0-273.7 221.8-495.5 495.5-495.5 273.7 0 495.5 221.8 495.5 495.5 0 273.7-221.8 495.5-495.5 495.5z"/>
					<path class="s3" d="m538.6 1014.8c-35-0.1-70-4.1-104.2-11.9l9.2-40.1c63.1 14.5 129.3 14.5 192.6-0.1l9.2 40.1c-35.1 8.1-71 12.1-106.8 12z"/>
					<path class="s4" d="m679.6 993.6l-12.1-39.3 0.4-0.1c62.7-19.4 118.8-51.7 166.5-96.1l28 30.2c-52.3 48.5-113.7 83.9-182.3 105.2z"/>
					<path class="s5" d="m400.2 993.7c-67.7-20.9-130.8-57.4-182.7-105.4l27.9-30.2c47.4 43.9 105.1 77.2 166.9 96.3z"/>
					<path class="s6" d="m223.6 835.9c-72.3-77.4-116.7-181.3-116.7-295.3 0-238.7 194.3-433 433-433 238.7 0 433 194.3 433 433 0 114-44.4 217.9-116.7 295.3l30.1 28c79.1-84.7 127.7-198.4 127.7-323.3 0-261.4-212.7-474.1-474.1-474.1-261.4 0-474.1 212.7-474.1 474.1 0 124.9 48.6 238.6 127.7 323.3z"/>
			<path fill-rule="evenodd" class="s3" d="m376.9 582.5h-84.8v150.9c-28.9 0-8.7 0.2-63.6 0.2v-391h276.5l-33.9 63.6h-179v112.8h118.7zm464 150.8h-63.5v-390.7h63.4zm-391.8-61.7l-33.1 61.7h-71.5l210.6-394.3 210.6 394.3h-71.5l-33-61.7zm178-63.5l-71.9-134.3-72 134.3z"/>
</svg>