<?xml version="1.0" encoding="UTF-8"?>
<svg width="288.045" height="343.05" version="1.0" viewBox="0 0 576.09 686.1" xml:space="preserve" xmlns="http://www.w3.org/2000/svg" xmlns:xlink="http://www.w3.org/1999/xlink"><style type="text/css">
	.st0{fill:url(#j);}
	.st1{fill:url(#i);}
	.st2{fill:url(#h);}
	.st3{fill:#A71E23;}
	.st4{fill:#FFFFFF;}
	.st5{fill:url(#g);}
	.st6{fill:#02519A;}
	.st7{fill:url(#f);}
	.st8{fill:url(#e);}
	.st9{fill:url(#d);}
	.st10{fill:url(#c);}
	.st11{fill:url(#b);}
	.st12{fill:url(#q);}
	.st13{fill:url(#p);}
	.st14{fill:url(#o);}
	.st15{fill:url(#n);}
	.st16{clip-path:url(#a);}
	.st17{fill:#CA3427;}
	.st18{fill:#EF6431;}
	.st19{fill:url(#m);}
	.st20{fill:#DB8527;}
	.st21{fill:#D78028;}
	.st22{fill:url(#l);}
	.st23{fill:#EE5E2D;}
	.st24{fill:#CF2E36;}
	.st25{fill:#E0979E;}
	.st26{fill:#FCFDFD;}
	.st27{fill:#FCD6CA;}
	.st28{fill:#D88798;}
	.st29{fill:#D28B91;}
	.st30{fill:#E2ABAB;}
	.st31{fill:#FFFCFD;}
	.st32{fill:#DD8D96;}
	.st33{clip-path:url(#a);fill:url(#k);}
</style><g transform="translate(-116.95 -61.9)"><linearGradient id="j" x1="117" x2="693" y1="405.01" y2="405.01" gradientUnits="userSpaceOnUse"><stop stop-color="#C52232" offset="0"/><stop stop-color="#EE2F24" offset=".8202"/><stop stop-color="#C9252F" offset="1"/></linearGradient><path class="st0" d="m670.5 125.7c-129.4-59.4-265.5-63.8-265.5-63.8s-136.1 4.4-265.5 63.7c0 0-25.3 73.1-22.3 166.8 1.1 65.9 22.8 281.9 287.8 455.6 264.9-173.7 286.7-389.6 287.8-455.6 3-93.6-22.3-166.7-22.3-166.7zm13.5 166.5c-1.3 79.4-31.3 280.6-279 445.3-247.7-164.7-277.6-365.9-279-445.2-2.6-79.7 15.8-144.7 20.7-160.3 122.5-55.1 251.3-61 258.3-61.3 6.9 0.3 135.9 6.2 258.3 61.3 4.8 15.6 23.2 80.7 20.7 160.2z" fill="url(#j)"/><linearGradient id="i" x1="125.8" x2="684.2" y1="404.13" y2="404.13" gradientUnits="userSpaceOnUse"><stop stop-color="#E9362A" offset="0"/><stop stop-color="#E9362A" offset="1"/></linearGradient><path class="st1" d="m663.3 132.1c-122.4-55.1-251.4-61.1-258.3-61.4-6.9 0.3-135.8 6.2-258.3 61.3-4.8 15.5-23.2 80.5-20.7 160.3 1.4 79.3 31.3 280.5 279 445.2 247.7-164.7 277.6-365.9 279-445.3 2.5-79.5-15.9-144.6-20.7-160.1zm-10.1 159.1v0.5c-1.2 72.3-28.2 281.4-248.2 435.7-220-154.3-247-363.3-248.2-435.6v-0.5c-1.9-60.4 9.1-112.2 15.5-136.9 108.7-45.7 219.1-52.3 232.7-52.9 13.6 0.7 124 7.3 232.7 52.9 6.4 24.8 17.4 76.7 15.5 136.8z" fill="url(#i)"/><linearGradient id="h" x1="156.59" x2="653.4" y1="414.5" y2="414.5" gradientUnits="userSpaceOnUse"><stop stop-color="#EC866A" offset="0"/><stop stop-color="#C2222C" offset="1"/></linearGradient><path class="st2" d="m637.7 154.5c-108.7-45.6-219.1-52.3-232.7-52.9-13.6 0.7-123.9 7.3-232.7 52.9-6.4 24.6-17.5 76.5-15.5 136.9v0.5c1.2 72.2 28.2 281.2 248.2 435.5 220-154.3 247-363.4 248.2-435.7v-0.5c1.9-60.1-9.1-112-15.5-136.7zm6.7 136.4v0.5c-1.2 69.6-26.9 274.9-239.4 426.4-212.4-151.5-238.2-356.7-239.4-426.1v-0.5c-1.8-55.8 7.6-104.1 14.2-130.2 105.2-43.3 211.3-49.9 225.2-50.6 13.9 0.7 120.1 7.4 225.2 50.6 6.6 26.1 16 74.4 14.2 129.9z" fill="url(#h)"/><path class="st3" d="m630.2 160.9c-105.1-43.2-211.3-49.9-225.2-50.6-13.9 0.7-120 7.3-225.2 50.6-6.5 26.1-16 74.4-14.2 130.2v0.5c1.2 69.4 27 274.6 239.4 426.2 212.5-151.5 238.2-356.8 239.4-426.4v-0.5c1.8-55.5-7.6-103.8-14.2-130zm9.8 129.9v0.6c-1.1 68.2-26.4 269.9-235 419.9-208.6-150-233.8-351.5-235-419.6v-0.7c-1.8-54.6 7.4-102.2 13.5-126.9 103.8-42.1 208.7-48.7 221.5-49.4 12.8 0.7 117.8 7.3 221.5 49.4 6.1 24.8 15.2 72.4 13.5 126.7z" fill="#a71e23"/><path class="st4" d="m640 290.8v0.6c-1.1 68.2-26.4 269.9-235 419.9-208.6-150-233.8-351.5-235-419.6v-0.7c-1.8-54.6 7.4-102.2 13.5-126.9 103.8-42.1 208.7-48.7 221.5-49.4 12.8 0.7 117.8 7.3 221.5 49.4 6.1 24.8 15.2 72.4 13.5 126.7z" fill="#fff"/><linearGradient id="g" x1="204.1" x2="590.44" y1="240.63" y2="240.63" gradientUnits="userSpaceOnUse"><stop stop-color="#EE2F26" offset=".3103"/><stop stop-color="#DE2B29" offset=".5209"/><stop stop-color="#C2222D" offset=".8848"/><stop stop-color="#B8202F" offset="1"/></linearGradient><path class="st5" d="m281.7 182.3v-7.1h-33v7.1c-24.8 1.2-44.6 21.7-44.6 46.8v22.9c0 25.1 19.8 45.6 44.6 46.8v7.3h33v-7.3c24.8-1.2 44.6-21.7 44.6-46.8v-22.9c0-25.1-19.8-45.6-44.6-46.8zm-33 87.3c-7.6-2.1-13.3-9.1-13.3-17.4v-23.1c0-8.3 5.6-15.3 13.3-17.4zm46.3-17.4c0 8.3-5.6 15.3-13.3 17.4v-57.9c7.6 2.1 13.3 9.1 13.3 17.4zm118.6-69.9v-7.1h-33v7.1c-24.8 1.2-44.6 21.7-44.6 46.8v22.9c0 25.1 19.8 45.6 44.6 46.8v7.3h33v-7.3c24.8-1.2 44.6-21.7 44.6-46.8v-22.9c0-25.1-19.8-45.6-44.6-46.8zm-33 87.3c-7.6-2.1-13.3-9.1-13.3-17.4v-23.1c0-8.3 5.6-15.3 13.3-17.4zm46.3-17.4c0 8.3-5.6 15.3-13.3 17.4v-57.9c7.6 2.1 13.3 9.1 13.3 17.4zm163.5-76.2v130h-31.9v-61.9l-19.1 32.4h-19.4l-19-32.4v61.9h-31.9v-130h31.5l29.1 56.2 29.1-56.2z" fill="url(#g)"/><polygon class="st6" points="227.7 324.4 227.7 325.8 402.5 329.1 577.4 325.8 577.4 324.4 577.4 323.1 402.5 319.7 227.7 323.1" fill="#02519a"/><circle class="st4" cx="403.1" cy="483.6" r="96.6" fill="#fff"/><radialGradient id="f" cx="373.06" cy="426.07" r="148.21" gradientUnits="userSpaceOnUse"><stop stop-color="#F79323" offset=".093596"/><stop stop-color="#EF7625" offset=".2127"/><stop stop-color="#E95B25" offset=".3368"/><stop stop-color="#E64326" offset=".4549"/><stop stop-color="#E43226" offset=".5632"/><stop stop-color="#E32B26" offset=".6527"/><stop stop-color="#C82527" offset=".792"/><stop stop-color="#9D1C26" offset="1"/></radialGradient><path class="st7" d="m390.8 387.8m-27.7 52.5c-11.2-13-19.8-21-14.9-31.8 1.1-2.5 2.9-5.1 5.6-8-28.3 16.8-47.3 47.7-47.3 83 0 12 2.2 23.4 6.2 34 0 0 2 2.9 5.6 6.6 7.5 7.5 18 13.7 28.9 13.6 20-0.3 29.6-23 32.7-39.7 3.8-21.1-2.9-41.6-16.8-57.7zm-14.6 63.9c-5.1 6.3-14.3 4.6-18.8-1.5-4.4-6-6.2-13.8-7.5-21-2.1-12-1.3-24.5 1.4-36.4 1.7-7.5 3.7-12 3.7-12 0.7 3.2 2.8 6.7 5.4 10.4 6.6 9.3 17.1 20.2 19.9 32.7 2.1 9.2 2.1 20.1-4.1 27.8zm121.9 3.9c-12.9-17.4-40.8-23.5-58.8-10.8-14.9 10.5-24.8 27.4-30.8 44.3-2.8 8-6.8 17.3-15.8 19.7-5 1.3-11.2-0.6-17.1-3.6-9.9-5-19-12.9-20-13.8 17.6 22.1 44.8 36.2 75.3 36.2 24.4 0 46.6-9 63.6-23.9 0 0 0.1 0 0.1-0.1 1.2-1.6 2.2-3.5 3.2-5.5 5.9-12.9 9.5-30.1 0.3-42.5zm-23.9 39.3c-4.3 5.5-10.2 9.5-16.1 13-11.3 6.6-24.7 10-33.7 11.7-6.2 1.1-10.3 1.5-10.3 1.5 1-0.3 2.6-1.8 4.6-3.8 4.6-4.9 9-10.6 11.8-16.8 6.2-13.7 16.4-30.3 33.8-28.7 4.1 0.4 8.5 1.9 11.7 4.5 6.3 5.2 2.3 13.4-1.8 18.6zm36.8-13.8c-1.9 3.9-4 8-6.5 12.4 14.3-16.8 22.9-38.6 22.9-62.4 0-53.3-43.2-96.5-96.6-96.5-4.2 0-8.4 0.3-12.4 0.8h-0.2c-0.9 0.5-4.9 2.5-8.8 6.2-6.3 6-8.7 13.1-8 21.7 2 24 24.9 41 46.8 46.4 8.6 2.1 17.5 2.7 26.3 2.4 8.7-0.3 17.3-2.4 26-2.9 9.6-0.5 16.8 4.9 20 13.8 2.9 8 3 17 1.6 25.2-1.8 11.4-6.1 22.4-11.1 32.9zm-0.2-94c-21.5-4.7-54.3 6.9-66.8-18-1.5-2.9-2-5.8-1.5-8.6 2.2-11.9 11.7-11.5 25.1-7.9s40.8 23.8 46 35.2c-0.1 0-1-0.3-2.8-0.7z" fill="url(#f)"/><linearGradient id="e" x1="360.82" x2="360.82" y1="325.27" y2="509.92" gradientUnits="userSpaceOnUse"><stop stop-color="#FFFFFC" offset="0"/><stop stop-color="#FFFBF0" offset=".0096339"/><stop stop-color="#FFEDBD" offset=".064347"/><stop stop-color="#FFE491" offset=".1185"/><stop stop-color="#FFDC6D" offset=".1708"/><stop stop-color="#FFD64A" offset=".2209"/><stop stop-color="#FFD22D" offset=".2682"/><stop stop-color="#FED014" offset=".3115"/><stop stop-color="#FECF09" offset=".3473"/><stop stop-color="#FCC113" offset=".4183"/><stop stop-color="#F79D1D" offset=".5626"/><stop stop-color="#F26422" offset=".7658"/><stop stop-color="#F15A22" offset=".7931"/></linearGradient><path class="st8" d="m446 340.6c-6.2-1.1-12.1-1.7-17.8-2-30.7-1.7-61.5 7.1-85.6 26.4-39.6 31.7-57.5 87.7-39.5 135.8 5.6 15 12.4 23.5 12.4 23.5 10.7 23.1 30.2 41.2 54.3 50.1-0.9-0.1-11.4-1.5-25.3-7.8-46.7-21.3-73.7-73.5-68.1-123.9 3.4-30.7 18.9-58.6 41.9-79.2 4.4-3.9 9-7.6 14.1-11.3 21.1-11.4 45.2-17.8 70.7-17.8 14.9-0.1 29.3 2.1 42.9 6.2z" fill="url(#e)"/><linearGradient id="d" x1="309.15" x2="478.86" y1="517.86" y2="348.14" gradientUnits="userSpaceOnUse"><stop stop-color="#F15A22" offset=".2069"/><stop stop-color="#F26422" offset=".2342"/><stop stop-color="#F79D1D" offset=".4374"/><stop stop-color="#FCC113" offset=".5817"/><stop stop-color="#FECF09" offset=".6527"/><stop stop-color="#FED014" offset=".6885"/><stop stop-color="#FFD22D" offset=".7318"/><stop stop-color="#FFD64A" offset=".7791"/><stop stop-color="#FFDC6D" offset=".8292"/><stop stop-color="#FFE491" offset=".8815"/><stop stop-color="#FFEDBD" offset=".9357"/><stop stop-color="#FFFBF0" offset=".9904"/><stop stop-color="#FFFFFC" offset="1"/></linearGradient><path class="st9" d="m534.7 412.9c-3.6-5.1-7.4-9.8-11.3-14.2-20.5-22.9-48.5-38.5-79.2-41.9-50.4-5.6-102.6 21.4-123.9 68.1-6.1 13.3-7.6 23.5-7.8 25.1-3.8 10.4-5.9 21.7-5.9 33.5 0 14.5 3.2 28.3 8.9 40.6 0 0-6.8-8.5-12.4-23.5-18-48.1-0.1-104.1 39.5-135.8 24.1-19.3 54.9-28.1 85.6-26.4 5.7 0.4 11.7 1 17.8 2 38.3 11.6 70.1 38 88.7 72.5z" fill="url(#d)"/><linearGradient id="c" x1="364.47" x2="533.23" y1="370.8" y2="539.55" gradientUnits="userSpaceOnUse"><stop stop-color="#F15A22" offset="0"/><stop stop-color="#F26422" offset=".036633"/><stop stop-color="#F79D1D" offset=".3094"/><stop stop-color="#FCC113" offset=".5032"/><stop stop-color="#FECF09" offset=".5985"/><stop stop-color="#FED014" offset=".6292"/><stop stop-color="#FFD22D" offset=".6664"/><stop stop-color="#FFD64A" offset=".707"/><stop stop-color="#FFDC6D" offset=".75"/><stop stop-color="#FFE491" offset=".7949"/><stop stop-color="#FFEDBD" offset=".8413"/><stop stop-color="#FFFBF0" offset=".8883"/><stop stop-color="#FFFFFC" offset=".8966"/></linearGradient><path class="st10" d="m548.1 508.6c1.7-30.7-7.1-61.5-26.4-85.6-31.7-39.6-87.6-57.5-135.7-39.5-15 5.6-23.5 12.4-23.5 12.4-23.1 10.6-41.2 30.1-50.1 54.1 0.2-1.6 1.8-11.8 7.8-25.1 21.3-46.7 73.5-73.7 123.9-68.1 30.7 3.4 58.7 19 79.2 41.9 3.9 4.4 7.6 9.1 11.3 14.2 0 0 0 0.1 0.1 0.1 11.3 21 17.7 45 17.7 70.5 0 15-2.2 29.5-6.3 43.1 1-6.2 1.7-12.2 2-18z" fill="url(#c)"/><linearGradient id="b" x1="420.65" x2="532.75" y1="365.09" y2="585.1" gradientUnits="userSpaceOnUse"><stop stop-color="#E13326" offset="0"/><stop stop-color="#E76224" offset=".1294"/><stop stop-color="#F29C20" offset=".357"/><stop stop-color="#FAC115" offset=".5189"/><stop stop-color="#FECF09" offset=".5985"/><stop stop-color="#FED014" offset=".6292"/><stop stop-color="#FFD22D" offset=".6664"/><stop stop-color="#FFD64A" offset=".707"/><stop stop-color="#FFDC6D" offset=".75"/><stop stop-color="#FFE491" offset=".7949"/><stop stop-color="#FFEDBD" offset=".8413"/><stop stop-color="#FFFBF0" offset=".8883"/><stop stop-color="#FFFFFC" offset=".8966"/></linearGradient><path class="st11" d="m548.1 508.6c-0.3 5.8-1 11.8-2 18v0.2c-11.5 38.1-37.9 69.8-72.3 88.3 5.1-3.6 9.9-7.4 14.2-11.3 22.9-20.5 38.5-48.5 41.9-79.2 5.6-50.4-21.3-102.6-68.1-123.9-13.4-6.1-23.6-7.6-25.2-7.8h-0.2c-10.4-3.8-21.6-5.9-33.3-5.9-14.5 0-28.3 3.2-40.6 9 0 0 8.5-6.8 23.5-12.4 48.1-18 104.1-0.1 135.7 39.5 19.4 24.1 28.2 54.8 26.4 85.5z" fill="url(#b)"/><linearGradient id="q" x1="475.98" x2="433.53" y1="399.83" y2="640.6" gradientUnits="userSpaceOnUse"><stop stop-color="#E13326" offset="0"/><stop stop-color="#E76224" offset=".1294"/><stop stop-color="#F29C20" offset=".357"/><stop stop-color="#FAC115" offset=".5189"/><stop stop-color="#FECF09" offset=".5985"/><stop stop-color="#FED014" offset=".6292"/><stop stop-color="#FFD22D" offset=".6664"/><stop stop-color="#FFD64A" offset=".707"/><stop stop-color="#FFDC6D" offset=".75"/><stop stop-color="#FFE491" offset=".7949"/><stop stop-color="#FFEDBD" offset=".8413"/><stop stop-color="#FFFBF0" offset=".8883"/><stop stop-color="#FFFFFC" offset=".8966"/></linearGradient><path class="st12" d="m529.9 524.6c-3.4 30.7-18.9 58.7-41.9 79.2-4.3 3.9-9.1 7.6-14.2 11.3 0 0-0.1 0-0.1 0.1-21 11.3-45 17.7-70.5 17.7-15 0-29.5-2.2-43.2-6.4 6.2 1.1 12.3 1.8 18.2 2.1 30.7 1.7 61.5-7.1 85.6-26.4 39.7-31.7 57.5-87.6 39.5-135.7-5.6-15-12.4-23.5-12.4-23.5-10.6-23.1-30.1-41.1-54.1-50.1 1.6 0.2 11.8 1.8 25.2 7.8 46.5 21.4 73.5 73.5 67.9 123.9z" fill="url(#q)"/><linearGradient id="p" x1="528.27" x2="310.38" y1="486.26" y2="612.06" gradientUnits="userSpaceOnUse"><stop stop-color="#E13326" offset="0"/><stop stop-color="#E76224" offset=".1294"/><stop stop-color="#F29C20" offset=".357"/><stop stop-color="#FAC115" offset=".5189"/><stop stop-color="#FECF09" offset=".5985"/><stop stop-color="#FED014" offset=".6292"/><stop stop-color="#FFD22D" offset=".6664"/><stop stop-color="#FFD64A" offset=".707"/><stop stop-color="#FFDC6D" offset=".75"/><stop stop-color="#FFE491" offset=".7949"/><stop stop-color="#FFEDBD" offset=".8413"/><stop stop-color="#FFFBF0" offset=".8883"/><stop stop-color="#FFFFFC" offset=".8966"/></linearGradient><path class="st13" d="m463.7 602.2c-24.1 19.3-54.9 28.1-85.6 26.4-5.9-0.3-12-1-18.2-2.1-38.1-11.5-69.8-37.8-88.4-72.3 3.7 5.1 7.5 9.8 11.3 14.2 20.5 22.9 48.4 38.5 79.2 41.9 50.4 5.6 102.6-21.3 123.9-68.1 6-13.3 7.6-23.4 7.8-25.1v-0.3c3.8-10.4 5.9-21.6 5.9-33.3 0-14.5-3.2-28.3-9-40.6 0 0 6.8 8.5 12.4 23.5 18.2 48.2 0.3 104.2-39.3 135.8z" fill="url(#p)"/><linearGradient id="o" x1="486.86" x2="246.08" y1="556.45" y2="513.99" gradientUnits="userSpaceOnUse"><stop stop-color="#E13326" offset="0"/><stop stop-color="#E76224" offset=".1294"/><stop stop-color="#F29C20" offset=".357"/><stop stop-color="#FAC115" offset=".5189"/><stop stop-color="#FECF09" offset=".5985"/><stop stop-color="#FED014" offset=".6292"/><stop stop-color="#FFD22D" offset=".6664"/><stop stop-color="#FFD64A" offset=".707"/><stop stop-color="#FFDC6D" offset=".75"/><stop stop-color="#FFE491" offset=".7949"/><stop stop-color="#FFEDBD" offset=".8413"/><stop stop-color="#FFFBF0" offset=".8883"/><stop stop-color="#FFFFFC" offset=".8966"/></linearGradient><path class="st14" d="m493.8 517.1c-0.2 1.8-1.8 11.9-7.8 25.1-21.3 46.7-73.5 73.7-123.9 68.1-30.7-3.4-58.6-18.9-79.2-41.9-3.9-4.3-7.6-9.1-11.3-14.2 0 0 0-0.1-0.1-0.1-11.3-21-17.7-45-17.7-70.6 0-15 2.2-29.5 6.4-43.2-1.1 6.2-1.7 12.4-2.1 18.2-1.7 30.7 7.1 61.5 26.4 85.6 31.7 39.7 87.7 57.5 135.8 39.5 15-5.6 23.5-12.4 23.5-12.4 23-10.6 40.9-30 50-54.1z" fill="url(#o)"/><linearGradient id="n" x1="395.22" x2="272.2" y1="599.81" y2="386.73" gradientUnits="userSpaceOnUse"><stop stop-color="#E13326" offset="0"/><stop stop-color="#E76224" offset=".1294"/><stop stop-color="#F29C20" offset=".357"/><stop stop-color="#FAC115" offset=".5189"/><stop stop-color="#FECF09" offset=".5985"/><stop stop-color="#FED014" offset=".6292"/><stop stop-color="#FFD22D" offset=".6664"/><stop stop-color="#FFD64A" offset=".707"/><stop stop-color="#FFDC6D" offset=".75"/><stop stop-color="#FFE491" offset=".7949"/><stop stop-color="#FFEDBD" offset=".8413"/><stop stop-color="#FFFBF0" offset=".8883"/><stop stop-color="#FFFFFC" offset=".8966"/></linearGradient><path class="st15" d="m443.7 571.2s-8.5 6.8-23.5 12.4c-48.1 18-104.1 0.2-135.8-39.5-19.3-24.1-28.1-54.9-26.4-85.6 0.4-5.8 1-12 2.1-18.2 11.5-38.1 37.8-69.8 72.2-88.3-5.1 3.6-9.8 7.4-14.1 11.3-22.9 20.5-38.5 48.5-41.9 79.2-5.6 50.4 21.4 102.6 68.1 123.9 13.9 6.3 24.4 7.7 25.3 7.8 10.4 3.8 21.6 5.9 33.3 5.9 14.6 0.1 28.4-3.1 40.7-8.9z" fill="url(#n)"/><defs><path id="r" d="m670.5 125.7c-129.4-59.4-265.5-63.8-265.5-63.8s-136.1 4.4-265.5 63.7c0 0-25.3 73.1-22.3 166.8 1.1 65.9 22.8 281.9 287.7 455.6 264.9-173.7 286.6-389.6 287.7-455.6 3.2-93.6-22.1-166.7-22.1-166.7zm-30.5 165.1v0.6c-1.1 68.3-26.4 269.9-235 419.9-208.6-150-233.8-351.5-235-419.6v-0.5c-1.8-54.6 7.4-102.2 13.5-126.9 103.8-42.3 208.7-48.9 221.5-49.6 12.8 0.7 117.8 7.3 221.5 49.4 6 24.8 15.3 72.4 13.5 126.7z"/></defs><clipPath id="a"><use width="100%" height="100%" xlink:href="#r"/></clipPath><g class="st16" clip-path="url(#a)"><path class="st17" d="m644.4 290.9v0.5c-0.1 7.7-0.6 17.1-1.5 28h-4.4c0-0.4 0-0.7 0.1-1.1 0.1-1.5 0.3-3 0.4-4.4 0.4-4.7 0.6-9.1 0.8-13.1 0.1-1.1 0.1-2.2 0.1-3.3v-1c0-1.8 0.1-3.5 0.1-5.1v-0.6c0.2-6.2 0.3-12.2 0.2-18.2v-0.7c0-1.8 0-3.5-0.1-5.2h4.4c0.2 7.9 0.1 16-0.1 24.2z" fill="#ca3427"/><path class="st18" d="m653.2 291.2v0.5c-0.1 7.7-0.6 17.1-1.5 27.7h-8.8c0.9-10.8 1.4-20.2 1.5-28v-0.5c0.3-8.3 0.3-16.4 0.1-24.3h8.8c0.2 8 0.1 16.2-0.1 24.6z" fill="#ef6431"/><linearGradient id="m" x1="651.68" x2="684.18" y1="293.03" y2="293.03" gradientUnits="userSpaceOnUse"><stop stop-color="#F3833C" offset="0"/><stop stop-color="#FFCB10" offset="1"/></linearGradient><path class="st19" d="m684 292.2c-0.1 7.9-0.5 17-1.5 27.2h-30.8c0.9-10.7 1.4-20 1.5-27.7v-0.5c0.3-8.4 0.3-16.6 0.1-24.5h30.7c0.3 8.3 0.2 16.8 0 25.5z" fill="url(#m)"/><path class="st20" d="m692.7 292.5c-0.1 7.3-0.5 16.3-1.4 26.9h-8.9c0.9-10.2 1.3-19.3 1.5-27.2 0.3-8.7 0.3-17.2 0.1-25.5h8.9c0.2 8.3 0.1 17-0.2 25.8z" fill="#db8527"/><path class="st21" d="m127.5 319.4h-8.8c-0.9-10.6-1.3-19.7-1.4-26.9-0.3-8.8-0.3-17.5-0.2-25.9h8.9c-0.2 8.4-0.2 16.9 0.1 25.7 0.1 7.9 0.5 17 1.4 27.1z" fill="#d78028"/><linearGradient id="l" x1="125.81" x2="158.27" y1="293.03" y2="293.03" gradientUnits="userSpaceOnUse"><stop stop-color="#FFCB10" offset="0"/><stop stop-color="#F3833C" offset="1"/></linearGradient><path class="st22" d="m158.3 319.4h-30.8c-0.9-10.1-1.3-19.2-1.5-27.1-0.3-8.7-0.3-17.3-0.1-25.7h30.8c-0.2 8-0.2 16.3 0.1 24.7v0.5c0.1 7.7 0.6 17 1.5 27.6z" fill="url(#l)"/><path class="st23" d="m167.1 319.4h-8.9c-0.9-10.6-1.3-19.9-1.5-27.6v-0.5c-0.3-8.4-0.3-16.7-0.1-24.7h8.8c-0.2 8-0.2 16.1 0.1 24.5v0.5c0.2 7.8 0.7 17.1 1.6 27.8z" fill="#ee5e2d"/><path class="st24" d="m171.5 319.4h-4.4c-1-10.7-1.4-20-1.5-27.7v-0.5c-0.3-8.4-0.3-16.5-0.1-24.5h4.4v0.2c0 1.9-0.1 3.9-0.1 5.9-0.1 6 0 12.1 0.2 18.3v0.6c0 0.8 0 1.6 0.1 2.5v2.6 1.1c0 1.1 0 2.2 0.1 3.3v1.1c0.1 2.4 0.2 5 0.4 7.6 0.1 1.5 0.2 2.9 0.3 4.4 0.1 1.1 0.2 2.2 0.3 3.4 0.2 0.4 0.3 1.1 0.3 1.7z" fill="#cf2e36"/><path class="st25" d="m128.5 329.3h-8.8c-0.4-3.4-0.7-6.7-1-9.9h8.8c0.3 3.2 0.6 6.5 1 9.9z" fill="#e0979e"/><path class="st26" d="m159.3 329.3h-30.8c-0.4-3.4-0.7-6.7-1-9.9h30.8c0.3 3.2 0.6 6.5 1 9.9z" fill="#fcfdfd"/><path class="st27" d="m168.1 329.3h-8.8c-0.4-3.4-0.7-6.7-1-9.9h8.9c0.2 3.2 0.5 6.5 0.9 9.9z" fill="#fcd6ca"/><path class="st28" d="m172.6 329.3h-4.4c-0.4-3.4-0.7-6.7-1-9.9h4.4c0.1 1.3 0.2 2.5 0.4 3.9 0.1 1.4 0.3 2.8 0.5 4.3-0.1 0.6 0 1.1 0.1 1.7z" fill="#d88798"/><path class="st29" d="m642.9 319.4c-0.3 3.2-0.6 6.5-1 9.9h-4.4c0.2-1.7 0.4-3.4 0.5-5.1 0-0.5 0.1-1 0.1-1.4 0.1-1.2 0.3-2.3 0.4-3.4z" fill="#d28b91"/><path class="st30" d="m651.7 319.4c-0.3 3.2-0.6 6.5-1 9.9h-8.8c0.4-3.4 0.7-6.7 1-9.9z" fill="#e2abab"/><path class="st31" d="m682.5 319.4c-0.3 3.2-0.6 6.5-1 9.9h-30.8c0.4-3.4 0.7-6.7 1-9.9z" fill="#fffcfd"/><path class="st32" d="m691.4 319.4c-0.3 3.2-0.6 6.5-1 9.9h-8.8c0.4-3.4 0.7-6.7 1-9.9z" fill="#dd8d96"/></g><radialGradient id="k" cx="640.08" cy="266.65" r="44.698" gradientUnits="userSpaceOnUse"><stop stop-color="#fff" offset="0"/><stop stop-color="#fff" stop-opacity="0" offset="1"/></radialGradient><circle class="st33" cx="640.1" cy="266.6" r="44.7" clip-path="url(#a)" fill="url(#k)"/></g></svg>
