<svg xmlns="http://www.w3.org/2000/svg" xmlns:svg="http://www.w3.org/2000/svg" width="273.71352515199663" height="365.34548281627195" viewBox="0 0 122.55058 163.44173" version="1.1" id="svg1">
  <defs id="defs1">
    <clipPath clipPathUnits="userSpaceOnUse" id="clipPath2971">
      <path d="m 50.623,292.064 h 34.739 v 46.33 H 50.623 Z" transform="translate(-67.990502,-328.92231)" id="path2971"/>
    </clipPath>
    <clipPath clipPathUnits="userSpaceOnUse" id="clipPath2973">
      <path d="m 49.883,291.928 h 36.221 v 46.467 H 49.883 Z" transform="translate(-63.726502,-303.55721)" id="path2973"/>
    </clipPath>
    <clipPath clipPathUnits="userSpaceOnUse" id="clipPath2975">
      <path d="m 49.883,291.928 h 36.221 v 46.467 H 49.883 Z" transform="translate(-79.225899,-335.48241)" id="path2975"/>
    </clipPath>
    <clipPath clipPathUnits="userSpaceOnUse" id="clipPath2977">
      <path d="m 49.883,291.928 h 36.221 v 46.467 H 49.883 Z" transform="translate(-68.009302,-310.81591)" id="path2977"/>
    </clipPath>
    <clipPath clipPathUnits="userSpaceOnUse" id="clipPath2979">
      <path d="m 49.883,291.928 h 36.221 v 46.467 H 49.883 Z" transform="translate(-67.487702,-322.59211)" id="path2979"/>
    </clipPath>
    <clipPath clipPathUnits="userSpaceOnUse" id="clipPath2981">
      <path d="m 49.883,291.928 h 36.221 v 46.467 H 49.883 Z" transform="translate(-73.096902,-318.38761)" id="path2981"/>
    </clipPath>
    <clipPath clipPathUnits="userSpaceOnUse" id="clipPath2983">
      <path d="m 49.883,291.928 h 36.221 v 46.467 H 49.883 Z" transform="translate(-62.900702,-318.38801)" id="path2983"/>
    </clipPath>
    <clipPath clipPathUnits="userSpaceOnUse" id="clipPath2985">
      <path d="m 49.883,291.928 h 36.221 v 46.467 H 49.883 Z" transform="translate(-60.646102,-317.08141)" id="path2985"/>
    </clipPath>
    <clipPath clipPathUnits="userSpaceOnUse" id="clipPath2987">
      <path d="m 49.883,291.928 h 36.221 v 46.467 H 49.883 Z" transform="translate(-75.381099,-315.75541)" id="path2987"/>
    </clipPath>
    <clipPath clipPathUnits="userSpaceOnUse" id="clipPath2989">
      <path d="m 49.883,291.928 h 36.221 v 46.467 H 49.883 Z" transform="translate(-57.563201,-315.24431)" id="path2989"/>
    </clipPath>
    <clipPath clipPathUnits="userSpaceOnUse" id="clipPath2991">
      <path d="m 49.883,291.928 h 36.221 v 46.467 H 49.883 Z" transform="translate(-75.361202,-312.79391)" id="path2991"/>
    </clipPath>
    <clipPath clipPathUnits="userSpaceOnUse" id="clipPath2993">
      <path d="m 49.883,291.928 h 36.221 v 46.467 H 49.883 Z" transform="translate(-60.628301,-312.24971)" id="path2993"/>
    </clipPath>
    <clipPath clipPathUnits="userSpaceOnUse" id="clipPath2995">
      <path d="m 49.883,291.928 h 36.221 v 46.467 H 49.883 Z" transform="translate(-75.379404,-312.25341)" id="path2995"/>
    </clipPath>
    <clipPath clipPathUnits="userSpaceOnUse" id="clipPath2997">
      <path d="m 49.883,291.928 h 36.221 v 46.467 H 49.883 Z" transform="translate(-65.709401,-302.38091)" id="path2997"/>
    </clipPath>
    <clipPath clipPathUnits="userSpaceOnUse" id="clipPath2999">
      <path d="m 49.883,291.928 h 36.221 v 46.467 H 49.883 Z" transform="translate(-70.304302,-302.36841)" id="path2999"/>
    </clipPath>
    <clipPath clipPathUnits="userSpaceOnUse" id="clipPath3001">
      <path d="m 49.883,291.928 h 36.221 v 46.467 H 49.883 Z" transform="translate(-60.646102,-309.43151)" id="path3001"/>
    </clipPath>
    <clipPath clipPathUnits="userSpaceOnUse" id="clipPath3003">
      <path d="m 49.883,291.928 h 36.221 v 46.467 H 49.883 Z" transform="translate(-75.361404,-309.43071)" id="path3003"/>
    </clipPath>
    <clipPath clipPathUnits="userSpaceOnUse" id="clipPath3005">
      <path d="m 49.883,291.928 h 36.221 v 46.467 H 49.883 Z" transform="translate(-72.275202,-303.55801)" id="path3005"/>
    </clipPath>
    <clipPath clipPathUnits="userSpaceOnUse" id="clipPath3007">
      <path d="m 49.883,291.928 h 36.221 v 46.467 H 49.883 Z" transform="translate(-63.726502,-303.55721)" id="path3007"/>
    </clipPath>
    <clipPath clipPathUnits="userSpaceOnUse" id="clipPath3009">
      <path d="m 49.883,291.928 h 36.221 v 46.467 H 49.883 Z" transform="translate(-74.451602,-332.85831)" id="path3009"/>
    </clipPath>
    <clipPath clipPathUnits="userSpaceOnUse" id="clipPath3011">
      <path d="m 49.883,291.928 h 36.221 v 46.467 H 49.883 Z" transform="translate(-65.360602,-332.73681)" id="path3011"/>
    </clipPath>
    <clipPath clipPathUnits="userSpaceOnUse" id="clipPath3013">
      <path d="m 49.883,291.928 h 36.221 v 46.467 H 49.883 Z" transform="translate(-59.997701,-332.46031)" id="path3013"/>
    </clipPath>
    <clipPath clipPathUnits="userSpaceOnUse" id="clipPath3015">
      <path d="m 49.883,291.928 h 36.221 v 46.467 H 49.883 Z" transform="translate(-79.158302,-332.47111)" id="path3015"/>
    </clipPath>
    <clipPath clipPathUnits="userSpaceOnUse" id="clipPath3017">
      <path d="m 49.883,291.928 h 36.221 v 46.467 H 49.883 Z" transform="translate(-68.751302,-332.46381)" id="path3017"/>
    </clipPath>
    <clipPath clipPathUnits="userSpaceOnUse" id="clipPath3019">
      <path d="m 49.883,291.928 h 36.221 v 46.467 H 49.883 Z" transform="translate(-55.388101,-333.28191)" id="path3019"/>
    </clipPath>
    <clipPath clipPathUnits="userSpaceOnUse" id="clipPath3021">
      <path d="m 49.883,291.928 h 36.221 v 46.467 H 49.883 Z" transform="translate(-79.225899,-335.48241)" id="path3021"/>
    </clipPath>
    <clipPath clipPathUnits="userSpaceOnUse" id="clipPath3023">
      <path d="m 49.883,291.928 h 36.221 v 46.467 H 49.883 Z" transform="translate(-68.003902,-316.26791)" id="path3023"/>
    </clipPath>
    <clipPath clipPathUnits="userSpaceOnUse" id="clipPath3025">
      <path d="m 49.883,291.928 h 36.221 v 46.467 H 49.883 Z" transform="translate(-70.632902,-307.25981)" id="path3025"/>
    </clipPath>
    <clipPath clipPathUnits="userSpaceOnUse" id="clipPath3027">
      <path d="m 49.883,291.928 h 36.221 v 46.467 H 49.883 Z" transform="translate(-64.459901,-313.95641)" id="path3027"/>
    </clipPath>
    <clipPath clipPathUnits="userSpaceOnUse" id="clipPath3029">
      <path d="m 49.883,291.928 h 36.221 v 46.467 H 49.883 Z" transform="translate(-67.487702,-322.59211)" id="path3029"/>
    </clipPath>
    <clipPath clipPathUnits="userSpaceOnUse" id="clipPath3031">
      <path d="m 49.883,291.928 h 36.221 v 46.467 H 49.883 Z" transform="translate(-59.997701,-332.46031)" id="path3031"/>
    </clipPath>
    <clipPath clipPathUnits="userSpaceOnUse" id="clipPath3033">
      <path d="m 49.883,291.928 h 36.221 v 46.467 H 49.883 Z" transform="translate(-79.158302,-332.47111)" id="path3033"/>
    </clipPath>
    <clipPath clipPathUnits="userSpaceOnUse" id="clipPath3035">
      <path d="m 49.883,291.928 h 36.221 v 46.467 H 49.883 Z" transform="translate(-68.751302,-332.46381)" id="path3035"/>
    </clipPath>
    <clipPath clipPathUnits="userSpaceOnUse" id="clipPath3037">
      <path d="m 49.883,291.928 h 36.221 v 46.467 H 49.883 Z" transform="translate(-55.388101,-333.28191)" id="path3037"/>
    </clipPath>
    <clipPath clipPathUnits="userSpaceOnUse" id="clipPath3039">
      <path d="m 49.883,291.928 h 36.221 v 46.467 H 49.883 Z" transform="translate(-70.632902,-307.25981)" id="path3039"/>
    </clipPath>
    <clipPath clipPathUnits="userSpaceOnUse" id="clipPath3041">
      <path d="m 49.883,291.928 h 36.221 v 46.467 H 49.883 Z" transform="translate(-64.459901,-313.95641)" id="path3041"/>
    </clipPath>
  </defs>
  <g id="layer1" transform="translate(-105.98349,-25.669972)">
    <path id="path2970" d="m 0,0 c 5.372,0 10.743,0 16.115,0 0.223,0 0.192,-0.02 0.192,0.19 0.001,2.537 0.001,5.075 0.001,7.612 0,0.038 0.001,0.076 -0.001,0.114 C 16.302,8.032 16.264,8.132 16.182,8.22 16.042,8.371 15.87,8.411 15.672,8.411 5.251,8.409 -5.171,8.409 -15.592,8.409 c -0.057,0 -0.114,10e-4 -0.171,0 -0.168,-0.002 -0.296,-0.083 -0.404,-0.204 -0.131,-0.147 -0.138,-0.33 -0.138,-0.513 0,-2.48 0,-4.961 0,-7.442 0,-0.25 0,-0.25 0.246,-0.25 C -10.706,0 -5.353,0 0,0 m 0.013,-1.061 c -5.347,0 -10.694,0 -16.042,0 -0.294,0 -0.276,0.037 -0.276,-0.272 0,-6.288 0,-12.576 -0.001,-18.864 0,-0.56 0.012,-1.118 0.063,-1.676 0.035,-0.38 0.088,-0.755 0.153,-1.131 0.082,-0.48 0.202,-0.948 0.342,-1.413 0.252,-0.834 0.596,-1.628 1.026,-2.384 0.233,-0.408 0.483,-0.805 0.765,-1.181 0.204,-0.271 0.41,-0.539 0.635,-0.794 0.2,-0.226 0.398,-0.455 0.615,-0.663 0.194,-0.185 0.39,-0.372 0.596,-0.547 0.331,-0.28 0.672,-0.544 1.027,-0.791 0.818,-0.567 1.664,-1.09 2.534,-1.573 0.578,-0.322 1.166,-0.625 1.76,-0.916 0.392,-0.193 0.788,-0.377 1.185,-0.561 0.573,-0.265 1.155,-0.506 1.74,-0.741 0.947,-0.382 1.913,-0.715 2.884,-1.031 0.207,-0.067 0.414,-0.143 0.633,-0.156 0.204,-0.013 0.407,-0.048 0.615,-0.011 0.134,0.024 0.271,0.031 0.405,0.069 0.509,0.146 1.009,0.318 1.508,0.493 0.794,0.277 1.578,0.581 2.355,0.905 0.635,0.263 1.263,0.541 1.883,0.837 0.576,0.275 1.146,0.564 1.709,0.864 0.365,0.194 0.725,0.398 1.081,0.608 0.603,0.355 1.198,0.726 1.775,1.125 0.537,0.372 1.054,0.769 1.528,1.219 0.452,0.429 0.879,0.883 1.259,1.378 0.363,0.472 0.692,0.966 0.985,1.485 0.336,0.595 0.617,1.215 0.846,1.858 0.187,0.521 0.337,1.053 0.451,1.597 0.087,0.415 0.162,0.833 0.204,1.252 0.033,0.33 0.054,0.663 0.054,0.998 -0.003,6.603 -0.002,13.207 -0.003,19.811 0,0.238 0.032,0.206 -0.214,0.206 -5.36,0 -10.72,0 -16.08,0 m 15.76,10.53 c 0.572,-10e-4 1.026,-0.247 1.349,-0.721 0.173,-0.255 0.25,-0.537 0.249,-0.849 -0.004,-2.487 -0.002,-21.665 -0.002,-28.767 0,-0.233 0.011,-0.468 -0.008,-0.7 -0.025,-0.323 -0.048,-0.647 -0.095,-0.969 -0.038,-0.253 -0.078,-0.505 -0.122,-0.757 -0.123,-0.707 -0.32,-1.394 -0.567,-2.068 -0.297,-0.812 -0.665,-1.588 -1.118,-2.327 -0.314,-0.513 -0.659,-1.005 -1.035,-1.474 -0.403,-0.502 -0.85,-0.965 -1.323,-1.4 -0.69,-0.633 -1.46,-1.162 -2.245,-1.669 -0.6,-0.386 -1.212,-0.752 -1.839,-1.092 -0.467,-0.254 -0.932,-0.515 -1.408,-0.752 -0.515,-0.257 -1.039,-0.494 -1.563,-0.732 -0.421,-0.191 -0.847,-0.369 -1.273,-0.547 -0.506,-0.211 -1.018,-0.409 -1.531,-0.601 -0.753,-0.28 -1.511,-0.544 -2.283,-0.767 -0.381,-0.11 -0.774,-0.158 -1.17,-0.125 -0.418,0.034 -0.82,0.144 -1.218,0.274 -0.573,0.189 -1.143,0.384 -1.711,0.589 -0.557,0.2 -1.106,0.423 -1.654,0.645 -0.782,0.318 -1.549,0.668 -2.311,1.029 -0.536,0.254 -1.059,0.535 -1.581,0.818 -0.358,0.194 -0.715,0.39 -1.064,0.598 -0.656,0.39 -1.306,0.789 -1.929,1.231 -0.348,0.247 -0.691,0.499 -1.018,0.772 -0.222,0.185 -0.433,0.384 -0.642,0.585 -0.394,0.379 -0.768,0.776 -1.108,1.202 -0.378,0.474 -0.728,0.969 -1.036,1.495 -0.193,0.33 -0.384,0.66 -0.55,1.004 -0.405,0.839 -0.727,1.71 -0.945,2.615 -0.105,0.435 -0.193,0.874 -0.249,1.321 -0.051,0.411 -0.083,0.821 -0.114,1.233 -0.039,0.516 -0.023,1.032 -0.023,1.548 -0.003,9.248 -0.002,18.496 -10e-4,27.744 0,0.691 0.415,1.283 1.073,1.525 0.167,0.061 0.347,0.093 0.533,0.093 5.252,-0.003 26.273,-0.002 31.532,-0.004" style="fill:#c29d72;fill-opacity:1;fill-rule:nonzero;stroke:none" transform="matrix(3.5277776,0,0,-3.5277776,167.25129,59.083988)" clip-path="url(#clipPath2971)"/>
    <path id="path2972" d="m 0,0 c -0.146,-0.251 -0.282,-0.484 -0.417,-0.718 -0.346,-0.599 -0.692,-1.198 -1.036,-1.798 -0.129,-0.226 -0.062,-0.384 0.188,-0.458 0.261,-0.076 0.524,-0.107 0.8,-0.078 0.617,0.066 1.118,0.341 1.484,0.834 0.254,0.343 0.468,0.716 0.703,1.074 0.046,0.069 0.015,0.096 -0.045,0.127 -0.15,0.079 -0.298,0.162 -0.446,0.244 C 0.812,-0.541 0.41,-0.283 0,0 M 8.549,0.001 C 7.976,-0.406 7.386,-0.747 6.781,-1.069 7.01,-1.424 7.228,-1.762 7.446,-2.1 7.584,-2.315 7.752,-2.501 7.96,-2.649 c 0.581,-0.413 1.215,-0.516 1.897,-0.316 0.189,0.055 0.259,0.224 0.173,0.401 -0.03,0.062 -0.067,0.12 -0.102,0.18 -0.282,0.491 -0.563,0.981 -0.846,1.471 -0.173,0.299 -0.348,0.597 -0.533,0.914 m 3.086,5.872 c 0,-0.173 -0.002,-0.318 0,-0.462 0.009,-0.568 0.003,-1.134 -0.155,-1.687 -0.03,-0.105 -0.022,-0.11 0.101,-0.154 0.951,-0.342 1.9,-0.688 2.853,-1.023 0.479,-0.169 0.965,-0.155 1.439,0.026 0.392,0.149 0.712,0.399 0.956,0.742 0.136,0.192 0.088,0.363 -0.121,0.459 -0.023,0.01 -0.045,0.022 -0.069,0.031 -1.333,0.552 -2.667,1.104 -4.001,1.656 -0.324,0.134 -0.649,0.267 -1.003,0.412 M -3.08,5.874 C -3.277,5.795 -3.439,5.73 -3.601,5.664 -4.905,5.123 -6.209,4.582 -7.513,4.041 -7.727,3.952 -7.942,3.865 -8.155,3.774 -8.372,3.682 -8.418,3.516 -8.283,3.32 c 0.025,-0.036 0.051,-0.072 0.079,-0.106 0.596,-0.72 1.531,-0.959 2.403,-0.644 0.236,0.085 0.471,0.172 0.708,0.257 0.684,0.246 1.369,0.491 2.054,0.737 0.141,0.051 0.137,0.051 0.103,0.2 -0.037,0.159 -0.069,0.319 -0.098,0.479 -0.056,0.312 -0.046,0.628 -0.046,0.943 -10e-4,0.22 0,0.439 0,0.688 M 6.578,-1.189 C 6.552,-1.194 6.532,-1.194 6.516,-1.202 5.91,-1.494 5.298,-1.771 4.661,-1.989 4.562,-2.023 4.557,-2.038 4.597,-2.143 5.009,-3.229 5.414,-4.318 5.838,-5.399 6.112,-6.1 6.635,-6.532 7.368,-6.7 c 0.221,-0.05 0.447,-0.073 0.675,-0.032 0.147,0.026 0.22,0.123 0.234,0.257 0.006,0.053 -0.018,0.11 -0.035,0.163 -0.334,1.027 -0.669,2.054 -1.003,3.08 -0.221,0.68 -0.44,1.361 -0.661,2.043 M 1.983,-1.176 C 1.961,-1.238 1.944,-1.284 1.929,-1.332 1.614,-2.298 1.3,-3.264 0.986,-4.23 0.757,-4.934 0.528,-5.638 0.302,-6.342 0.229,-6.572 0.315,-6.705 0.554,-6.74 c 0.215,-0.031 0.431,-0.011 0.638,0.041 0.747,0.184 1.272,0.628 1.544,1.359 0.164,0.44 0.336,0.878 0.502,1.318 0.239,0.628 0.476,1.255 0.713,1.883 0.041,0.111 0.04,0.112 -0.078,0.155 C 3.755,-1.94 3.636,-1.9 3.519,-1.855 3.004,-1.656 2.5,-1.43 1.983,-1.176 m 9.67,9.872 C 11.62,8.633 11.636,8.569 11.635,8.507 11.634,7.895 11.634,7.283 11.636,6.671 11.636,6.578 11.6,6.47 11.656,6.395 11.711,6.322 11.821,6.355 11.907,6.342 12.453,6.256 13,6.172 13.547,6.09 14.013,6.02 14.48,5.958 14.946,5.884 c 0.433,-0.068 0.855,-0.04 1.259,0.132 0.559,0.237 0.959,0.639 1.195,1.199 0.083,0.196 0.003,0.34 -0.208,0.394 C 17.15,7.62 17.107,7.63 17.064,7.639 16.719,7.707 16.373,7.773 16.028,7.842 15.302,7.987 14.576,8.135 13.85,8.28 13.185,8.413 12.519,8.543 11.854,8.676 11.787,8.689 11.721,8.708 11.653,8.696 M -3.098,8.692 C -3.188,8.721 -3.27,8.679 -3.355,8.662 -4.156,8.504 -4.957,8.345 -5.757,8.187 -6.312,8.077 -6.868,7.969 -7.423,7.86 -7.818,7.782 -8.213,7.705 -8.606,7.623 -8.866,7.568 -8.938,7.411 -8.829,7.163 -8.737,6.954 -8.618,6.762 -8.464,6.594 -8.045,6.136 -7.53,5.88 -6.905,5.852 c 0.292,-0.013 0.577,0.039 0.863,0.082 0.461,0.069 0.921,0.134 1.382,0.203 0.473,0.07 0.945,0.144 1.417,0.213 0.16,0.024 0.162,0.019 0.162,0.186 10e-4,0.676 10e-4,1.351 0,2.027 0,0.043 0.012,0.088 -0.017,0.129 m 14.733,0.545 c 0.193,-0.008 0.366,0.017 0.541,0.023 0.528,0.02 1.055,0.047 1.583,0.076 0.641,0.036 1.283,0.06 1.924,0.088 0.887,0.038 1.561,0.432 2.012,1.2 0.129,0.219 0.203,0.46 0.254,0.706 0.045,0.216 -0.074,0.351 -0.297,0.357 -0.025,0.001 -0.05,0 -0.075,0 h -3.294 c -0.833,0 -1.666,0.001 -2.499,0 -0.146,0 -0.149,-0.002 -0.149,-0.12 -10e-4,-0.77 0,-1.539 0,-2.33 m -17.798,2.45 h -0.568 c -0.789,0 -1.578,0.001 -2.367,0 -0.225,-10e-4 -0.32,-0.11 -0.299,-0.333 0.004,-0.044 0.011,-0.088 0.021,-0.13 0.054,-0.228 0.134,-0.448 0.257,-0.646 0.385,-0.621 0.93,-1.009 1.662,-1.126 0.287,-0.046 0.577,-0.033 0.865,-0.054 0.54,-0.039 1.081,-0.055 1.622,-0.08 0.214,-0.01 0.428,-0.015 0.642,-0.025 0.383,-0.018 0.766,-0.038 1.15,-0.06 0.072,-0.004 0.1,0.014 0.099,0.092 -0.002,0.745 -10e-4,1.489 -0.002,2.234 0,0.124 -0.005,0.124 -0.129,0.128 -0.032,0.001 -0.063,0 -0.095,0 z m 17.818,0.511 c 0.061,0.014 0.127,0.028 0.193,0.045 0.979,0.246 1.959,0.489 2.938,0.74 0.358,0.091 0.726,0.152 1.067,0.3 1.051,0.455 1.702,1.24 1.924,2.369 0.046,0.235 -0.101,0.373 -0.339,0.326 -0.684,-0.132 -1.368,-0.267 -2.051,-0.402 -0.53,-0.106 -1.059,-0.215 -1.589,-0.32 -0.671,-0.132 -1.344,-0.261 -2.015,-0.393 -0.147,-0.029 -0.148,-0.032 -0.148,-0.18 0,-0.789 0,-1.577 0,-2.366 0,-0.037 -0.009,-0.076 0.02,-0.119 m -14.736,1.326 c 0,0.391 10e-4,0.783 0,1.174 0,0.123 -10e-4,0.126 -0.129,0.153 -0.474,0.097 -0.949,0.192 -1.423,0.287 -0.739,0.148 -1.477,0.297 -2.216,0.443 -0.677,0.134 -1.357,0.26 -2.032,0.401 -0.239,0.05 -0.403,-0.133 -0.351,-0.345 0.028,-0.116 0.055,-0.233 0.092,-0.346 0.37,-1.13 1.135,-1.85 2.28,-2.152 1.092,-0.289 2.19,-0.554 3.286,-0.829 0.109,-0.028 0.219,-0.056 0.329,-0.082 0.156,-0.036 0.162,-0.032 0.164,0.122 10e-4,0.032 10e-4,0.064 10e-4,0.095 0,0.36 0,0.719 -10e-4,1.079 m 2.255,1.307 c 0.29,0 0.581,0.002 0.871,-0.002 0.082,-0.001 0.12,0.027 0.148,0.107 0.121,0.354 0.158,0.72 0.098,1.082 -0.143,0.855 -0.611,1.476 -1.42,1.814 -1.744,0.727 -3.49,1.447 -5.235,2.171 -0.672,0.278 -1.346,0.553 -2.016,0.838 -0.203,0.087 -0.395,0.018 -0.438,-0.221 -0.066,-0.363 -0.08,-0.73 0.005,-1.089 0.197,-0.84 0.681,-1.46 1.463,-1.836 0.543,-0.262 1.09,-0.516 1.635,-0.773 1.102,-0.519 2.204,-1.038 3.307,-1.555 0.226,-0.106 0.433,-0.232 0.556,-0.461 0.035,-0.067 0.088,-0.077 0.155,-0.076 0.291,0.002 0.581,10e-4 0.871,10e-4 M 9.37,14.83 v 10e-4 h 0.871 c 0.063,0 0.118,-0.006 0.158,0.069 0.129,0.239 0.349,0.37 0.588,0.481 0.701,0.324 1.399,0.655 2.097,0.984 0.869,0.409 1.735,0.826 2.608,1.228 0.453,0.208 0.865,0.463 1.17,0.867 0.485,0.643 0.661,1.36 0.5,2.153 -0.05,0.25 -0.191,0.321 -0.426,0.227 -0.204,-0.081 -0.407,-0.166 -0.61,-0.25 C 14.72,19.923 13.114,19.257 11.508,18.591 10.894,18.336 10.279,18.083 9.664,17.829 8.577,17.379 7.977,16.162 8.344,14.975 8.388,14.832 8.389,14.831 8.537,14.831 8.815,14.83 9.093,14.83 9.37,14.83 m -8.209,0.02 c 0.217,-0.033 6.062,-0.027 6.187,0.005 -0.647,0.15 -1.088,0.531 -1.256,1.197 -0.073,0.287 -0.082,0.585 -0.102,0.879 -0.02,0.29 0.268,0.531 0.515,0.52 0.157,-0.007 0.315,-0.006 0.473,0 0.133,0.005 0.247,-0.017 0.336,-0.129 0.068,-0.085 0.167,-0.093 0.26,-0.058 0.092,0.034 0.125,0.114 0.123,0.213 -0.004,0.195 0,0.391 -0.003,0.587 C 7.693,18.12 7.686,18.178 7.673,18.232 7.553,18.71 7.121,19.047 6.639,19.042 6.386,19.039 6.134,19.043 5.881,19.04 5.81,19.039 5.773,19.049 5.757,19.136 5.706,19.413 5.509,19.568 5.224,19.571 5.041,19.573 4.858,19.579 4.675,19.57 4.292,19.552 3.829,19.776 3.635,20.274 3.469,20.701 3.285,21.122 3.11,21.545 3.092,21.591 3.082,21.64 3.033,21.669 3.008,21.661 2.983,21.656 2.961,21.644 2.545,21.423 2.354,20.928 2.517,20.48 2.573,20.326 2.64,20.177 2.702,20.026 2.718,19.988 2.752,19.951 2.704,19.9 2.277,20.184 1.849,20.47 1.42,20.756 1.399,20.736 1.381,20.726 1.372,20.711 1.126,20.299 1.24,19.744 1.63,19.462 1.773,19.359 1.922,19.265 2.068,19.165 2.101,19.143 2.152,19.135 2.152,19.079 2.096,19.054 2.039,19.067 1.983,19.066 c -0.379,-10e-4 -0.758,0 -1.136,0 -0.306,0 -0.309,-0.004 -0.212,-0.308 C 0.759,18.369 1.119,18.103 1.531,18.1 1.749,18.098 1.966,18.099 2.193,18.099 2.167,18.043 2.129,18.032 2.098,18.011 1.733,17.765 1.367,17.519 1.001,17.272 0.874,17.187 0.872,17.173 0.978,17.063 1.098,16.938 1.24,16.85 1.409,16.803 1.707,16.72 1.98,16.774 2.236,16.944 2.343,17.015 2.442,17.1 2.576,17.152 2.586,16.935 2.545,16.736 2.526,16.537 2.508,16.345 2.503,16.148 2.44,15.961 2.23,15.339 1.799,14.974 1.161,14.85 m 3.121,-1.069 c -1.887,0 -3.775,0 -5.662,0 -0.057,0 -0.114,0.002 -0.17,-0.002 -0.222,-0.013 -0.388,-0.145 -0.464,-0.354 -0.034,-0.093 -0.031,-0.186 -0.031,-0.28 0,-2.72 0.003,-5.441 -0.002,-8.161 -0.002,-0.739 0.2,-1.414 0.58,-2.04 0.434,-0.717 1.02,-1.296 1.677,-1.805 1.133,-0.876 2.394,-1.523 3.724,-2.044 0.238,-0.093 0.452,-0.09 0.69,0.003 1.034,0.404 2.025,0.889 2.954,1.498 0.778,0.509 1.495,1.09 2.078,1.825 0.622,0.787 0.954,1.667 0.95,2.682 -0.011,2.67 -0.004,5.34 -0.004,8.009 0,0.051 0.003,0.102 -0.002,0.152 -0.016,0.163 -0.078,0.302 -0.209,0.408 -0.121,0.098 -0.262,0.11 -0.41,0.11 C 8.082,13.78 6.182,13.781 4.282,13.781 m 16.075,10.523 c 0.246,0 0.214,0.032 0.214,-0.206 10e-4,-6.604 0,-13.208 0.003,-19.811 0,-0.335 -0.021,-0.668 -0.054,-0.998 C 20.478,2.87 20.403,2.452 20.316,2.037 20.202,1.493 20.052,0.961 19.865,0.44 19.636,-0.203 19.355,-0.823 19.019,-1.418 18.726,-1.937 18.397,-2.431 18.034,-2.903 17.654,-3.398 17.227,-3.852 16.775,-4.281 16.301,-4.731 15.784,-5.128 15.247,-5.5 14.67,-5.899 14.075,-6.27 13.472,-6.625 13.116,-6.835 12.756,-7.038 12.391,-7.233 11.828,-7.533 11.258,-7.822 10.682,-8.097 10.062,-8.393 9.434,-8.671 8.799,-8.934 8.022,-9.257 7.238,-9.561 6.444,-9.839 5.945,-10.014 5.445,-10.186 4.936,-10.332 4.802,-10.37 4.665,-10.377 4.531,-10.401 4.323,-10.438 4.12,-10.403 3.916,-10.39 c -0.219,0.013 -0.426,0.089 -0.633,0.156 -0.971,0.316 -1.937,0.649 -2.884,1.031 -0.585,0.235 -1.167,0.476 -1.74,0.741 -0.397,0.184 -0.793,0.368 -1.185,0.561 -0.594,0.291 -1.182,0.594 -1.76,0.916 -0.87,0.483 -1.716,1.006 -2.534,1.573 -0.355,0.247 -0.696,0.511 -1.027,0.791 -0.206,0.175 -0.402,0.362 -0.596,0.547 -0.217,0.208 -0.415,0.437 -0.615,0.663 -0.225,0.255 -0.431,0.523 -0.635,0.794 -0.283,0.376 -0.532,0.773 -0.765,1.181 -0.43,0.756 -0.774,1.55 -1.026,2.384 -0.14,0.465 -0.26,0.933 -0.342,1.413 -0.065,0.376 -0.118,0.751 -0.153,1.131 -0.051,0.558 -0.063,1.116 -0.063,1.676 10e-4,6.288 10e-4,12.576 10e-4,18.864 0,0.309 -0.018,0.272 0.276,0.272 5.348,0 26.762,0 32.122,0" style="fill:#fefefe;fill-opacity:1;fill-rule:nonzero;stroke:none" transform="matrix(3.5277776,0,0,-3.5277776,152.20879,148.56649)" clip-path="url(#clipPath2973)"/>
    <path id="path2974" d="M 0,0 C 0.247,0 0.491,0.002 0.736,-0.001 0.794,-0.002 0.829,0.025 0.863,0.066 0.967,0.192 1.07,0.319 1.177,0.443 1.223,0.496 1.228,0.535 1.169,0.583 1.052,0.678 0.937,0.775 0.824,0.876 0.767,0.926 0.728,0.914 0.683,0.86 0.494,0.633 0.301,0.409 0.113,0.18 0.072,0.129 0.004,0.091 0,0 m -24.919,-2.353 c 0,-0.619 0,-1.238 0,-1.856 0,-0.064 0.003,-0.127 0,-0.19 -0.003,-0.059 0.025,-0.076 0.079,-0.076 0.309,10e-4 0.619,10e-4 0.928,0 0.057,0 0.078,0.025 0.074,0.08 -0.003,0.044 0,0.089 0,0.133 0,0.347 -10e-4,0.694 0.001,1.041 0,0.111 0.003,0.114 0.115,0.114 0.24,0.002 0.48,-0.006 0.72,0.002 0.451,0.015 0.819,0.2 1.06,0.587 0.28,0.449 0.261,0.942 0.121,1.423 -0.137,0.47 -0.609,0.819 -1.068,0.829 -0.624,0.013 -1.248,0.015 -1.873,0.021 -0.154,0.001 -0.156,-0.002 -0.156,-0.157 -0.001,-0.651 -0.001,-1.301 -0.001,-1.951 m 12.744,-2.122 c 0.379,0 0.732,0.002 1.084,-0.002 0.072,-10e-4 0.098,0.031 0.119,0.091 0.049,0.142 0.104,0.282 0.153,0.424 0.021,0.061 0.048,0.091 0.119,0.09 0.455,-0.003 0.909,-0.003 1.364,0 0.078,0 0.109,-0.031 0.132,-0.103 0.042,-0.138 0.101,-0.27 0.145,-0.408 0.024,-0.073 0.064,-0.097 0.138,-0.093 0.114,0.005 0.228,0.001 0.341,0.001 0.233,0 0.466,0 0.698,0 0.013,0.101 -0.032,0.173 -0.059,0.248 -0.229,0.63 -0.461,1.26 -0.691,1.89 -0.231,0.637 -0.46,1.275 -0.694,1.911 -0.072,0.197 -0.022,0.181 -0.266,0.182 -0.29,0 -0.581,-0.001 -0.871,-0.001 -0.179,0.001 -0.171,0.013 -0.237,-0.17 -0.294,-0.809 -0.592,-1.616 -0.886,-2.425 -0.195,-0.536 -0.387,-1.074 -0.589,-1.635 m 14.705,0 C 2.538,-4.419 2.52,-4.386 2.507,-4.35 2.3,-3.785 2.096,-3.219 1.889,-2.653 1.614,-1.898 1.338,-1.144 1.062,-0.39 c -0.053,0.144 -0.054,0.145 -0.193,0.145 -0.322,0.001 -0.644,0.001 -0.966,0 -0.135,0 -0.137,-0.001 -0.185,-0.133 -0.484,-1.328 -0.967,-2.656 -1.451,-3.984 -0.012,-0.034 -0.03,-0.067 0,-0.113 0.341,0 0.688,0.002 1.034,-0.001 0.078,-0.001 0.111,0.03 0.133,0.101 0.044,0.137 0.098,0.271 0.146,0.407 0.023,0.068 0.061,0.097 0.138,0.096 0.448,-0.004 0.897,-0.004 1.345,0 0.078,10e-4 0.114,-0.03 0.137,-0.096 0.045,-0.131 0.099,-0.259 0.137,-0.391 0.025,-0.086 0.063,-0.123 0.157,-0.118 0.164,0.008 0.329,0.002 0.493,0.002 z m -20.07,0 c -0.008,0.048 -0.009,0.067 -0.015,0.084 -0.365,1.003 -0.73,2.005 -1.095,3.007 -0.125,0.341 -0.249,0.683 -0.374,1.025 -0.021,0.057 -0.034,0.117 -0.122,0.116 -0.36,-0.004 -0.72,-0.003 -1.079,-0.001 -0.067,0 -0.102,-0.024 -0.124,-0.089 -0.053,-0.161 -0.114,-0.319 -0.172,-0.478 -0.425,-1.17 -0.85,-2.339 -1.276,-3.508 -0.017,-0.047 -0.043,-0.09 -0.024,-0.156 0.356,0 0.715,10e-4 1.074,0 0.054,-0.001 0.077,0.029 0.093,0.075 0.05,0.142 0.105,0.282 0.153,0.425 0.025,0.077 0.069,0.104 0.152,0.103 0.442,-0.004 0.883,-0.005 1.325,10e-4 0.091,0.002 0.123,-0.038 0.148,-0.108 0.051,-0.142 0.106,-0.283 0.152,-0.426 0.017,-0.052 0.043,-0.07 0.094,-0.07 0.359,10e-4 0.718,0 1.09,0 m 3.675,1.729 c -0.132,0.164 -0.239,0.296 -0.345,0.429 -0.525,0.661 -1.052,1.321 -1.574,1.985 -0.054,0.07 -0.11,0.09 -0.191,0.089 -0.253,-0.004 -0.505,-0.002 -0.758,-0.002 -0.244,0 -0.244,0 -0.244,-0.233 0,-1.212 -0.001,-2.424 0.002,-3.637 0,-0.117 -0.027,-0.237 0.02,-0.352 0.113,-0.002 0.225,-0.007 0.338,-0.008 0.232,-0.001 0.464,0 0.706,0 v 2.53 c 0.077,-0.011 0.1,-0.07 0.133,-0.112 0.311,-0.388 0.62,-0.779 0.929,-1.17 0.31,-0.39 0.619,-0.78 0.929,-1.17 0.031,-0.038 0.057,-0.079 0.119,-0.079 0.327,0.002 0.654,0.001 0.972,0.001 0.036,0.054 0.024,0.099 0.024,0.141 10e-4,1.307 10e-4,2.614 10e-4,3.92 0,0.026 -0.002,0.051 0,0.076 0.008,0.078 -0.032,0.095 -0.102,0.095 -0.271,-0.003 -0.542,0 -0.814,-0.002 -0.143,-0.001 -0.145,-0.003 -0.145,-0.15 -10e-4,-0.524 0,-1.048 0,-1.572 z m 9.091,0.122 c -0.028,0.062 -0.036,0.079 -0.042,0.096 -0.263,0.72 -0.528,1.439 -0.785,2.161 -0.034,0.094 -0.076,0.127 -0.175,0.125 -0.252,-0.007 -0.505,-0.003 -0.757,-0.003 -0.183,0 -0.183,0 -0.211,-0.178 -0.001,-0.007 -0.001,-0.013 -0.002,-0.019 -0.105,-0.607 -0.209,-1.214 -0.316,-1.82 -0.119,-0.675 -0.242,-1.349 -0.363,-2.023 -0.01,-0.059 -0.01,-0.119 -0.015,-0.19 0.334,0 0.649,0.002 0.964,-0.001 0.072,-0.001 0.094,0.026 0.106,0.096 0.1,0.595 0.201,1.19 0.311,1.783 0.019,0.102 0.01,0.215 0.084,0.319 0.061,-0.168 0.118,-0.325 0.175,-0.482 0.196,-0.537 0.394,-1.073 0.586,-1.612 0.028,-0.078 0.063,-0.109 0.147,-0.105 0.138,0.007 0.277,0 0.416,0.003 0.088,0.001 0.193,-0.034 0.258,0.016 0.07,0.054 0.078,0.166 0.109,0.253 0.216,0.596 0.432,1.191 0.651,1.785 0.014,0.038 0.01,0.102 0.074,0.109 0.009,-0.01 0.015,-0.014 0.016,-0.019 0.12,-0.681 0.24,-1.361 0.356,-2.042 0.013,-0.079 0.04,-0.107 0.119,-0.104 0.164,0.004 0.328,0.001 0.492,0.001 h 0.478 c -0.084,0.47 -0.166,0.92 -0.245,1.371 -0.107,0.607 -0.212,1.214 -0.317,1.821 -0.053,0.303 -0.1,0.608 -0.162,0.909 -0.029,0.138 -0.01,0.131 -0.158,0.13 -0.252,-0.002 -0.505,0 -0.757,-0.001 -0.17,0 -0.172,0 -0.228,-0.155 -0.159,-0.436 -0.316,-0.873 -0.474,-1.309 -0.106,-0.292 -0.214,-0.583 -0.335,-0.915 m -22.52,-3.936 c -0.247,0 -0.246,0 -0.246,0.25 0,2.481 -0.001,4.962 0,7.442 0,0.183 0.006,0.365 0.138,0.513 0.108,0.121 0.236,0.202 0.404,0.204 0.057,0.001 0.114,0 0.17,0 10.422,0 20.844,0 31.265,0.002 0.198,0 0.37,-0.041 0.51,-0.191 0.081,-0.088 0.12,-0.188 0.125,-0.304 0.002,-0.038 0,-0.076 0,-0.114 0,-2.537 0.001,-5.075 0,-7.612 0,-0.21 0.031,-0.19 -0.192,-0.19 -5.372,0 -26.821,0 -32.174,0" style="fill:#fefefe;fill-opacity:1;fill-rule:nonzero;stroke:none" transform="matrix(3.5277776,0,0,-3.5277776,206.88729,35.941388)" clip-path="url(#clipPath2975)"/>
    <path id="path2976" d="m 0,0 -0.003,0.003 v -7.147 c 0.252,0.086 0.48,0.188 0.707,0.291 1.105,0.501 2.158,1.086 3.078,1.888 0.411,0.358 0.776,0.757 1.057,1.227 0.262,0.44 0.412,0.91 0.402,1.432 -0.012,0.687 -0.002,1.375 -0.004,2.063 0,0.081 0.023,0.163 -0.009,0.242 0.068,0.047 0.031,0.116 0.032,0.174 0.002,1.691 0.002,3.383 0,5.074 0,0.227 0.047,0.21 -0.21,0.21 -1.628,0.001 -3.257,0.001 -4.885,0 -0.057,0 -0.114,-0.003 -0.17,-0.005 -0.051,0.003 -0.101,0.009 -0.151,0.009 -1.665,0 -3.33,0 -4.995,0 -0.035,0 -0.076,0.015 -0.105,-0.019 C -5.29,5.032 -5.276,0.141 -5.239,0 Z M 5.699,6.523 C 5.847,6.523 5.987,6.512 6.108,6.414 6.239,6.308 6.301,6.168 6.317,6.005 6.322,5.955 6.319,5.904 6.319,5.854 c 0,-2.67 -0.007,-5.34 0.004,-8.01 0.004,-1.015 -0.327,-1.895 -0.95,-2.681 -0.582,-0.736 -1.3,-1.316 -2.078,-1.826 -0.929,-0.609 -1.92,-1.094 -2.954,-1.498 -0.238,-0.092 -0.452,-0.095 -0.69,-0.002 -1.33,0.52 -2.59,1.167 -3.724,2.044 -0.657,0.508 -1.243,1.087 -1.677,1.804 -0.379,0.627 -0.582,1.301 -0.58,2.04 0.005,2.72 0.002,5.441 0.002,8.161 0,0.094 -0.003,0.187 0.031,0.28 0.076,0.209 0.242,0.342 0.464,0.355 0.057,0.003 0.114,0.001 0.17,0.001 1.888,0 9.462,0 11.362,10e-4" style="fill:#222a45;fill-opacity:1;fill-rule:nonzero;stroke:none" transform="matrix(3.5277776,0,0,-3.5277776,167.31759,122.95939)" clip-path="url(#clipPath2977)"/>
    <path id="path2978" d="M 0,0 C 0.027,-0.29 0.231,-0.505 0.495,-0.507 0.757,-0.509 1.023,-0.318 1.028,0 Z m -2.6,-4.185 c 0.638,0.124 1.069,0.489 1.279,1.111 0.063,0.187 0.068,0.384 0.086,0.577 0.019,0.199 0.06,0.397 0.05,0.614 -0.134,-0.052 -0.233,-0.137 -0.34,-0.208 -0.256,-0.17 -0.529,-0.224 -0.827,-0.141 -0.169,0.047 -0.311,0.135 -0.431,0.26 -0.106,0.11 -0.104,0.124 0.023,0.21 0.366,0.246 0.732,0.492 1.097,0.739 0.03,0.02 0.069,0.031 0.094,0.087 -0.226,0 -0.443,-0.001 -0.661,0.001 -0.412,0.003 -0.772,0.269 -0.896,0.658 -0.097,0.304 -0.094,0.308 0.211,0.308 0.379,0 0.758,-0.001 1.137,0.001 0.056,0 0.113,-0.013 0.169,0.012 0,0.056 -0.051,0.064 -0.084,0.087 -0.146,0.099 -0.295,0.193 -0.438,0.296 -0.39,0.282 -0.504,0.837 -0.258,1.249 0.009,0.015 0.026,0.025 0.048,0.045 0.429,-0.286 0.857,-0.572 1.284,-0.856 0.047,0.051 0.014,0.088 -0.002,0.126 -0.062,0.151 -0.129,0.301 -0.185,0.454 -0.163,0.448 0.028,0.943 0.444,1.164 0.022,0.012 0.047,0.017 0.072,0.025 C -0.679,2.605 -0.669,2.556 -0.651,2.511 -0.476,2.087 -0.292,1.666 -0.126,1.239 0.068,0.742 0.531,0.517 0.914,0.535 1.096,0.544 1.28,0.538 1.463,0.536 1.748,0.533 1.945,0.378 1.996,0.101 2.012,0.014 2.049,0.005 2.12,0.005 2.373,0.008 2.625,0.004 2.878,0.007 3.36,0.012 3.792,-0.325 3.912,-0.803 3.925,-0.857 3.932,-0.915 3.933,-0.971 3.936,-1.167 3.932,-1.362 3.936,-1.558 3.938,-1.657 3.905,-1.737 3.813,-1.771 3.719,-1.806 3.62,-1.798 3.553,-1.713 3.464,-1.601 3.35,-1.579 3.217,-1.584 3.059,-1.59 2.901,-1.591 2.744,-1.584 2.497,-1.573 2.209,-1.814 2.229,-2.104 2.249,-2.398 2.258,-2.696 2.331,-2.983 2.499,-3.649 2.94,-4.03 3.587,-4.18 3.462,-4.212 -2.383,-4.218 -2.6,-4.185" style="fill:#222a45;fill-opacity:1;fill-rule:nonzero;stroke:none" transform="matrix(3.5277776,0,0,-3.5277776,165.47749,81.415588)" clip-path="url(#clipPath2979)"/>
    <path id="path2980" d="M 0,0 C -0.278,0 -0.555,-0.001 -0.833,0 -0.982,0.001 -0.982,0.002 -1.026,0.145 -1.393,1.332 -0.794,2.549 0.294,2.998 0.909,3.252 1.523,3.506 2.138,3.76 3.744,4.426 5.35,5.093 6.956,5.759 7.159,5.843 7.362,5.928 7.565,6.01 7.8,6.104 7.941,6.033 7.992,5.782 8.153,4.99 7.977,4.273 7.492,3.63 7.187,3.226 6.775,2.971 6.322,2.762 5.449,2.36 4.583,1.944 3.714,1.534 3.015,1.205 2.318,0.875 1.617,0.551 1.377,0.44 1.158,0.309 1.029,0.07 0.988,-0.005 0.933,0 0.871,0 Z" style="fill:#222a45;fill-opacity:1;fill-rule:nonzero;stroke:none" transform="matrix(3.5277776,0,0,-3.5277776,185.26549,96.248088)" clip-path="url(#clipPath2981)"/>
    <path id="path2982" d="m 0,0 c -0.29,0 -0.58,0.001 -0.871,-0.001 -0.067,-0.001 -0.12,0.01 -0.155,0.076 -0.123,0.229 -0.33,0.355 -0.556,0.461 -1.103,0.518 -2.205,1.037 -3.307,1.555 -0.545,0.257 -1.092,0.511 -1.635,0.773 -0.782,0.376 -1.266,0.997 -1.463,1.836 -0.085,0.36 -0.071,0.727 -0.005,1.089 0.043,0.24 0.235,0.308 0.438,0.222 0.67,-0.285 1.344,-0.56 2.016,-0.839 C -3.793,4.449 -2.047,3.728 -0.303,3.001 0.506,2.663 0.974,2.043 1.117,1.187 1.177,0.825 1.14,0.459 1.019,0.105 0.991,0.025 0.953,-0.003 0.871,-0.001 0.58,0.003 0.29,0 0,0" style="fill:#222a45;fill-opacity:1;fill-rule:nonzero;stroke:none" transform="matrix(3.5277776,0,0,-3.5277776,149.29559,96.246688)" clip-path="url(#clipPath2983)"/>
    <path id="path2984" d="m 0,0 c 0,-0.36 0,-0.719 0,-1.079 0,-0.032 0.001,-0.063 0,-0.095 -0.003,-0.154 -0.008,-0.158 -0.165,-0.122 -0.11,0.025 -0.219,0.054 -0.329,0.081 -1.095,0.276 -2.194,0.541 -3.286,0.83 -1.144,0.302 -1.91,1.022 -2.28,2.152 -0.037,0.113 -0.064,0.23 -0.092,0.345 -0.051,0.213 0.112,0.396 0.351,0.346 C -5.125,2.317 -4.446,2.191 -3.769,2.057 -3.03,1.911 -2.291,1.762 -1.552,1.614 -1.078,1.519 -0.604,1.424 -0.13,1.326 -0.002,1.3 -0.001,1.296 0,1.174 0,0.782 0,0.391 0,0" style="fill:#232b45;fill-opacity:1;fill-rule:nonzero;stroke:none" transform="matrix(3.5277776,0,0,-3.5277776,141.34189,100.85609)" clip-path="url(#clipPath2985)"/>
    <path id="path2986" d="m 0,0 c -0.029,0.043 -0.019,0.082 -0.019,0.119 -0.001,0.789 -0.001,1.577 0,2.366 0,0.147 0,0.151 0.147,0.18 0.672,0.132 1.344,0.26 2.016,0.393 0.53,0.104 1.059,0.214 1.589,0.319 0.683,0.136 1.366,0.27 2.05,0.403 C 6.022,3.826 6.168,3.689 6.122,3.453 5.9,2.324 5.25,1.54 4.198,1.085 3.857,0.937 3.489,0.876 3.131,0.784 2.153,0.534 1.173,0.29 0.193,0.044 0.128,0.028 0.062,0.014 0,0" style="fill:#222a45;fill-opacity:1;fill-rule:nonzero;stroke:none" transform="matrix(3.5277776,0,0,-3.5277776,193.32369,105.53389)" clip-path="url(#clipPath2987)"/>
    <path id="path2988" d="m 0,0 h 2.859 c 0.031,0 0.063,0.001 0.094,0 0.124,-0.004 0.129,-0.004 0.129,-0.128 0.002,-0.745 0,-1.489 0.003,-2.234 0,-0.078 -0.028,-0.096 -0.1,-0.092 -0.383,0.022 -0.766,0.042 -1.15,0.06 -0.214,0.01 -0.428,0.015 -0.642,0.025 -0.541,0.025 -1.082,0.041 -1.622,0.08 -0.288,0.021 -0.578,0.008 -0.865,0.054 -0.731,0.117 -1.277,0.505 -1.662,1.126 -0.122,0.198 -0.203,0.418 -0.256,0.646 -0.01,0.042 -0.018,0.086 -0.022,0.13 -0.021,0.223 0.074,0.332 0.3,0.333 0.788,0.001 1.577,0 2.366,0 z" style="fill:#232b45;fill-opacity:1;fill-rule:nonzero;stroke:none" transform="matrix(3.5277776,0,0,-3.5277776,130.46609,107.33699)" clip-path="url(#clipPath2989)"/>
    <path id="path2990" d="m 0,0 c 0,0.791 0,1.561 0,2.33 0.001,0.119 0.004,0.12 0.149,0.12 0.833,10e-4 1.666,0 2.499,0 h 3.294 c 0.025,0 0.05,10e-4 0.076,0 C 6.24,2.444 6.359,2.309 6.314,2.093 6.263,1.847 6.189,1.606 6.06,1.387 5.609,0.619 4.935,0.225 4.049,0.187 3.407,0.159 2.765,0.135 2.124,0.1 1.597,0.071 1.069,0.043 0.541,0.024 0.367,0.017 0.193,-0.008 0,0" style="fill:#232b45;fill-opacity:1;fill-rule:nonzero;stroke:none" transform="matrix(3.5277776,0,0,-3.5277776,193.25349,115.98139)" clip-path="url(#clipPath2991)"/>
    <path id="path2992" d="m 0,0 c 0.029,-0.041 0.017,-0.087 0.017,-0.13 10e-4,-0.675 10e-4,-1.351 0,-2.026 0,-0.167 -0.002,-0.163 -0.161,-0.186 -0.473,-0.069 -0.945,-0.143 -1.418,-0.214 -0.46,-0.068 -0.921,-0.134 -1.382,-0.203 -0.286,-0.042 -0.571,-0.094 -0.863,-0.081 -0.624,0.028 -1.14,0.284 -1.559,0.741 -0.153,0.168 -0.273,0.361 -0.365,0.57 -0.109,0.247 -0.037,0.405 0.223,0.459 0.394,0.083 0.789,0.159 1.183,0.237 0.555,0.11 1.111,0.218 1.666,0.328 0.801,0.158 1.601,0.317 2.402,0.475 C -0.172,-0.014 -0.09,0.028 0,0" style="fill:#232b45;fill-opacity:1;fill-rule:nonzero;stroke:none" transform="matrix(3.5277776,0,0,-3.5277776,141.27909,117.90129)" clip-path="url(#clipPath2993)"/>
    <path id="path2994" d="M 0,0 C 0.069,0.012 0.134,-0.007 0.202,-0.02 0.867,-0.153 1.532,-0.283 2.197,-0.416 2.923,-0.561 3.649,-0.709 4.375,-0.854 4.72,-0.924 5.066,-0.99 5.411,-1.057 5.454,-1.066 5.497,-1.077 5.54,-1.087 5.75,-1.141 5.831,-1.285 5.748,-1.481 5.511,-2.041 5.112,-2.443 4.553,-2.68 4.148,-2.852 3.726,-2.881 3.293,-2.812 2.827,-2.738 2.36,-2.676 1.894,-2.607 1.347,-2.524 0.8,-2.44 0.254,-2.354 0.168,-2.341 0.058,-2.375 0.003,-2.301 c -0.056,0.075 -0.02,0.183 -0.02,0.276 -0.002,0.612 -0.002,1.224 0,1.836 0,0.062 -0.016,0.126 0.017,0.189" style="fill:#232b45;fill-opacity:1;fill-rule:nonzero;stroke:none" transform="matrix(3.5277776,0,0,-3.5277776,193.31769,117.88819)" clip-path="url(#clipPath2995)"/>
    <path id="path2996" d="M 0,0 C 0.518,-0.253 1.021,-0.48 1.536,-0.679 1.653,-0.724 1.772,-0.764 1.89,-0.807 2.008,-0.851 2.009,-0.852 1.968,-0.962 1.731,-1.59 1.494,-2.218 1.255,-2.846 1.089,-3.285 0.918,-3.723 0.754,-4.164 c -0.273,-0.73 -0.798,-1.174 -1.545,-1.359 -0.207,-0.051 -0.423,-0.072 -0.638,-0.04 -0.238,0.035 -0.325,0.167 -0.252,0.397 0.226,0.705 0.455,1.409 0.684,2.112 0.314,0.967 0.629,1.933 0.943,2.899 C -0.039,-0.108 -0.021,-0.061 0,0" style="fill:#222a45;fill-opacity:1;fill-rule:nonzero;stroke:none" transform="matrix(3.5277776,0,0,-3.5277776,159.20409,152.71619)" clip-path="url(#clipPath2997)"/>
    <path id="path2998" d="M 0,0 C 0.221,-0.682 0.44,-1.363 0.661,-2.043 0.995,-3.07 1.331,-4.096 1.665,-5.123 1.682,-5.176 1.705,-5.234 1.7,-5.286 1.686,-5.42 1.613,-5.517 1.465,-5.543 1.237,-5.584 1.011,-5.561 0.79,-5.511 c -0.733,0.168 -1.256,0.6 -1.53,1.301 -0.423,1.081 -0.828,2.169 -1.24,3.255 -0.04,0.106 -0.036,0.121 0.063,0.155 0.637,0.218 1.249,0.495 1.855,0.787 C -0.046,-0.005 -0.026,-0.005 0,0" style="fill:#222a45;fill-opacity:1;fill-rule:nonzero;stroke:none" transform="matrix(3.5277776,0,0,-3.5277776,175.41379,152.76029)" clip-path="url(#clipPath2999)"/>
    <path id="path3000" d="m 0,0 c 0,-0.249 0,-0.469 0,-0.688 0,-0.315 -0.009,-0.631 0.047,-0.943 0.029,-0.16 0.061,-0.32 0.097,-0.479 0.034,-0.149 0.038,-0.15 -0.102,-0.2 -0.685,-0.246 -1.37,-0.491 -2.055,-0.737 -0.236,-0.085 -0.472,-0.172 -0.708,-0.257 -0.872,-0.316 -1.807,-0.077 -2.403,0.644 -0.028,0.034 -0.053,0.07 -0.078,0.106 -0.135,0.196 -0.09,0.361 0.127,0.454 0.214,0.091 0.429,0.178 0.643,0.267 1.304,0.541 2.608,1.082 3.912,1.622 C -0.359,-0.144 -0.196,-0.079 0,0" style="fill:#232b45;fill-opacity:1;fill-rule:nonzero;stroke:none" transform="matrix(3.5277776,0,0,-3.5277776,141.34189,127.84319)" clip-path="url(#clipPath3001)"/>
    <path id="path3002" d="M 0,0 C 0.355,-0.146 0.679,-0.279 1.003,-0.413 2.337,-0.964 3.671,-1.516 5.005,-2.068 5.028,-2.078 5.05,-2.089 5.073,-2.1 5.283,-2.195 5.33,-2.367 5.194,-2.559 4.951,-2.902 4.63,-3.151 4.238,-3.301 3.764,-3.481 3.279,-3.495 2.799,-3.327 1.846,-2.991 0.897,-2.646 -0.054,-2.303 -0.177,-2.259 -0.185,-2.255 -0.155,-2.15 0.003,-1.597 0.009,-1.031 0,-0.463 -0.002,-0.319 0,-0.174 0,0" style="fill:#222a45;fill-opacity:1;fill-rule:nonzero;stroke:none" transform="matrix(3.5277776,0,0,-3.5277776,193.25419,127.84609)" clip-path="url(#clipPath3003)"/>
    <path id="path3004" d="m 0,0 c 0.185,-0.317 0.36,-0.615 0.533,-0.914 0.283,-0.49 0.565,-0.98 0.847,-1.471 0.034,-0.059 0.071,-0.118 0.101,-0.18 0.087,-0.176 0.016,-0.346 -0.173,-0.401 -0.682,-0.199 -1.316,-0.097 -1.897,0.317 -0.208,0.148 -0.376,0.333 -0.514,0.548 -0.217,0.338 -0.435,0.676 -0.664,1.032 C -1.162,-0.748 -0.572,-0.407 0,0" style="fill:#232b45;fill-opacity:1;fill-rule:nonzero;stroke:none" transform="matrix(3.5277776,0,0,-3.5277776,182.36669,148.56359)" clip-path="url(#clipPath3005)"/>
    <path id="path3006" d="M 0,0 C 0.41,-0.283 0.812,-0.541 1.231,-0.773 1.379,-0.855 1.527,-0.938 1.677,-1.017 1.737,-1.048 1.768,-1.075 1.722,-1.144 1.487,-1.502 1.273,-1.875 1.019,-2.218 0.653,-2.711 0.152,-2.986 -0.465,-3.052 c -0.276,-0.029 -0.539,0.002 -0.8,0.078 -0.25,0.074 -0.317,0.232 -0.188,0.458 0.344,0.6 0.69,1.199 1.036,1.798 C -0.282,-0.484 -0.146,-0.251 0,0" style="fill:#232b45;fill-opacity:1;fill-rule:nonzero;stroke:none" transform="matrix(3.5277776,0,0,-3.5277776,152.20879,148.56649)" clip-path="url(#clipPath3007)"/>
    <path id="path3008" d="M 0,0 C 0.122,0.332 0.229,0.623 0.335,0.915 0.493,1.351 0.65,1.788 0.809,2.224 0.866,2.379 0.867,2.379 1.037,2.379 1.29,2.38 1.542,2.378 1.795,2.38 1.942,2.381 1.923,2.388 1.952,2.25 2.015,1.949 2.061,1.644 2.114,1.341 2.22,0.734 2.324,0.127 2.431,-0.48 2.51,-0.931 2.592,-1.381 2.677,-1.851 H 2.199 C 2.035,-1.851 1.87,-1.848 1.706,-1.852 1.627,-1.854 1.6,-1.826 1.587,-1.748 1.472,-1.067 1.351,-0.387 1.231,0.294 1.23,0.299 1.224,0.303 1.216,0.313 1.152,0.307 1.156,0.242 1.142,0.204 0.923,-0.39 0.707,-0.985 0.491,-1.581 0.459,-1.668 0.451,-1.78 0.382,-1.834 0.317,-1.884 0.211,-1.849 0.124,-1.85 c -0.139,-0.003 -0.278,0.004 -0.417,-0.003 -0.084,-0.004 -0.118,0.027 -0.146,0.105 -0.192,0.539 -0.39,1.075 -0.586,1.612 -0.057,0.157 -0.114,0.314 -0.176,0.482 -0.074,-0.104 -0.065,-0.217 -0.084,-0.319 -0.109,-0.593 -0.211,-1.188 -0.311,-1.782 -0.011,-0.071 -0.034,-0.098 -0.106,-0.097 -0.315,0.003 -0.63,0.001 -0.964,0.001 0.006,0.071 0.005,0.131 0.016,0.19 0.12,0.674 0.243,1.348 0.362,2.023 0.107,0.606 0.211,1.213 0.316,1.82 10e-4,0.006 10e-4,0.012 0.002,0.019 0.029,0.178 0.029,0.178 0.211,0.178 0.253,10e-4 0.505,-0.004 0.758,0.003 0.098,0.002 0.14,-0.031 0.174,-0.125 C -0.57,1.535 -0.305,0.816 -0.042,0.096 -0.036,0.079 -0.027,0.063 0,0" style="fill:#232b45;fill-opacity:1;fill-rule:nonzero;stroke:none" transform="matrix(3.5277776,0,0,-3.5277776,190.04459,45.198688)" clip-path="url(#clipPath3009)"/>
    <path id="path3010" d="M 0,0 V 0.779 C 0,1.303 -0.001,1.827 0,2.351 0.001,2.498 0.003,2.5 0.145,2.501 0.417,2.502 0.688,2.5 0.96,2.502 1.03,2.503 1.069,2.485 1.062,2.408 1.059,2.383 1.061,2.357 1.061,2.332 c 0,-1.307 0,-2.614 0,-3.92 0,-0.043 0.011,-0.087 -0.025,-0.141 -0.318,0 -0.645,0.001 -0.971,-10e-4 -0.062,-0.001 -0.089,0.041 -0.12,0.079 -0.31,0.39 -0.619,0.78 -0.928,1.17 -0.31,0.39 -0.619,0.781 -0.93,1.17 -0.033,0.042 -0.056,0.101 -0.133,0.112 v -2.53 c -0.242,0 -0.474,-10e-4 -0.706,0 -0.112,0.001 -0.225,0.005 -0.338,0.008 -0.047,0.115 -0.019,0.235 -0.02,0.352 -0.002,1.212 -0.001,2.424 -0.001,3.636 0,0.234 0,0.234 0.243,0.234 0.253,0 0.505,-0.002 0.758,0.002 0.082,10e-4 0.137,-0.02 0.191,-0.089 C -1.397,1.75 -0.87,1.089 -0.344,0.428 -0.239,0.296 -0.132,0.164 0,0" style="fill:#232b45;fill-opacity:1;fill-rule:nonzero;stroke:none" transform="matrix(3.5277776,0,0,-3.5277776,157.97359,45.627288)" clip-path="url(#clipPath3011)"/>
    <path id="path3012" d="M 0,0 C -0.153,0.422 -0.3,0.828 -0.462,1.273 -0.625,0.826 -0.774,0.417 -0.926,0 Z m 1.688,-1.453 c -0.372,0 -0.731,0.001 -1.09,0 -0.051,0 -0.077,0.018 -0.093,0.07 -0.047,0.143 -0.102,0.284 -0.153,0.426 -0.025,0.07 -0.057,0.11 -0.148,0.108 -0.441,-0.006 -0.883,-0.005 -1.325,-0.001 -0.083,0.001 -0.126,-0.026 -0.152,-0.103 -0.048,-0.143 -0.103,-0.283 -0.153,-0.425 -0.016,-0.046 -0.038,-0.075 -0.093,-0.075 -0.359,0.001 -0.718,0 -1.073,0 -0.019,0.066 0.006,0.11 0.023,0.156 0.426,1.169 0.851,2.339 1.276,3.508 0.058,0.159 0.119,0.317 0.173,0.478 0.021,0.066 0.056,0.09 0.123,0.089 0.36,-0.002 0.719,-0.003 1.079,10e-4 C 0.17,2.78 0.183,2.72 0.204,2.663 0.329,2.321 0.453,1.979 0.578,1.638 0.943,0.636 1.308,-0.366 1.673,-1.368 1.68,-1.386 1.68,-1.405 1.688,-1.453" style="fill:#232b45;fill-opacity:1;fill-rule:nonzero;stroke:none" transform="matrix(3.5277776,0,0,-3.5277776,139.05439,46.602788)" clip-path="url(#clipPath3013)"/>
    <path id="path3014" d="M 0,0 C 0.237,-0.031 0.765,-0.025 0.913,0.012 0.765,0.416 0.617,0.818 0.455,1.262 0.293,0.812 0.147,0.408 0,0 M 2.598,-1.464 H 2.054 C 1.89,-1.464 1.726,-1.458 1.562,-1.466 1.468,-1.47 1.43,-1.434 1.405,-1.348 1.366,-1.215 1.313,-1.087 1.267,-0.957 1.244,-0.891 1.208,-0.86 1.13,-0.86 c -0.448,-0.005 -0.896,-0.004 -1.344,0 -0.078,0 -0.115,-0.029 -0.139,-0.096 -0.047,-0.137 -0.102,-0.27 -0.145,-0.408 -0.023,-0.07 -0.055,-0.102 -0.133,-0.101 -0.347,0.003 -0.693,0.001 -1.034,0.001 -0.031,0.046 -0.013,0.08 0,0.114 0.483,1.328 0.967,2.656 1.45,3.984 0.048,0.131 0.05,0.132 0.185,0.132 0.322,10e-4 0.644,10e-4 0.966,0 0.14,0 0.141,0 0.193,-0.144 C 1.406,1.867 1.682,1.113 1.957,0.358 2.163,-0.207 2.368,-0.774 2.574,-1.339 2.587,-1.375 2.605,-1.408 2.598,-1.464" style="fill:#232b45;fill-opacity:1;fill-rule:nonzero;stroke:none" transform="matrix(3.5277776,0,0,-3.5277776,206.64879,46.564688)" clip-path="url(#clipPath3015)"/>
    <path id="path3016" d="M 0,0 H 0.924 C 0.763,0.418 0.633,0.831 0.454,1.257 0.296,0.82 0.15,0.415 0,0 m -1.7,-1.456 c 0.201,0.56 0.393,1.098 0.588,1.635 0.295,0.808 0.593,1.615 0.886,2.424 0.067,0.184 0.059,0.171 0.237,0.171 0.291,0 0.581,10e-4 0.872,0 C 1.127,2.773 1.076,2.79 1.149,2.593 1.383,1.957 1.611,1.319 1.843,0.682 c 0.23,-0.631 0.462,-1.26 0.69,-1.891 0.028,-0.075 0.072,-0.147 0.059,-0.247 -0.232,0 -0.464,0 -0.697,0 -0.114,0 -0.228,0.004 -0.341,-0.002 -0.074,-0.003 -0.115,0.02 -0.139,0.094 -0.044,0.137 -0.102,0.27 -0.145,0.408 -0.022,0.071 -0.054,0.103 -0.132,0.102 -0.454,-0.003 -0.909,-0.003 -1.363,0.001 -0.071,0 -0.099,-0.029 -0.12,-0.09 -0.048,-0.142 -0.104,-0.282 -0.152,-0.425 -0.021,-0.06 -0.047,-0.091 -0.119,-0.09 -0.353,0.004 -0.706,0.002 -1.084,0.002" style="fill:#232b45;fill-opacity:1;fill-rule:nonzero;stroke:none" transform="matrix(3.5277776,0,0,-3.5277776,169.93519,46.590388)" clip-path="url(#clipPath3017)"/>
    <path id="path3018" d="M 0,0 C 0.203,0 0.385,-0.007 0.566,0.002 0.831,0.013 1.047,0.238 1.06,0.504 1.072,0.75 0.889,0.974 0.636,1.026 0.449,1.065 0.26,1.039 0.072,1.046 -0.004,1.049 0,0.994 0,0.943 0,0.636 0,0.328 0,0 m -1.081,-0.153 c 0,0.65 0,1.301 0,1.951 0,0.156 0.002,0.159 0.157,0.157 C -0.3,1.95 0.325,1.947 0.949,1.934 1.407,1.925 1.88,1.576 2.017,1.106 2.156,0.624 2.176,0.132 1.896,-0.318 1.655,-0.705 1.287,-0.89 0.835,-0.904 0.596,-0.912 0.356,-0.905 0.116,-0.906 0.004,-0.907 0.001,-0.909 0.001,-1.02 -0.001,-1.367 0,-1.715 0,-2.062 0,-2.106 -0.003,-2.15 0,-2.194 0.004,-2.25 -0.017,-2.275 -0.074,-2.275 c -0.31,10e-4 -0.619,10e-4 -0.928,0 -0.054,0 -0.083,0.018 -0.08,0.077 0.003,0.063 0.001,0.126 0.001,0.189 0,0.619 0,1.237 0,1.856" style="fill:#232b45;fill-opacity:1;fill-rule:nonzero;stroke:none" transform="matrix(3.5277776,0,0,-3.5277776,122.79279,43.704288)" clip-path="url(#clipPath3019)"/>
    <path id="path3020" d="M 0,0 C 0.004,0.091 0.072,0.129 0.113,0.18 0.301,0.409 0.494,0.633 0.683,0.86 0.728,0.914 0.767,0.926 0.824,0.876 0.937,0.775 1.052,0.678 1.169,0.583 1.228,0.535 1.223,0.496 1.177,0.443 1.07,0.319 0.967,0.192 0.863,0.066 0.829,0.025 0.794,-0.002 0.736,-0.001 0.491,0.002 0.247,0 0,0" style="fill:#232b45;fill-opacity:1;fill-rule:nonzero;stroke:none" transform="matrix(3.5277776,0,0,-3.5277776,206.88729,35.941388)" clip-path="url(#clipPath3021)"/>
    <path id="path3022" d="m 0,0 c 0.057,0.002 0.113,0.005 0.17,0.005 1.629,0.001 3.257,0.001 4.885,0 0.257,0 0.211,0.017 0.211,-0.21 0.001,-1.691 0.001,-3.383 -0.001,-5.075 0,-0.057 0.037,-0.126 -0.032,-0.173 -1.725,0 -3.45,-10e-4 -5.174,-10e-4 -0.019,0 -0.038,0.003 -0.057,0.005 l 0.003,-0.003 c -0.002,0.025 -0.007,0.05 -0.007,0.075 C -0.001,-3.585 -0.001,-1.792 0,0" style="fill:#e51f3c;fill-opacity:1;fill-rule:nonzero;stroke:none" transform="matrix(3.5277776,0,0,-3.5277776,167.29849,103.72589)" clip-path="url(#clipPath3023)"/>
    <path id="path3024" d="m 0,0 c 0.125,-0.092 0.241,-0.179 0.358,-0.264 0.147,-0.106 0.297,-0.21 0.444,-0.317 0.04,-0.028 0.079,-0.04 0.121,-0.008 0.043,0.032 0.038,0.071 0.021,0.117 -0.031,0.089 -0.056,0.18 -0.085,0.269 -0.06,0.185 -0.12,0.37 -0.182,0.554 C 0.65,0.433 0.663,0.498 0.744,0.542 0.766,0.553 0.786,0.569 0.806,0.584 1.019,0.74 1.232,0.897 1.445,1.053 1.476,1.077 1.504,1.106 1.493,1.147 1.48,1.197 1.441,1.214 1.392,1.213 1.354,1.212 1.316,1.213 1.278,1.213 1.026,1.213 0.774,1.216 0.521,1.212 0.433,1.21 0.379,1.227 0.362,1.326 0.347,1.412 0.313,1.494 0.285,1.578 0.223,1.768 0.16,1.959 0.096,2.149 0.079,2.2 0.054,2.24 -0.01,2.235 -0.065,2.231 -0.082,2.196 -0.093,2.148 -0.103,2.106 -0.121,2.065 -0.135,2.024 -0.214,1.786 -0.294,1.548 -0.37,1.309 -0.392,1.242 -0.421,1.206 -0.501,1.211 -0.62,1.219 -0.741,1.213 -0.86,1.213 c -0.177,0 -0.354,0 -0.53,0 -0.037,-0.001 -0.078,0 -0.093,-0.046 C -1.498,1.121 -1.491,1.08 -1.448,1.051 -1.423,1.032 -1.397,1.014 -1.372,0.996 -1.163,0.844 -0.96,0.685 -0.745,0.542 -0.657,0.483 -0.651,0.432 -0.684,0.341 -0.758,0.135 -0.82,-0.076 -0.887,-0.285 -0.909,-0.356 -0.934,-0.427 -0.954,-0.5 c -0.012,-0.04 0.008,-0.073 0.042,-0.096 0.029,-0.02 0.06,-0.016 0.089,0.001 0.037,0.023 0.074,0.047 0.109,0.073 C -0.48,-0.352 -0.247,-0.181 0,0 m -2.627,3.559 c 0.019,-0.002 0.038,-0.005 0.057,-0.005 1.724,0 3.449,0.001 5.174,0.001 C 2.637,3.476 2.613,3.394 2.613,3.314 2.616,2.625 2.605,1.937 2.618,1.25 2.628,0.728 2.478,0.258 2.215,-0.182 1.935,-0.652 1.57,-1.051 1.158,-1.409 0.238,-2.211 -0.815,-2.795 -1.919,-3.297 -2.147,-3.4 -2.375,-3.502 -2.627,-3.588 Z" style="fill:#fefefe;fill-opacity:1;fill-rule:nonzero;stroke:none" transform="matrix(3.5277776,0,0,-3.5277776,176.57309,135.50449)" clip-path="url(#clipPath3025)"/>
    <path id="path3026" d="m 0,0 c -0.132,0 -0.265,0.001 -0.397,0 -0.067,-0.001 -0.15,0.02 -0.178,-0.067 -0.029,-0.089 0.055,-0.116 0.109,-0.155 0.193,-0.141 0.386,-0.281 0.58,-0.421 0.157,-0.114 0.159,-0.115 0.097,-0.307 -0.068,-0.208 -0.14,-0.415 -0.209,-0.623 -0.018,-0.054 -0.038,-0.108 -0.045,-0.163 -0.009,-0.075 0.051,-0.115 0.121,-0.084 0.039,0.018 0.075,0.045 0.11,0.071 0.209,0.151 0.42,0.3 0.626,0.455 0.071,0.053 0.12,0.06 0.196,0.002 0.224,-0.173 0.456,-0.335 0.685,-0.502 0.036,-0.026 0.068,-0.057 0.118,-0.029 0.062,0.035 0.063,0.078 0.042,0.142 -0.088,0.262 -0.17,0.526 -0.254,0.789 -0.042,0.134 -0.043,0.134 0.066,0.214 0.208,0.152 0.417,0.304 0.625,0.456 0.03,0.022 0.063,0.043 0.088,0.071 0.048,0.054 0.026,0.131 -0.044,0.147 C 2.293,0.005 2.248,0 2.204,0 1.951,0 1.699,0 1.447,0 1.315,0.001 1.313,0.001 1.269,0.135 1.19,0.373 1.117,0.613 1.034,0.85 1.012,0.915 1.013,1.019 0.912,1.019 0.81,1.018 0.815,0.913 0.793,0.848 0.708,0.606 0.631,0.361 0.555,0.115 0.53,0.033 0.493,-0.01 0.397,-0.002 0.265,0.008 0.132,0 0,0 M 3.544,2.312 C 3.543,0.519 3.543,-1.273 3.542,-3.066 c 0,-0.024 0.005,-0.049 0.007,-0.075 H -1.69 C -1.726,-3 -1.741,1.892 -1.707,2.301 c 0.03,0.034 0.07,0.019 0.105,0.019 1.665,0.001 3.33,0.001 4.995,0 0.05,0 0.101,-0.005 0.151,-0.008" style="fill:#fefefe;fill-opacity:1;fill-rule:nonzero;stroke:none" transform="matrix(3.5277776,0,0,-3.5277776,154.79609,111.88039)" clip-path="url(#clipPath3027)"/>
    <path id="path3028" d="M 0,0 H 1.028 C 1.023,-0.318 0.757,-0.509 0.495,-0.507 0.231,-0.505 0.027,-0.29 0,0" style="fill:#fefefe;fill-opacity:1;fill-rule:nonzero;stroke:none" transform="matrix(3.5277776,0,0,-3.5277776,165.47749,81.415588)" clip-path="url(#clipPath3029)"/>
    <path id="path3030" d="m 0,0 h -0.926 c 0.152,0.417 0.301,0.826 0.464,1.273 C -0.3,0.828 -0.153,0.422 0,0" style="fill:#fefefe;fill-opacity:1;fill-rule:nonzero;stroke:none" transform="matrix(3.5277776,0,0,-3.5277776,139.05439,46.602788)" clip-path="url(#clipPath3031)"/>
    <path id="path3032" d="M 0,0 C 0.147,0.408 0.293,0.812 0.455,1.262 0.617,0.818 0.765,0.416 0.913,0.012 0.765,-0.025 0.237,-0.031 0,0" style="fill:#fefefe;fill-opacity:1;fill-rule:nonzero;stroke:none" transform="matrix(3.5277776,0,0,-3.5277776,206.64879,46.564688)" clip-path="url(#clipPath3033)"/>
    <path id="path3034" d="M 0,0 C 0.15,0.415 0.296,0.82 0.454,1.257 0.633,0.831 0.763,0.418 0.924,0 Z" style="fill:#fefefe;fill-opacity:1;fill-rule:nonzero;stroke:none" transform="matrix(3.5277776,0,0,-3.5277776,169.93519,46.590388)" clip-path="url(#clipPath3035)"/>
    <path id="path3036" d="M 0,0 C 0,0.328 0,0.636 0,0.943 0,0.994 -0.004,1.049 0.072,1.046 0.26,1.039 0.449,1.065 0.636,1.026 0.889,0.974 1.072,0.75 1.06,0.504 1.047,0.238 0.831,0.013 0.566,0.002 0.385,-0.007 0.203,0 0,0" style="fill:#fefefe;fill-opacity:1;fill-rule:nonzero;stroke:none" transform="matrix(3.5277776,0,0,-3.5277776,122.79279,43.704288)" clip-path="url(#clipPath3037)"/>
    <path id="path3038" d="m 0,0 c -0.247,-0.181 -0.48,-0.352 -0.714,-0.522 -0.035,-0.026 -0.072,-0.05 -0.109,-0.073 -0.029,-0.017 -0.06,-0.021 -0.089,-0.001 -0.034,0.023 -0.054,0.056 -0.042,0.096 0.02,0.073 0.045,0.144 0.067,0.215 0.067,0.209 0.129,0.42 0.203,0.626 0.033,0.091 0.027,0.142 -0.061,0.201 -0.215,0.143 -0.418,0.302 -0.627,0.454 -0.025,0.018 -0.051,0.036 -0.076,0.055 -0.043,0.029 -0.05,0.07 -0.035,0.116 0.015,0.046 0.056,0.045 0.093,0.046 0.176,0 0.353,0 0.53,0 0.119,0 0.24,0.006 0.359,-0.002 0.08,-0.005 0.109,0.031 0.131,0.098 0.076,0.239 0.156,0.477 0.235,0.715 0.014,0.041 0.032,0.082 0.042,0.124 0.011,0.048 0.028,0.083 0.083,0.087 C 0.054,2.24 0.079,2.2 0.096,2.149 0.16,1.959 0.223,1.768 0.285,1.578 0.313,1.494 0.347,1.412 0.362,1.326 0.379,1.227 0.433,1.21 0.521,1.212 c 0.253,0.004 0.505,0.001 0.757,0.001 0.038,0 0.076,-0.001 0.114,0 C 1.441,1.214 1.48,1.197 1.493,1.147 1.504,1.106 1.476,1.077 1.445,1.053 1.232,0.897 1.019,0.74 0.806,0.584 0.786,0.569 0.766,0.553 0.744,0.542 0.663,0.498 0.65,0.433 0.677,0.351 0.739,0.167 0.799,-0.018 0.859,-0.203 0.888,-0.292 0.913,-0.383 0.944,-0.472 0.961,-0.518 0.966,-0.557 0.923,-0.589 0.881,-0.621 0.842,-0.609 0.802,-0.581 0.655,-0.474 0.505,-0.37 0.358,-0.264 0.241,-0.179 0.125,-0.092 0,0" style="fill:#e51f3c;fill-opacity:1;fill-rule:nonzero;stroke:none" transform="matrix(3.5277776,0,0,-3.5277776,176.57309,135.50449)" clip-path="url(#clipPath3039)"/>
    <path id="path3040" d="M 0,0 C 0.132,0 0.265,0.008 0.397,-0.002 0.493,-0.01 0.53,0.033 0.555,0.115 0.631,0.361 0.708,0.606 0.793,0.848 0.815,0.913 0.81,1.018 0.912,1.019 1.013,1.019 1.012,0.915 1.034,0.85 1.117,0.613 1.19,0.373 1.269,0.135 1.313,0.001 1.315,0.001 1.447,0 1.699,0 1.951,0 2.204,0 2.248,0 2.293,0.005 2.336,-0.004 2.406,-0.02 2.428,-0.097 2.38,-0.151 2.355,-0.179 2.322,-0.2 2.292,-0.222 2.084,-0.374 1.875,-0.526 1.667,-0.678 1.558,-0.758 1.559,-0.758 1.601,-0.892 1.685,-1.155 1.767,-1.419 1.855,-1.681 1.876,-1.745 1.875,-1.788 1.813,-1.823 1.763,-1.851 1.731,-1.82 1.695,-1.794 1.466,-1.627 1.234,-1.465 1.01,-1.292 0.934,-1.234 0.885,-1.241 0.814,-1.294 0.608,-1.449 0.397,-1.598 0.188,-1.749 0.153,-1.775 0.117,-1.802 0.078,-1.82 c -0.07,-0.031 -0.13,0.009 -0.121,0.084 0.007,0.055 0.027,0.109 0.045,0.163 0.069,0.208 0.141,0.415 0.209,0.623 0.062,0.192 0.06,0.193 -0.097,0.307 -0.194,0.14 -0.387,0.28 -0.58,0.421 -0.054,0.039 -0.138,0.066 -0.109,0.155 C -0.547,0.02 -0.464,-0.001 -0.397,0 -0.265,0.001 -0.132,0 0,0" style="fill:#232b45;fill-opacity:1;fill-rule:nonzero;stroke:none" transform="matrix(3.5277776,0,0,-3.5277776,154.79609,111.88039)" clip-path="url(#clipPath3041)"/>
  </g>
</svg>