<svg height="375.499667" viewBox="0 0 79.374998 112.04714" width="266.311821" xmlns="http://www.w3.org/2000/svg"><path d="m25.230386 6.3911426c-.156875-.000375-.310665-.00699-.461165-.019991-.300999-.025-.582-.064222-.840999-.117222-.26-.053-.496059-.1141027-.706059-.1831026-.211-.07-.391221-.1370049-.540221-.1990049-.067-.035-.136728-.097735-.206728-.1917352-.071-.093-.136097-.198227-.198097-.3162269-.061-.1179999-.1172-.2370271-.1672-.358027-.051-.1209998-.08777-.2257726-.11177-.3157725.031-.042.08075-.1139071.146755-.214907.067-.1009999.152979-.2361882.258979-.406188.066-.1049999.146079-.2268424.238079-.3648422.092-.1379999.193142-.2809056.302142-.4289054.11-.1479999.223216-.2960817.341216-.4420816.118-.1469998.235938-.2791011.353938-.3971009-.156-.045-.378076-.078866-.666076-.1008655-.288-.023-.607948-.020093-.960948.00591l-.710147.00682c-.02022-.0006694-.03423.000553-.05316.0004543-.228332.00862-.496276.015312-.574752.00818l-.605192-.051796-.09678 1.0100177c-.04.4249996-.116083.7941574-.228083 1.1081571-.111.3129997-.244916.5787457-.403916.7987455-.159.2189998-.335045.396134-.527045.5311339-.193.1339999-.393104.23714-.601104.3071399-.207999.07-.417727.1117634-.629727.1267634-.211.015-.413285.013002-.604284-.005-.468-.045-.883826-.166025-1.245825-.3630248-.362-.1959998-.664064-.4431347-.905063-.7401344-.241-.2959997-.416954-.6307485-.527954-1.0027482-.111-.3719996-.147952-.7549576-.109952-1.1499572.028-.2949997.112164-.5921612.252163-.8891609.14-.2979997.346641-.5598413.620641-.7878411.274-.2279997.620188-.40204702 1.038187-.5220469.419-.11999988.921985-.15186758 1.507985-.0958676l.786932.0758763c-.090996-.19300786-.225004-.38012919-.403004-.56112901-.176999-.18099982-.392901-.35014489-.647901-.50614474-.254-.15499984-.546894-.29164027-.876894-.41164015-.329999-.11899988-.693983-.21133553-1.089983-.2753355l.288966-1.3780403c.55.1089999 1.068691.2619839 1.555691.4579837.487.1949998.92416.4321477 1.31216.7101474.386999.27799974.715937.59422664.985937.94822629.271.35399964.464112.74803596.581112 1.17903553l1.060905.0513414c.340907-.0123221 1.254565.0387678 1.512073.0577023.273.018.550746.0211524.798746.0681523.249.047.459978.087842.681978.1558417.220999.069.416104.1269115.601103.2049114.126-.075.282252-.1610703.470252-.2580702.186999-.097.400812-.18978765.643812-.28078756.243-.0899999.5092-.16989632.7992-.23989625.215115-.0511827.43966-.0902497.674708-.11722203.09189-.0215799.26499-.0452663.691065-.0745132l.04225-.005907c.408-.0789999 2.572044-.33423764 2.841044-.29123768.269.043.507783.13996608.713782.28896593.185-.26799973.426233-.51386292.724233-.7378627.296999-.22399977.653083-.40104275 1.069083-.53204262l.273972-.085872c.354-.11099999.663053-.14604599.930052-.10404609.267.042.502785.13524233.708785.28124218.186-.26399988.426143-.50741298.720143-.72741278.293-.2199998.645816-.3947732 1.056816-.5247731l.274881-.085872c.311999-.098.591274-.1361329.838273-.1131329.247.023.467896.090094.662896.203094.175999-.2239998.678865-1.0071206.941865-1.1931204.000277-.0002152.000631-.0002393.000909-.0004543.0011-.0007443.0021-.00153.0032-.00227.05178-.040429.122676-.084441.21309-.1335786l2.862853-1.552056 4.478972 8.2618814-1.496172.8101042-3.794722-7.0019718-1.368953.7410432c-.07718.042413-.140037.070023-.196279.09087-.0038.00197-.009.0044-.01272.00636-.221.1149999-.63992.7830524-.816919.9300523.03.0679999.06005.13709199.08905.20809192.03.0709999.05597.14399627.07996.2189962l.960948 3.05685958-1.622025.5102339-.89325-2.83922646c-.055-.17399983-.114831-.31509028-.180831-.42209018-.066-.10799989-.140177-.18580715-.222177-.2358071-.082-.05-.176968-.0727871-.283968-.0717871-.107.002-.22866.024698-.36666.067698-.208999.0659999-.41328.16496174-.614279.29896161-.201.13499986-.39375.29924055-.57975.49524035.02.048.03879.0989352.05679.14993516.019.051.03625.1018439.05225.15084385l.74876 2.38396837-1.622026.5102339-.681069-2.1649728c-.055-.1749998-.114831-.31499885-.18083-.42299874-.066-.1069999-.140177-.18535281-.222177-.23535276-.082-.05-.176968-.0737871-.283968-.0717871s-.22866.0251524-.36666.0681523c-.213.0669999-.421093.16877698-.626093.30577684-.203999.13799976-.40029.30696226-.58929.50796206.024.047.04316.09512.05816.1431199.015.047.0308.095846.0468.145846l.57202 1.8219393-1.620663.5102339-.505236-1.6029431c-.055-.1749998-.114831-.315999-.180831-.4229989s-.139268-.1858984-.221268-.2348984c-.082-.05-.175605-.07415-.282605-.07315-.108.002-.577328.018792-.713328.061791l-.77421.060883c-.01214.0011-.02136.00314-.03408.00409l-.248528.018174c-.09277.029086-.237421.026241-.339399.024989l-.07088.00545c-.164999.012-.332873.031248-.503873.057248-.170999.026-.33506.054872-.492059.085872-.158.032-.304173.065955-.441173.1049546-.137.039-.256936.07695-.358936.1149503.323.2869997.589291.5561045.798291.8101042.209.2529998.375601.4868781.501601.7028778.125.2159998.214249.410293.266249.5842928.052.1729998.08414.3248034.09314.4548033.019.2479997-.03602.4661714-.16402.6551712-.127999.1889998-.299051.3468861-.512051.4738859-.214.1279999-.453961.2278704-.72196.2998704-.268.073-.535109.1191221-.800109.138122-.163.0125-.322918.018549-.479792.018174zm-15.8844941-.8182825-.89325-1.4702732c.3109997-.1419998.6220504-.2998861.9350501-.4738859.3119997-.1739999.5989002-.3568538.8619-.5488536.262-.1909998.485347-.3901973.668347-.5951971.183-.2059998.300666-.4100082.351666-.612008.03-.1139999.04226-.2240401.03726-.32804-.005-.1049999-.04023-.2029639-.107226-.2939638-.067-.092-.175043-.1768898-.323042-.25488972-.149-.0789999-.349922-.14990712-.602922-.21490706l-2.4330412-.62200371.3543922-1.38712731 2.40078.61291669c.519999.13299987.944903.30704716 1.274903.52204695.329.21399978.581311.45496075.753311.72196048.172999.26699974.272687.55126768.301687.85326738s.003.6069678-.07497.9159674c-.148.5779995-.519973 1.1348243-1.114973 1.6688237-.595999.5339995-1.391876 1.0361673-2.3898751 1.5061668zm15.6255151-.4357206c.05963 0 .115655-.00236.167655-.00636.173999-.013.331068-.04387.472068-.09087.141-.048.260753-.1059244.360753-.1749243.099-.069.175357-.1460811.225357-.2330811s.07197-.1779725.06497-.2739724c-.006-.078-.03405-.1728769-.08405-.2848768s-.125175-.2340249-.227175-.3630248c-.102-.1309998-.231014-.2649163-.388014-.4039162-.157-.1399999-.347025-.2802729-.572025-.4202728-.135.1189999-.275636.2672622-.421636.445262-.147.1759998-.28709.3586733-.42209.5456731s-.257206.3692189-.366206.5452187c-.108999.1769999-.191983.3240817-.248983.4420816.126.047.260008.089763.403008.1267633.143.037.286268.068233.430268.092233.143.025.282638.040707.416638.047707.0665.004.129839.00636.189464.00636zm-7.964283-.3244052c.114047.000375.228284-.015911.343033-.048161.153-.042.294817-.1369682.424817-.2839681.13-.1479998.244125-.3580909.342124-.6310907.099-.2729997.170181-.6329879.212181-1.0799874l.05997-.6247298-.925054-.088144c-.545999-.053-.957921.029257-1.23492.2462571-.277.2169998-.435249.5325897-.475249.9495893-.02.2119998-.0028.4103799.05225.5933798.055.1829998.133896.3418839.239896.4788838.105.1369998.231018.2481291.378018.332129.148.084.303889.1339352.468888.1499352.038.00375.07603.00578.114042.00591zm-18.1080776-.3053225c-.02689.0004063-.053624-.0002717-.080874-.00227-.1089999-.009-.214953-.041322-.3189529-.096322s-.1900703-.125818-.2580702-.2108179c-.068-.086-.1180265-.1809682-.1490265-.2839681-.032-.1029999-.042985-.2090444-.034985-.3180443.009-.1089999.040868-.214953.095868-.3189529s.126181-.1900703.2121809-.2580702c.085-.068.1786052-.1179352.2826051-.1499352.1029999-.031.2090444-.043076.3180442-.034076.10899994.009.21495311.040868.31895301.095868s.19007027.1262723.2580702.2112722c.0679999.086.11793519.1800595.14993516.2830594.031.1029999.0420762.2100444.0340762.3180443-.009.1099999-.0408677.2158618-.0958676.3198617s-.125818.1900702-.21081791.2580702c-.0859999.068-.1800595.1180264-.2830594.1490264-.0779999.024-.15740706.036038-.23807886.037257zm-1.7319782-.9214196c-.026875.0003437-.053624-.0009305-.080874-.00318-.1089999-.008-.2154074-.039868-.3194073-.095868-.1039999-.055-.1896159-.124818-.2576158-.2108179-.068-.086-.1183896-.1800595-.1503895-.2830594-.031-.1029999-.041622-.2100444-.033622-.3180443.009-.1099999.040868-.2158618.095868-.3198617s.125818-.1901615.2108179-.2571615c.086-.069.1800595-.1179351.2830594-.1499351.1039999-.032.209953-.043076.3189529-.034076.1089999.008.2149531.039959.318953.094959.1039999.056.1900703.1261811.2580702.212181.068.085.1179352.1800595.1499352.2830594.031.1029999.042076.20859.034076.3175899-.009.1089999-.040868.2163161-.095868.320316s-.125818.1897073-.2108179.2567072c-.086.069-.1804226.1183895-.2844225.1503895-.07725.02325-.1560908.035771-.2367156.036802zm8.3245816-.1558417-1.5879496-.6079189 1.407573-3.67023087-1.5629604-.59974063c-.08402-.032042-.1521261-.063128-.2053657-.093141-.1475809-.050356-.3471306-.098787-.4089141-.1099525-.084-.015-.1598093-.00538-.2308092.028624-.069.034-.1351875.093288-.1971875.1762874-.062.084-.129094.1950379-.203094.3330378l-1.98414183 3.72975-1.48981022-.7928389.3471226-.6519907c-.19399981-.17299986-.40391045-.3681104-.62791025-.58611018-.2249998-.21899978-.4420823-.45405852-.6510821-.70605827-.2089997-.25199975-.3992081-.5166566-.5702079-.79465632-.1699998-.27799973-.301738-.56399373-.3957379-.85599343-.094-.2919997-.1364003-.5870721-.1254003-.8850718.01-.2979997.093438-.5929807.2494375-.8859804.1759999-.3309997.3949889-.577952.6569886-.7419519.2629998-.1649998.5419111-.2643246.8369108-.3003246.2959997-.035.59470253-.01775.89870222.05225.3029997.07.58436322.1737748.84236296.3107747s.48960845.2948861.69560822.473886c.2059998.1789998.3992038.4002584.5802036.6642581.1049999-.077.2241185-.1390113.3571183-.1840113.1329999-.045.2840774-.066155.4520772-.063155.1689999.003.3579364.034959.5679362.094959s1.2010039.4430212 1.4630036.582021l-.0004543.0004544 2.8056048 1.0758983zm43.8601222-1.2426444-5.150955-7.8597826 1.423021-.932324 5.150046 7.8602369zm-49.35183804-2.18769023 1.04091344-1.95688097c-.10099989-.1819998-.23700552-.3579536-.40800535-.5279534-.17099983-.1699999-.36565602-.3138143-.5856558-.4298142-.11899988-.064-.24638151-.1143895-.37938137-.1503895-.13399987-.037-.26501198-.048985-.39301185-.034985-.12799987.013-.24893362.056126-.36393353.1281264-.1149999.072-.2116921.1830379-.291692.3330378-.099.1849998-.1373133.381019-.1163133.5870188s.094359.420904.2203592.6429038c.1259999.2229997.29659714.45233887.51159693.68833863.21599978.23499977.47112393.47559769.76512363.72059764zm7.95565014-2.53435847c-.095389-.00135-.1908986-.019623-.2871485-.057248-.1099999-.042-.2041508-.1011048-.2821507-.1781047-.078-.076-.1386483-.1640682-.1826483-.2630681-.044-.098-.06815-.2017748-.07315-.3107747-.005-.1099999.013885-.2189487.055885-.3289486s.1011049-.2041508.1781048-.2821507c.077-.078.1640682-.1391027.2630681-.1831026.098-.044.2021378-.06815.3121377-.07315.1089999-.004.2180401.014339.32804.056339.1109998.042.2036964.1016505.2816963.1776504.078.077.1391027.1650681.1831026.263068.044.099.06815.2031379.07315.3121378s-.014339.21904-.056339.3280399c-.042.1099999-.1006505.2041508-.1776504.2821507-.077.079-.1640681.1386483-.263068.1826483-.098.044-.2021379.069059-.3121378.074059-.013625.0005-.027264.0006477-.040892.0004543zm-1.8314806-.7028778c-.096059-.00134-.191353-.019589-.2876029-.056339-.1099999-.043-.2041508-.1021048-.2821507-.1781048-.078-.077-.1386483-.1650681-.1826483-.263068-.044-.099-.06815-.2031379-.07315-.3121377-.004-.1089999.013885-.2189488.055885-.3289487.043-.1099999.1021048-.2027877.1781048-.2807876.077-.079.1650681-.1400114.263068-.1840114.099-.043.2026835-.06815.3116834-.07315.1089999-.004.2194031.013885.329403.055885.1089999.043.2027877.1020135.2807876.1790135.078.076.1401027.1640681.1831027.263068.044.098.067696.2022291.072696.311229.005.1099999-.012976.2189488-.054976.3289487-.043.1099999-.1020136.2041508-.1790135.2821507-.076.078-.1636138.1386483-.2626137.1826483-.098.044-.2022292.06815-.3112291.07315-.01375.0005-.027623.0006458-.041346.000454z" fill="#09784e" transform="matrix(1.1373732 0 0 -1.1373732 14.013689 7.269131)"/><path d="m0 0 .888 2.87.888-2.87zm2.11 5.348h-2.385l-2.94-8.703h.959l1.777 1.777h2.735l.544-1.777h2.25z" fill="#09784e" transform="matrix(1.1373732 0 0 -1.1373732 51.800866 108.123087)"/><path d="m0 0c-.307.11-.597.195-.868.258-.271.061-.552.126-.844.193-.452.104-.757.222-.915.352-.158.132-.237.308-.237.53 0 .152.05.289.149.412.1.122.218.215.354.277.168.078.327.131.479.158.153.028.324.041.515.041.49 0 .969-.095 1.434-.287.022-.008.039-.02.061-.029l1.316 1.315c-.406.18-.865.322-1.377.427s-1.027.158-1.545.158c-1.033 0-1.894-.252-2.584-.757-.689-.504-1.034-1.164-1.034-1.978 0-.604.146-1.107.438-1.509.292-.4.775-.72 1.449-.958.293-.101.607-.187.944-.257.338-.07.654-.144.95-.222.238-.062.443-.161.614-.298s.257-.314.257-.532c0-.195-.052-.352-.158-.47-.105-.119-.233-.212-.385-.278-.125-.058-.29-.101-.495-.129-.204-.027-.369-.041-.493-.041-.495 0-1.006.1-1.532.298-.101.039-.2.084-.298.128l-1.344-1.343c.432-.191.901-.351 1.406-.479.504-.129 1.09-.193 1.756-.193 1.157 0 2.076.263 2.756.789.68.525 1.02 1.221 1.02 2.086 0 .604-.148 1.091-.442 1.459-.294.368-.743.661-1.347.879" fill="#09784e" transform="matrix(1.1373732 0 0 -1.1373732 41.164948 106.118007)"/><path d="m0 0-2.77-4.236v4.236h-.639l-1.536-1.535v-7.168h2.175v4.236l2.77-4.236h2.558l-2.846 4.352 2.846 4.351z" fill="#09784e" transform="matrix(1.1373732 0 0 -1.1373732 27.454599 101.962957)"/><path d="m0 0c0-19.07-15.46-34.53-34.53-34.53s-34.53 15.46-34.53 34.53 15.46 34.53 34.53 34.53 34.53-15.46 34.53-34.53" fill="#fff" transform="matrix(1.1373732 0 0 -1.1373732 78.995689 53.889834)"/><g fill="#09784e"><path d="m0 0h.996l-.498 1.609z" transform="matrix(1.1373732 0 0 -1.1373732 50.032595 67.039119)"/><path d="m0 0h-2.047v-.921h1.883v-.93h-1.883v-2.097h-1.219v4.018l.86.86h2.406zm2.719-11.73c5.667 6.58 9.741 15.132 7.87 24.832-1.533 7.945-7.383 13.231-11.465 15.388 4.679-1.963 7.465-4.058 9.641-6.468-4.169 11.158-13.859 13.93-18.218 13.899 2.906.932 5.389.507 6.986.085-1.458 1.146-6.386 3.895-11.487 2.236-.063 1.975-1.163 2.789-1.163 2.789s-1.837-.293-2.88-2.22c-4.568 3.514-10.096 1.946-11.012 1.666 1.635 0 4.134-.983 5.923-2.392-9.59 3.167-18.246-2.921-21.343-6.891 1.547.516 5.375 2.804 10.859 2.768-5.89-1.069-9.761-3.489-13.549-7.678-7.572-8.373-6.565-21.824-3.342-29.018-1.728 6.847.208 18.226 8.766 25.633 4.465 3.865 11.08 7.254 18.857 7.059 12.447-.311 15.869-6.778 15.707-8.125 3.032-.45 4.95-1.812 6.159-4.525.839-1.882.206-5.294-2.566-7.36-.006 1.425-.893 3.404-3.736 3.381-7.228-.061-13.637-6.374-13.811-13.528-.185-7.631 5.567-15.47 15.351-15.304 3.53 2.417 5.663 8.553 5.663 8.553s-.569-3.696-1.73-5.97c7.842 7.841 7.227 20.233 5.97 24.329 3.743-9.784 1.469-17.672-1.45-23.139m-7.288 11.73h-2.048v-.921h1.884v-.93h-1.884v-2.097h-1.219v4.018l.86.86h2.407zm-5.684-3.948-.305.996h-1.534l-.996-.996h-.537l1.648 4.878h1.337l1.648-4.878zm-4.717.354c-.381-.295-.895-.443-1.544-.443-.374 0-.702.036-.985.108s-.546.162-.788.269l.753.753c.055-.025.11-.05.168-.071.295-.111.58-.167.858-.167.069 0 .162.007.277.023.114.015.207.039.277.072.085.037.157.089.216.155.059.067.089.155.089.264 0 .122-.049.222-.145.298s-.21.132-.343.167c-.167.044-.344.086-.533.125s-.365.087-.529.144c-.378.133-.649.312-.813.538-.164.225-.246.506-.246.844 0 .457.194.827.58 1.11.387.283.87.424 1.448.424.291 0 .58-.029.867-.089.288-.059.544-.138.772-.239l-.738-.737c-.012.005-.022.012-.034.016-.261.108-.529.161-.804.161-.107 0-.203-.008-.289-.023-.085-.015-.174-.044-.268-.088-.076-.035-.143-.087-.198-.156-.056-.068-.084-.146-.084-.23 0-.125.044-.224.133-.297.088-.074.259-.14.513-.199.163-.036.321-.073.473-.108.152-.034.314-.083.486-.144.339-.122.591-.287.756-.493s.247-.479.247-.817c0-.485-.191-.875-.572-1.17" transform="matrix(1.1373732 0 0 -1.1373732 63.479869 64.688391)"/><path d="m0 0c.916-.606 1.794-1.264 2.608-1.977.155-.135.41-.228.609-.276.198-.047.471-.078.672-.028 1.806.452 3.697.711 5.57.752-1.745.921-3.604 1.619-5.538 2.078-.742.175-1.491.303-2.244.406-.068.01-.136.02-.204.029-.259.034-.519.066-.779.09-3.982.421-7.736-.183-10.327-1.246 3.194.808 6.471.815 9.633.172" transform="matrix(1.1373732 0 0 -1.1373732 39.361873 37.415779)"/><path d="m0 0c-.381.008-.947-.206-1.216-.474-.974-.967-1.982-1.824-2.733-2.393-.857-.107-3.351-.234-3.955-.208.462.247 2.88 1.865 3.91 3.044.346.396.504 1.034.212 1.776-.224.568-.87 2.076-1.027 2.488-.156.412-.734.797-1.77.88-5.407.431-8.162 1.745-10.091 2.389-.446.149-1.17.118-1.554-.16l-2.26-1.747c-.401-.291-.641-.845-.533-1.327.372-1.657 2.191-4.525 2.234-4.593-.728.353-3.989 2.523-4.27 2.792-.428.957-1.09 2.527-1.177 2.894-.082.349-.474.858-.805 1.011-.983.455-1.769.901-2.792 1.481-.319.41-1.764 3.03-1.999 4.036 1.456-1.243 3.83-2.54 4.222-2.712.78-.345 1.573-.005 1.998.304l2.011 1.532c.408.295.657 1.031.57 1.512-.57 3.137-1.115 7.092-.781 10.27.054.508-.343 1.35-.773 1.641 0 0-3.432 2.463-3.594 2.501-.352.084-.903.127-1.2-.103-1.466-1.127-2.996-2.477-3.922-3.615.14 1.216.39 2.479.714 3.771.98.927 1.975 1.741 3.061 2.503.36.251.62.606.645 1.031.091 1.512.346 3.285.73 4.772 2.016 2.452 4.578 4.459 6.894 5.834-8.954-3.835-11.949-11.589-12.58-13.847-3.546-12.667 2.998-20.469 3.99-21.759 3.235-4.205 7.657-6.795 12.072-8.137 9.862-3.001 17.804.678 21.06 2.913-1.425-.173-3.35-.338-5.291-.3" transform="matrix(1.1373732 0 0 -1.1373732 47.629891 85.652454)"/><path d="m0 0c-9.09 0-17.636-3.551-24.064-9.998s-9.967-15.019-9.967-24.137 3.539-17.689 9.967-24.136c6.428-6.448 14.974-9.999 24.064-9.999s17.636 3.551 24.064 9.999c6.428 6.447 9.967 15.018 9.967 24.136s-3.539 17.69-9.967 24.137c-6.428 6.447-14.974 9.998-24.064 9.998m0-69.134c-9.32 0-18.083 3.64-24.674 10.251-6.59 6.61-10.22 15.399-10.22 24.748s3.63 18.138 10.22 24.749c6.591 6.61 15.354 10.251 24.674 10.251s18.083-3.641 24.674-10.251c6.59-6.611 10.22-15.4 10.22-24.749s-3.63-18.138-10.22-24.748c-6.591-6.611-15.354-10.251-24.674-10.251" transform="matrix(1.1373732 0 0 -1.1373732 39.6875 15.132591)"/></g></svg>