<?xml version="1.0" encoding="utf-8"?>
<!-- Generator: Adobe Illustrator 15.0.0, SVG Export Plug-In . SVG Version: 6.00 Build 0)  -->
<!DOCTYPE svg PUBLIC "-//W3C//DTD SVG 1.1//EN" "http://www.w3.org/Graphics/SVG/1.1/DTD/svg11.dtd">
<svg version="1.1" id="Calque_1" xmlns="http://www.w3.org/2000/svg" xmlns:xlink="http://www.w3.org/1999/xlink" x="0px" y="0px"
	 width="316px" height="316px" viewBox="0 0 500 500" enable-background="new 0 0 500 500" xml:space="preserve">
<path fill="#E5A92E" d="M250,0c138.07,0,250,111.929,250,250c0,138.071-111.93,250-250,250C111.929,500,0,388.071,0,250
	C0,111.929,111.929,0,250,0"/>
<path fill="#FFFFFF" d="M250,13.251c-31.967,0-62.97,6.257-92.149,18.6c-28.19,11.923-53.511,28.996-75.258,50.742
	c-21.747,21.747-38.819,47.067-50.742,75.258c-12.342,29.179-18.6,60.183-18.6,92.149s6.258,62.97,18.6,92.149
	c11.923,28.19,28.996,53.51,50.742,75.258c21.747,21.746,47.067,38.819,75.258,50.742c29.179,12.342,60.183,18.6,92.149,18.6
	s62.97-6.258,92.148-18.6c28.191-11.923,53.511-28.996,75.258-50.742c21.747-21.748,38.82-47.067,50.743-75.258
	c12.342-29.18,18.6-60.183,18.6-92.149s-6.258-62.97-18.6-92.149c-11.923-28.19-28.996-53.511-50.743-75.258
	c-21.747-21.747-47.066-38.819-75.258-50.742C312.97,19.508,281.967,13.251,250,13.251L250,13.251z"/>
<circle fill="#E5A92E" cx="250" cy="250" r="162.986"/>
<radialGradient id="SVGID_1_" cx="250" cy="457.1738" r="16.7842" gradientUnits="userSpaceOnUse">
	<stop  offset="0" style="stop-color:#D56C2A"/>
	<stop  offset="1" style="stop-color:#2E2C70"/>
</radialGradient>
<circle fill="url(#SVGID_1_)" cx="250" cy="457.174" r="16.784"/>
<circle cx="250" cy="148.405" r="42.942"/>
<path fill="#FFFFFF" d="M280.619,169.344l-0.002,0l-0.673-0.269h-0.002c-1.255,3.325-7.16,6.473-16.505,6.553
	c-1.618-3.942-5.169-7.644-6.271-8.742c0.694-2.008,3.562-10.614,4.676-19.156c5.843-1.428,9.964-4.765,11.308-5.97
	c0.775,0.619,2.388,1.938,4.117,3.551c2.364,2.188,4.912,4.968,5.712,6.964c-0.017,4.621-0.766,8.814-1.521,11.854
	c-0.763,3.072-1.518,4.937-1.516,4.943L280.619,169.344z"/>
<path fill="#FFFFFF" d="M257.249,185.215c-0.321,0.286-0.564,0.484-0.722,0.609l-15.312-0.441c-2.552-0.7-4.366-2.926-5.519-5.072
	c-0.581-1.076-0.992-2.113-1.255-2.877c-0.097-0.282-0.167-0.508-0.224-0.701l6.702-8.862c1.713-0.124,4.828-0.303,8.492-0.303
	c2.084,0,4.339,0.06,6.6,0.222c0.387,0.38,1.347,1.351,2.441,2.67c1.394,1.675,2.966,3.9,3.763,6.025
	c-0.035,2.498-1.444,4.875-2.914,6.623C258.557,183.996,257.809,184.718,257.249,185.215z"/>
<path fill="#FFFFFF" d="M220.222,170.669c-0.098-0.16-0.314-0.527-0.622-1.114c-1.264-2.41-3.907-8.272-4.648-16.295
	c0.369-3.866,1.961-6.459,3.468-8.116c0.758-0.832,1.494-1.421,2.035-1.798c0.169-0.119,0.307-0.208,0.43-0.283
	c1.291,1.187,5.602,4.8,11.902,6.254c0.348,0.82,1.296,3.102,2.364,6.006c1.114,3.025,2.341,6.71,3.133,10.048l-6.102,10.218
	c-3.154-0.231-6.022-1.344-8.169-2.473c-1.205-0.634-2.179-1.268-2.852-1.741C220.672,171.031,220.359,170.781,220.222,170.669z"/>
<path fill="#FFFFFF" d="M235.001,118.412c0.32-0.031,0.638-0.05,0.953-0.05c3.07-0.006,5.866,1.417,7.89,2.877
	c1.013,0.726,1.829,1.458,2.389,2.002c0.348,0.339,0.578,0.587,0.712,0.736c0.097,0.798,0.429,3.771,0.429,7.451
	c0,1.913-0.095,4.006-0.354,6.065c-4.847,4.174-10.013,9.612-11.188,10.862c-4.261-0.438-7.815-2.079-10.318-3.634
	c-1.287-0.799-2.294-1.572-2.977-2.145c-0.427-0.358-0.704-0.616-0.863-0.77c-0.363-2.075-0.503-4.055-0.503-5.85
	c0-2.443,0.251-4.54,0.522-6.096C223.659,127.147,227.623,122.792,235.001,118.412z"/>
<path fill="#FFFFFF" d="M283.594,124.651c-1.845,0.185-5.345,0.47-9.378,0.47h-0.901l0.188,0.881
	c0.403,1.888,0.559,3.693,0.559,5.352c0,2.693-0.409,4.998-0.817,6.622c-0.324,1.288-0.639,2.118-0.754,2.411
	c-0.119,0.114-0.344,0.324-0.698,0.625c-1.571,1.336-5.352,4.133-10.401,5.331c-1.215-1.096-6.136-5.355-12.897-8.899
	c0.245-2.062,0.337-4.129,0.337-6.017c0-3.64-0.315-6.607-0.428-7.548l7.24-8.855h6.186l-1.664-1.302c0,0-0.129-0.099-0.387-0.364
	c-0.689-0.711-2.122-2.473-3.001-5.543c8.648,1.434,16.386,5.553,22.322,11.489C280.745,120.953,282.244,122.746,283.594,124.651z"
	/>
<path fill="#FFFFFF" d="M220.901,119.305c4.715-4.715,10.568-8.286,17.112-10.275c-0.26,2.082-1.165,3.994-2.095,5.448
	c-0.129,0.203-0.259,0.396-0.387,0.58c-7.121,3.924-11.589,7.992-14.287,11.115l-0.008-0.012h-0.002c0,0-0.134,0.096-0.425,0.262
	c-0.872,0.499-2.988,1.516-5.569,1.513c-0.296,0-0.601-0.019-0.908-0.047C216.144,124.744,218.351,121.855,220.901,119.305z"/>
<path fill="#FFFFFF" d="M208.859,147.918c1.137,1.112,2.169,2.309,2.972,3.322c0.871,1.101,1.467,1.963,1.683,2.282
	c1.004,10.521,5.133,17.373,5.5,17.967c0.04,0.099,0.151,0.39,0.273,0.844c0.152,0.563,0.302,1.334,0.302,2.14
	c0,0.482-0.061,0.971-0.191,1.441c-6.559-7.292-10.55-16.93-10.552-27.508C208.846,148.242,208.856,148.081,208.859,147.918z"/>
<path fill="#FFFFFF" d="M240.992,188.556c0.073-0.473,0.198-0.908,0.332-1.252c0.072-0.187,0.138-0.332,0.199-0.456l14.784,0.429
	c0.055,0.126,0.116,0.274,0.184,0.464c0.12,0.343,0.235,0.776,0.304,1.248c-2.211,0.367-4.478,0.568-6.794,0.568
	C246.904,189.557,243.893,189.204,240.992,188.556z"/>
<path fill="#FFFFFF" d="M280.659,175.845c0.149-3.358,0.597-5.901,0.667-6.305c0.282-0.729,3.068-8.1,3.11-17.226
	c1.45-2.837,3.343-5.172,4.884-6.794c0.604-0.636,1.146-1.157,1.589-1.561c0.157,1.461,0.243,2.942,0.243,4.445
	C291.152,158.951,287.183,168.561,280.659,175.845z"/>
<rect x="183.535" y="204.242" fill="#2E2C70" width="132.93" height="110.722"/>
<path fill="#FFFFFF" d="M215.77,310.477l-0.116-0.044c-0.024-0.042-11.904-4.443-11.992-14.892l0,0c0-1.334,0.201-2.758,0.65-4.263
	l0,0l0.15-0.5l0.519,0.026c5.692,0.281,11.17,0.413,16.409,0.413l0,0c0.321,0,0.643,0,0.962-0.001l0,0
	c0.11-0.682,0.163-1.294,0.163-1.842l0,0c-0.027-2.18-0.742-3.278-2.084-4.042l0,0c-1.36-0.757-3.489-1.04-6.125-1.034l0,0
	c-2.271-0.002-4.91,0.195-7.769,0.39l0,0l-0.599,0.041l-0.099-0.591c-0.698-4.091-1.027-7.811-1.029-11.224l0,0
	c-0.018-19.569,10.965-28.885,25.402-38.946l0,0c-0.789-0.351-1.959-0.466-3.423-0.457l0,0c-0.947,0-2.004,0.037-3.128,0.037l0,0
	c-2.083,0-4.41-0.123-6.767-0.86l0,0l-1.542-0.486l1.439-0.738c9.69-4.964,11.389-9.089,11.667-10.033l0,0
	c-0.032-0.043-0.072-0.095-0.12-0.154l0,0c-0.206-0.254-0.568-0.65-1.171-1.159l0,0c-1.201-1.02-3.36-2.5-7.114-4.25l0,0
	l-0.859-0.399l0.668-0.668c1.357-1.392,2.37-2.304,4.941-2.635l0,0c2.563-0.361,6.787-0.355,15.257-0.357l0,0h0.401l0.187,0.357
	c0.022,0.051,1.099,2.095,1.106,4.723l0,0v0.082l-0.021,0.079c-4.406,17.4-4.118,28.39-6.488,36.149l0,0
	c-3.842,12.446-6.922,15.496-6.89,21.403l0,0c-0.003,6.716,1.892,12.662,4.848,16.376l0,0c7.283-0.302,13.953-0.879,19.886-1.686
	l0,0l-0.002-2.101c-0.042-1.175-0.258-1.711-1.392-2.282l0,0c-1.167-0.55-3.384-0.868-7.04-0.862l0,0
	c-2.289,0-5.143,0.115-8.677,0.344l0,0l-0.718,0.046l0.013-0.718c0.338-20.909,8.868-40.22,13.93-49.915l0,0
	c-1.759-0.364-2.38-0.835-5.34-0.942l0,0l-1.231-0.046l0.716-1.001c0.005-0.009,4.222-5.917,9.517-12.115l0,0
	c-1.096-1.156-2.1-1.872-2.937-2.784l0,0c-0.945-1.016-1.567-2.344-1.551-4.445l0,0v-0.551l0.542-0.101
	c0.018-0.001,5.133-0.96,9.249-0.961l0,0h0.647l1.64,77.247c11.804-2.202,19.672-5.574,22.119-9.014l0,0
	c-0.095-0.036-0.21-0.074-0.346-0.114l0,0c-0.839-0.24-2.496-0.507-5.571-0.506l0,0c-2.418,0-5.708,0.163-10.177,0.619l0,0
	l-0.66,0.066l-0.065-0.657c-0.19-1.828-0.276-3.733-0.278-5.684l0,0c0.004-9.243,2.004-19.57,5.467-27.65l0,0
	c3.34-7.755,8.04-13.59,13.946-14.041l0,0v-2.692c-2.808,1.127-8.02,2.88-13.516,2.884l0,0c-1.092,0-2.192-0.067-3.29-0.227l0,0
	l-0.727-0.106l0.18-0.712c0.885-3.32,4.76-6.626,8.396-9.289l0,0c2.34-1.695,4.594-3.077,5.911-3.851l0,0
	c-1.814-0.729-5.627-2.169-11.352-3.878l0,0l-0.859-0.256l2.755-4.131h18.503l-0.294,0.872c0.012,0.009-1.293,3.858-1.289,8.624l0,0
	v59.848h3.46v0.663l-0.466,0.472l0.466-0.472v-0.663h0.269l0.194,0.19c0.029,0.037,2.063,2.004,3.029,4.586l0,0l0.075,0.205
	l-0.063,0.214c-5.278,17.781-12.256,23.867-12.348,23.944l0,0l-0.139,0.119l-0.183,0.031c-0.024,0.005-17.339,2.974-38.76,2.976l0,0
	H215.77L215.77,310.477z"/>
<path fill="#E5A92E" d="M244.846,309.15c10.649,0,20.29-0.739,27.263-1.478l0,0c6.115-0.649,10.163-1.293,11.076-1.443l0,0
	c0.167-0.158,0.497-0.483,0.97-1.025l0,0c0.707-0.81,1.715-2.082,2.888-3.904l0,0c2.326-3.615,5.307-9.399,7.897-18.057l0,0
	c-0.412-1.027-1.047-1.987-1.594-2.692l0,0c-0.358-0.465-0.671-0.813-0.857-1.014l0,0h-4.507v-61.174
	c0.004-3.624,0.71-6.724,1.104-8.172l0,0H273.1l-1.367,2.053c7.791,2.367,11.861,4.177,11.884,4.188l0,0l1.225,0.542l-1.176,0.645
	c-0.007,0.005-3.385,1.854-6.951,4.438l0,0c-3.25,2.325-6.61,5.343-7.65,7.821l0,0c0.768,0.08,1.541,0.116,2.313,0.116l0,0
	c5.858,0.003,11.558-2.141,13.917-3.161l0,0l0.925-0.401v5.991h-0.664c-5.232-0.048-10.014,5.355-13.391,13.266l0,0
	c-3.381,7.875-5.36,18.076-5.358,27.128l0,0c0,1.676,0.066,3.313,0.206,4.89l0,0c4.167-0.408,7.296-0.559,9.648-0.56l0,0
	c6.278,0.03,7.091,0.979,7.41,1.397l0,0l0.187,0.326l-0.185,0.329c-2.616,4.483-11.151,7.937-24.142,10.351l0,0l-0.766,0.14
	l-1.642-77.499c-3.009,0.07-6.469,0.608-7.799,0.834l0,0c0.09,1.501,0.508,2.23,1.187,3l0,0c0.769,0.854,1.983,1.692,3.339,3.224
	l0,0l0.382,0.432l-0.377,0.438c-4.135,4.802-7.666,9.516-9.119,11.495l0,0c2.568,0.226,3.246,0.783,5.171,1.041l0,0l0.938,0.13
	l-0.445,0.836c-4.89,9.191-13.666,28.528-14.184,49.404l0,0c3.223-0.199,5.869-0.301,8.042-0.303l0,0
	c3.73,0.005,6.058,0.285,7.595,0.986l0,0c1.567,0.681,2.206,2.047,2.162,3.484l0,0v3.254l-0.571,0.079
	c-6.216,0.868-13.231,1.483-20.917,1.791l0,0l-0.328,0.013l-0.209-0.251c-3.336-4.027-5.356-10.354-5.36-17.476l0,0
	c0.033-6.505,3.198-9.53,6.949-21.791l0,0c2.284-7.38,2.043-18.527,6.45-36.004l0,0c-0.011-1.097-0.246-2.105-0.483-2.84l0,0
	c-0.112-0.35-0.222-0.632-0.308-0.833l0,0c-8.18-0.001-12.321,0.009-14.649,0.342l0,0c-1.948,0.302-2.552,0.688-3.513,1.603l0,0
	c6.913,3.355,8.19,5.749,8.284,5.932l0,0l0.086,0.176l-0.022,0.194c-0.021,0.25-0.733,4.875-10.901,10.453l0,0
	c1.615,0.319,3.219,0.389,4.739,0.389l0,0c1.095,0,2.146-0.037,3.128-0.038l0,0c2.02,0.015,3.814,0.111,5.053,1.313l0,0l0.562,0.561
	l-0.652,0.454c-14.831,10.331-25.596,19.081-25.616,38.401l0,0c0,3.164,0.292,6.616,0.911,10.41l0,0
	c2.626-0.178,5.078-0.353,7.259-0.353l0,0c2.72,0.005,5.026,0.255,6.762,1.199l0,0c1.754,0.937,2.797,2.709,2.771,5.203l0,0
	c0,0.792-0.093,1.663-0.282,2.63l0,0l-0.104,0.533l-0.544,0.002c-0.505,0.004-1.011,0.002-1.519,0.004l0,0
	c-5.099-0.002-10.422-0.127-15.947-0.389l0,0c-0.316,1.204-0.457,2.33-0.457,3.386l0,0c-0.031,6.953,6.207,11.174,9.405,12.841l0,0
	c0.809,0.423,1.396,0.674,1.627,0.769l0,0H244.846L244.846,309.15z"/>
<path fill="#FFF200" d="M307.169,343.895l-3.303,4.732h-15.688l-3.304-4.732h-14.862l-6.192,4.732h-27.64l-6.192-4.732h-14.862
	l-3.303,4.732h-15.688l-3.302-4.732h-5.61c2.773,7.979,7.02,15.26,12.42,21.524h14.336l3.117-2.922h14.023l5.842,2.922h26.079
	l5.844-2.922h14.023l3.116,2.922h14.336c5.399-6.265,9.646-13.545,12.419-21.524H307.169z"/>
<path fill="#2E2C70" d="M196.134,348.627h15.688l3.303-4.732h14.862l6.192,4.732h27.64l6.192-4.732h14.862l3.304,4.732h15.688
	l3.303-4.732h5.608c2.041-5.87,3.294-12.11,3.605-18.602h-5.986l-3.488,6.542h-16.574l-3.489-6.542h-15.702l-6.542,6.542H235.4
	l-6.542-6.542h-15.702l-3.489,6.542h-16.574l-3.489-6.542h-5.986c0.312,6.491,1.564,12.731,3.604,18.602h5.61L196.134,348.627z"/>
<path fill="#FFF200" d="M193.093,331.835h16.574l3.489-6.542h15.702l6.542,6.542h29.201l6.542-6.542h15.702l3.489,6.542h16.574
	l3.488-6.542h5.986c0.052-1.077,0.082-2.158,0.082-3.248v-7.081h-132.93v7.081c0,1.09,0.03,2.171,0.082,3.248h5.986L193.093,331.835
	z"/>
<path fill="#2E2C70" d="M282.906,362.497h-14.023l-5.844,2.922H236.96l-5.842-2.922h-14.023l-3.117,2.922h-14.336
	c12.184,14.136,30.209,23.091,50.358,23.091s38.175-8.955,50.358-23.091h-14.336L282.906,362.497z"/>
<path fill="#2E2C70" d="M145.848,391.657l-32.928,37.069l-25.412-22.572l5.57-6.271l17.927,15.923l7.794-8.773l-15.475-13.746
	l5.57-6.271l15.475,13.746l13.993-15.753L145.848,391.657z"/>
<path fill="#2E2C70" d="M94.348,353.01l-4.213-8.628c3.533-1.029,6.802-1.003,9.805,0.078c3.005,1.083,5.654,3.228,7.948,6.438
	c3.632,5.081,4.66,10.027,3.084,14.841c-1.283,3.827-3.951,7.189-8.006,10.087c-4.842,3.462-9.54,4.906-14.091,4.336
	c-4.551-0.571-8.21-2.791-10.977-6.662c-3.108-4.348-4.124-8.803-3.051-13.368c1.075-4.565,4.615-8.91,10.618-13.035l13.845,19.37
	c2.253-1.694,3.591-3.593,4.014-5.696s-0.002-4.046-1.274-5.824c-0.865-1.211-1.923-1.993-3.174-2.346
	C97.626,352.247,96.117,352.383,94.348,353.01z M86.219,358.154c-2.198,1.655-3.486,3.449-3.865,5.382
	c-0.378,1.934-0.003,3.688,1.124,5.267c1.207,1.688,2.817,2.642,4.833,2.864c2.016,0.223,4.072-0.43,6.168-1.955L86.219,358.154z"/>
<path fill="#2E2C70" d="M81.84,301.725l3.392,8.149l-4.872,2.027c2.458,0.565,4.533,1.575,6.226,3.031
	c1.692,1.458,2.93,3.123,3.709,4.996c1.585,3.809,1.408,7.712-0.532,11.706c-1.939,3.994-5.657,7.135-11.152,9.421
	c-5.62,2.34-10.443,2.796-14.469,1.369c-4.023-1.425-6.877-4.158-8.559-8.197c-1.542-3.703-1.335-7.552,0.619-11.539l-16.487,6.861
	l-3.651-8.775L81.84,301.725z M74.289,332.342c3.539-1.473,5.896-3.027,7.07-4.664c1.701-2.368,2.023-4.822,0.965-7.361
	c-0.839-2.021-2.413-3.38-4.72-4.081c-2.307-0.701-5.166-0.341-8.581,1.08c-3.81,1.585-6.266,3.414-7.37,5.485
	c-1.104,2.071-1.209,4.179-0.317,6.323c0.866,2.081,2.419,3.48,4.658,4.196C68.235,334.038,70.999,333.71,74.289,332.342z"/>
<path fill="#2E2C70" d="M65.008,274.803l-0.003-9.603c3.626,0.626,6.552,2.083,8.778,4.372c2.226,2.288,3.666,5.378,4.32,9.27
	c1.036,6.159-0.209,11.056-3.736,14.689c-2.831,2.878-6.703,4.729-11.617,5.557c-5.87,0.987-10.726,0.226-14.566-2.283
	c-3.84-2.508-6.155-6.109-6.944-10.8c-0.886-5.27,0.154-9.721,3.121-13.353c2.968-3.632,8.053-5.984,15.256-7.06l3.951,23.479
	c2.769-0.534,4.803-1.653,6.104-3.358c1.304-1.707,1.773-3.638,1.41-5.794c-0.247-1.468-0.855-2.633-1.824-3.5
	C68.29,275.554,66.873,275.016,65.008,274.803z M55.446,275.863c-2.701,0.522-4.645,1.571-5.833,3.143
	c-1.187,1.57-1.621,3.313-1.298,5.226c0.343,2.046,1.373,3.609,3.087,4.693c1.713,1.083,3.848,1.399,6.4,0.947L55.446,275.863z"/>
<path fill="#2E2C70" d="M74.971,246.013l-0.179,9.502l-35.911-0.677l0.166-8.825l5.106,0.096c-2.383-1.555-3.947-2.943-4.691-4.164
	c-0.743-1.22-1.101-2.597-1.072-4.13c0.042-2.165,0.678-4.238,1.91-6.223l8.23,3.098c-1.067,1.582-1.614,3.059-1.64,4.434
	c-0.025,1.331,0.321,2.465,1.035,3.402c0.716,0.939,2.026,1.691,3.932,2.256c1.907,0.566,5.915,0.906,12.023,1.021L74.971,246.013z"
	/>
<path fill="#2E2C70" d="M52.707,215.996l-3.283,8.125c-3.201-1.657-5.376-3.815-6.527-6.475c-1.15-2.657-1.25-6.271-0.297-10.839
	c0.865-4.15,2.001-7.138,3.406-8.964c1.406-1.826,2.951-2.994,4.635-3.508c1.685-0.511,4.546-0.347,8.585,0.495l10.84,2.364
	c3.09,0.644,5.4,0.97,6.93,0.978c1.53,0.008,3.219-0.222,5.067-0.688l-1.919,9.204c-0.668,0.115-1.647,0.222-2.935,0.321
	c-0.583,0.04-0.971,0.074-1.161,0.104c1.213,1.912,2.018,3.854,2.414,5.823c0.394,1.972,0.379,3.983-0.049,6.036
	c-0.755,3.62-2.332,6.269-4.731,7.945c-2.398,1.676-5.1,2.201-8.102,1.575c-1.986-0.414-3.659-1.258-5.017-2.531
	c-1.359-1.273-2.273-2.852-2.744-4.735c-0.472-1.883-0.68-4.5-0.626-7.852c0.09-4.518-0.043-7.689-0.4-9.515l-0.926-0.193
	c-1.789-0.373-3.155-0.197-4.101,0.527c-0.945,0.725-1.673,2.311-2.184,4.761c-0.345,1.655-0.289,3.014,0.169,4.078
	C50.208,214.093,51.193,215.082,52.707,215.996z M62.851,205.121c0.148,1.275,0.229,3.261,0.243,5.958
	c0.014,2.697,0.202,4.499,0.566,5.404c0.608,1.393,1.574,2.228,2.899,2.504c1.302,0.271,2.528,0.021,3.681-0.753
	c1.151-0.773,1.883-1.91,2.196-3.411c0.349-1.677,0.131-3.393-0.656-5.146c-0.603-1.301-1.475-2.253-2.616-2.86
	c-0.745-0.409-2.231-0.846-4.46-1.311L62.851,205.121z"/>
<path fill="#2E2C70" d="M73.703,190.033l2.591-9.293c1.853,0.39,3.471,0.216,4.854-0.522c1.383-0.737,2.532-2.123,3.449-4.158
	c1.009-2.24,1.358-4.112,1.043-5.613c-0.232-1.02-0.832-1.748-1.798-2.183c-0.658-0.297-1.295-0.336-1.912-0.12
	c-0.606,0.247-1.421,1.042-2.447,2.385c-4.689,6.295-8.094,10.092-10.211,11.387c-2.934,1.794-5.975,1.983-9.12,0.566
	c-2.836-1.277-4.717-3.471-5.64-6.583c-0.923-3.111-0.325-7.021,1.796-11.728c2.019-4.482,4.248-7.483,6.689-9.006
	c2.441-1.521,5.276-2.05,8.503-1.585l-2.17,8.853c-1.431-0.225-2.707-0.002-3.825,0.669c-1.118,0.671-2.085,1.911-2.899,3.721
	c-1.027,2.282-1.445,4.059-1.252,5.333c0.156,0.862,0.593,1.455,1.313,1.778c0.617,0.278,1.271,0.226,1.962-0.155
	c0.928-0.521,2.955-2.854,6.083-6.997c3.126-4.143,5.863-6.787,8.208-7.931c2.357-1.115,4.912-1.053,7.667,0.189
	c3.002,1.352,5.016,3.768,6.045,7.248c1.029,3.481,0.438,7.678-1.776,12.591c-2.008,4.461-4.503,7.584-7.483,9.37
	C80.391,190.036,77.168,190.629,73.703,190.033z"/>
<path fill="#2E2C70" d="M66.903,119.61l14.516,11.027c-1-4.609-0.211-8.612,2.367-12.005c1.322-1.742,2.839-3.068,4.55-3.977
	c1.709-0.909,3.337-1.336,4.882-1.282c1.543,0.055,3.025,0.416,4.444,1.083c1.418,0.667,3.412,1.976,5.978,3.926l16.779,12.746
	l-5.749,7.568l-15.109-11.478c-2.998-2.278-5.01-3.58-6.036-3.906c-1.027-0.327-2.053-0.307-3.082,0.059
	c-1.028,0.366-1.958,1.095-2.791,2.191c-0.955,1.257-1.501,2.61-1.641,4.063c-0.141,1.451,0.231,2.873,1.113,4.264
	c0.882,1.393,2.526,3.002,4.933,4.83l14.327,10.884l-5.749,7.567l-39.481-29.992L66.903,119.61z"/>
<path fill="#2E2C70" d="M113.046,112.03c-2.005-2.438-3.345-5.292-4.019-8.562c-0.674-3.269-0.403-6.411,0.813-9.424
	c1.215-3.012,3.182-5.636,5.898-7.869c4.198-3.451,8.758-4.916,13.681-4.395c4.923,0.52,9.095,2.862,12.518,7.025
	c3.451,4.198,4.956,8.79,4.518,13.777c-0.439,4.987-2.714,9.17-6.825,12.549c-2.543,2.091-5.441,3.509-8.693,4.257
	c-3.253,0.748-6.394,0.505-9.42-0.728C118.489,117.428,115.666,115.218,113.046,112.03z M120.892,106.237
	c2.262,2.751,4.647,4.322,7.157,4.711c2.509,0.389,4.721-0.204,6.637-1.779c1.916-1.576,2.921-3.627,3.016-6.157
	c0.094-2.529-1.003-5.188-3.293-7.975c-2.234-2.718-4.602-4.274-7.101-4.67c-2.501-0.396-4.708,0.192-6.625,1.768
	c-1.917,1.575-2.926,3.631-3.03,6.167C117.551,100.84,118.63,103.485,120.892,106.237z"/>
<path fill="#2E2C70" d="M188.392,85.24l-8.549,4.151l-8.007-16.489c-1.694-3.488-2.972-5.656-3.835-6.503
	c-0.862-0.846-1.842-1.354-2.939-1.523c-1.096-0.169-2.224,0.027-3.38,0.588c-1.48,0.719-2.612,1.77-3.395,3.153
	c-0.782,1.382-1.066,2.849-0.853,4.399c0.214,1.551,1.198,4.131,2.951,7.741l7.107,14.633l-8.548,4.152l-15.691-32.308l7.94-3.857
	l2.305,4.747c1.046-5.02,3.709-8.569,7.989-10.647c1.886-0.916,3.775-1.413,5.667-1.492c1.892-0.08,3.494,0.214,4.807,0.88
	c1.314,0.666,2.453,1.591,3.417,2.777c0.965,1.187,2.053,3.026,3.265,5.521L188.392,85.24z"/>
<path fill="#2E2C70" d="M217.062,77.261l-4.719-49.356l33.834-3.236l0.799,8.35l-23.87,2.283l1.117,11.682l20.604-1.97l0.798,8.35
	l-20.604,1.969l2.005,20.975L217.062,77.261z"/>
<path fill="#2E2C70" d="M281.61,77.6l0.734-5.327c-1.558,1.72-3.467,2.981-5.729,3.785s-4.565,1.044-6.911,0.72
	c-2.389-0.33-4.461-1.151-6.214-2.462c-1.754-1.312-2.924-2.976-3.511-4.991c-0.588-2.015-0.649-4.699-0.188-8.049l3.105-22.515
	l9.414,1.298l-2.254,16.35c-0.69,5.004-0.94,8.093-0.749,9.268c0.19,1.177,0.697,2.157,1.522,2.942
	c0.825,0.786,1.94,1.275,3.35,1.469c1.606,0.222,3.108-0.021,4.503-0.728s2.417-1.681,3.065-2.923
	c0.65-1.242,1.326-4.409,2.028-9.502l2.07-15.009l9.414,1.298l-4.907,35.581L281.61,77.6z"/>
<path fill="#2E2C70" d="M326.89,53.21l-2.424,7.176l-6.153-2.077l-4.632,13.714c-0.938,2.777-1.426,4.415-1.463,4.914
	c-0.038,0.499,0.101,0.968,0.417,1.408c0.314,0.44,0.771,0.761,1.37,0.961c0.834,0.282,2.138,0.401,3.913,0.358l-1.59,7.245
	c-2.396,0.191-4.92-0.162-7.568-1.056c-1.624-0.549-2.995-1.316-4.113-2.3c-1.12-0.985-1.837-2.013-2.154-3.084
	c-0.316-1.07-0.343-2.383-0.08-3.936c0.161-1.111,0.778-3.258,1.854-6.442l5.011-14.835l-4.134-1.396l2.425-7.177l4.133,1.396
	l2.283-6.761l10.811-2.203l-4.058,12.016L326.89,53.21z"/>
<path fill="#2E2C70" d="M321.414,89.24l24.339-43.196l8.28,4.666l-8.766,15.558c4.19-1.468,8.036-1.217,11.532,0.753
	c3.811,2.146,6.186,5.304,7.125,9.468c0.94,4.166-0.045,8.832-2.956,13.998c-3.011,5.345-6.601,8.742-10.771,10.196
	c-4.172,1.455-8.073,1.158-11.708-0.889c-1.787-1.008-3.298-2.448-4.532-4.321c-1.236-1.873-1.99-4.038-2.262-6.495l-2.59,4.597
	L321.414,89.24z M338.833,77.548c-1.826,3.241-2.665,5.926-2.518,8.053c0.193,3.008,1.479,5.181,3.857,6.52
	c1.826,1.03,3.821,1.127,5.988,0.289c2.167-0.837,4.196-2.934,6.089-6.293c2.015-3.575,2.819-6.519,2.413-8.831
	c-0.404-2.312-1.619-4.038-3.643-5.178c-1.984-1.117-4.068-1.276-6.253-0.475C342.581,72.434,340.604,74.405,338.833,77.548z"/>
<path fill="#2E2C70" d="M368.16,95.605c2.147-2.313,4.797-4.022,7.947-5.128c3.15-1.105,6.3-1.258,9.448-0.457
	c3.148,0.802,6.012,2.398,8.588,4.792c3.982,3.697,6.044,8.021,6.188,12.97c0.142,4.948-1.62,9.396-5.287,13.345
	c-3.698,3.981-8.048,6.088-13.049,6.321c-5.001,0.232-9.451-1.463-13.35-5.083c-2.412-2.241-4.206-4.922-5.383-8.046
	c-1.177-3.124-1.355-6.267-0.539-9.433C363.54,101.722,365.352,98.627,368.16,95.605z M374.952,102.604
	c-2.426,2.611-3.662,5.185-3.712,7.724c-0.049,2.538,0.834,4.651,2.651,6.34c1.816,1.688,3.984,2.41,6.505,2.165
	c2.52-0.245,5.008-1.688,7.463-4.332c2.393-2.577,3.619-5.131,3.677-7.662c0.06-2.53-0.821-4.64-2.639-6.328
	c-1.817-1.688-3.988-2.414-6.518-2.176C379.853,98.572,377.376,99.995,374.952,102.604z M400.103,95.455l-4.386-4.074l0.043-13.762
	l7.806,7.251L400.103,95.455z"/>
<path fill="#2E2C70" d="M387.098,141l39.579-29.863l5.723,7.586l-39.578,29.863L387.098,141z"/>
<path fill="#2E2C70" d="M409.333,174.673l46.918-16.028l3.237,9.473l-20.834,7.118l27.372,12.021l4.352,12.738l-24.31-11.425
	l-22.281,28.413l-4.188-12.258l17.613-20.42l-10.466-5.002l-14.177,4.844L409.333,174.673z"/>
<path fill="#2E2C70" d="M441.675,217.276c3.146-0.23,6.251,0.323,9.311,1.659c3.059,1.335,5.47,3.369,7.228,6.1
	c1.76,2.731,2.769,5.851,3.025,9.358c0.396,5.419-1.037,9.989-4.303,13.71c-3.267,3.72-7.588,5.778-12.96,6.17
	c-5.42,0.397-10.04-1.023-13.86-4.259s-5.924-7.506-6.313-12.813c-0.24-3.284,0.273-6.469,1.539-9.557
	c1.266-3.088,3.275-5.512,6.029-7.275C434.124,218.609,437.558,217.579,441.675,217.276z M441.879,227.028
	c-3.554,0.26-6.212,1.303-7.978,3.126c-1.766,1.825-2.558,3.974-2.377,6.449c0.181,2.473,1.278,4.478,3.288,6.015
	c2.013,1.537,4.816,2.174,8.415,1.911c3.508-0.257,6.146-1.293,7.911-3.106c1.767-1.814,2.559-3.957,2.378-6.43
	c-0.181-2.474-1.277-4.485-3.29-6.034C448.215,227.412,445.432,226.768,441.879,227.028z M465.165,238.922l-0.437-5.971
	l9.403-10.048l0.777,10.626L465.165,238.922z"/>
<path fill="#2E2C70" d="M423.71,272.024l1.147-9.435l35.654,4.336l-1.064,8.764l-5.069-0.618c2.212,1.791,3.626,3.332,4.241,4.621
	c0.614,1.29,0.83,2.696,0.646,4.219c-0.262,2.149-1.106,4.146-2.534,5.995l-7.871-3.921c1.224-1.465,1.917-2.879,2.083-4.244
	c0.161-1.321-0.066-2.485-0.683-3.491c-0.615-1.006-1.844-1.887-3.681-2.645c-1.839-0.758-5.791-1.505-11.857-2.242L423.71,272.024z
	"/>
<path fill="#2E2C70" d="M431.929,289.733l-1.524,9.527c-1.884-0.178-3.473,0.178-4.764,1.065c-1.29,0.889-2.275,2.397-2.957,4.522
	c-0.749,2.34-0.885,4.237-0.404,5.694c0.347,0.987,1.025,1.643,2.034,1.967c0.688,0.22,1.325,0.187,1.914-0.098
	c0.573-0.314,1.294-1.196,2.161-2.646c3.949-6.785,6.902-10.941,8.859-12.469c2.713-2.113,5.713-2.646,8.998-1.593
	c2.962,0.95,5.078,2.918,6.349,5.905c1.267,2.985,1.115,6.938-0.46,11.855c-1.499,4.681-3.377,7.915-5.629,9.703
	c-2.255,1.787-5.011,2.633-8.271,2.536l1.156-9.041c1.447,0.061,2.689-0.305,3.726-1.098c1.035-0.792,1.855-2.134,2.46-4.023
	c0.765-2.383,0.977-4.197,0.643-5.441c-0.252-0.839-0.755-1.378-1.507-1.618c-0.644-0.207-1.288-0.081-1.931,0.376
	c-0.863,0.622-2.614,3.17-5.253,7.64c-2.639,4.469-5.06,7.404-7.261,8.807c-2.215,1.374-4.762,1.601-7.639,0.679
	c-3.136-1.004-5.41-3.177-6.825-6.52c-1.416-3.341-1.303-7.577,0.341-12.71c1.494-4.66,3.618-8.044,6.379-10.156
	C425.283,290.486,428.418,289.532,431.929,289.733z"/>
<path fill="#2E2C70" d="M425.87,332.974c2.714,1.612,4.942,3.842,6.688,6.689c1.743,2.846,2.557,5.892,2.438,9.139
	c-0.119,3.246-1.077,6.382-2.874,9.406c-2.776,4.67-6.567,7.598-11.375,8.78c-4.808,1.182-9.526,0.397-14.159-2.355
	c-4.672-2.775-7.648-6.583-8.93-11.423s-0.563-9.546,2.156-14.12c1.681-2.831,3.925-5.149,6.729-6.958
	c2.806-1.809,5.843-2.646,9.107-2.516C418.916,329.748,422.322,330.866,425.87,332.974z M420.458,341.088
	c-3.063-1.818-5.839-2.485-8.331-2c-2.492,0.487-4.371,1.796-5.638,3.929c-1.268,2.131-1.516,4.404-0.746,6.815
	s2.706,4.538,5.808,6.382c3.024,1.796,5.778,2.456,8.264,1.98c2.487-0.478,4.364-1.782,5.631-3.913
	c1.267-2.133,1.518-4.409,0.754-6.831C425.435,345.028,423.521,342.908,420.458,341.088z"/>
<path fill="#2E2C70" d="M370.399,377.316l3.856,3.747c-0.464-2.273-0.35-4.559,0.343-6.857c0.693-2.297,1.864-4.295,3.514-5.993
	c1.682-1.731,3.57-2.914,5.665-3.55c2.096-0.636,4.129-0.594,6.102,0.128c1.971,0.721,4.17,2.26,6.595,4.617l16.301,15.836
	l-6.621,6.817l-11.839-11.502c-3.622-3.52-5.964-5.551-7.023-6.094c-1.061-0.543-2.151-0.714-3.271-0.514
	c-1.122,0.199-2.177,0.808-3.167,1.827c-1.131,1.163-1.826,2.518-2.082,4.06c-0.257,1.542-0.077,2.943,0.539,4.201
	c0.615,1.26,2.767,3.681,6.454,7.262l10.868,10.559l-6.623,6.816l-25.762-25.029L370.399,377.316z"/>
<path fill="#4EB857" d="M380.28,293.048c-5.896,33.109-19.955,43.667-34.015,54.879C354.43,308.469,364.86,308.469,380.28,293.048z"
	/>
<path fill="#4EB857" d="M360.778,299.072c-2.469-44.726,10.886-69.165,14.967-90.836
	C391.166,250.657,386.631,276.017,360.778,299.072z"/>
<path fill="#4EB857" d="M361.184,220.631c4.273-29.449-3.801-50.349-27.075-73.623C334.108,190.231,346.217,216.356,361.184,220.631
	z"/>
<path fill="#4EB857" d="M356.696,278.265c-10.885-6.047-26.305-35.823-20.862-61.411
	C351.707,236.394,359.409,244.768,356.696,278.265z"/>
<path fill="#4EB857" d="M119.72,293.048c5.896,33.109,19.956,43.667,34.015,54.879C145.571,308.469,135.139,308.469,119.72,293.048z
	"/>
<path fill="#4EB857" d="M139.221,299.072c2.469-44.726-10.885-69.165-14.966-90.836
	C108.834,250.657,113.369,276.017,139.221,299.072z"/>
<path fill="#4EB857" d="M138.817,220.631c-4.274-29.449,3.8-50.349,27.075-73.623C165.892,190.231,153.783,216.356,138.817,220.631z
	"/>
<path fill="#4EB857" d="M143.304,278.265c10.884-6.047,26.305-35.823,20.862-61.411C148.292,236.394,140.59,244.768,143.304,278.265
	z"/>
<circle fill="#FFFFFF" cx="333.304" cy="321.781" r="5.863"/>
<circle fill="#ED1C24" cx="333.303" cy="321.781" r="3.655"/>
<circle fill="#FFFFFF" cx="341.783" cy="294.925" r="5.863"/>
<circle fill="#ED1C24" cx="341.784" cy="294.925" r="3.655"/>
<circle fill="#FFFFFF" cx="325.883" cy="198.339" r="5.863"/>
<circle fill="#ED1C24" cx="325.882" cy="198.339" r="3.655"/>
<circle fill="#FFFFFF" cx="322.643" cy="173.31" r="5.863"/>
<circle fill="#ED1C24" cx="322.643" cy="173.31" r="3.655"/>
<circle fill="#FFFFFF" cx="166.697" cy="321.781" r="5.863"/>
<circle fill="#ED1C24" cx="166.697" cy="321.781" r="3.655"/>
<circle fill="#FFFFFF" cx="158.216" cy="294.925" r="5.863"/>
<circle fill="#ED1C24" cx="158.216" cy="294.925" r="3.655"/>
<circle fill="#FFFFFF" cx="174.118" cy="198.339" r="5.863"/>
<circle fill="#ED1C24" cx="174.118" cy="198.339" r="3.655"/>
<circle fill="#FFFFFF" cx="177.357" cy="173.31" r="5.863"/>
<circle fill="#ED1C24" cx="177.357" cy="173.31" r="3.655"/>
</svg>
