<svg xmlns="http://www.w3.org/2000/svg" viewBox="0 0 146 200" width="146" height="200">
	<style>
		tspan { white-space:pre }
		.shp0 { fill: #ffcb06 } 
		.shp1 { fill: #ffffff } 
		.shp2 { fill: #231f20 } 
		.shp3 { fill: #0d4ba0 } 
		.shp4 { fill: #eb1c24 } 
	</style>
	<g >
		<path class="shp0" d="M66.3 0.14C64.73 0.2 62.18 0.32 60.65 0.4C59.11 0.49 57.01 0.62 55.97 0.7C54.93 0.78 52.8 0.97 51.23 1.12C49.65 1.28 46.39 1.66 43.97 1.97C41.55 2.29 39.23 2.59 38.8 2.65C38.38 2.71 37.47 2.86 36.78 2.97C36.09 3.08 34.93 3.28 34.2 3.41C33.47 3.53 32.05 3.78 31.06 3.97C30.06 4.15 28.46 4.47 27.5 4.66C26.54 4.86 25.31 5.11 24.78 5.22C24.24 5.32 23.2 5.54 22.47 5.71C21.74 5.87 20.24 6.23 19.12 6.5C18.01 6.77 16.75 7.07 16.33 7.17C15.91 7.27 14.84 7.54 13.96 7.78C13.08 8.01 11.98 8.3 11.52 8.42C11.05 8.54 10.3 8.74 9.84 8.86C9.38 8.98 8.88 9.13 8.72 9.19C8.57 9.25 7.91 9.44 7.26 9.61C6.61 9.78 5.26 10.17 4.26 10.47C3.26 10.77 2 11.15 1.47 11.3C0.93 11.46 0.39 11.64 0.28 11.69C0.09 11.79 0.07 15.82 0.07 46.74C0.08 81.41 0.08 81.72 0.39 86.07C0.56 88.49 0.77 91.15 0.85 91.99C0.94 92.83 1.23 95.28 1.5 97.42C1.77 99.57 2.04 101.7 2.1 102.16C2.16 102.62 2.34 103.68 2.5 104.53C2.66 105.37 2.86 106.5 2.95 107.03C3.03 107.57 3.25 108.7 3.44 109.54C3.62 110.38 3.9 111.67 4.05 112.4C4.2 113.12 4.55 114.6 4.83 115.67C5.1 116.74 5.36 117.78 5.4 117.97C5.43 118.16 5.52 118.44 5.58 118.59C5.64 118.75 5.8 119.28 5.93 119.78C6.07 120.28 6.36 121.31 6.59 122.08C6.82 122.84 7.1 123.78 7.21 124.16C7.33 124.55 7.47 124.99 7.53 125.14C7.6 125.29 7.84 125.98 8.07 126.67C8.3 127.36 8.71 128.52 8.98 129.25C9.24 129.98 9.75 131.32 10.11 132.24C10.47 133.16 10.83 134.07 10.91 134.26C10.99 134.45 11.14 134.8 11.24 135.03C11.34 135.26 11.75 136.2 12.15 137.12C12.55 138.04 12.96 138.94 13.06 139.14C13.16 139.33 13.62 140.27 14.08 141.23C14.54 142.18 15.28 143.66 15.74 144.5C16.19 145.34 16.91 146.63 17.33 147.35C17.75 148.08 18.14 148.77 18.19 148.89C18.24 149 18.44 149.35 18.64 149.65C18.83 149.96 19.11 150.43 19.27 150.7C19.42 150.96 19.8 151.56 20.1 152.02C20.41 152.48 20.7 152.95 20.76 153.06C20.81 153.18 21.11 153.64 21.42 154.09C21.73 154.54 22.17 155.2 22.4 155.55C22.62 155.91 23.17 156.68 23.62 157.28C24.06 157.87 24.43 158.42 24.43 158.5C24.43 158.57 24.47 158.65 24.53 158.67C24.59 158.69 24.82 158.95 25.05 159.26C25.28 159.56 25.5 159.88 25.54 159.97C25.58 160.07 25.82 160.38 26.07 160.68C26.32 160.97 27.22 162.09 28.08 163.16C28.93 164.23 29.71 165.21 29.82 165.32C29.92 165.44 30.84 166.48 31.86 167.65C32.87 168.82 35.28 171.33 37.2 173.23C39.12 175.13 41.32 177.25 42.09 177.93C42.86 178.62 43.9 179.53 44.39 179.96C44.89 180.39 45.7 181.08 46.2 181.5C46.7 181.92 47.99 182.96 49.06 183.82C50.14 184.67 51.08 185.43 51.16 185.49C51.23 185.55 51.87 186.04 52.58 186.57C53.29 187.1 54.22 187.79 54.64 188.09C55.07 188.4 55.5 188.71 55.59 188.79C55.69 188.86 55.98 189.09 56.25 189.29C56.52 189.49 57.34 190.06 58.07 190.56C58.79 191.06 60.66 192.3 62.2 193.33C63.75 194.36 65.29 195.36 65.62 195.56C65.96 195.77 66.76 196.27 67.42 196.68C68.07 197.1 69.56 198.01 70.73 198.72C71.9 199.42 72.94 200 73.03 200C73.13 200 73.37 199.89 73.56 199.76C73.75 199.62 74.44 199.19 75.09 198.79C75.75 198.4 76.77 197.77 77.37 197.4C77.98 197.03 78.64 196.62 78.84 196.49C79.04 196.36 79.4 196.14 79.63 196.02C79.86 195.89 80.27 195.61 80.54 195.4C80.81 195.2 81.21 194.92 81.44 194.79C81.67 194.67 81.99 194.49 82.13 194.39C82.28 194.3 82.47 194.17 82.55 194.11C82.63 194.05 83.45 193.51 84.38 192.9C85.3 192.3 86.4 191.56 86.82 191.26C87.24 190.97 88.03 190.42 88.56 190.05C89.1 189.67 90 189.02 90.56 188.59C91.13 188.16 91.69 187.75 91.81 187.67C91.94 187.6 92.36 187.3 92.74 187.01C93.13 186.72 93.57 186.39 93.73 186.27C93.88 186.16 94.57 185.63 95.26 185.09C95.95 184.56 96.93 183.79 97.43 183.38C97.93 182.97 98.65 182.4 99.03 182.1C99.42 181.81 100.16 181.19 100.69 180.72C101.22 180.26 101.94 179.61 102.27 179.28C102.61 178.96 102.95 178.69 103.02 178.69C103.09 178.69 103.16 178.64 103.18 178.59C103.2 178.53 103.88 177.89 104.68 177.16C105.49 176.44 107.22 174.78 108.52 173.47C109.83 172.17 111.3 170.66 111.8 170.12C112.3 169.59 113.25 168.55 113.91 167.83C114.57 167.1 115.52 166.02 116.01 165.44C116.5 164.85 117.21 163.97 117.59 163.49C117.98 163 118.38 162.51 118.49 162.4C118.6 162.28 119.04 161.73 119.47 161.17C119.9 160.61 120.34 160.01 120.46 159.84C120.57 159.68 121.06 159.01 121.54 158.36C122.01 157.71 122.45 157.11 122.51 157.03C122.57 156.95 122.68 156.78 122.76 156.65C122.84 156.53 123.52 155.5 124.28 154.36C125.04 153.23 125.88 151.95 126.15 151.53C126.42 151.11 126.76 150.59 126.9 150.38C127.04 150.17 127.16 149.97 127.16 149.93C127.16 149.89 127.44 149.41 127.78 148.85C128.12 148.3 128.41 147.79 128.41 147.74C128.41 147.68 128.62 147.3 128.87 146.9C129.13 146.5 129.51 145.83 129.72 145.4C129.93 144.98 130.41 144.04 130.79 143.31C131.17 142.59 131.84 141.24 132.27 140.32C132.7 139.4 133.22 138.27 133.43 137.81C133.65 137.35 133.98 136.63 134.17 136.21C134.37 135.79 134.64 135.16 134.77 134.82C134.91 134.47 135.06 134.13 135.12 134.05C135.17 133.98 135.25 133.74 135.3 133.53C135.35 133.32 135.54 132.82 135.72 132.42C135.9 132.01 136.19 131.31 136.36 130.85C136.53 130.39 136.72 129.89 136.79 129.74C136.85 129.58 137.04 129.05 137.21 128.55C137.38 128.05 137.56 127.52 137.63 127.37C137.69 127.21 137.87 126.71 138.02 126.25C138.18 125.79 138.59 124.51 138.94 123.4C139.28 122.29 139.77 120.69 140.01 119.85C140.25 119 140.49 118.1 140.55 117.83C140.61 117.56 140.72 117.09 140.81 116.78C140.89 116.48 141.09 115.66 141.25 114.97C141.41 114.28 141.63 113.37 141.74 112.95C141.85 112.53 142.13 111.22 142.36 110.03C142.6 108.84 142.85 107.59 142.92 107.24C143 106.9 143.19 105.89 143.34 105.01C143.5 104.13 143.79 102.32 143.98 100.97C144.18 99.63 144.41 98.04 144.48 97.42C144.55 96.81 144.67 95.71 144.75 94.99C144.82 94.26 144.95 93.1 145.02 92.41C145.09 91.72 145.25 89.84 145.36 88.23C145.47 86.62 145.64 83.77 145.72 81.89C145.83 79.52 145.87 68.33 145.83 45.06C145.79 11.76 145.79 11.63 145.51 11.59C145.36 11.56 144.6 11.35 143.84 11.12C143.07 10.89 141.97 10.56 141.39 10.39C140.82 10.21 139.94 9.96 139.44 9.82C138.94 9.69 138.41 9.53 138.25 9.47C138.1 9.4 137.09 9.12 136.02 8.84C134.95 8.56 133.66 8.22 133.16 8.07C132.66 7.93 130.96 7.51 129.39 7.13C127.82 6.75 125.71 6.25 124.71 6.01C123.72 5.78 122.11 5.42 121.15 5.23C120.2 5.04 119 4.78 118.5 4.67C118 4.56 116.4 4.25 114.94 3.98C113.48 3.72 111.1 3.31 109.64 3.07C108.18 2.83 106.61 2.58 106.15 2.5C105.69 2.42 104.12 2.2 102.66 2.01C101.2 1.82 98.38 1.51 96.38 1.32C94.38 1.13 92.25 0.91 91.63 0.84C91.02 0.76 89.42 0.64 88.07 0.55C86.73 0.47 84.38 0.35 82.84 0.27C81.3 0.2 77.6 0.11 74.61 0.08C71.61 0.05 67.87 0.08 66.3 0.14Z" />
		<path class="shp1" d="M62.88 2.81C61.81 2.88 59.14 3.06 56.95 3.21C54.76 3.36 52.31 3.55 51.5 3.63C50.7 3.72 48.72 3.94 47.11 4.14C45.5 4.33 43.74 4.55 43.2 4.62C42.66 4.69 41.78 4.8 41.25 4.87C40.71 4.93 39.67 5.08 38.94 5.19C38.21 5.31 36.67 5.57 35.52 5.78C34.37 5.98 32.9 6.25 32.24 6.36C31.59 6.48 30.59 6.66 30.01 6.76C29.43 6.86 28.65 7.01 28.26 7.09C27.88 7.16 26.81 7.39 25.89 7.58C24.97 7.78 23.37 8.13 22.33 8.37C21.3 8.6 19.95 8.91 19.33 9.06C18.72 9.2 17.56 9.48 16.75 9.68C15.94 9.88 14.81 10.17 14.24 10.32C13.66 10.48 12.97 10.67 12.7 10.75C12.43 10.82 11.87 10.97 11.45 11.06C11.02 11.16 10.46 11.31 10.19 11.39C9.92 11.47 9.23 11.67 8.65 11.84C8.08 12 7.07 12.29 6.42 12.49C5.77 12.68 5.01 12.9 4.75 12.97C4.48 13.05 4.01 13.17 3.7 13.25C3.39 13.32 3 13.48 2.83 13.59L2.51 13.79C2.52 60.8 2.58 76.57 2.65 79.18C2.73 81.78 2.88 85.29 3 86.98C3.12 88.66 3.28 90.64 3.35 91.36C3.43 92.09 3.56 93.22 3.63 93.87C3.71 94.52 3.87 95.9 4 96.94C4.12 97.97 4.27 99.22 4.33 99.72C4.4 100.22 4.49 100.85 4.54 101.11C4.59 101.38 4.81 102.7 5.03 104.04C5.25 105.38 5.62 107.42 5.85 108.57C6.08 109.71 6.36 111.06 6.47 111.56C6.58 112.06 6.84 113.15 7.04 114C7.24 114.84 7.5 115.91 7.62 116.36C7.74 116.82 7.96 117.64 8.12 118.18C8.28 118.71 8.48 119.43 8.58 119.78C8.68 120.12 8.9 120.91 9.07 121.52C9.24 122.13 9.44 122.76 9.5 122.91C9.56 123.06 9.96 124.22 10.38 125.49C10.81 126.75 11.28 128.16 11.44 128.62C11.6 129.08 11.79 129.58 11.86 129.74C11.93 129.89 12.15 130.45 12.36 130.99C12.57 131.53 13.05 132.72 13.43 133.64C13.81 134.55 14.28 135.65 14.47 136.07C14.67 136.49 14.99 137.18 15.18 137.6C15.37 138.03 16.01 139.37 16.61 140.6C17.21 141.82 17.92 143.2 18.18 143.66C18.45 144.12 19.12 145.31 19.67 146.31C20.22 147.31 21.01 148.68 21.43 149.37C21.85 150.06 22.24 150.7 22.3 150.78C22.36 150.87 22.52 151.12 22.67 151.34C22.82 151.56 23.29 152.27 23.72 152.92C24.15 153.58 24.53 154.14 24.57 154.18C24.61 154.22 25.01 154.78 25.45 155.43C25.89 156.08 26.58 157.06 26.98 157.61C27.38 158.16 28.08 159.09 28.54 159.69C29 160.28 29.72 161.18 30.12 161.68C30.53 162.19 31.13 162.92 31.45 163.3C31.77 163.67 32.27 164.27 32.57 164.62C32.87 164.97 33.33 165.5 33.6 165.81C33.87 166.11 34.95 167.27 36 168.37C37.04 169.47 38.47 170.95 39.16 171.64C39.86 172.34 41.24 173.67 42.24 174.6C43.23 175.53 44.72 176.87 45.55 177.59C46.39 178.31 47.46 179.23 47.93 179.63C48.4 180.03 50 181.31 51.48 182.48C52.96 183.65 54.31 184.7 54.48 184.81C54.65 184.93 55.55 185.6 56.49 186.31C57.44 187.02 58.25 187.61 58.31 187.61C58.37 187.62 58.7 187.84 59.04 188.09C59.39 188.35 60.01 188.8 60.42 189.1C60.83 189.39 61.27 189.69 61.39 189.76C61.52 189.84 62.28 190.34 63.09 190.87C63.9 191.41 64.57 191.89 64.59 191.95C64.61 192.01 64.69 192.06 64.76 192.06C64.84 192.06 65.64 192.54 66.54 193.12C67.45 193.71 68.4 194.33 68.67 194.51C68.94 194.69 69.21 194.84 69.27 194.84C69.32 194.85 69.84 195.14 70.41 195.51C70.98 195.87 71.78 196.38 72.19 196.63C72.6 196.88 72.96 197.08 73 197.08C73.04 197.08 73.42 196.85 73.84 196.57C74.26 196.3 75.36 195.62 76.28 195.08C77.2 194.53 77.99 194.05 78.02 194.01C78.06 193.97 78.63 193.59 79.28 193.18C79.93 192.77 81.27 191.9 82.26 191.24C83.25 190.58 84.2 189.95 84.38 189.83C84.57 189.72 85.08 189.37 85.52 189.07C85.97 188.76 87.11 187.95 88.07 187.26C89.03 186.57 90.84 185.24 92.09 184.3C93.33 183.36 94.47 182.5 94.6 182.39C94.73 182.28 95.24 181.86 95.73 181.45C96.22 181.04 96.83 180.57 97.09 180.4C97.35 180.22 97.57 180.02 97.57 179.94C97.57 179.87 97.66 179.81 97.78 179.81C97.89 179.81 98.03 179.72 98.09 179.62C98.15 179.51 98.6 179.09 99.1 178.69C99.6 178.28 100.39 177.6 100.86 177.17C101.32 176.74 102.23 175.92 102.88 175.35C103.52 174.77 105.25 173.11 106.71 171.65C108.17 170.2 109.8 168.54 110.34 167.96C110.87 167.39 111.63 166.58 112.01 166.15C112.4 165.73 112.93 165.11 113.2 164.78C113.47 164.45 113.79 164.07 113.92 163.95C114.05 163.82 114.96 162.71 115.94 161.48C116.93 160.25 117.86 159.06 118.01 158.85C118.17 158.64 118.52 158.17 118.79 157.82C119.06 157.46 119.61 156.7 120.01 156.13C120.4 155.55 121.08 154.58 121.51 153.97C121.93 153.36 122.82 152.01 123.47 150.97C124.13 149.94 124.72 149 124.79 148.89C124.86 148.77 125.38 147.89 125.94 146.94C126.5 145.98 127.36 144.41 127.85 143.45C128.34 142.5 129.07 141.06 129.47 140.25C129.87 139.45 130.52 138.11 130.91 137.29C131.3 136.47 131.62 135.7 131.62 135.58C131.62 135.47 131.69 135.34 131.76 135.31C131.84 135.27 131.97 135 132.06 134.71C132.15 134.43 132.39 133.82 132.6 133.36C132.81 132.9 133.09 132.21 133.24 131.82C133.38 131.44 133.58 130.97 133.68 130.78C133.77 130.59 133.85 130.31 133.85 130.15C133.85 130 133.91 129.81 133.99 129.74C134.07 129.66 134.38 128.88 134.7 127.99C135.01 127.11 135.45 125.86 135.66 125.21C135.88 124.56 136.26 123.37 136.5 122.56C136.74 121.76 137 120.99 137.07 120.86C137.15 120.72 137.21 120.5 137.21 120.37C137.21 120.24 137.34 119.72 137.49 119.22C137.65 118.72 138.03 117.34 138.34 116.16C138.66 114.97 139.06 113.31 139.25 112.47C139.43 111.62 139.72 110.31 139.87 109.54C140.03 108.77 140.22 107.87 140.29 107.52C140.37 107.18 140.48 106.55 140.55 106.13C140.62 105.71 140.77 104.8 140.89 104.11C141 103.42 141.17 102.48 141.25 102.02C141.33 101.56 141.58 99.74 141.81 97.98C142.03 96.22 142.34 93.46 142.49 91.85C142.64 90.24 142.84 87.83 142.92 86.49C143.01 85.15 143.14 83.05 143.21 81.82C143.29 80.48 143.35 66.53 143.35 46.66L143.36 13.72C142.76 13.48 142.2 13.3 141.74 13.17C141.28 13.03 140.78 12.87 140.63 12.81C140.47 12.75 139.88 12.57 139.3 12.4C138.72 12.23 138.06 12.04 137.83 11.98C137.6 11.92 136.44 11.6 135.25 11.29C134.06 10.97 131.36 10.27 129.25 9.75C127.14 9.22 125.13 8.72 124.78 8.65C124.44 8.57 123.62 8.38 122.97 8.23C122.32 8.08 120.9 7.77 119.83 7.54C118.75 7.31 117.69 7.1 117.46 7.06C117.23 7.02 116.53 6.89 115.92 6.76C115.31 6.64 114.08 6.41 113.2 6.25C112.32 6.1 111.06 5.88 110.41 5.77C109.75 5.65 108.37 5.43 107.34 5.28C106.3 5.12 105.08 4.93 104.61 4.86C104.15 4.79 103.02 4.64 102.1 4.52C101.18 4.41 100.27 4.29 100.08 4.25C99.89 4.22 98.72 4.09 97.5 3.97C96.27 3.85 94.38 3.66 93.31 3.55C92.23 3.44 89.97 3.26 88.28 3.15C86.6 3.03 83.93 2.87 82.35 2.79C80.78 2.71 76.19 2.65 72.16 2.67C68.13 2.68 63.96 2.75 62.88 2.81Z" />
		<path class="shp2" d="M78.56 7.9C78.44 8.04 77.8 8.98 77.14 9.99C76.47 11.01 75.95 11.86 75.97 11.89C75.99 11.93 76.74 11.97 77.65 12L79.31 12.05C80.46 10.43 80.86 9.96 80.94 9.96C81.03 9.96 81.4 10.46 81.77 11.07L82.44 12.19C85.45 12.25 85.83 12.22 85.79 12.08C85.76 11.99 85.16 11 84.45 9.89C83.74 8.78 83.09 7.83 83 7.77C82.91 7.72 81.93 7.67 80.81 7.66C79.02 7.65 78.75 7.68 78.56 7.9ZM66.09 14.08C64.79 14.14 63.69 14.23 63.65 14.28C63.61 14.33 63.53 14.7 63.47 15.09C63.41 15.49 63.3 16.15 63.23 16.57C63.17 17 62.95 18.28 62.76 19.43C62.56 20.58 62.3 22.11 62.18 22.84C62.06 23.57 61.86 24.73 61.75 25.42C61.64 26.11 61.49 26.98 61.42 27.37C61.35 27.75 61.23 28.52 61.14 29.07C61.06 29.63 60.93 30.08 60.86 30.08C60.78 30.08 60.69 29.94 60.65 29.77C60.61 29.6 60.52 29.08 60.45 28.62C60.38 28.16 60.12 26.69 59.88 25.35C59.64 24.01 59.39 22.57 59.32 22.14C59.25 21.72 59 20.25 58.76 18.87C58.52 17.49 58.25 15.96 58.16 15.47L58 14.57C56.48 14.63 55.63 14.69 55.13 14.76C54.63 14.83 53.6 14.93 52.83 14.98C52.06 15.03 51.29 15.13 51.12 15.2L50.81 15.32C50.81 33.45 50.85 38.74 50.91 38.77C50.97 38.8 51.52 38.76 52.13 38.7C52.75 38.63 53.66 38.53 54.16 38.47L55.06 38.37C55.06 31.79 55.03 27.55 54.99 24.7C54.96 21.85 54.97 19.47 55.02 19.41C55.07 19.34 55.18 19.6 55.26 19.99C55.34 20.37 55.6 21.72 55.83 22.98C56.07 24.24 56.32 25.53 56.39 25.84C56.46 26.14 56.64 27.11 56.81 27.99C56.97 28.88 57.16 29.85 57.23 30.15C57.3 30.46 57.55 31.74 57.78 33.01C58.02 34.27 58.27 35.53 58.34 35.79C58.4 36.06 58.5 36.59 58.54 36.98C58.59 37.36 58.71 37.77 58.8 37.89C58.95 38.08 59.2 38.09 60.88 37.96C61.93 37.88 62.82 37.78 62.87 37.74C62.91 37.71 63.03 37.17 63.15 36.56C63.26 35.95 63.61 34.07 63.92 32.38C64.24 30.7 64.59 28.82 64.71 28.2C64.82 27.59 65.01 26.59 65.13 25.97C65.24 25.36 65.42 24.39 65.53 23.82C65.64 23.24 65.89 21.86 66.1 20.75C66.3 19.64 66.52 18.64 66.59 18.52C66.68 18.39 66.7 19.95 66.65 22.77C66.6 25.22 66.51 29.55 66.43 32.38C66.36 35.22 66.34 37.58 66.4 37.62C66.46 37.67 67.44 37.67 68.58 37.62C70.49 37.54 70.65 37.51 70.71 37.26C70.75 37.1 70.76 31.81 70.74 25.49L70.7 14C68.97 13.97 67.4 14.02 66.09 14.08ZM78.46 14.28C78.39 14.48 78.33 14.73 78.32 14.84C78.31 14.95 78.02 16.47 77.68 18.21C77.34 19.95 76.99 21.69 76.91 22.08C76.83 22.46 76.61 23.56 76.43 24.51C76.24 25.47 76.01 26.63 75.92 27.09C75.84 27.55 75.68 28.36 75.57 28.9C75.46 29.44 75.32 30.19 75.25 30.57C75.18 30.95 74.95 32.11 74.75 33.15C74.55 34.18 74.33 35.25 74.26 35.52C74.19 35.78 74.08 36.33 74.02 36.74L73.91 37.47C76.77 37.52 77.74 37.53 77.91 37.53C78.13 37.53 78.25 37.42 78.33 37.12C78.39 36.89 78.54 36.07 78.66 35.31C78.78 34.54 78.92 33.88 78.97 33.83C79.03 33.78 79.95 33.78 81.02 33.83L82.96 33.91C83.22 35.42 83.33 36.26 83.38 36.73C83.43 37.21 83.52 37.63 83.57 37.66C83.63 37.69 84.67 37.77 85.87 37.84L88.07 37.95C87.78 36.66 87.59 35.69 87.46 34.96C87.33 34.23 87.14 33.2 87.03 32.66C86.92 32.12 86.73 31.09 86.61 30.36C86.48 29.63 86.32 28.79 86.26 28.48C86.19 28.18 86.03 27.36 85.91 26.67C85.79 25.98 85.6 24.98 85.49 24.44C85.39 23.91 85.2 22.9 85.08 22.21C84.95 21.53 84.79 20.68 84.72 20.33C84.65 19.99 84.5 19.14 84.37 18.45C84.25 17.76 84.06 16.76 83.96 16.23C83.85 15.69 83.73 15.02 83.69 14.73C83.64 14.44 83.53 14.18 83.43 14.15C83.34 14.11 82.21 14.05 80.93 14L78.6 13.91L78.46 14.28ZM91.15 26.39C91.15 37.51 91.16 38.16 91.39 38.17C91.52 38.17 92.39 38.26 93.31 38.36C94.23 38.46 95.03 38.5 95.09 38.46C95.15 38.41 95.13 34.83 95.04 30.5C94.96 26.17 94.91 22.44 94.94 22.21C94.99 21.8 95 21.8 95.15 22.35C95.24 22.66 95.41 23.32 95.53 23.82C95.65 24.31 95.94 25.57 96.17 26.6C96.41 27.64 96.66 28.7 96.73 28.97C96.8 29.24 97.05 30.3 97.29 31.34C97.53 32.37 97.82 33.62 97.93 34.12C98.05 34.62 98.19 35.22 98.26 35.45C98.32 35.68 98.42 36.11 98.47 36.42C98.52 36.73 98.61 37.17 98.68 37.4C98.75 37.63 98.87 38.06 98.95 38.37C99.09 38.92 99.1 38.93 99.9 39.03C100.34 39.08 101.46 39.22 102.38 39.34C103.3 39.45 104.17 39.55 104.3 39.55C104.53 39.55 104.54 38.9 104.54 27.79L104.54 16.02C103.19 15.81 102.36 15.71 101.82 15.65C101.29 15.59 100.78 15.54 100.71 15.53C100.63 15.53 100.57 15.72 100.58 15.95C100.59 16.18 100.67 19.62 100.76 23.61C100.85 27.59 100.95 31.08 100.99 31.37C101.03 31.67 101 31.89 100.92 31.89C100.84 31.89 100.68 31.47 100.56 30.95C100.44 30.44 100.28 29.79 100.2 29.53C100.13 29.26 100.01 28.76 99.94 28.41C99.88 28.07 99.62 26.97 99.37 25.97C99.13 24.98 98.88 23.94 98.82 23.68C98.75 23.41 98.61 22.81 98.5 22.35C98.39 21.89 98.2 21.08 98.07 20.54C97.95 20.01 97.69 18.91 97.49 18.11C97.29 17.3 97.05 16.3 96.96 15.88L96.79 15.11C95.71 14.97 94.74 14.86 93.94 14.77C93.13 14.69 92.17 14.62 91.81 14.62L91.15 14.62L91.15 26.39ZM39.99 16.15C39.61 16.21 38.88 16.4 38.38 16.57C37.89 16.74 37.11 17.07 36.65 17.32C36.2 17.56 35.54 18.04 35.19 18.39C34.83 18.75 34.47 19.14 34.37 19.27C34.28 19.39 34.08 19.8 33.94 20.16C33.79 20.52 33.6 21.32 33.51 21.94C33.38 22.75 33.35 25.03 33.39 30.36C33.43 36.8 33.47 37.76 33.68 38.41C33.82 38.85 34.15 39.39 34.51 39.77C35 40.3 35.28 40.46 36.08 40.7C36.92 40.95 37.28 40.98 38.59 40.9C39.44 40.86 40.63 40.69 41.25 40.53C41.86 40.38 42.74 40.07 43.2 39.84C43.66 39.62 44.35 39.16 44.72 38.83C45.1 38.5 45.54 38.01 45.71 37.74C45.88 37.48 46.12 36.94 46.25 36.56C46.46 35.94 46.48 34.97 46.48 27.72C46.48 20.45 46.45 19.48 46.24 18.73C46.07 18.13 45.84 17.73 45.44 17.32C45.08 16.96 44.57 16.64 44.04 16.44C43.47 16.23 42.8 16.12 41.94 16.08C41.25 16.06 40.37 16.08 39.99 16.15ZM109.08 16.89C109.04 16.98 109.03 22.29 109.05 28.69L109.08 40.32C111.14 40.69 112.1 40.84 112.54 40.9L113.34 41.02L113.34 17.41C112.64 17.3 111.74 17.14 110.89 16.99C110.04 16.84 109.3 16.71 109.24 16.71C109.19 16.71 109.11 16.79 109.08 16.89ZM121.01 19.04C120.9 19.08 120.83 19.22 120.85 19.37C120.86 19.52 120.81 19.9 120.74 20.23C120.66 20.56 120.51 21.29 120.39 21.87C120.27 22.44 120.04 23.57 119.88 24.37C119.72 25.18 119.5 26.24 119.41 26.74C119.31 27.24 119.13 28.15 119.01 28.76C118.88 29.37 118.69 30.34 118.57 30.92C118.45 31.49 118.3 32.25 118.23 32.59C118.16 32.94 118.01 33.72 117.89 34.33C117.77 34.94 117.57 35.92 117.45 36.49C117.33 37.06 117.14 38 117.04 38.58C116.93 39.15 116.74 40.06 116.62 40.6C116.51 41.14 116.41 41.59 116.41 41.61C116.41 41.63 116.9 41.74 117.49 41.86C118.09 41.98 118.98 42.18 119.48 42.3C119.98 42.42 120.48 42.49 120.6 42.45C120.74 42.4 120.87 42 121 41.21C121.1 40.57 121.21 39.81 121.24 39.52C121.27 39.23 121.34 38.97 121.4 38.93C121.46 38.9 121.85 38.95 122.27 39.05C122.69 39.16 123.54 39.35 124.16 39.49C124.77 39.63 125.29 39.74 125.3 39.75C125.32 39.76 125.43 40.42 125.54 41.23C125.66 42.03 125.8 42.93 125.86 43.23L125.97 43.77C129.22 44.59 130.19 44.79 130.23 44.76C130.27 44.73 130.22 44.34 130.13 43.9C130.03 43.46 129.86 42.57 129.74 41.92C129.63 41.27 129.34 39.61 129.1 38.23C128.87 36.85 128.59 35.25 128.48 34.68C128.38 34.11 128.19 33.07 128.07 32.38C127.95 31.69 127.79 30.78 127.72 30.36C127.64 29.94 127.39 28.5 127.16 27.16C126.93 25.82 126.67 24.38 126.6 23.96C126.53 23.53 126.37 22.63 126.24 21.94C126.12 21.25 125.97 20.56 125.91 20.4C125.83 20.18 125.43 20.03 123.86 19.66C122.8 19.41 121.76 19.15 121.56 19.09C121.36 19.03 121.11 19.01 121.01 19.04ZM25.75 19.46C25.52 19.49 24.42 19.73 23.31 19.99C22.2 20.26 21.07 20.54 20.8 20.61C20.53 20.69 19.45 20.99 18.41 21.29L16.51 21.82C16.37 39.94 16.38 45.24 16.44 45.3C16.49 45.36 16.92 45.31 17.38 45.18C17.84 45.06 18.56 44.87 18.98 44.75C19.41 44.64 19.94 44.5 20.17 44.45L20.59 44.35L20.73 33.92C22.57 33.44 23.34 33.3 23.62 33.29C23.99 33.29 24.27 33.39 24.53 33.62L24.91 33.96C25.05 41.35 25.1 42.07 25.31 42.51C25.44 42.8 25.62 43.04 25.72 43.03C25.81 43.03 26.33 42.94 26.87 42.82C27.41 42.71 28.32 42.51 28.89 42.4C29.47 42.28 29.99 42.14 30.06 42.09C30.12 42.03 30.03 41.78 29.85 41.53C29.53 41.08 29.52 40.96 29.44 37.21C29.37 34.06 29.31 33.24 29.12 32.73C28.99 32.39 28.74 31.95 28.57 31.77C28.4 31.59 28.04 31.35 27.78 31.23C27.51 31.11 27.1 30.97 26.87 30.92L26.45 30.82C27.19 30.41 27.65 30.07 27.96 29.81C28.26 29.54 28.64 29.07 28.8 28.76C29.07 28.26 29.1 27.92 29.15 25.28C29.18 23.38 29.15 22.08 29.04 21.59C28.95 21.17 28.74 20.62 28.57 20.37C28.4 20.12 28.08 19.83 27.85 19.72C27.62 19.62 27.14 19.5 26.8 19.46C26.45 19.43 25.98 19.42 25.75 19.46Z" />
		<path class="shp1" d="M39.1 19.81C38.76 19.99 38.36 20.34 38.19 20.61C37.9 21.09 37.89 21.24 37.85 28.41C37.82 33.3 37.86 35.92 37.96 36.32C38.05 36.7 38.24 36.99 38.48 37.15C38.73 37.31 39.1 37.39 39.56 37.37C39.95 37.36 40.49 37.26 40.76 37.14C41.03 37.03 41.35 36.82 41.48 36.68C41.61 36.54 41.82 36.14 41.94 35.79C42.13 35.25 42.16 34.19 42.15 28.13C42.15 22.96 42.1 20.96 41.98 20.56C41.88 20.26 41.65 19.9 41.46 19.75C41.22 19.57 40.88 19.49 40.41 19.49C39.97 19.5 39.49 19.61 39.1 19.81ZM80.84 21.45C80.76 21.95 80.6 22.95 80.48 23.68C80.37 24.4 80.17 25.66 80.04 26.46C79.92 27.27 79.76 28.22 79.69 28.59C79.62 28.95 79.56 29.44 79.56 29.67L79.56 30.08L82.56 30.09C82.39 29.38 82.24 28.49 82.13 27.65C82.01 26.8 81.86 25.74 81.8 25.28C81.73 24.82 81.57 23.66 81.44 22.7C81.31 21.74 81.15 20.87 81.1 20.75C81.03 20.62 80.94 20.87 80.84 21.45ZM21.98 23.74L20.73 24.06C20.67 29.05 20.69 30.5 20.73 30.5C20.77 30.5 21.38 30.36 22.09 30.18C22.8 30 23.6 29.72 23.87 29.56C24.14 29.4 24.47 29.07 24.6 28.84C24.8 28.48 24.85 28.06 24.85 26.32C24.85 25.02 24.78 24.12 24.68 23.92C24.6 23.75 24.46 23.56 24.37 23.5C24.29 23.45 24 23.41 23.73 23.41C23.46 23.42 22.67 23.56 21.98 23.74ZM123.14 27.61C123.05 28.17 122.85 29.44 122.69 30.43C122.54 31.43 122.35 32.59 122.28 33.01C122.21 33.43 122.11 34.13 122.07 34.58L121.99 35.38C122.8 35.5 123.2 35.59 123.39 35.66C123.58 35.72 123.99 35.81 124.3 35.86L124.85 35.94C124.7 34.69 124.56 33.64 124.44 32.8C124.33 31.96 124.14 30.55 124.01 29.67C123.89 28.78 123.76 27.74 123.73 27.33C123.69 26.84 123.61 26.6 123.48 26.6C123.36 26.6 123.24 26.94 123.14 27.61Z" />
		<path class="shp3" d="M66.79 48.19C64.56 48.25 61.64 48.36 60.3 48.46C58.95 48.55 57.13 48.68 56.25 48.75C55.37 48.82 54.02 48.94 53.25 49.02C52.48 49.09 51.19 49.22 50.39 49.3C49.58 49.38 48.45 49.5 47.88 49.58C47.3 49.65 46.04 49.81 45.08 49.93C44.12 50.05 42.74 50.24 42.01 50.35C41.28 50.46 39.34 50.78 37.69 51.06C36.04 51.33 34.21 51.64 33.64 51.74C33.06 51.84 31.93 52.06 31.13 52.22C30.32 52.39 29.25 52.61 28.75 52.72C28.25 52.83 26.97 53.11 25.89 53.35C24.82 53.58 23.72 53.83 23.45 53.91C23.18 53.98 22.05 54.26 20.94 54.54C19.82 54.81 18.6 55.12 18.22 55.22C17.83 55.32 16.95 55.56 16.26 55.74L15 56.08C15.06 67.94 15.14 72.98 15.22 74.93C15.3 76.88 15.42 79.45 15.49 80.64C15.56 81.83 15.72 84.02 15.83 85.52C15.95 87.01 16.14 89.11 16.25 90.18C16.36 91.25 16.56 92.95 16.68 93.94C16.81 94.94 16.97 96.16 17.03 96.66C17.1 97.16 17.25 98.16 17.36 98.89C17.47 99.61 17.66 100.77 17.78 101.46C17.9 102.15 18.04 102.97 18.09 103.27C18.14 103.58 18.24 103.94 18.3 104.07C18.38 104.23 18.53 104.3 18.74 104.25C18.91 104.22 19.65 104.12 20.38 104.04C21.11 103.95 21.75 103.81 21.81 103.72C21.86 103.63 21.91 96.41 21.91 87.67C21.92 78.94 21.97 71.58 22.03 71.31C22.1 71.04 22.26 70.51 22.41 70.13C22.55 69.74 22.89 69.08 23.18 68.66C23.46 68.24 23.79 67.82 23.92 67.72C24.04 67.63 24.11 67.47 24.06 67.37C24 67.28 24 67.25 24.06 67.31C24.11 67.36 24.57 67.05 25.1 66.61C25.62 66.17 26.29 65.61 26.6 65.36C26.9 65.11 27.78 64.4 28.54 63.78C29.31 63.15 30.25 62.38 30.63 62.06C31.01 61.75 31.55 61.3 31.82 61.07C32.09 60.83 32.97 60.11 33.78 59.45C34.58 58.8 35.35 58.16 35.49 58.03C35.62 57.9 35.8 57.83 35.87 57.87C35.96 57.91 36.01 60.42 36.01 64.97C36.01 69.57 36.06 72.01 36.15 72.01C36.23 72.01 36.26 72.07 36.22 72.14C36.18 72.22 36.83 72.54 37.65 72.86C38.48 73.18 39.4 73.54 39.71 73.68C40.02 73.81 40.58 74.05 40.97 74.21C41.35 74.37 42.76 74.95 44.11 75.5C45.45 76.04 46.68 76.52 46.83 76.56C46.98 76.6 47.18 76.54 47.28 76.44C47.37 76.34 47.57 75.5 47.73 74.58C47.9 73.66 48.08 72.6 48.15 72.21C48.22 71.83 48.44 70.64 48.64 69.57C48.83 68.5 48.99 67.54 48.99 67.44C48.99 67.32 48.73 67.28 48.05 67.31L47.11 67.34C47.04 69.39 46.96 70.05 46.88 70.13C46.81 70.2 46.42 70.28 46.02 70.29C45.6 70.31 45.22 70.25 45.11 70.16C44.99 70.04 44.93 69.57 44.94 68.63L44.94 67.27C42.8 67.27 42.71 67.25 42.71 66.99C42.71 66.84 42.98 66.01 43.3 65.15C43.64 64.25 44.12 63.28 44.42 62.88C44.92 62.22 44.95 62.14 44.95 61.11C44.95 60.48 44.89 60.03 44.8 60.03C44.73 60.03 44.67 59.93 44.67 59.82C44.67 59.66 44.5 59.62 43.93 59.64C43.53 59.65 43.12 59.62 43.03 59.57C42.91 59.5 42.86 59.19 42.89 58.62C42.9 58.15 42.98 57.73 43.06 57.68C43.14 57.63 43.58 57.56 44.04 57.52L44.87 57.45L45.01 55.64L46.97 55.64C47.03 56.61 47.07 57.04 47.11 57.21C47.17 57.49 47.26 57.52 48.09 57.52C48.91 57.52 49 57.55 49.07 57.83C49.11 58.01 49.13 58.46 49.1 58.84L49.06 59.54C47.98 59.6 47.53 59.64 47.35 59.68C47.1 59.74 47.04 59.84 47.04 60.24C47.04 60.5 47.07 60.82 47.11 60.93C47.17 61.11 47.88 61.14 52.34 61.14L57.51 61.14C57.7 61.63 57.89 62.55 58.06 63.51C58.23 64.47 58.46 65.72 58.56 66.3C58.67 66.87 59.04 68.91 59.39 70.82C59.74 72.74 60.09 74.68 60.16 75.14C60.23 75.6 60.32 76.07 60.36 76.18C60.39 76.3 60.52 76.44 60.64 76.5C60.78 76.56 61.63 76.29 62.92 75.78C64.05 75.33 65.85 74.61 66.93 74.17C68 73.74 69.13 73.27 69.44 73.13C69.75 72.99 70.3 72.76 70.66 72.62C71.02 72.47 71.34 72.26 71.36 72.14C71.38 72.03 71.38 66.56 71.36 59.99C71.32 48.74 71.31 48.05 71.08 48.07C70.95 48.09 69.02 48.14 66.79 48.19Z" />
		<path class="shp4" d="M74.82 48.15C74.65 48.2 74.62 51.07 74.65 69.96C74.67 81.93 74.71 91.84 74.75 91.99C74.79 92.14 75.72 92.91 76.81 93.7C77.9 94.48 80.02 96.01 81.53 97.11C83.04 98.2 84.42 99.21 84.6 99.34C84.78 99.48 85.41 99.93 85.98 100.34L87.03 101.1C92.87 101.34 95.37 101.46 96.34 101.51C97.88 101.59 98.12 101.57 98.12 101.39C98.12 101.28 98 100.59 97.85 99.86C97.69 99.13 97.57 98.44 97.56 98.33C97.56 98.21 98 97.82 98.54 97.46L99.52 96.8C99.17 95.99 98.87 95.31 98.62 94.78C98.37 94.24 97.8 92.99 97.36 91.99C96.92 91 96.33 89.68 96.06 89.07C95.78 88.45 95.58 87.77 95.59 87.53C95.61 87.31 95.67 86.62 95.74 86C95.82 85.24 95.8 84.83 95.7 84.71C95.61 84.61 95.37 84.53 95.16 84.53C94.91 84.54 94.59 84.37 94.25 84.06C93.8 83.65 93.73 83.5 93.73 82.98C93.73 82.65 93.77 82.15 93.83 81.86L93.94 81.34C92.31 81.34 91.36 81.27 90.76 81.19C90.17 81.12 89.24 80.95 88.7 80.83C88.17 80.72 86.97 80.36 86.05 80.05C85.13 79.74 84.12 79.38 83.82 79.25C83.51 79.12 83.18 78.91 83.08 78.78C82.93 78.58 83.01 78.5 83.71 78.15C84.15 77.92 85.93 76.98 87.66 76.06C89.38 75.14 90.81 74.32 90.83 74.24C90.85 74.16 90.69 73.83 90.47 73.5C90.25 73.18 89.88 72.53 89.64 72.08C89.4 71.62 89.08 70.96 88.93 70.61C88.78 70.27 88.56 69.67 88.43 69.29C88.3 68.91 88.11 68.22 88 67.76C87.89 67.3 87.8 66.33 87.8 65.6C87.8 64.87 87.86 63.9 87.94 63.44C88.02 62.98 88.37 62.04 88.71 61.35C89.11 60.54 89.64 59.75 90.21 59.12C90.7 58.59 91.56 57.8 92.13 57.37C92.7 56.94 93.55 56.38 94.01 56.14C94.47 55.89 95.25 55.51 95.75 55.3C96.25 55.08 96.8 54.87 96.97 54.82C97.18 54.77 97.29 54.8 97.29 54.91C97.29 55.01 97.12 55.27 96.92 55.5C96.72 55.73 96.3 56.3 95.99 56.75C95.67 57.21 95.15 58.12 94.83 58.77C94.51 59.43 94.14 60.3 94.03 60.72C93.91 61.15 93.74 61.93 93.65 62.47C93.52 63.21 93.53 63.7 93.66 64.55C93.75 65.17 93.95 65.98 94.11 66.36C94.26 66.75 94.6 67.41 94.87 67.83C95.14 68.25 95.69 68.91 96.08 69.29C96.48 69.68 97.03 70.16 97.32 70.37C97.61 70.58 97.89 70.71 97.95 70.67C98.01 70.62 98.22 70.2 98.42 69.73L98.78 68.87L111.45 68.79C112.1 70.32 112.34 70.76 112.4 70.76C112.45 70.75 112.89 70.42 113.37 70.01C113.85 69.61 114.55 68.9 114.91 68.45C115.28 67.99 115.73 67.31 115.92 66.92C116.1 66.54 116.36 65.82 116.49 65.32C116.66 64.64 116.7 64.08 116.65 63.09C116.6 62.24 116.45 61.4 116.23 60.72C116.04 60.15 115.65 59.21 115.36 58.64C115.07 58.06 114.54 57.15 114.18 56.62C113.81 56.08 113.41 55.55 113.28 55.43C113.15 55.32 113.05 55.14 113.05 55.05C113.06 54.95 113.2 54.88 113.37 54.88C113.55 54.88 114.35 55.2 115.15 55.59C115.96 55.98 116.96 56.54 117.39 56.82C117.81 57.11 118.47 57.61 118.85 57.94C119.24 58.26 119.88 58.92 120.29 59.38C120.69 59.85 121.27 60.74 121.57 61.35C121.92 62.07 122.2 62.91 122.35 63.72C122.51 64.62 122.55 65.29 122.49 66.09C122.43 66.7 122.33 67.48 122.25 67.83C122.17 68.17 121.92 68.96 121.7 69.57C121.48 70.18 121.09 71.12 120.83 71.66C120.57 72.19 120.16 72.96 119.92 73.36C119.68 73.77 119.48 74.16 119.48 74.23C119.48 74.31 119.81 74.55 120.21 74.77C120.62 74.99 121.54 75.49 122.27 75.88C123 76.27 124.41 77.02 125.41 77.56C126.41 78.09 127.24 78.6 127.26 78.68C127.28 78.76 127 78.98 126.63 79.16C126.27 79.34 125.19 79.74 124.23 80.05C123.27 80.36 122.07 80.71 121.57 80.83C121.07 80.96 120.1 81.12 119.41 81.2C118.72 81.27 117.75 81.33 117.25 81.33L116.34 81.33C116.53 82.47 116.58 82.96 116.56 83.15C116.55 83.34 116.38 83.7 116.2 83.95C115.95 84.27 115.7 84.42 115.33 84.48C115.04 84.53 114.73 84.59 114.63 84.62C114.53 84.65 114.45 84.88 114.45 85.13C114.45 85.38 114.52 86.1 114.59 86.73L114.73 87.88C113.85 89.88 113.45 90.77 113.27 91.16C113.1 91.54 112.48 92.93 111.89 94.25C111.31 95.58 110.86 96.72 110.9 96.8C110.93 96.87 111.34 97.19 111.8 97.49C112.26 97.8 112.66 98.13 112.68 98.22C112.71 98.32 112.65 98.81 112.54 99.3C112.44 99.8 112.29 100.49 112.21 100.84C112.13 101.18 111.91 101.7 111.73 101.98C111.54 102.27 111.38 102.52 111.38 102.54C111.38 102.56 112.03 102.62 112.81 102.68C113.6 102.74 115.47 102.92 116.97 103.07C118.46 103.23 120.54 103.45 121.57 103.56C122.61 103.67 124.27 103.85 125.27 103.97C126.27 104.08 127.23 104.21 127.4 104.25C127.57 104.29 127.76 104.24 127.81 104.14C127.87 104.05 127.95 103.72 128.01 103.41C128.06 103.11 128.23 102.1 128.39 101.18C128.55 100.26 128.78 98.89 128.89 98.12C129.01 97.35 129.19 96.01 129.31 95.13C129.42 94.24 129.58 92.96 129.66 92.27C129.74 91.58 129.9 90.08 130.01 88.93C130.12 87.78 130.31 85.52 130.43 83.91C130.55 82.31 130.7 79.8 130.78 78.34C130.86 76.89 130.99 72.78 131.07 69.22C131.15 65.66 131.2 61.25 131.18 59.42L131.13 56.09C129.3 55.58 127.54 55.12 126.04 54.74C124.54 54.36 122.78 53.93 122.13 53.77C121.48 53.62 120.25 53.34 119.41 53.15C118.57 52.96 116.9 52.61 115.71 52.36C114.52 52.12 113.08 51.84 112.5 51.74C111.93 51.64 110.54 51.39 109.43 51.19C108.32 51 105.65 50.59 103.5 50.28C101.35 49.98 99.06 49.67 98.4 49.59C97.75 49.51 96.31 49.35 95.19 49.24C94.08 49.12 92.48 48.97 91.63 48.89C90.79 48.81 88.72 48.65 87.03 48.54C85.34 48.42 82.17 48.29 79.98 48.25C77.79 48.21 75.78 48.16 75.51 48.14C75.24 48.11 74.93 48.12 74.82 48.15Z" />
		<path class="shp0" d="M104.41 55.53C104.08 56.2 103.71 56.91 103.57 57.1C103.36 57.39 103.13 57.48 102.15 57.63C101.51 57.73 100.78 57.84 100.53 57.88C100.25 57.91 100.08 58.02 100.08 58.15C100.08 58.26 100.58 58.84 101.2 59.44C102.01 60.22 102.32 60.61 102.32 60.86C102.32 61.06 102.21 61.82 102.07 62.57C101.91 63.47 101.87 63.97 101.96 64.06C102.06 64.15 102.46 64.01 103.15 63.64C103.72 63.33 104.42 62.98 104.68 62.86C105.17 62.64 105.17 62.64 106.57 63.37C107.46 63.84 108.05 64.08 108.21 64.02C108.36 63.96 108.43 63.84 108.38 63.68C108.34 63.55 108.21 62.81 108.1 62.05C107.94 60.95 107.94 60.61 108.07 60.46C108.17 60.35 108.7 59.82 109.26 59.28C109.82 58.73 110.27 58.21 110.27 58.11C110.27 58.01 109.99 57.9 109.6 57.85C109.24 57.81 108.47 57.7 107.89 57.6L106.85 57.44C105.62 55.07 105.21 54.37 105.14 54.35C105.06 54.32 104.74 54.86 104.41 55.53ZM96.38 55.02C96 55.17 95.15 55.56 94.5 55.89C93.84 56.22 92.81 56.86 92.2 57.32C91.6 57.77 90.7 58.59 90.21 59.12C89.64 59.75 89.11 60.54 88.71 61.35C88.37 62.04 88.02 62.98 87.94 63.44C87.86 63.9 87.8 64.87 87.8 65.6C87.8 66.33 87.89 67.3 88 67.76C88.11 68.22 88.3 68.91 88.43 69.29C88.56 69.67 88.78 70.27 88.93 70.61C89.08 70.96 89.4 71.62 89.64 72.08C89.88 72.53 90.25 73.18 90.47 73.5C90.69 73.83 90.85 74.16 90.83 74.24C90.81 74.32 89.38 75.14 87.66 76.06C85.93 76.98 84.15 77.92 83.71 78.15C83.01 78.5 82.93 78.58 83.08 78.78C83.18 78.91 83.51 79.12 83.82 79.25C84.12 79.38 85.13 79.74 86.05 80.05C86.97 80.36 88.17 80.72 88.7 80.83C89.24 80.95 90.17 81.12 90.76 81.19C91.36 81.27 92.31 81.34 92.89 81.34L93.94 81.34C93.77 82.15 93.73 82.65 93.73 82.98C93.73 83.5 93.8 83.65 94.25 84.06C94.59 84.37 94.91 84.54 95.16 84.53C95.37 84.53 95.61 84.61 95.7 84.71C95.8 84.83 95.82 85.24 95.74 86C95.67 86.62 95.61 87.31 95.59 87.53C95.58 87.77 95.78 88.45 96.06 89.07C96.33 89.68 96.92 91 97.36 91.99C97.8 92.99 98.37 94.24 98.62 94.78C98.87 95.31 99.17 95.99 99.3 96.27L99.52 96.8C98 97.82 97.56 98.18 97.56 98.26C97.56 98.34 97.71 99.13 97.88 100.04L98.19 101.67C99.44 101.67 100.38 101.74 101.09 101.82C101.8 101.89 103.39 102.02 104.61 102.09C105.84 102.16 107.85 102.29 109.08 102.38L111.31 102.54C111.8 101.92 112.04 101.43 112.14 101.04C112.25 100.66 112.43 99.91 112.53 99.37C112.64 98.84 112.71 98.32 112.68 98.22C112.66 98.13 112.26 97.8 111.8 97.49C111.34 97.19 110.93 96.87 110.9 96.8C110.86 96.72 111.31 95.58 111.89 94.25C112.48 92.93 113.1 91.54 113.27 91.16C113.45 90.77 113.85 89.88 114.16 89.17L114.73 87.88C114.52 86.1 114.45 85.38 114.45 85.13C114.45 84.88 114.53 84.65 114.63 84.62C114.73 84.59 115.04 84.53 115.33 84.48C115.7 84.42 115.95 84.27 116.2 83.95C116.38 83.7 116.55 83.34 116.56 83.15C116.58 82.96 116.53 82.47 116.46 82.07L116.34 81.33C117.75 81.33 118.72 81.27 119.41 81.2C120.1 81.12 121.07 80.96 121.57 80.83C122.07 80.71 123.27 80.36 124.23 80.05C125.19 79.74 126.27 79.34 126.63 79.16C127 78.98 127.28 78.76 127.26 78.68C127.24 78.6 126.41 78.09 125.41 77.56C124.41 77.02 123 76.27 122.27 75.88C121.54 75.49 120.62 74.99 120.21 74.77C119.81 74.55 119.48 74.31 119.48 74.23C119.48 74.16 119.68 73.77 119.92 73.36C120.16 72.96 120.57 72.19 120.83 71.66C121.09 71.12 121.48 70.18 121.7 69.57C121.92 68.96 122.17 68.17 122.25 67.83C122.33 67.48 122.43 66.7 122.49 66.09C122.55 65.29 122.51 64.62 122.35 63.72C122.2 62.91 121.92 62.07 121.57 61.35C121.27 60.74 120.69 59.85 120.29 59.38C119.88 58.92 119.24 58.26 118.85 57.94C118.47 57.61 117.81 57.11 117.39 56.82C116.96 56.54 115.96 55.98 115.15 55.59C114.35 55.2 113.55 54.88 113.37 54.88C113.2 54.88 113.06 54.95 113.05 55.05C113.05 55.14 113.15 55.32 113.28 55.43C113.41 55.55 113.81 56.08 114.18 56.62C114.54 57.15 115.07 58.06 115.36 58.64C115.65 59.21 116.04 60.15 116.23 60.72C116.45 61.4 116.6 62.24 116.65 63.09C116.7 64.08 116.66 64.64 116.49 65.32C116.36 65.82 116.1 66.54 115.92 66.92C115.73 67.31 115.28 67.99 114.91 68.45C114.55 68.9 113.85 69.61 113.37 70.01C112.89 70.42 112.45 70.75 112.4 70.76C112.34 70.76 112.1 70.32 111.87 69.78L111.45 68.79L98.78 68.87C98.22 70.2 98.01 70.62 97.95 70.67C97.89 70.71 97.61 70.58 97.32 70.37C97.03 70.16 96.48 69.68 96.08 69.29C95.69 68.91 95.14 68.25 94.87 67.83C94.6 67.41 94.26 66.75 94.11 66.36C93.95 65.98 93.75 65.17 93.66 64.55C93.53 63.7 93.52 63.21 93.65 62.47C93.74 61.93 93.91 61.15 94.03 60.72C94.14 60.3 94.51 59.43 94.83 58.77C95.15 58.12 95.67 57.21 95.99 56.75C96.3 56.3 96.72 55.73 96.92 55.5C97.12 55.27 97.29 55.01 97.29 54.91C97.29 54.81 97.24 54.74 97.18 54.74C97.12 54.75 96.76 54.87 96.38 55.02ZM45.02 55.74C44.98 55.84 44.93 56.26 44.91 56.69L44.87 57.45C43.58 57.56 43.14 57.63 43.06 57.68C42.98 57.73 42.9 58.15 42.89 58.62C42.86 59.19 42.91 59.5 43.03 59.57C43.12 59.62 43.48 59.65 43.83 59.63C44.17 59.62 44.57 59.64 44.7 59.68C44.91 59.74 44.94 59.93 44.95 60.97C44.95 62.16 44.94 62.2 44.42 62.88C44.12 63.28 43.64 64.25 43.3 65.15C42.98 66.01 42.71 66.84 42.71 66.99C42.71 67.25 42.8 67.27 43.83 67.27L44.94 67.27C44.93 69.57 44.99 70.04 45.11 70.16C45.22 70.25 45.6 70.31 46.02 70.29C46.42 70.28 46.81 70.2 46.88 70.13C46.96 70.05 47.04 69.39 47.07 68.66L47.11 67.34C48.73 67.28 48.99 67.32 48.99 67.44C48.99 67.54 48.83 68.5 48.64 69.57C48.44 70.64 48.23 71.8 48.16 72.14C48.1 72.49 47.94 73.4 47.82 74.16C47.69 74.93 47.52 75.79 47.45 76.08C47.33 76.55 47.28 76.6 46.93 76.55C46.72 76.52 45.45 76.05 44.11 75.5C42.76 74.95 41.35 74.37 40.97 74.21C40.58 74.05 40.08 73.83 39.85 73.74C39.62 73.64 38.71 73.27 37.83 72.91C36.94 72.56 36.17 72.2 36.12 72.1C36.06 72.01 36.01 68.79 36.01 64.94C36.01 61.09 35.96 57.91 35.91 57.88C35.85 57.84 35.14 58.35 34.34 59C33.53 59.66 32.37 60.61 31.76 61.12C31.14 61.63 30.48 62.18 30.29 62.35C30.1 62.51 29.31 63.15 28.54 63.78C27.78 64.4 26.9 65.11 26.6 65.36C26.3 65.61 25.82 65.99 25.55 66.22C25.28 66.44 24.75 66.91 24.38 67.26C24.01 67.61 23.47 68.24 23.18 68.66C22.9 69.08 22.51 69.81 22.32 70.26L21.98 71.1C21.88 95.97 21.88 103.33 21.92 103.51C21.99 103.77 22.09 103.83 22.48 103.81C22.74 103.8 23.9 103.68 25.05 103.55C26.21 103.43 27.59 103.27 28.13 103.21C28.66 103.15 29.37 103.03 29.7 102.95C30.02 102.86 30.34 102.71 30.39 102.61C30.45 102.52 30.87 102.12 31.34 101.74C31.8 101.36 32.36 100.89 32.59 100.7C32.82 100.51 33.36 100.01 33.78 99.58C34.25 99.1 34.74 98.4 35.05 97.76C35.33 97.19 35.64 96.51 35.74 96.24C35.87 95.89 35.93 94.38 35.96 90.91C36.01 86.41 36.03 86.07 36.26 86.07C36.39 86.07 36.56 86.12 36.64 86.19C36.72 86.26 37.41 86.64 38.17 87.05C38.94 87.45 40.48 88.26 41.58 88.84C42.69 89.43 43.62 89.97 43.65 90.04C43.68 90.12 42.85 91.64 41.81 93.42C40.77 95.2 39.95 96.75 39.99 96.87C40.03 96.98 40.11 97.07 40.16 97.07C40.22 97.07 40.44 97.22 40.65 97.42L41.04 97.77C39.88 99.44 39.21 100.4 38.82 100.97C38.16 101.94 38.12 102.03 38.35 102.19C38.48 102.28 38.63 102.33 38.66 102.3C38.7 102.27 39.14 102.21 39.64 102.16C40.14 102.12 40.69 102.05 40.86 102.02C41.03 101.98 41.18 101.87 41.18 101.78C41.18 101.68 41.4 101.32 41.67 100.97C41.94 100.63 42.16 100.3 42.16 100.24C42.16 100.19 42.23 100.06 42.33 99.97C42.43 99.87 42.65 99.59 42.82 99.34C43.12 98.9 43.16 98.89 44.14 98.88C44.93 98.88 45.28 98.81 45.71 98.57C46.01 98.4 46.5 97.95 46.79 97.56C47.08 97.18 47.71 96.3 48.19 95.61C48.66 94.92 49.21 94.12 49.41 93.83C49.67 93.43 49.83 93.32 50.04 93.37C50.19 93.41 50.74 93.68 51.26 93.97C51.78 94.26 52.21 94.58 52.21 94.67C52.2 94.77 51.98 95.22 51.71 95.68C51.45 96.14 51.23 96.57 51.22 96.62C51.22 96.68 50.77 97.64 50.21 98.75C49.66 99.86 49.16 100.78 49.1 100.8C49.04 100.82 48.99 101.01 48.99 101.22L48.99 101.6C51.32 101.44 53.43 101.35 55.18 101.29C56.98 101.23 58.43 101.12 58.5 101.04C58.58 100.96 58.08 99.81 57.16 97.95C56.35 96.32 55.69 94.86 55.69 94.71C55.69 94.52 55.92 94.3 56.42 94.02C56.9 93.76 57.23 93.65 57.37 93.72C57.48 93.78 57.71 94.05 57.88 94.31C58.05 94.56 58.8 95.65 59.56 96.71C60.31 97.78 61.1 98.78 61.3 98.94L61.68 99.23C62.61 98.59 63.63 97.86 64.56 97.2C65.48 96.54 66.31 95.91 66.4 95.8C66.54 95.65 66.5 95.51 66.25 95.13C66.07 94.86 65.68 94.2 65.39 93.66C65.1 93.13 64.79 92.59 64.7 92.48C64.61 92.36 64.3 91.86 64.03 91.36C63.75 90.87 63.57 90.39 63.62 90.31C63.67 90.22 64.41 89.79 65.25 89.35C66.1 88.9 67.84 87.99 69.13 87.31L71.46 86.07C71.46 74.95 71.42 72.54 71.33 72.49C71.25 72.45 70.86 72.55 70.45 72.71C70.05 72.87 69.53 73.09 69.3 73.19C69.07 73.29 68 73.74 66.93 74.17C65.85 74.61 64.06 75.33 62.95 75.78C61.84 76.23 60.85 76.6 60.75 76.6C60.66 76.6 60.51 76.48 60.44 76.32C60.36 76.17 60.24 75.65 60.17 75.17C60.09 74.7 59.74 72.74 59.39 70.82C59.04 68.91 58.67 66.87 58.56 66.3C58.46 65.72 58.23 64.47 58.06 63.51C57.89 62.55 57.7 61.63 57.63 61.46L57.51 61.14C47.88 61.14 47.17 61.11 47.11 60.93C47.07 60.82 47.04 60.5 47.04 60.24C47.04 59.84 47.1 59.74 47.35 59.68C47.53 59.64 47.98 59.6 48.36 59.58L49.06 59.54C49.13 58.46 49.11 58.01 49.07 57.83C49 57.55 48.91 57.52 48.09 57.52C47.26 57.52 47.17 57.49 47.11 57.21C47.07 57.04 47.03 56.61 47.01 56.27L46.97 55.64C45.36 55.57 45.07 55.61 45.02 55.74Z" />
		<path class="shp3" d="M35.98 90.91C35.94 94.35 35.87 95.89 35.74 96.24C35.64 96.51 35.33 97.19 35.05 97.76C34.74 98.4 34.25 99.1 33.78 99.58C33.36 100.01 32.82 100.51 32.59 100.7C32.36 100.89 31.8 101.36 31.34 101.74C30.87 102.12 30.45 102.5 30.4 102.58C30.34 102.65 30.34 102.76 30.4 102.82C30.45 102.88 31.16 102.86 31.96 102.79C32.77 102.71 34.43 102.57 35.65 102.47L37.88 102.3C38.72 101.11 39.42 100.11 39.99 99.3C40.69 98.29 40.97 97.78 40.9 97.63C40.84 97.52 40.62 97.33 40.42 97.21C40.22 97.1 40.02 96.93 39.99 96.83C39.95 96.74 40.77 95.2 41.81 93.42C42.85 91.64 43.68 90.12 43.65 90.04C43.62 89.97 42.63 89.39 41.44 88.77C40.26 88.15 38.73 87.34 38.04 86.98C37.34 86.61 36.72 86.26 36.64 86.19C36.56 86.12 36.4 86.07 36.27 86.07C36.06 86.07 36.03 86.52 35.98 90.91ZM69.44 87.13C68.52 87.63 66.86 88.51 65.74 89.09C64.63 89.67 63.67 90.21 63.62 90.3C63.57 90.39 63.75 90.87 64.03 91.36C64.3 91.86 64.61 92.36 64.7 92.48C64.79 92.59 65.1 93.13 65.39 93.66C65.69 94.2 66.09 94.87 66.29 95.16L66.65 95.68C67.51 95.02 68.56 94.25 69.54 93.55C70.51 92.85 71.33 92.18 71.35 92.08C71.38 91.97 71.38 90.6 71.36 89.05C71.33 87.49 71.27 86.21 71.22 86.22C71.16 86.22 70.36 86.63 69.44 87.13ZM49.4 93.83C49.21 94.12 48.66 94.92 48.19 95.61C47.71 96.3 47.08 97.18 46.79 97.56C46.5 97.95 46.01 98.4 45.71 98.57C45.28 98.81 44.93 98.88 44.14 98.88C43.16 98.89 43.12 98.9 42.82 99.34C42.65 99.59 42.43 99.87 42.33 99.97C42.23 100.06 42.16 100.19 42.16 100.24C42.16 100.3 41.95 100.63 41.68 100.97C41.39 101.35 41.24 101.68 41.29 101.8C41.37 101.96 41.67 101.98 42.92 101.91C43.77 101.86 45.41 101.75 46.58 101.67C47.76 101.6 48.78 101.5 48.85 101.46C48.93 101.42 48.99 101.27 48.99 101.11C48.99 100.96 49.04 100.82 49.1 100.8C49.16 100.78 49.66 99.86 50.21 98.75C50.77 97.64 51.22 96.68 51.22 96.62C51.23 96.57 51.45 96.14 51.71 95.68C51.98 95.22 52.2 94.77 52.21 94.67C52.21 94.58 51.78 94.26 51.26 93.97C50.74 93.68 50.19 93.41 50.04 93.37C49.82 93.32 49.67 93.43 49.4 93.83ZM56.38 94.03C55.86 94.32 55.66 94.51 55.67 94.71C55.68 94.86 56.35 96.32 57.16 97.95C57.97 99.57 58.71 100.96 58.8 101.03C58.92 101.12 59.37 100.87 60.2 100.27C60.88 99.78 61.43 99.31 61.43 99.23C61.42 99.16 61.29 98.97 61.13 98.82C60.97 98.66 60.23 97.67 59.49 96.61C58.74 95.55 58 94.48 57.85 94.24C57.69 94 57.46 93.76 57.33 93.71C57.2 93.65 56.81 93.78 56.38 94.03Z" />
		<path class="shp2" d="M67.81 98.86C64.99 100.91 62.68 102.65 62.68 102.75C62.67 102.85 62.85 103.47 63.07 104.14C63.3 104.81 64.12 107.34 64.9 109.75C65.68 112.16 66.37 114.29 66.43 114.48L66.53 114.83C77.26 114.95 79.38 114.93 79.48 114.83C79.56 114.75 79.87 113.93 80.16 113.02C80.45 112.1 80.75 111.23 80.81 111.07C80.87 110.92 81.32 109.57 81.8 108.08C82.27 106.58 82.85 104.81 83.07 104.14C83.29 103.47 83.47 102.85 83.46 102.75C83.46 102.65 83.05 102.29 82.55 101.95C82.05 101.61 81.25 101.04 80.77 100.68C80.3 100.33 78.39 98.94 76.52 97.59C74.66 96.23 73.09 95.13 73.03 95.14C72.98 95.14 70.63 96.82 67.81 98.86Z" />
		<path class="shp4" d="M54.23 104.61C53 104.67 50.14 104.82 47.88 104.94C45.61 105.06 43.1 105.22 42.29 105.29C41.49 105.36 40.26 105.46 39.57 105.5C38.88 105.55 37.22 105.68 35.87 105.79C34.53 105.9 32.77 106.05 31.96 106.13C31.16 106.21 29.62 106.37 28.54 106.48C27.47 106.6 25.46 106.82 24.08 106.98C22.7 107.14 21.03 107.32 20.38 107.4C19.73 107.47 19.15 107.57 19.09 107.63C19.03 107.68 19.2 108.67 19.47 109.82C19.73 110.97 20.1 112.5 20.29 113.23C20.48 113.96 20.74 114.9 20.85 115.32C20.97 115.74 21.17 116.43 21.29 116.85C21.42 117.27 21.55 117.74 21.58 117.9C21.63 118.09 21.85 118.23 22.3 118.35C22.67 118.44 23.12 118.63 23.31 118.78C23.5 118.92 23.8 119.33 23.97 119.68C24.22 120.2 24.29 120.58 24.29 121.48C24.29 122.12 24.34 122.7 24.39 122.77C24.45 122.85 24.81 123.02 25.19 123.15C25.58 123.27 26.65 123.61 27.57 123.89C28.49 124.17 29.81 124.57 30.5 124.79C31.19 125 32.29 125.34 32.94 125.54C33.59 125.73 34.61 126.04 35.2 126.21L36.26 126.53C37.51 125.67 38.06 125.28 38.3 125.1C38.54 124.93 39.03 124.6 39.4 124.37C39.76 124.14 40.06 123.86 40.06 123.75C40.06 123.62 39.88 123.5 39.61 123.45C39.36 123.41 38.96 123.26 38.73 123.12C38.5 122.98 38.24 122.72 38.16 122.54C38.07 122.36 37.89 121.78 37.77 121.24C37.64 120.7 37.51 120.15 37.47 120.02C37.44 119.89 37.49 119.72 37.58 119.65C37.69 119.57 38.03 119.61 38.52 119.78C38.95 119.93 39.39 120.05 39.5 120.05C39.62 120.06 39.87 119.76 40.07 119.4C40.27 119.03 40.7 118.25 41.02 117.65C41.33 117.06 41.59 116.42 41.59 116.23C41.59 116.03 41.53 115.75 41.46 115.6C41.38 115.45 41.11 115.22 40.86 115.1C40.61 114.98 40.27 114.91 40.09 114.96C39.92 115 39.2 115.33 38.49 115.67C37.78 116.02 37.14 116.3 37.06 116.3C36.98 116.3 36.76 116.1 36.57 115.85C36.38 115.6 35.83 114.79 35.35 114.07C34.86 113.34 34.49 112.68 34.52 112.6C34.55 112.53 35.73 112.29 37.15 112.07C38.56 111.85 40.02 111.61 40.41 111.53C40.79 111.45 41.18 111.36 41.28 111.33C41.4 111.3 41.46 110.97 41.46 110.31C41.46 109.77 41.47 109.33 41.49 109.33C41.51 109.32 43.28 109.21 45.43 109.07C47.89 108.91 49.54 108.86 49.86 108.93C50.15 109 50.66 109.18 50.98 109.33C51.31 109.48 51.81 109.84 52.09 110.13C52.37 110.42 53.55 111.85 54.71 113.3C56.03 114.96 56.81 116.06 56.81 116.26C56.81 116.43 56.68 117.12 56.53 117.79C56.38 118.46 56 120.2 55.69 121.66C55.38 123.11 55 124.87 54.86 125.56C54.71 126.25 54.41 127.66 54.18 128.69C53.96 129.72 53.64 130.84 53.48 131.16C53.31 131.49 52.91 131.97 52.59 132.23C52.26 132.49 51.71 132.86 51.37 133.05C51.02 133.24 50.67 133.5 50.6 133.62C50.49 133.78 50.57 134.06 50.9 134.71C51.14 135.19 51.6 136.15 51.92 136.84C52.24 137.53 52.75 138.61 53.05 139.24C53.35 139.87 53.65 140.39 53.7 140.39C53.76 140.39 54.24 139.28 54.77 137.92C55.3 136.56 55.81 135.26 55.91 135.03C56.01 134.8 56.82 132.79 57.69 130.57C58.57 128.35 59.52 125.94 59.81 125.21C60.09 124.48 60.97 122.26 61.76 120.26C62.56 118.27 63.25 116.49 63.3 116.3C63.37 116.05 63.07 114.93 62.25 112.4C61.62 110.44 60.86 108.06 60.55 107.1C60.25 106.15 59.91 105.16 59.8 104.91L59.6 104.46C57.17 104.49 55.45 104.55 54.23 104.61Z" />
		<path class="shp3" d="M86.21 105.24C86.06 105.69 85.61 107.09 85.2 108.36C84.79 109.62 84.11 111.7 83.68 112.99L82.91 115.32C84.45 119.15 85.52 121.83 86.29 123.75C87.05 125.66 87.7 127.26 87.73 127.3C87.76 127.34 87.89 127.27 88.01 127.16C88.14 127.04 88.46 126.48 88.73 125.91C89 125.33 89.75 123.78 90.39 122.46C91.3 120.6 91.71 119.9 92.23 119.39C92.59 119.02 93.22 118.55 93.62 118.35C94.03 118.14 94.72 117.87 95.16 117.76C95.75 117.6 96.7 117.55 98.75 117.55C101 117.56 101.59 117.6 101.79 117.76C101.98 117.92 102 118.04 101.9 118.28C101.83 118.45 101.57 119.25 101.33 120.06C101.09 120.86 100.78 121.91 100.63 122.39C100.48 122.87 100.36 123.42 100.36 123.61C100.36 123.86 100.45 123.97 100.67 124.02C100.84 124.06 101.83 124.25 102.87 124.44C103.91 124.64 104.86 124.77 105 124.73C105.14 124.68 105.27 124.47 105.31 124.2C105.34 123.95 105.51 122.65 105.67 121.31C105.83 119.97 105.93 118.76 105.88 118.63C105.84 118.49 105.86 118.38 105.94 118.38C106.02 118.38 106.06 118.15 106.05 117.86C106.01 117.4 105.97 117.34 105.66 117.36C105.47 117.37 105.12 117.42 104.89 117.48C104.56 117.56 104.46 117.53 104.39 117.32C104.34 117.18 104.35 116.95 104.42 116.82C104.49 116.68 105 116.28 105.56 115.92C106.11 115.56 106.61 115.2 106.66 115.12C106.71 115.04 106.73 114.9 106.7 114.82C106.68 114.74 105.76 114.47 104.66 114.22C103.56 113.98 102.6 113.72 102.52 113.65C102.43 113.56 102.46 113.35 102.63 113.02C102.77 112.74 103.12 112.39 103.46 112.19L104.06 111.84L112 111.91C112.26 113.53 112.43 114.91 112.56 116.02C112.69 117.13 112.89 118.73 113 119.57C113.11 120.41 113.26 121.57 113.34 122.14C113.42 122.72 113.53 123.53 113.59 123.96C113.69 124.72 113.69 124.72 114.18 124.71C114.45 124.71 115.23 124.59 115.92 124.46C116.61 124.32 117.45 124.17 117.78 124.12C118.12 124.07 118.45 123.95 118.52 123.85C118.6 123.74 118.47 123.1 118.17 122.11C117.91 121.25 117.52 119.95 117.32 119.22L116.95 117.9C117.4 117.52 117.6 117.45 117.7 117.5C117.8 117.55 118.85 117.58 120.04 117.56C121.23 117.55 122.7 117.61 123.32 117.69C123.93 117.77 124.48 117.79 124.54 117.73C124.6 117.67 124.74 117.27 124.86 116.85C124.98 116.43 125.17 115.77 125.27 115.39C125.38 115.01 125.76 113.53 126.11 112.12C126.46 110.7 126.84 109.15 126.95 108.67C127.07 108.19 127.16 107.74 127.16 107.66C127.16 107.58 126.76 107.49 126.28 107.44C125.8 107.4 124.66 107.28 123.74 107.17C122.82 107.06 121.53 106.91 120.88 106.83C120.22 106.75 118.75 106.59 117.6 106.48C116.44 106.36 114.87 106.2 114.11 106.12C113.34 106.04 111.96 105.92 111.04 105.84C110.11 105.77 108.14 105.61 106.64 105.5C105.14 105.39 102.38 105.2 100.5 105.08C98.62 104.96 95.82 104.81 94.29 104.74C92.75 104.67 90.36 104.56 88.98 104.51L86.47 104.41L86.21 105.24Z" />
		<path class="shp0" d="M45.36 109.06C43.41 109.19 41.73 109.31 41.63 109.32C41.51 109.33 41.46 109.63 41.46 110.31C41.46 110.97 41.4 111.3 41.28 111.33C41.18 111.36 40.79 111.45 40.41 111.53C40.02 111.61 38.56 111.85 37.15 112.07C35.73 112.29 34.55 112.53 34.52 112.6C34.49 112.68 34.86 113.34 35.35 114.07C35.83 114.79 36.38 115.6 36.57 115.85C36.76 116.1 36.98 116.3 37.06 116.3C37.14 116.3 37.78 116.02 38.49 115.67C39.2 115.33 39.92 115 40.09 114.96C40.27 114.91 40.61 114.98 40.86 115.1C41.11 115.22 41.38 115.45 41.46 115.6C41.53 115.75 41.59 116.03 41.59 116.23C41.59 116.42 41.33 117.06 41.02 117.65C40.7 118.25 40.27 119.03 40.07 119.4C39.87 119.76 39.62 120.06 39.5 120.05C39.39 120.05 38.95 119.93 38.52 119.78C38.03 119.61 37.69 119.57 37.58 119.65C37.49 119.72 37.44 119.89 37.47 120.02C37.51 120.15 37.64 120.7 37.77 121.24C37.89 121.78 38.07 122.36 38.16 122.54C38.24 122.72 38.5 122.98 38.73 123.12C38.96 123.26 39.36 123.41 39.61 123.45C39.88 123.5 40.06 123.62 40.06 123.75C40.06 123.86 39.76 124.14 39.4 124.37C39.03 124.6 38.54 124.93 38.3 125.1C38.06 125.28 37.51 125.67 37.07 125.97L36.26 126.53C34.61 126.04 33.59 125.73 32.94 125.54C32.29 125.34 31.19 125 30.5 124.79C29.81 124.57 28.49 124.17 27.57 123.89C26.65 123.61 25.58 123.27 25.19 123.15C24.81 123.02 24.45 122.85 24.39 122.77C24.34 122.7 24.29 122.12 24.29 121.48C24.29 120.64 24.21 120.18 24.01 119.74C23.86 119.42 23.63 119.04 23.49 118.91C23.35 118.78 22.96 118.58 22.61 118.46C22.27 118.34 21.94 118.24 21.88 118.24C21.82 118.24 21.77 118.4 21.77 118.59C21.77 118.78 21.83 119.05 21.91 119.19C21.98 119.32 22.33 120.34 22.68 121.45C23.03 122.56 23.44 123.73 23.59 124.06C23.74 124.39 23.87 124.71 23.87 124.79C23.87 124.87 24 125.26 24.16 125.66C24.32 126.06 24.53 126.54 24.62 126.72C24.7 126.91 24.87 127.09 24.99 127.14C25.11 127.19 25.98 127.76 26.91 128.41C27.85 129.06 29.34 130.1 30.21 130.71C31.09 131.32 32.15 132.06 32.58 132.35C33.24 132.79 33.36 132.94 33.36 133.29C33.36 133.52 33.3 134.02 33.22 134.4C33.14 134.78 33.03 135.13 32.98 135.16C32.92 135.19 31.96 135.38 30.85 135.58C29.73 135.78 28.8 135.95 28.78 135.97C28.76 135.99 29.19 136.88 29.75 137.95C30.3 139.03 30.85 140.09 30.97 140.32L31.19 140.74C34.33 140.67 35.43 140.68 35.66 140.72C35.98 140.78 36.44 141.2 37.53 142.44C38.32 143.34 39.11 144.24 39.27 144.43C39.44 144.62 40.17 145.47 40.9 146.3C41.63 147.14 42.51 148.15 42.85 148.53C43.2 148.92 43.59 149.38 43.72 149.55C43.96 149.85 43.95 149.88 43.53 150.59C43.28 150.99 42.59 152.12 41.99 153.1L40.9 154.87C41.81 156.01 42.11 156.37 42.15 156.41C42.19 156.44 42.5 156.82 42.84 157.24C43.18 157.66 43.73 158.29 44.05 158.64C44.38 158.98 44.88 159.53 45.18 159.86C45.51 160.23 45.76 160.4 45.85 160.32C45.93 160.26 46.11 159.93 46.25 159.59C46.4 159.26 46.6 158.78 46.71 158.53C46.81 158.28 46.9 158 46.9 157.9C46.9 157.81 46.95 157.67 47.01 157.59C47.08 157.51 47.34 156.89 47.59 156.2C47.84 155.51 48.16 154.69 48.29 154.39C48.42 154.08 48.63 153.58 48.75 153.27C48.87 152.97 49.39 151.65 49.9 150.35C50.42 149.05 50.93 147.79 51.03 147.56C51.14 147.33 51.23 147.05 51.23 146.94C51.22 146.82 51.28 146.66 51.35 146.59C51.41 146.51 51.86 145.45 52.34 144.22C52.83 142.99 53.34 141.68 53.48 141.3L53.73 140.6C52.78 138.66 52.24 137.53 51.92 136.84C51.6 136.15 51.14 135.19 50.9 134.71C50.57 134.06 50.49 133.78 50.6 133.62C50.67 133.5 51.02 133.24 51.37 133.05C51.71 132.86 52.26 132.49 52.59 132.23C52.91 131.97 53.31 131.49 53.48 131.16C53.64 130.84 53.96 129.72 54.18 128.69C54.41 127.66 54.71 126.25 54.86 125.56C55 124.87 55.38 123.11 55.69 121.66C56 120.2 56.38 118.46 56.53 117.79C56.68 117.12 56.81 116.43 56.81 116.26C56.81 116.06 55.98 114.9 54.54 113.09C53.28 111.52 52.03 110.05 51.75 109.82C51.48 109.59 50.95 109.29 50.58 109.16C50.2 109.03 49.68 108.9 49.41 108.86C49.14 108.83 47.32 108.92 45.36 109.06ZM103.43 112.22C103.08 112.44 102.71 112.82 102.59 113.07C102.45 113.37 102.43 113.56 102.52 113.65C102.6 113.72 103.54 113.98 104.61 114.22C105.69 114.46 106.62 114.69 106.68 114.74C106.74 114.79 106.75 114.93 106.71 115.04C106.66 115.16 106.16 115.55 105.59 115.91C105.01 116.28 104.48 116.68 104.41 116.82C104.32 116.98 104.33 117.15 104.44 117.32C104.61 117.57 104.64 117.58 105.28 117.36C105.9 117.14 105.95 117.15 106.03 117.37C106.08 117.51 105.96 119 105.75 120.68C105.54 122.37 105.35 123.95 105.31 124.2C105.27 124.47 105.14 124.68 105 124.73C104.86 124.77 103.91 124.64 102.87 124.44C101.83 124.25 100.84 124.06 100.67 124.02C100.4 123.96 100.36 123.88 100.41 123.43C100.44 123.15 100.65 122.28 100.89 121.52C101.12 120.75 101.47 119.62 101.65 119.01C101.98 117.93 101.98 117.89 101.73 117.72C101.55 117.6 100.69 117.55 98.72 117.55C96.71 117.55 95.74 117.6 95.16 117.76C94.72 117.87 94.03 118.14 93.62 118.35C93.22 118.55 92.59 119.02 92.23 119.39C91.71 119.91 91.3 120.61 90.36 122.53C89.7 123.89 88.96 125.41 88.73 125.91C88.49 126.4 88.2 126.93 88.08 127.07C87.96 127.21 87.87 127.49 87.88 127.69C87.89 127.9 88 128.28 88.12 128.55C88.24 128.82 88.62 129.79 88.98 130.71C89.34 131.63 89.78 132.71 89.97 133.11C90.15 133.51 90.31 133.94 90.31 134.05C90.31 134.17 90.37 134.29 90.45 134.33C90.52 134.37 90.59 134.5 90.59 134.61C90.59 134.72 90.78 135.23 91.01 135.72C91.24 136.22 91.42 136.75 91.42 136.91C91.42 137.06 91.49 137.22 91.56 137.26C91.64 137.29 91.77 137.56 91.86 137.85C91.94 138.14 92.12 138.44 92.24 138.53C92.4 138.65 92.62 138.66 92.96 138.57C93.23 138.5 93.72 138.3 94.04 138.13C94.37 137.96 94.91 137.59 95.26 137.33C95.6 137.06 95.88 136.78 95.88 136.7C95.88 136.62 95.99 136.46 96.13 136.33C96.27 136.2 96.54 135.78 96.73 135.39C96.92 134.99 97.14 134.65 97.22 134.63C97.29 134.6 98.27 134.63 99.38 134.69C100.49 134.75 101.92 134.84 102.56 134.88C103.48 134.94 103.73 135.01 103.8 135.2C103.85 135.34 103.75 136.51 103.59 137.81C103.42 139.12 103.22 140.65 103.14 141.23C103.07 141.8 102.98 142.46 102.94 142.69C102.9 142.92 102.93 143.2 103.01 143.31C103.08 143.43 104.04 143.97 105.14 144.53C106.23 145.08 107.65 145.8 108.29 146.13L109.45 146.73C111.84 145.52 112.15 145.3 112.46 144.81C112.66 144.49 113.04 143.89 113.29 143.49C113.55 143.09 113.76 142.73 113.76 142.69C113.76 142.65 114 142.23 114.29 141.75C114.59 141.27 115.01 140.56 115.22 140.18L115.61 139.48C115.25 137.22 115.14 136.22 115.12 135.79L115.08 135.03C117.03 134.85 117.74 134.77 117.91 134.74C118.08 134.71 118.22 134.6 118.22 134.51C118.22 134.41 118.38 134.02 118.56 133.64C118.75 133.25 119.12 132.45 119.4 131.86C119.67 131.27 119.9 130.75 119.9 130.71C119.9 130.67 120.04 130.31 120.22 129.91C120.4 129.51 120.66 128.9 120.8 128.55C120.94 128.21 121.13 127.74 121.23 127.51C121.32 127.28 121.7 126.27 122.06 125.28C122.43 124.28 122.9 123 123.11 122.42C123.32 121.85 123.73 120.64 124.03 119.74C124.39 118.66 124.53 118.06 124.43 117.97C124.36 117.9 123.82 117.77 123.25 117.69C122.67 117.61 121.13 117.54 119.83 117.55C118.2 117.55 117.37 117.61 117.2 117.73C116.95 117.89 116.95 117.94 117.31 119.22C117.52 119.95 117.91 121.25 118.17 122.11C118.47 123.1 118.6 123.74 118.52 123.85C118.45 123.95 118.12 124.07 117.78 124.12C117.45 124.17 116.61 124.32 115.92 124.46C115.23 124.59 114.45 124.71 114.18 124.71C113.69 124.72 113.69 124.72 113.59 123.96C113.53 123.53 113.42 122.72 113.34 122.14C113.26 121.57 113.11 120.41 113 119.57C112.89 118.73 112.69 117.13 112.56 116.02C112.43 114.91 112.26 113.53 112.17 112.95L112 111.91L104.06 111.83L103.43 112.22Z" />
		<path class="shp3" d="M66.02 118.63C65.94 118.84 65.82 119.14 65.75 119.29C65.68 119.44 65.43 120.04 65.2 120.61C64.97 121.19 64.49 122.41 64.14 123.33C63.78 124.25 63.44 125.13 63.37 125.28C63.3 125.43 63.06 126.03 62.83 126.6C62.6 127.18 61.87 129.03 61.21 130.71C60.55 132.4 59.95 133.9 59.88 134.05C59.81 134.21 59.46 135.08 59.1 136C58.75 136.92 57.92 139.02 57.27 140.67C56.62 142.32 55.74 144.54 55.32 145.61C54.9 146.69 54.5 147.69 54.43 147.84C54.36 147.99 53.64 149.81 52.82 151.88C52.01 153.95 50.68 157.29 49.89 159.3C49.09 161.31 48.43 163.02 48.43 163.09C48.43 163.17 49.23 164.01 50.21 164.95C51.19 165.9 52.29 166.95 52.66 167.28C53.03 167.62 53.37 167.85 53.42 167.79C53.46 167.74 53.46 167.69 53.41 167.69C53.36 167.69 53.49 167.51 53.7 167.29C53.91 167.07 54.51 166.27 55.02 165.52C55.54 164.76 56.24 163.73 56.58 163.23C56.92 162.73 57.28 162.25 57.39 162.16C57.53 162.03 58.03 162.06 59.6 162.26C60.71 162.41 61.8 162.53 62.01 162.53C62.26 162.53 62.39 162.46 62.39 162.33C62.39 162.21 62.33 162.04 62.25 161.94C62.17 161.85 61.73 161.25 61.27 160.62C60.81 159.99 60.39 159.33 60.32 159.16C60.24 158.93 60.37 158.37 60.82 157.1C61.15 156.15 61.66 154.83 61.94 154.18C62.22 153.53 62.82 152.27 63.27 151.39C63.72 150.51 64.32 149.45 64.59 149.03C64.86 148.6 65.44 147.73 65.87 147.09C66.3 146.45 66.71 145.89 66.79 145.84C66.87 145.79 67.04 145.58 67.18 145.37C67.31 145.16 67.42 144.85 67.42 144.67C67.41 144.5 67.26 143.7 67.07 142.9C66.88 142.09 66.53 140.64 66.3 139.66C66.07 138.68 65.91 137.82 65.95 137.74C65.99 137.67 66.12 137.6 66.23 137.6C66.35 137.6 66.64 137.7 66.89 137.81C67.14 137.92 68.29 138.35 69.44 138.77C70.59 139.19 71.66 139.57 71.81 139.62C72.04 139.69 72.44 139.32 73.97 137.64C75 136.51 75.95 135.46 76.09 135.31C76.26 135.1 76.39 134.5 76.55 133.08C76.66 132.01 76.82 130.56 76.89 129.87C76.97 129.11 76.98 128.61 76.9 128.59C76.83 128.57 76.8 128.49 76.84 128.41C76.88 128.34 76.64 128.17 76.32 128.05C75.94 127.91 75.64 127.87 75.49 127.94C75.36 128.01 74.18 129.32 72.86 130.85C71.54 132.38 70.36 133.72 70.23 133.82C70.03 133.97 69.98 133.94 69.83 133.61C69.74 133.39 69.66 132.92 69.66 132.56C69.65 132.19 69.59 131.86 69.51 131.82C69.43 131.79 69.41 131.61 69.45 131.44C69.5 131.27 69.46 130.09 69.37 128.83C69.23 126.84 69.24 126.46 69.42 125.97C69.59 125.54 69.86 125.26 70.65 124.7C71.21 124.31 71.79 123.87 71.93 123.73C72.15 123.5 72.16 123.38 72.02 122.63C71.93 122.17 71.91 121.61 71.96 121.38C72.01 121.15 72.2 120.76 72.39 120.51C72.57 120.26 73.19 119.74 73.77 119.36C74.34 118.98 74.81 118.57 74.81 118.45C74.81 118.27 74.24 118.25 70.48 118.25L66.16 118.25L66.02 118.63Z" />
		<path class="shp0" d="M74.86 118.57C74.64 118.75 74.08 119.16 73.6 119.48C73.13 119.8 72.58 120.26 72.4 120.51C72.21 120.76 72.01 121.15 71.96 121.38C71.91 121.61 71.93 122.17 72.02 122.63C72.16 123.38 72.15 123.5 71.93 123.73C71.79 123.87 71.21 124.31 70.65 124.7C69.86 125.26 69.59 125.54 69.42 125.97C69.23 126.47 69.23 126.87 69.44 129.81C69.56 131.61 69.72 133.28 69.8 133.53C69.89 133.86 69.98 133.95 70.13 133.88C70.24 133.82 71.44 132.49 72.79 130.92C74.15 129.35 75.36 128.01 75.49 127.94C75.64 127.87 75.93 127.9 76.28 128.04C76.59 128.16 76.88 128.34 76.93 128.44C76.98 128.54 76.96 129.19 76.89 129.87C76.82 130.56 76.66 132.01 76.55 133.08C76.39 134.51 76.26 135.1 76.09 135.31C75.95 135.46 75.01 136.51 74 137.64C72.44 139.39 72.12 139.68 71.85 139.61C71.68 139.57 70.59 139.19 69.44 138.77C68.29 138.35 67.14 137.92 66.89 137.81C66.64 137.7 66.35 137.6 66.23 137.6C66.12 137.6 65.99 137.67 65.95 137.74C65.91 137.82 66.07 138.68 66.3 139.66C66.53 140.64 66.88 142.09 67.07 142.9C67.26 143.7 67.41 144.5 67.42 144.67C67.42 144.85 67.31 145.17 67.17 145.4C67.04 145.63 66.88 145.82 66.82 145.82C66.77 145.82 66.51 146.12 66.26 146.48C66 146.85 65.4 147.77 64.91 148.54C64.43 149.3 63.67 150.62 63.24 151.46C62.8 152.31 62.22 153.53 61.94 154.18C61.66 154.83 61.15 156.15 60.82 157.1C60.37 158.37 60.24 158.93 60.32 159.16C60.39 159.33 60.81 159.99 61.27 160.62C61.73 161.25 62.17 161.85 62.25 161.94C62.33 162.04 62.39 162.21 62.39 162.33C62.39 162.46 62.26 162.53 62.01 162.53C61.8 162.53 60.71 162.41 59.6 162.26C58.03 162.06 57.53 162.03 57.39 162.16C57.28 162.25 57.03 162.58 56.82 162.88C56.61 163.19 55.95 164.16 55.35 165.04C54.74 165.92 54.07 166.88 53.85 167.17C53.64 167.45 53.46 167.78 53.46 167.9C53.46 168.01 53.91 168.49 54.47 168.95L55.48 169.8C58.51 169.69 59.96 169.56 60.65 169.43C61.34 169.31 62.53 169 63.3 168.74C64.07 168.49 64.96 168.15 65.29 167.99C65.61 167.82 65.98 167.69 66.09 167.69C66.21 167.69 66.63 167.96 67.03 168.3C67.44 168.64 68.14 169.14 68.6 169.42C69.06 169.7 69.93 170.08 70.52 170.27C71.54 170.59 71.79 170.61 74.78 170.61C77.47 170.62 78.16 170.66 79.28 170.9C80.01 171.06 80.92 171.23 81.3 171.27C81.96 171.35 82.04 171.32 82.63 170.81C82.98 170.52 83.35 170.2 83.47 170.1C83.58 170.01 84.65 169.58 85.84 169.15C87.03 168.71 88.06 168.32 88.12 168.27C88.18 168.22 88.15 167.67 88.05 167.06C87.96 166.45 87.78 165.85 87.66 165.73C87.54 165.61 87.05 165.47 86.54 165.41C86.04 165.35 85.35 165.2 85 165.07C84.66 164.94 83.97 164.62 83.47 164.35L82.56 163.85C82.42 162.24 82.3 161.46 82.19 161.07C82.09 160.69 81.78 160.01 81.51 159.57C81.21 159.07 80.18 157.93 78.83 156.61C77.62 155.42 76.63 154.36 76.63 154.25C76.63 154.13 76.75 153.71 76.9 153.31C77.05 152.91 77.38 152.36 77.63 152.09C77.89 151.82 78.3 151.44 78.56 151.25C78.89 151 78.98 150.87 78.86 150.77C78.77 150.69 78 150.45 77.14 150.23C76.28 150.01 75.41 149.81 75.2 149.78C74.93 149.74 74.81 149.64 74.81 149.44C74.81 149.29 76.35 146.09 78.23 142.34L81.65 135.52C80.76 132.55 80.43 131.43 80.33 131.13C80.23 130.82 79.91 129.79 79.62 128.83C79.18 127.4 78.9 126.79 78.05 125.42L77.02 123.75C77.4 121.7 77.62 120.54 77.75 119.85C77.88 119.16 77.96 118.51 77.93 118.42C77.9 118.3 77.5 118.25 76.57 118.25C75.4 118.25 75.21 118.28 74.86 118.57Z" />
		<path class="shp3" d="M78.01 118.28C78.01 118.3 77.98 118.47 77.95 118.66C77.92 118.85 77.79 119.58 77.67 120.26C77.55 120.95 77.36 121.97 77.25 122.53C77.08 123.38 77.08 123.61 77.24 123.99C77.34 124.24 77.8 125.04 78.26 125.77C78.9 126.79 79.21 127.48 79.62 128.83C79.91 129.79 80.23 130.82 80.33 131.13C80.43 131.43 80.76 132.55 81.08 133.6L81.65 135.52C76.35 146.09 74.81 149.29 74.81 149.44C74.81 149.64 74.93 149.74 75.2 149.78C75.41 149.81 76.28 150.01 77.14 150.23C78 150.45 78.77 150.69 78.86 150.77C78.98 150.87 78.89 151 78.56 151.25C78.3 151.44 77.89 151.82 77.63 152.09C77.38 152.36 77.05 152.91 76.9 153.31C76.75 153.71 76.63 154.13 76.63 154.25C76.63 154.36 77.62 155.42 78.83 156.61C80.18 157.93 81.21 159.07 81.51 159.57C81.78 160.01 82.09 160.69 82.19 161.07C82.3 161.46 82.42 162.24 82.47 162.81L82.56 163.85C83.97 164.62 84.66 164.94 85 165.07C85.35 165.2 86.04 165.35 86.54 165.41C87.05 165.47 87.54 165.61 87.66 165.73C87.78 165.85 87.96 166.45 88.05 167.06C88.15 167.67 88.18 168.22 88.12 168.27C88.06 168.32 87.03 168.71 85.84 169.15C84.65 169.58 83.58 170.01 83.47 170.1C83.35 170.2 82.98 170.52 82.63 170.81C82.04 171.32 81.96 171.35 81.3 171.27C80.92 171.23 80.01 171.06 79.28 170.9C78.16 170.66 77.47 170.62 74.78 170.61C71.79 170.61 71.54 170.59 70.52 170.27C69.93 170.08 69.06 169.7 68.6 169.42C68.14 169.14 67.44 168.64 67.03 168.3C66.63 167.96 66.21 167.69 66.09 167.69C65.98 167.69 65.61 167.82 65.29 167.99C64.96 168.15 64.07 168.49 63.3 168.74C62.53 169 61.34 169.31 60.65 169.43C59.96 169.55 58.56 169.7 57.55 169.75C56 169.83 55.74 169.88 55.88 170.04C55.97 170.15 56.86 170.9 57.86 171.72C58.85 172.53 60.55 173.86 61.62 174.67C62.7 175.48 64.24 176.61 65.04 177.18C65.85 177.76 67.64 178.97 69.02 179.87C70.4 180.78 71.86 181.73 72.27 181.98C72.67 182.24 73.03 182.45 73.07 182.45C73.11 182.45 73.31 182.33 73.52 182.19C73.73 182.05 74.25 181.72 74.67 181.46C75.09 181.2 76.28 180.43 77.32 179.75C78.36 179.07 79.84 178.07 80.61 177.53C81.37 176.99 82.73 176.02 83.61 175.37C84.49 174.72 86 173.56 86.96 172.79C87.92 172.03 89.3 170.9 90.03 170.28C90.76 169.66 91.57 168.97 91.83 168.74C92.1 168.5 92.7 167.98 93.16 167.56C93.63 167.15 94.93 165.9 96.07 164.78C97.2 163.66 98.13 162.73 98.13 162.71C98.13 162.69 97.88 162.06 97.57 161.32C97.27 160.57 96.42 158.42 95.67 156.55C94.93 154.67 93.92 152.1 93.43 150.84C92.93 149.57 92.4 148.27 92.25 147.95C92.1 147.62 91.98 147.32 91.98 147.28C91.98 147.25 91.51 146.01 90.93 144.53C90.35 143.06 89.82 141.73 89.75 141.57C89.68 141.42 89.33 140.54 88.97 139.62C88.62 138.7 87.61 136.15 86.73 133.95C85.86 131.75 85.14 129.91 85.14 129.87C85.14 129.84 85.02 129.54 84.87 129.21C84.73 128.89 84.25 127.71 83.81 126.6C83.38 125.49 82.49 123.23 81.83 121.59C81.18 119.94 80.57 118.51 80.48 118.41C80.38 118.29 79.95 118.23 79.18 118.24C78.54 118.24 78.02 118.26 78.01 118.28Z" />
		<path class="shp4" d="M24.98 127.23C24.94 127.27 25.21 128.04 25.56 128.94C25.92 129.84 26.49 131.2 26.84 131.96C27.18 132.73 27.73 133.92 28.06 134.61C28.4 135.3 28.67 135.88 28.68 135.9C28.68 135.92 29.63 135.78 30.78 135.58C31.93 135.38 32.92 135.19 32.98 135.16C33.03 135.13 33.14 134.78 33.22 134.4C33.3 134.02 33.36 133.52 33.36 133.29C33.36 132.94 33.24 132.79 32.58 132.35C32.15 132.06 31.09 131.32 30.21 130.71C29.34 130.1 27.85 129.06 26.92 128.41C25.98 127.76 25.17 127.21 25.12 127.19C25.07 127.17 25.01 127.19 24.98 127.23Z" />
		<path class="shp3" d="M97.2 134.65C97.11 134.7 96.89 135.06 96.69 135.45C96.5 135.83 96.24 136.24 96.11 136.35C95.98 136.47 95.88 136.62 95.88 136.7C95.88 136.78 95.6 137.06 95.26 137.33C94.91 137.59 94.34 137.97 93.97 138.16C93.61 138.34 93.12 138.53 92.89 138.58C92.62 138.63 92.46 138.75 92.43 138.93C92.41 139.08 92.95 140.62 93.64 142.34C94.33 144.06 95.37 146.7 95.95 148.19C96.54 149.68 97.08 151.03 97.15 151.18C97.22 151.34 97.82 152.84 98.48 154.53C99.13 156.21 99.76 157.78 99.86 158.01C99.96 158.24 100.16 158.73 100.3 159.11C100.45 159.48 100.63 159.82 100.71 159.86C100.78 159.9 101.18 159.57 101.59 159.11C102.01 158.66 103.08 157.41 103.98 156.34C104.88 155.26 106.3 153.48 107.14 152.37C107.98 151.26 108.96 149.94 109.31 149.44C109.66 148.94 110.31 148 110.75 147.35C111.19 146.7 111.58 146.12 111.61 146.07C111.64 146.01 111.57 145.93 111.45 145.89C111.34 145.85 110.84 146.03 110.35 146.27L109.46 146.73C107.65 145.8 106.23 145.08 105.14 144.53C104.04 143.97 103.08 143.43 103.01 143.31C102.93 143.2 102.9 142.92 102.94 142.69C102.98 142.46 103.07 141.8 103.14 141.23C103.22 140.65 103.42 139.07 103.6 137.71C103.81 136.07 103.87 135.2 103.78 135.11C103.7 135.04 102.7 134.9 101.54 134.82C100.39 134.73 99.06 134.68 98.59 134.7C98.12 134.73 97.68 134.7 97.61 134.64C97.55 134.58 97.46 134.54 97.43 134.54C97.39 134.54 97.29 134.59 97.2 134.65ZM115.71 134.94L115.08 135.03C115.15 136.43 115.24 137.3 115.34 137.87C115.43 138.45 115.58 138.92 115.68 138.95C115.78 138.98 116.2 138.31 116.7 137.29C117.17 136.35 117.61 135.52 117.68 135.45C117.75 135.37 117.81 135.2 117.81 135.06C117.81 134.86 117.68 134.82 117.07 134.84C116.67 134.85 116.06 134.9 115.71 134.94Z" />
		<path class="shp4" d="M31.48 140.81C31.44 140.88 31.82 141.65 32.33 142.51C32.84 143.38 33.46 144.39 33.7 144.78C33.95 145.16 34.57 146.1 35.07 146.87C35.57 147.63 36.57 149.07 37.29 150.07C38.01 151.07 39.1 152.53 39.71 153.31C40.32 154.1 40.87 154.74 40.93 154.74C40.99 154.74 41.15 154.53 41.3 154.28C41.44 154.03 42.1 152.94 42.76 151.85C43.94 149.9 43.96 149.85 43.72 149.55C43.59 149.38 43.2 148.92 42.85 148.53C42.51 148.15 41.63 147.14 40.9 146.3C40.17 145.46 39.51 144.71 39.43 144.62C39.35 144.53 38.6 143.66 37.76 142.69C36.91 141.72 36.08 140.86 35.91 140.79C35.73 140.72 34.69 140.67 33.58 140.67C32.38 140.67 31.53 140.72 31.48 140.81Z" />
	</g>
</svg>