<svg height="400.549074" viewBox="0 0 24.118545 38.548823" width="249.657299" xmlns="http://www.w3.org/2000/svg"><g transform="matrix(.06015454 0 0 .06015454 -9.596373 -2.19802)"><path d="m266.4263 133.4526c-8.4278 2.2882-37.1561 10.1213-42.4691 12.0139-6.2409 2.2233-14.7015 5.4194-21.4975 11.5337-6.7961 6.1144-11.5124 13.0623-14.0085 22.5113-2.4962 9.4491-1.9418 15.8413-1.9418 15.8413l-23.2144.1272s-3.3265 37.7005-3.3265 72.9061c0 35.2055 7.4847 92.5878 12.4745 116.1506 4.9897 23.5628 13.0288 54.6103 19.6818 72.6289s18.573 46.8483 31.3246 69.3023c12.7517 22.4539 16.9098 27.9981 22.454 36.8688s21.0679 27.9981 28.5525 36.8688c7.4847 8.8707 33.5424 35.76 39.641 40.7498 6.0986 4.9897 24.9488 20.5135 33.8195 26.8893 4.1695 2.9963 8.5223 6.3607 11.9654 9.0849h.2368c1.6079-1.272 3.4135-2.6839 5.3067-4.1323 2.161-1.6532 4.436-3.3549 6.6587-4.9526 8.8707-6.3758 27.7209-21.8996 33.8195-26.8893 6.0986-4.9898 32.1563-31.8791 39.6409-40.7498 7.4847-8.8707 23.0084-27.9981 28.5526-36.8688s9.7023-14.4149 22.4539-36.8688c12.7517-22.454 24.6717-51.2837 31.3247-69.3023s14.6921-49.0661 19.6818-72.6289c4.9898-23.5628 12.4745-80.9451 12.4745-116.1506 0-35.2056-3.3266-72.9061-3.3266-72.9061l-23.2143-.1272s.5544-6.3922-1.9418-15.8413c-2.4961-9.449-7.2124-16.3969-14.0085-22.5113-6.796-6.1143-15.2566-9.3104-21.4976-11.5337-5.3129-1.8926-34.0412-9.7257-42.469-12.0139.0283-.9476.0472-1.8976.0472-2.8521 0-51.697-41.9241-93.6211-93.6211-93.6211s-93.6211 41.9241-93.6211 93.6211c0 .9545.0189 1.9045.0472 2.8521z" fill="#015794" fill-rule="evenodd"/><path d="m360.0002 78.7623a51.8381 51.8381 0 0 1 51.8381 51.8382 51.8381 51.8381 0 1 1 -51.8381-51.8382z" fill="#015794" fill-rule="evenodd" stroke="#015794" stroke-width=".216"/><path d="m361.3006 101.4166s3.467 1.5978 7.3504 4.516c3.8835 2.9183 7.1432 6.1837 7.1432 6.1837s.4851.7642.4851 1.5284-1.8724 7.8513-3.1898 10.5611c-1.3174 2.7097-2.9126 5.6972-2.9126 5.6972s-.4158 1.1807-1.8724 1.2506c-1.4566.07-15.4645 0-15.4645 0" fill="none"/><path d="m367.6153 131.1536s-14.1944.07-15.6706 0c-1.4767-.0699-1.8976-1.2506-1.8976-1.2506s-1.616-2.9875-2.951-5.6972c-1.335-2.7098-3.2326-9.7969-3.2326-10.5611s.4914-1.5284.4914-1.5284 3.3032-3.2654 7.2389-6.1837c3.9351-2.9182 7.4481-4.516 7.4481-4.516s1.0931-.4863 2.2587 0" fill="none"/><path d="m377.1116 110.4486s-4.4379-4.0995-7.2119-6.1836-7.2818-4.5853-7.2818-4.5853-1.386-.625-1.4559-1.737c-.07-1.112-.07-10.8389-.07-10.8389s-.1392-1.3205 1.9417-1.8762c2.081-.5557 3.9163-1.5618 8.5992-1.5284 4.683.0334 8.4032 1.5007 8.4032 1.5007" fill="none"/><path d="m387.4093 89.2409s4.8902 4.3244 6.4848 6.3392c1.5945 2.0148 1.4559 2.9876 1.5252 3.9603.0693.9728.208 7.0172.1387 7.7121-.0694.6949-.1387 1.5978-1.0402 1.6677-.9016.0699-5.6173.0693-8.6685.4864-3.0512.417-6.4495 1.3205-6.4495 1.3205s-1.3848.5456-2.2882-.2785" fill="none"/><path d="m379.3305 113.0197s3.9528-1.4591 7.6976-1.7369c3.7448-.2779 7.559-.0693 7.559-.0693s1.0402.3471 1.8724 1.3199c.8323.9727 4.0914 4.3068 5.9638 8.5456s2.4968 7.782 2.4968 7.782.2085 1.5291-.1386 2.6404c-.3472 1.1114-2.8427 9.0326-4.1607 11.8116-1.318 2.7791-1.5958 4.1689-3.9534 4.7939-2.3575.625-6.4489 1.1819-9.015 1.3898-2.566.2079-4.9929.0693-4.9929.0693s-.7623-.0699-1.248-1.6677c-.4858-1.5977-4.5765-8.2684-5.7559-10.2832s-3.6063-4.5853-3.6063-4.5853-.5544-.9034-.0693-2.3625c.4852-1.4592 2.7734-4.9337 4.1607-9.5883s1.8031-7.0865 1.8031-7.0865.2772-.7642 1.3867-.9728z" fill="none"/><path d="m383.0753 151.6501s4.1613-.1392 7.3511-.4864c3.1898-.3471 7.004-1.1806 7.004-1.1806s.9708-.2779 1.0401.7642c.0693 1.042 1.0043 8.642.4329 10.6436" fill="none"/><path d="m381.3963 175.3748s-1.0256-.0315-2.1351-.8656c-1.1095-.8342-5.7559-5.2809-5.7559-5.2809s-1.1781-.9028-.6237-1.8062c.5544-.9035 2.149-2.1541 5.5473-7.8514 3.3984-5.6972 3.3291-6.8086 3.3291-6.8086s.2129-1.0673 1.3173-1.112" fill="none"/><path d="m397.6736 98.3188s.5197 3.0285.3811 6.0161-.2772 4.3075-.2772 4.3075-.3471 1.1113.3465 2.2233c.6937 1.112 2.9126 3.3353 4.785 6.5314 1.8725 3.1961 2.2883 4.3774 2.9126 5.9751.6244 1.5978 1.0402 4.0297 1.0402 4.0297s-.0687.9028.6243 1.2506c.6931.3477 2.9819.0693 2.9819.0693" fill="none"/><path d="m409.6143 130.6005-1.9203.0668s-.7629-.2079-1.0401 1.3898-1.3174 6.0438-2.774 9.5183c-1.4566 3.4746-2.6354 5.4894-2.6354 5.4894s-.9015 1.3898-.9015 2.9876c0 1.5977.6621 5.2814.6432 8.5116" fill="none"/><path d="m352.285 133.0991s3.2597.2086 7.2124.2086c3.9528 0 8.4606-.2086 8.4606-.2086s.7623-.3471 1.7332.4171c.9708.7642 4.2992 5.6973 6.7267 9.8661 2.4275 4.1689 3.3983 6.3922 3.3983 6.3922s.4858.9728-.0693 2.2927c-.555 1.3199-2.3581 5.0017-4.3692 8.2677-2.011 3.2661-4.0913 5.9758-4.0913 5.9758s-.2778.7642-1.6645 1.0421c-1.3867.2778-5.1322.9034-8.6685.9034s-10.4023-.6256-10.4023-.6256-.4857-.1386-1.1787-.8335-4.6464-6.0451-5.8945-8.2684c-1.2481-2.2234-3.1205-6.3223-3.1205-6.3223s-.4158-1.1113-.2772-1.9455c.1386-.8341 2.9126-5.8365 4.2993-8.2684 1.3866-2.4319 5.7558-8.2677 5.7558-8.2677s.6244-.9035 2.1497-.6257z" fill="none"/><path d="m378.8542 176.5051s-2.0898-1.1624-3.2685-2.2045c-1.1788-1.042-3.675-3.6824-3.675-3.6824s-.4851-.6956-1.1094-.9035c-.6244-.2079-4.8543.7648-9.5007.7648s-10.6102-.6949-10.6102-.6949-1.6645-.417-2.4275.5557c-.7629.9728-3.5369 3.7518-4.5078 4.4467s-1.5933 1.4868-2.5302 1.7508" fill="none"/><path d="m368.5193 81.7153s-2.5723.3855-4.4448.8026c-1.8724.4171-2.9125 1.112-2.9125 1.112s-.5557.3471-1.1101.3471" fill="none"/><path d="m351.8616 81.7153s2.5724.3855 4.4448.8026 2.9126 1.112 2.9126 1.112.5556.3471 1.1101.3471" fill="none"/><path d="m361.3006 101.4166c-1.1656-.4863-2.2587 0-2.2587 0s-3.513 1.5978-7.4481 4.516c-3.9357 2.9183-7.2389 6.1837-7.2389 6.1837s-.4914.7642-.4914 1.5284 1.8976 7.8513 3.2326 10.5611c1.335 2.7097 2.951 5.6972 2.951 5.6972s.4209 1.1807 1.8976 1.2506c.7277.0347 4.5482.0347 8.2338.0265 3.6377.008 7.4078.008 8.126-.0265 1.4566-.0699 1.8724-1.2506 1.8724-1.2506s1.5952-2.9875 2.9126-5.6972c1.3174-2.7098 3.1898-9.7969 3.1898-10.5611s-.4851-1.5284-.4851-1.5284-3.2597-3.2654-7.1432-6.1837c-3.8834-2.9182-7.3504-4.516-7.3504-4.516z" fill="#ffd600" fill-rule="evenodd"/><path d="m354.09 82.0832-4.2319-.8159" fill="none"/><path d="m366.291 82.0832 4.8221-1.0937" fill="none"/><g fill-rule="evenodd"><path d="m368.1722 81.6567c-2.6587-.441-5.3886-.6704-8.172-.6704-2.7746 0-5.4957.2281-8.1462.666l2.2108.4259c.008.0018.017.0031.0252.005.7232.1279 1.5183.2791 2.2164.4347 1.8724.4171 2.9126 1.112 2.9126 1.112s.4668.2917.9715.3402c.5046-.0485.9715-.3402.9715-.3402s1.0401-.6949 2.9125-1.112c.7-.1556 1.4976-.3074 2.2165-.4347z" fill="#ffd600"/><path d="m367.958 133.0991s-4.5078.2086-8.4606.2086c-3.9527 0-7.2124-.2086-7.2124-.2086-1.5253-.2778-2.1497.6257-2.1497.6257s-4.3692 5.8358-5.7558 8.2677c-1.3867 2.4319-4.1607 7.4343-4.2993 8.2684-.1386.8342.2772 1.9455.2772 1.9455s1.8724 4.0989 3.1205 6.3223c1.2481 2.2233 5.2015 7.5735 5.8945 8.2684s1.1787.8335 1.1787.8335 6.866.6256 10.4023.6256 7.2818-.6256 8.6685-.9034c1.3867-.2779 1.6645-1.0421 1.6645-1.0421s2.0803-2.7097 4.0913-5.9758c2.0111-3.266 3.8142-6.9478 4.3692-8.2677.5551-1.3199.0693-2.2927.0693-2.2927s-.9708-2.2233-3.3983-6.3922c-2.4275-4.1688-5.7559-9.1019-6.7267-9.8661-.9709-.7642-1.7332-.4171-1.7332-.4171z" fill="#ffd600"/><path d="m371.98 130.6673c-.4851 1.4591.0693 2.3625.0693 2.3625s2.4269 2.5705 3.6063 4.5853 5.2701 8.6855 5.7559 10.2832c.4857 1.5978 1.248 1.6677 1.248 1.6677s2.4269.1386 4.9929-.0693c2.5661-.2079 6.6575-.7648 9.015-1.3898 2.3576-.625 2.6354-2.0148 3.9534-4.7939 1.318-2.779 3.8135-10.7002 4.1607-11.8116.3471-1.1113.1386-2.6404.1386-2.6404s-.6244-3.5432-2.4968-7.782-5.1315-7.5729-5.9638-8.5456c-.8322-.9728-1.8724-1.3199-1.8724-1.3199s-3.8142-.2086-7.559.0693c-3.7448.2778-7.6976 1.7369-7.6976 1.7369-1.1095.2086-1.3867.9728-1.3867.9728s-.4158 2.4319-1.8031 7.0865-3.6755 8.1291-4.1607 9.5883z" fill="#ffd600"/><path d="m379.3998 110.7271s3.3983-.9035 6.4495-1.3205c3.0512-.4171 7.7669-.4165 8.6685-.4864.9015-.0699.9708-.9728 1.0402-1.6677.0693-.6949-.0694-6.7393-.1387-7.7121-.0693-.9727.0693-1.9455-1.5252-3.9603-1.5946-2.0148-6.4848-6.3392-6.4848-6.3392-2.3273-1.5455-4.7926-2.9-7.3732-4.041 0 0-3.7202-1.4673-8.4032-1.5007-4.6829-.0334-6.5182.9727-8.5992 1.5284-2.0809.5557-1.9417 1.8762-1.9417 1.8762s0 9.7269.07 10.8389c.0699 1.112 1.4559 1.737 1.4559 1.737s4.5078 2.5012 7.2818 4.5853 7.2119 6.1836 7.2119 6.1836c.9034.8241 2.2882.2785 2.2882.2785z" fill="#ffd600"/><path d="m398.124 110.8657c.6937 1.112 2.9126 3.3353 4.785 6.5314 1.8725 3.1961 2.2883 4.3774 2.9126 5.9751.6244 1.5978 1.0402 4.0297 1.0402 4.0297s-.0687.9028.6243 1.2506c.4089.2053 1.3741.1921 2.0961.1474-.4145-11.6226-4.8291-22.2278-11.9086-30.4811 0 0 .5197 3.0285.3811 6.0161s-.2772 4.3075-.2772 4.3075-.3471 1.1113.3465 2.2233z" fill="#ffd600"/><path d="m403.8799 141.5754c-1.4566 3.4746-2.6354 5.4894-2.6354 5.4894s-.9015 1.3898-.9015 2.9876c0 1.5977.6621 5.2814.6432 8.5116 5.444-7.9629 8.6281-17.5921 8.6281-27.9635l-1.9203.0668s-.7629-.2079-1.0401 1.3898-1.3174 6.0438-2.774 9.5183z" fill="#ffd600"/><path d="m398.4705 150.7473c-.0693-1.0421-1.0401-.7642-1.0401-.7642s-3.8142.8335-7.004 1.1806c-3.1898.3472-7.3511.4864-7.3511.4864-1.1044.0447-1.3173 1.112-1.3173 1.112s.0693 1.1114-3.3291 6.8086c-3.3983 5.6973-4.9929 6.9479-5.5473 7.8514-.5544.9034.6237 1.8062.6237 1.8062s4.6464 4.4467 5.7559 5.2809c1.1095.8341 2.1351.8656 2.1351.8656 6.8528-3.2811 12.8355-8.0895 17.5071-13.9839.5714-2.0016-.3636-9.6016-.4329-10.6436z" fill="#ffd600"/><path d="m370.8013 169.7147c-.6244-.2079-4.8543.7648-9.5007.7648s-10.6102-.6949-10.6102-.6949-1.6645-.417-2.4275.5557c-.7629.9728-3.5369 3.7518-4.5078 4.4467s-1.5933 1.4868-2.5302 1.7508c5.7918 2.3702 12.1311 3.6768 18.7753 3.6768 6.6744 0 13.0408-1.3186 18.854-3.7095 0 0-2.0898-1.1624-3.2685-2.2045-1.1788-1.042-3.675-3.6824-3.675-3.6824s-.4851-.6956-1.1094-.9035z" fill="#ffd600"/><path d="m348.1716 130.6673c.4851 1.4591-.0693 2.3625-.0693 2.3625s-2.4269 2.5705-3.6063 4.5853-5.2701 8.6855-5.7559 10.2832c-.4857 1.5978-1.248 1.6677-1.248 1.6677s-2.4269.1386-4.9929-.0693c-2.5661-.2079-6.6575-.7648-9.015-1.3898-2.3576-.625-2.6354-2.0148-3.9534-4.7939-1.318-2.779-3.8135-10.7002-4.1607-11.8116-.3471-1.1113-.1386-2.6404-.1386-2.6404s.6244-3.5432 2.4968-7.782 5.1315-7.5729 5.9638-8.5456c.8322-.9728 1.8724-1.3199 1.8724-1.3199s3.8142-.2086 7.559.0693c3.7448.2778 7.6976 1.7369 7.6976 1.7369 1.1095.2086 1.3867.9728 1.3867.9728s.4158 2.4319 1.8031 7.0865 3.6755 8.1291 4.1607 9.5883z" fill="#ffd600"/><path d="m340.7518 110.7271s-3.3983-.9035-6.4495-1.3205c-3.0512-.4171-7.7669-.4165-8.6685-.4864-.9015-.0699-.9708-.9728-1.0402-1.6677-.0693-.6949.0694-6.7393.1387-7.7121.0693-.9727-.0693-1.9455 1.5252-3.9603 1.5946-2.0148 6.4848-6.3392 6.4848-6.3392 2.3273-1.5455 4.7926-2.9 7.3732-4.041 0 0 3.7202-1.4673 8.4032-1.5007 4.6829-.0334 6.5182.9727 8.5992 1.5284 2.0809.5557 1.9417 1.8762 1.9417 1.8762s0 9.7269-.07 10.8389c-.0699 1.112-1.4559 1.737-1.4559 1.737s-4.5078 2.5012-7.2818 4.5853-7.2119 6.1836-7.2119 6.1836c-.9034.8241-2.2882.2785-2.2882.2785z" fill="#ffd600"/><path d="m322.0276 110.8657c-.6937 1.112-2.9126 3.3353-4.785 6.5314-1.8725 3.1961-2.2883 4.3774-2.9126 5.9751-.6244 1.5978-1.0402 4.0297-1.0402 4.0297s.0687.9028-.6243 1.2506c-.4089.2053-1.3741.1921-2.0961.1474.4145-11.6226 4.8291-22.2278 11.9086-30.4811 0 0-.5197 3.0285-.3811 6.0161s.2772 4.3075.2772 4.3075.3471 1.1113-.3465 2.2233z" fill="#ffd600"/><path d="m316.2717 141.5754c1.4566 3.4746 2.6354 5.4894 2.6354 5.4894s.9015 1.3898.9015 2.9876c0 1.5977-.6621 5.2814-.6432 8.5116-5.444-7.9629-8.6281-17.5921-8.6281-27.9635l1.9203.0668s.7629-.2079 1.0401 1.3898 1.3174 6.0438 2.774 9.5183z" fill="#ffd600"/><path d="m321.6811 150.7473c.0693-1.0421 1.0401-.7642 1.0401-.7642s3.8142.8335 7.004 1.1806c3.1898.3472 7.3511.4864 7.3511.4864 1.1044.0447 1.3173 1.112 1.3173 1.112s-.0693 1.1114 3.3291 6.8086c3.3983 5.6973 4.9929 6.9479 5.5473 7.8514.5544.9034-.6237 1.8062-.6237 1.8062s-4.6464 4.4467-5.7559 5.2809c-1.1095.8341-2.1351.8656-2.1351.8656-6.8528-3.2811-12.8355-8.0895-17.5071-13.9839-.5714-2.0016.3636-9.6016.4329-10.6436z" fill="#ffd600"/><path d="m308.1621 130.6005c0-28.6244 23.2137-51.8381 51.8381-51.8381s51.8381 23.2137 51.8381 51.8381-23.2137 51.8381-51.8381 51.8381-51.8381-23.2137-51.8381-51.8381zm51.8381-54.3708c-30.0224 0-54.3708 24.3484-54.3708 54.3708s24.3484 54.3708 54.3708 54.3708 54.3708-24.3484 54.3708-54.3708-24.3484-54.3708-54.3708-54.3708z" fill="#ffd600"/><path d="m279.83 130.6005c0-44.2691 35.9011-80.1702 80.1702-80.1702s80.1702 35.9011 80.1702 80.1702c0 44.269-35.9011 80.1701-80.1702 80.1701s-80.1702-35.9011-80.1702-80.1701zm80.1702-82.5958c-45.6085 0-82.5958 36.9873-82.5958 82.5958s36.9873 82.5957 82.5958 82.5957 82.5957-36.9872 82.5957-82.5957-36.9872-82.5958-82.5957-82.5958z" fill="#ffd600"/><path d="m174.023 206.1917s-1.386 16.1197-1.6638 25.2909c-.2779 9.1712-.7517 40.7844-.1972 56.3081.5544 15.5237 3.8809 53.2242 6.653 69.8567 2.7721 16.6326 11.0884 55.4419 18.8502 80.3907 7.7619 24.9488 22.1767 59.8772 38.2549 87.5981 16.0781 27.721 28.2753 43.7991 47.68 67.6391 19.4046 23.84 43.799 44.3535 62.0948 58.7683 4.7195 3.7184 9.6242 7.474 14.3034 11.0002 4.6792-3.5262 9.5839-7.2818 14.3034-11.0002 18.2958-14.4148 42.6902-34.9283 62.0948-58.7683 19.4047-23.84 31.6019-39.9181 47.68-67.6391 16.0782-27.7209 30.493-62.6493 38.2549-87.5981s16.0781-63.7581 18.8502-80.3907c2.7721-16.6325 6.0986-54.333 6.6531-69.8567.5544-15.5237.0806-47.1369-.1972-56.3081-.2779-9.1712-1.6639-25.2909-1.6639-25.2909h-23.7172v-14.8685c0-4.4467-.555-12.0895-8.3219-21.9556-7.7669-9.8662-20.9425-13.2009-20.9425-13.2009l-53.4365-15.5924c-4.9117 39.5641-38.6638 70.1963-79.5553 70.1963-40.8921 0-74.6443-30.6328-79.5559-70.1975l-53.4396 15.5936s-13.1757 3.3347-20.9426 13.2009c-7.7669 9.8661-8.3219 17.5089-8.3219 21.9556v14.8685z" fill="#ffd600"/><path d="m442.8624 170.1343c-6.9188 14.4735-17.5189 26.8527-30.5868 35.9251l17.2789-.001c9.5486-8.8071 17.422-19.4034 23.0878-31.256 2.59-5.4175 4.7188-11.0965 6.3348-16.9879l-10.3928-3.082c-1.4522 5.3438-3.375 10.4936-5.7219 15.4021z" fill="#015794"/><path d="m462.538 179.5235c-4.6275 9.6809-10.5862 18.6045-17.6381 26.534l14.0363-.001c5.1756-6.7752 9.6708-14.098 13.3841-21.8655 3.0783-6.4395 5.6186-13.1838 7.5641-20.1758l-10.3929-3.0821c-1.7817 6.4445-4.1178 12.6597-6.9535 18.5907z" fill="#015794"/><path d="m490.8203 167.2582c-2.1169 7.5685-4.8726 14.8698-8.206 21.8441-2.82 5.8989-6.0527 11.5622-9.6614 16.9533l12.906-.0007c2.384-3.9685 4.5859-8.0586 6.5938-12.2589 3.2969-6.8968 6.0715-14.0911 8.2709-21.5316-.683-.5481-1.3691-1.0553-2.0457-1.507-4.5771-3.0569-7.8576-3.4992-7.8576-3.4992z" fill="#015794"/><path d="m509.2452 182.0184c-1.9543 5.6708-4.2217 11.1955-6.7834 16.5532-1.2103 2.532-2.4867 5.0269-3.8255 7.4821l12.5242-.0006v-11.6731c0-2.2233.4164-6.9478-1.2481-10.9775-.1833-.4448-.4076-.9078-.6672-1.3841z" fill="#015794"/><path d="m217.7761 199.0768c-2.6593-5.5127-5.0074-11.2036-7.0216-17.0502-.2577.4737-.48.9337-.6628 1.3759-1.6645 4.0297-1.248 8.7542-1.248 10.9775v11.6731h12.5147c-1.25-2.2914-2.4445-4.6175-3.5823-6.9763z" fill="#015794"/><path d="m219.2749 172.2688c2.2492 7.6081 5.0982 14.9586 8.4933 21.9972 1.9468 4.0353 4.0725 7.9679 6.3677 11.7871h12.9059c-3.5193-5.2576-6.6813-10.7747-9.4509-16.516-3.4273-7.1042-6.253-14.5516-8.407-22.2789 0 0-3.2805.4423-7.8576 3.4992-.6786.453-1.3665.9614-2.0514 1.5114z" fill="#015794"/><path d="m247.8678 184.5889c3.6755 7.6188 8.104 14.8055 13.1901 21.4642h14.035c-6.9617-7.8293-12.8581-16.6269-17.4598-26.1661-2.9138-6.04-5.3079-12.3767-7.1255-18.9529l-10.3928 3.0821c1.9845 7.1362 4.589 14.0141 7.753 20.5727z" fill="#015794"/><path d="m267.5112 175.131c5.6532 11.7178 13.468 22.1975 22.9259 30.9221h17.277c-12.9759-9.0093-23.5174-21.2796-30.4375-35.624-2.4105-4.9973-4.3806-10.2454-5.8567-15.6969l-10.3985 3.0839c1.6481 6.0098 3.8292 11.7997 6.4898 17.3149z" fill="#015794"/><path d="m535.9147 217.3796h-351.9814s-2.2177 30.493-1.9405 41.3041c.2772 10.8112.2772 20.5135.2772 20.5135h355.3079s0-9.7023.2772-20.5135c.2772-10.8111-1.9404-41.3041-1.9404-41.3041z" fill="#015794"/><path d="m206.8925 435.266s15.5237 44.3535 31.6019 74.2921c16.0781 29.9386 31.0474 52.1153 38.8092 60.986 7.7619 8.8707 27.721 33.2651 36.0372 40.4726 8.3163 7.2074 8.8707 8.8707 8.8707 8.8707v-184.6214z" fill="#015794"/><path d="m397.0328 435.266v184.6214s.5544-1.6633 8.8707-8.8707c8.3163-7.2075 28.2754-31.6019 36.0372-40.4726 7.7619-8.8707 22.7312-31.0474 38.8093-60.986 16.0782-29.9386 31.6019-74.2921 31.6019-74.2921z" fill="#015794"/><path d="m398.1417 367.627h130.4647c1.3861-4.4354 4.4354-28.8298 5.5442-37.9777s3.0493-39.3637 3.0493-39.3637l-139.0582.2772z" fill="#015794"/><path d="m322.2619 367.627v-77.0642l-139.0582-.2772s1.9405 30.2158 3.0493 39.3637 4.1581 33.5423 5.5442 37.9777z" fill="#015794"/><path d="m240.6509 267.1569c-2.8445 0-5.6362-.4889-8.3749-1.4673-2.738-.9778-5.2272-2.4804-7.4676-4.5072l4.8543-5.8145c1.7067 1.3873 3.4582 2.4893 5.2538 3.3077 1.7962.8177 3.7606 1.2266 5.8944 1.2266 1.7068 0 3.0317-.3112 3.9742-.9337.9425-.6218 1.4131-1.4843 1.4131-2.5869v-.1064c0-.5337-.0976-1.0049-.2929-1.4138-.1959-.4089-.5689-.7913-1.1202-1.1466-.5513-.356-1.3161-.7113-2.2939-1.0673-.9778-.3553-2.2492-.7289-3.8141-1.1202-1.8844-.4624-3.5912-.9778-5.1209-1.5467-1.529-.5689-2.8269-1.2713-3.8935-2.1068-1.0672-.836-1.8938-1.8762-2.4804-3.1205-.5872-1.2449-.8801-2.7916-.8801-4.6407v-.1071c0-1.7067.32-3.2446.9601-4.6143.6401-1.369 1.5379-2.5509 2.6934-3.547 1.1561-.9954 2.5339-1.7603 4.1342-2.2939 1.6002-.533 3.3605-.8001 5.2808-.8001 2.7381 0 5.2544.4095 7.5477 1.2273 2.2939.8177 4.4013 1.9915 6.3216 3.5205l-4.2678 6.1875c-1.6714-1.1379-3.307-2.0356-4.9072-2.694-1.6003-.6578-3.2005-.9866-4.8008-.9866-1.6002 0-2.8004.3112-3.6005.9337-.8002.6224-1.2002 1.3955-1.2002 2.3203v.1065c0 .6048.1153 1.129.3465 1.5738.2312.4442.6489.8442 1.2537 1.2002.6042.3553 1.4314.6936 2.4804 1.0137 1.049.32 2.3733.693 3.9736 1.1202 1.885.4977 3.5653 1.0578 5.0408 1.6802 1.4761.6219 2.721 1.3691 3.7341 2.2404 1.0137.8707 1.7779 1.8932 2.2939 3.0669.5154 1.1738.7737 2.5781.7737 4.2142v.1065c0 1.8491-.3384 3.4941-1.0137 4.9343-.676 1.4403-1.6179 2.6493-2.8269 3.6271-1.2097.9778-2.6499 1.725-4.3214 2.2403-1.6708.5154-3.5205.7737-5.5473.7737z" fill="#ffd600" stroke="#ffd600" stroke-width=".216"/><path d="m260.7631 229.4936h9.0679l9.7615 26.2977 9.7622-26.2977h8.8543l-15.0959 37.606h-7.2541z" fill="#ffd600" stroke="#ffd600" stroke-width=".216"/><path d="m307.9246 229.7003h28.1644v7.3076h-20.0032v7.5747h17.6028v7.3083h-17.6028v7.8412h20.2703v7.3076h-28.4315z" fill="#ffd600" stroke="#ffd600" stroke-width=".216"/><path d="m365.952 247.8367c2.0268 0 3.5829-.4801 4.6672-1.4403 1.0849-.9601 1.6273-2.2403 1.6273-3.8406v-.1064c0-1.7786-.5695-3.1117-1.7073-4.0013-1.1378-.889-2.7204-1.3331-4.7472-1.3331h-8.1613v10.7217zm-16.5362-18.1364h17.0692c4.7302 0 8.3572 1.2625 10.8824 3.787 2.1332 2.1339 3.2005 4.9791 3.2005 8.5349v.1071c0 3.0222-.7384 5.485-2.2139 7.3876-1.4762 1.9027-3.4053 3.2982-5.7874 4.1872l9.1214 13.3356h-9.6015l-8.0019-11.9483h-.1065-6.3474v11.9483h-8.2149z" fill="#ffd600" stroke="#ffd600" stroke-width=".216"/><path d="m392.8382 229.7003h8.2142v37.3394h-8.2142z" fill="#ffd600" stroke="#ffd600" stroke-width=".216"/><path d="m433.0007 267.8934c-2.9163 0-5.5744-.4801-7.9748-1.4402-2.4004-.9602-4.463-2.2939-6.1874-4.0007-1.725-1.7067-3.0676-3.7341-4.0277-6.0809-.9602-2.3469-1.4403-4.9073-1.4403-7.6812v-.1065c0-2.6675.4889-5.1656 1.4674-7.4948.9777-2.3291 2.338-4.3742 4.0806-6.1345 1.7426-1.7602 3.8047-3.1469 6.1874-4.1606 2.3828-1.0137 4.9967-1.5203 7.8413-1.5203 1.6714 0 3.1917.116 4.5607.3465 1.369.2313 2.6404.5601 3.8141.9873 1.1738.4265 2.2757.9601 3.307 1.6002 1.0314.6401 2.0274 1.3691 2.9876 2.1868l-5.1744 6.241c-.7113-.6042-1.4226-1.1378-2.1339-1.6002-.7113-.4625-1.449-.8537-2.2132-1.1738-.7649-.32-1.5915-.5689-2.481-.7465-.889-.1777-1.8668-.2665-2.9334-.2665-1.4938 0-2.8893.3112-4.1878.933-1.2978.6225-2.4356 1.4585-3.4134 2.5075s-1.7427 2.2757-2.2939 3.6806c-.5513 1.4043-.8266 2.9069-.8266 4.5072v.1071c0 1.7067.2753 3.2805.8266 4.7207.5512 1.4403 1.3337 2.6934 2.3468 3.7606 1.0137 1.0666 2.2051 1.8932 3.5741 2.4804 1.369.5866 2.8893.8802 4.5607.8802 3.0581 0 5.6368-.7473 7.7348-2.2404v-5.3344h-8.2684v-7.0947h16.2161v16.2162c-1.9203 1.6355-4.2048 3.0316-6.854 4.1871-2.6499 1.1561-5.6815 1.7338-9.095 1.7338z" fill="#ffd600" stroke="#ffd600" stroke-width=".216"/><path d="m462.1537 229.7003h28.1644v7.3076h-20.0031v7.5747h17.6028v7.3083h-17.6028v7.8412h20.2703v7.3076h-28.4316z" fill="#ffd600" stroke="#ffd600" stroke-width=".216"/><path d="m316.9628 173.9157c.6401.618 1.1605 1.3337 1.5637 2.1477.4039.8146.637 1.6923.7006 2.6348l-2.3531.2532c-.0832-.6823-.2375-1.3104-.4631-1.8844-.2268-.5733-.5796-1.0918-1.059-1.5548-.3837-.3711-.7491-.5885-1.0956-.6527-.3465-.0649-.6401.0264-.8795.2746l-.0234.024c-.1152.1197-.1959.2463-.2406.3811-.0454.1342-.0435.3012.002.5009.0466.1991.1418.4461.2841.7378.1431.2923.3472.652.6143 1.0798.3232.5129.5947.9999.8153 1.4591.2205.46.3597.8997.4183 1.3193.0586.419.0183.8323-.1203 1.2399-.138.407-.4077.8184-.8096 1.2342l-.0227.0239c-.3705.3837-.7762.6597-1.2178.8285-.4411.1689-.8991.2401-1.376.213-.475-.0277-.9507-.1544-1.4264-.3818-.4756-.2275-.9292-.55-1.3608-.9671-.6155-.5941-1.0925-1.2323-1.4308-1.9134-.3377-.6823-.5569-1.403-.6565-2.1641l2.3028-.4643c.1285.6187.3011 1.175.5185 1.6702.2167.4958.5052.9173.8643 1.2644.3598.3472.6969.5381 1.0119.5721.3156.0334.5733-.0529.7743-.2609l.0226-.0245c.1317-.1355.2193-.2791.264-.4284.0441-.1506.0372-.3308-.0214-.5425-.0586-.211-.1714-.4668-.3377-.7655-.1663-.3005-.383-.6716-.6502-1.1151-.315-.521-.5714-1.0118-.768-1.4724-.1972-.4599-.3144-.8977-.3534-1.3142-.0384-.4158.0113-.8115.1499-1.1869.1393-.3755.3862-.7472.7416-1.1152l.0226-.0239c.4014-.4152.8342-.7119 1.2992-.8896.4649-.1764.9393-.2438 1.4232-.2016.4838.0428.9696.1877 1.4572.4347s.9595.5903 1.415 1.0301zm-14.4816 1.8195-1.502-2.4029 5.3527-6.9422-8.5853 1.7684-1.4667-2.3474 12.4662-2.2265 1.2008 1.9222zm-8.5387-14.1377-3.1545-8.2167 2.1326-.8184 2.2397 5.8352 2.2101-.8486-1.9713-5.1353 2.132-.8184 1.9713 5.1353 2.287-.8776-2.27-5.914 2.1327-.8184 3.1841 8.2955zm-4.5891-13.3955-.4114-2.3317 6.1263-6.6316-7.0757 1.2474-.4398-2.4948 11.491-2.0262.3792 2.1503-6.3235 6.8527 7.3051-1.2878.4398 2.4956zm10.0111-19.8583c-.0309.889-.2142 1.7547-.5494 2.5995-.3352.8449-.8316 1.6053-1.4894 2.2832l-1.7628-1.5795c.4517-.5178.8153-1.0534 1.0906-1.6046.274-.5519.4234-1.1618.4467-1.8277.0189-.533-.0637-.9501-.2483-1.2512-.1833-.3006-.4479-.4574-.7919-.4694l-.0334-.001c-.1663-.006-.315.0189-.4448.0756s-.2533.1695-.3704.3377c-.1166.1682-.2369.4032-.3579.705-.1216.3018-.2526.6943-.3919 1.1782-.165.584-.3446 1.1113-.5386 1.5826-.1947.4719-.4278.8694-.7006 1.1932-.2722.3245-.6061.5708-1.0017.7409-.3951.1695-.8808.2445-1.4592.2243l-.0334-.001c-.5323-.0183-1.0093-.1355-1.4301-.3503-.4202-.2149-.78-.5078-1.0786-.8802-.298-.3717-.5223-.8102-.671-1.3154-.1493-.5059-.2129-1.0585-.1921-1.6589.0296-.8549.1852-1.6362.4649-2.343.281-.7075.6704-1.3527 1.1687-1.9361l1.8863 1.4005c-.3742.5091-.6722 1.01-.8946 1.5026-.2237.4934-.344.9892-.361 1.4888-.0177.4996.0661.8776.252 1.1347.1858.257.4227.3906.7119.4006l.0334.001c.1884.006.3534-.0246.4945-.0913.1418-.0675.271-.1935.3888-.3787s.2324-.4391.3433-.7636c.1115-.3244.2426-.7339.3938-1.2291.1758-.5828.3692-1.102.5796-1.5556.2104-.4542.4574-.8347.7403-1.1416.2835-.3074.6105-.5349.9828-.6835.3724-.1475.814-.213 1.3243-.1947l.0334.0006c.5777.0202 1.0874.1437 1.5303.3698.4423.2275.8096.5349 1.1019.923.2924.3881.5097.8461.6527 1.3741.1424.5273.2029 1.1076.1809 1.7407zm-10.9265-10.1414.6212-2.4911 4.9494 1.2342-3.8046-5.8271.7503-3.0083 3.6541 5.8069 7.7203-3.1942-.7459 2.992-5.6948 2.3077 1.032 1.6488 3.4607.8631-.6206 2.4911zm13.3911-17.9329-4.0687-.4076 2.6134 3.1456zm-7.3316-.8398 1.1108-2.0898 12.7245 1.1013-1.26 2.3701-2.8118-.2873-2.3166 4.3572 1.81 2.1705-1.2285 2.3102zm10.2549-15.8293 6.1717-6.3916 1.6796 1.6217-4.3887 4.5443 1.7861 1.7257 3.8677-4.0051 1.6784 1.6211-3.8671 4.005 3.249 3.1375-1.7829 1.8472zm20.3119-5.1561c.4334-.2709.7844-.601 1.0521-.991.2671-.39.4417-.8071.5242-1.2519.0831-.4448.0813-.899-.006-1.3621-.0863-.4637-.2627-.9072-.5273-1.3312l-.0177-.0284c-.2652-.424-.5878-.7793-.9696-1.0647-.3817-.286-.795-.4864-1.2405-.6011-.4454-.1146-.9028-.1398-1.374-.0749-.4707.0642-.9224.2325-1.3558.5034-.443.2765-.7958.6086-1.0585.9954s-.4353.8026-.5179 1.2474c-.0825.4442-.0806.8984.006 1.3621.087.4637.2627.9073.528 1.3319l.0176.0284c.2646.4233.5878.7787.9696 1.0647.3818.2848.7957.4857 1.2405.6004.4454.1147.901.1418 1.3665.0794.4656-.0618.9199-.2312 1.3628-.5078zm1.226 2.0249c-.763.4769-1.5492.7818-2.3575.9135-.8084.1317-1.589.1153-2.3412-.0504s-1.4509-.4763-2.0955-.9318c-.6445-.4549-1.1882-1.0357-1.6298-1.7426l-.0177-.0284c-.4416-.7069-.7232-1.4509-.8454-2.234-.1216-.7819-.0952-1.5518.08-2.3097.1751-.7579.5015-1.473.979-2.1452.4776-.6722 1.0981-1.2462 1.8617-1.7231.7636-.4776 1.5493-.7819 2.3576-.9136.8095-.1316 1.5895-.1146 2.3411.0504.7523.1664 1.451.4763 2.0955.9312.6451.4562 1.1888 1.037 1.6305 1.7439l.0176.0284c.4417.7069.7233 1.4509.8449 2.2334.1216.7818.0957 1.5524-.0794 2.3096-.1752.758-.5015 1.4737-.9791 2.1446-.4781.6729-1.0987 1.2469-1.8623 1.7238zm6.9964-14.5844-3.3146 1.272-.848-2.2094 9.0257-3.4652.848 2.2101-3.3145 1.2721 3.3334 8.6842-2.3966.9198zm16.8297 2.5686c.5582-.0983.9778-.2766 1.2601-.5349.281-.2589.3849-.601.3093-1.0282l-.006-.0327c-.0674-.3831-.269-.6603-.6035-.8329-.3358-.172-.831-.1997-1.4875-.0844l-2.9227.5153.4461 2.5277zm-1.4893-4.5103c.5582-.0983.9847-.2722 1.2789-.5217.2942-.2494.4045-.5878.3289-1.0143l-.006-.0328c-.0674-.383-.2608-.6508-.5815-.8026-.3201-.1531-.7485-.1814-1.2846-.0869l-2.4955.4397.4284 2.43zm-5.6129-3.8003 5.335-.9412c1.325-.2331 2.3859-.0706 3.1841.4889.6181.4322.9955 1.037 1.1322 1.8138l.006.0327c.0579.3283.0686.6263.0308.8922-.0384.2658-.1071.5122-.2079.739-.1014.2268-.2293.4322-.3824.6174-.1537.1852-.3251.3509-.5135.4964.712.1342 1.2979.3837 1.7572.7485.4586.3648.756.9299.8914 1.696l.006.0334c.0926.5255.0725 1.003-.0605 1.4327-.1329.4297-.3647.8089-.6968 1.1378-.3307.3289-.7503.6067-1.2581.8316-.5072.2243-1.0837.3938-1.7301.5078l-5.4667.964zm20.5015 7.7335c.5097.0353.9873-.0252 1.4327-.1833.446-.1588.8322-.3938 1.1605-.705.3289-.3106.5935-.6798.7957-1.1057.2029-.4253.3213-.8883.356-1.3867l.002-.0334c.0346-.4989-.0177-.9759-.1588-1.4314-.1405-.4555-.3572-.8606-.6502-1.2147-.2929-.3547-.6483-.6445-1.0672-.8688-.419-.2242-.8827-.354-1.393-.3899-.521-.0366-1.0017.0245-1.4415.1833-.4397.1588-.8241.3938-1.1523.705-.3276.3106-.5928.6798-.7957 1.1057-.2022.4259-.3213.8883-.356 1.3873l-.002.0334c-.0346.4983.0183.9753.1588 1.4314.1411.4549.3578.8606.6502 1.2147.2929.3547.6457.6438 1.059.8675.4133.2243.8808.3541 1.4018.3906zm-.1984 2.3588c-.8985-.063-1.7131-.2785-2.4445-.647-.7315-.3686-1.3533-.8405-1.8649-1.4169-.5109-.5759-.8934-1.238-1.1473-1.9852s-.3521-1.5366-.2942-2.3683l.002-.0334c.058-.831.2678-1.599.6288-2.304.361-.7043.8354-1.3117 1.4226-1.8213.5872-.5104 1.2714-.8972 2.0532-1.1605.7813-.2628 1.6204-.3629 2.5189-.2999.8977.063 1.7124.2784 2.4438.647.7321.3692 1.3539.8411 1.8649 1.4169.5109.5765.8933 1.238 1.1472 1.9852.2546.7478.3529 1.5373.2943 2.3689l-.002.0334c-.0586.831-.2684 1.599-.6294 2.3033-.361.7038-.8348 1.3117-1.422 1.8221-.5872.5103-1.2714.8971-2.0526 1.1598-.7825.2627-1.6217.3623-2.5194.2999zm12.2545-10.4338 2.4798.6647-2.4162 9.0169 5.6192 1.5057-.6036 2.2542-8.0995-2.1704zm12.2211 3.9856 2.3456 1.0439-3.7971 8.528 5.3148 2.3663-.9494 2.132-7.6598-3.4103zm11.8835 6.1685 7.2786 5.0962-1.3388 1.9121-5.1756-3.6238-1.4245 2.0343 4.5608 3.1936-1.3382 1.9115-4.5607-3.1936-2.5913 3.7007-2.103-1.473zm15.554 8.7724 1.5971 1.8371-1.6986 1.4762-1.5964-1.8365zm2.3405 2.6921 1.5965 1.8371-1.6979 1.4762-1.5972-1.8366zm-9.9216 7.896c.3352.3862.7157.6811 1.1429.884.4271.2034.8663.3106 1.3186.3225.4524.012.9003-.0611 1.3445-.2192.4441-.1575.8555-.4013 1.2323-.729l.0252-.022c.3774-.3283.6779-.7025.8997-1.1246.223-.4215.3559-.8606.4-1.3186.0435-.4581-.003-.9142-.1411-1.3691-.1373-.4548-.3736-.8744-.7094-1.2606-.3421-.3938-.7252-.6905-1.1485-.8896-.4234-.1985-.8606-.3043-1.313-.3163-.4517-.012-.8997.0611-1.3445.2192-.4441.1582-.8555.4007-1.2329.729l-.0252.022c-.3768.3276-.6767.7031-.8997 1.1246-.2217.4215-.3553.8619-.3994 1.3187-.0435.458.001.9122.1354 1.3627.1336.4505.3724.8726.7151 1.2663zm-1.8088 1.5278c-.5903-.6791-1.0143-1.4081-1.2707-2.1855-.2564-.7781-.3623-1.5518-.3163-2.3204.0454-.7686.2432-1.507.5922-2.2151.3484-.7082.8373-1.3357 1.4661-1.8825l.0252-.0221c.6294-.5468 1.3205-.9412 2.0746-1.1844.7529-.2426 1.5178-.3371 2.2939-.2823.7762.0542 1.5329.2646 2.2719.6313.7384.3667 1.4024.8896 1.9934 1.5688.5903.6798 1.0143 1.4081 1.2707 2.1861.2565.7787.3623 1.5518.3163 2.3204s-.2432 1.507-.5922 2.2152c-.349.7081-.8379 1.3362-1.4667 1.8831l-.0252.0214c-.6294.5469-1.3205.9419-2.0734 1.1844-.7535.2426-1.5183.3371-2.2945.2829s-1.5335-.2646-2.2713-.6319c-.739-.3667-1.403-.8896-1.994-1.5694zm13.6475 8.8512c.2974.5595.6584.9186 1.0824 1.0773.4234.1582.8562.1197 1.2979-.1153l.0296-.0157c.4908-.2608.7755-.6137.853-1.0572.0781-.4448-.0309-.9469-.3282-1.5057l-1.1971-2.2517-2.9585 1.5725zm2.5781-7.2232 2.5043 4.71c.6943 1.3048.8776 2.4911.5513 3.5578-.2753.9022-.9041 1.6135-1.885 2.1357l-.0296.0152c-.8336.4435-1.6217.6016-2.3633.4737-.7415-.1285-1.4099-.4561-2.0047-.9828l-2.3411 4.4732-1.4088-2.6493 2.1232-3.9609-.0151-.029-.9318-1.7521-3.2969 1.7534-1.2052-2.2669zm-.9123 21.805c.1563.545.3774.9438.6634 1.1971.2867.2526.6382.32 1.0553.2003l.0321-.009c.3736-.1071.6282-.3358.7649-.6874.1367-.3515.1121-.8474-.0712-1.4881l-.8184-2.8521-2.4672.7075zm4.3301-1.9524c.1563.545.3737.9507.6521 1.2172.2791.2665.6269.3408 1.0433.2211l.0322-.009c.3736-.1071.6199-.3276.7377-.6622.1185-.3339.1021-.7636-.0479-1.2865l-.6987-2.4356-2.3714.6798zm3.193-5.9795 1.4931 5.2077c.3711 1.2928.3201 2.3651-.1531 3.2169-.3647.6603-.9273 1.0988-1.6859 1.3161l-.0321.009c-.3201.0913-.6149.1329-.8833.1235-.269-.0101-.521-.0536-.7567-.1298-.2362-.0769-.4542-.1827-.6539-.3157-.2004-.1335-.3831-.286-.5481-.4586-.0586.722-.2458 1.3306-.5601 1.8258-.315.4945-.8461.8492-1.594 1.0635l-.0321.009c-.5129.1468-.9898.177-1.4314.0901-.441-.0882-.8424-.2791-1.2046-.5746-.3617-.2948-.6817-.6829-.9583-1.1643-.2766-.4813-.5053-1.037-.6861-1.667l-1.5303-5.3363zm-7.7883 20.4656c-.1367-1.5612.1877-2.8282.9727-3.7997.7857-.9727 2.035-1.5341 3.7512-1.684l6.6429-.5815.2237 2.5578-6.5762.5753c-.9519.0831-1.6494.3679-2.0923.8524-.4423.4851-.63 1.1208-.5613 1.9064.0693.7857.3547 1.3798.8587 1.7823.504.4026 1.2203.562 2.1509.4808l6.6587-.5822.2243 2.5573-6.5598.5739c-.8852.0775-1.6652.0252-2.3393-.155-.6741-.1808-1.2487-.4737-1.725-.8782-.4763-.4051-.8499-.9129-1.1208-1.5253-.2709-.6117-.4404-1.3054-.5084-2.0803zm12.0687 10.4797-.4114 2.3317-8.0246 4.1368 7.0751 1.2474-.4397 2.4949-11.4916-2.0262.3792-2.1502 8.2867-4.2766-7.3051-1.2884.4398-2.4955zm-13.8013 16.6509c-.1877.4876-.281.9633-.2803 1.4276 0 .4643.0907.8946.2715 1.2909.1808.3969.4379.7523.7699 1.0641.3333.3119.7428.5614 1.2304.7485l.0309.0119c.4775.1834.9494.2722 1.4156.2672.4663-.006.8997-.0958 1.2998-.269.4-.1739.7579-.4322 1.0742-.775.3156-.3433.5676-.7579.7547-1.2455l.7107-1.8523-6.5667-2.5207zm10.3613-.8978-1.6311 4.2488c-.327.8506-.7642 1.5782-1.3117 2.1831-.5481.6054-1.1636 1.071-1.8485 1.3974-.6848.3269-1.4106.5033-2.1773.5311-.7661.0271-1.5329-.1071-2.3009-.402l-.0308-.012c-.768-.2942-1.4295-.7094-1.9865-1.2443-.5563-.5355-.9797-1.1529-1.2701-1.8541-.2904-.7006-.4391-1.4591-.4467-2.2782-.008-.8177.1525-1.6519.4788-2.5024l1.6311-4.2495zm-6.6221 14.5503-4.6641 7.4639-1.9366-1.2103 3.312-5.3004-2.0073-1.2543-2.9144 4.6646-1.9374-1.2102 2.9152-4.6647-2.0779-1.2985-3.3567 5.3716-1.9367-1.2103 4.7088-7.535zm-11.743 11.8186 2.4212-2.5963 1.7313 1.6147-6.5938 7.0701-1.7307-1.6141 2.4212-2.5963-6.803-6.3437 1.7509-1.8781z" fill="#ffd600"/><path d="m338.9979 191.7233-2.3238-.2351.1582-2.228 3.8899.2158 1.8517.6196-4.041 11.4119-2.6814-.898zm10.5603 5.5308c.7023.0963 1.2722.003 1.7082-.277.4361-.2801.6908-.6747.7641-1.1837l.005-.0331c.0765-.5315-.0611-.9943-.4123-1.3876-.3512-.3939-.8837-.6397-1.5983-.7372-.7023-.0963-1.2683-.003-1.698.2782-.4302.2808-.6837.6866-.7602 1.2181l-.004.0344c-.0772.5309.0605.9874.4142 1.3707.3525.3821.8799.6216 1.5816.7172zm-1.4645 6.3519c-.9481-.1295-1.7366-.3696-2.3643-.721-.6271-.3508-1.1886-.7729-1.6819-1.2669l1.7835-1.779c.4174.4146.8297.7329 1.2368.9555.4078.2226.8889.3721 1.4433.4477.8007.1101 1.4491-.0556 1.9456-.4946.4972-.439.8528-1.053 1.0677-1.8421-.3564.2044-.7603.3514-1.2131.4395-.4521.0876-.9615.0932-1.5288.0157-.7017-.0957-1.323-.2708-1.8646-.5228-.5415-.2526-.9917-.5703-1.3506-.9542-.3596-.3827-.6117-.8266-.759-1.3306-.1466-.504-.1775-1.0556-.0907-1.6546l.005-.0344c.0869-.5984.2869-1.1362.6008-1.612.3138-.4753.7126-.868 1.1969-1.1762.4843-.3083 1.0465-.5253 1.6864-.651.64-.1263 1.3237-.1388 2.0498-.0394.4316.0588.8188.1376 1.1622.2364.3435.0988.6554.2189.9378.3608.281.1426.5377.3133.7731.5128.2354.1988.4598.4283.6734.6878.2026.247.3775.5184.5222.8148.146.2964.2605.6353.3435 1.0155.083.3801.1286.8035.1363 1.2712.008.4684-.0308.9961-.1157 1.5839l-.005.0338c-.1383.9604-.3885 1.8227-.7499 2.5856-.3621.7629-.8207 1.3944-1.3764 1.8953-.5564.4996-1.2079.8604-1.9553 1.0812-.7486.2201-1.5841.2676-2.5083.1413zm15.9288-1.6565c.4335-.0369.8156-.1638 1.1455-.3814.33-.217.6039-.504.822-.8598.2174-.3564.3698-.7704.4592-1.2418.0881-.4721.1081-.9805.0585-1.5258l-.002-.0344c-.0489-.5459-.1621-1.0436-.3403-1.492-.1775-.4489-.409-.8329-.6933-1.1524s-.613-.5609-.9828-.7241c-.3711-.1632-.7673-.227-1.1879-.1913-.4342.0369-.8156.1644-1.1462.3814s-.6007.5034-.8123.8592c-.211.3558-.3647.7697-.4592 1.2418-.0952.4727-.1177.9811-.0688 1.527l.003.0338c.0495.5459.1627 1.0461.3409 1.5007.1788.4546.4071.8385.6849 1.1537.2772.3139.602.5521.9725.716.3711.1632.7725.2263 1.2066.1894zm.1756 2.3737c-.867.0738-1.671-.015-2.4119-.267s-1.386-.6328-1.9372-1.1418c-.5519-.5084-.9983-1.1262-1.3378-1.854-.3403-.7266-.55-1.5227-.6271-2.3862l-.004-.0344c-.0772-.8642-.0103-1.6833.2007-2.4568.2116-.7748.546-1.462 1.0046-2.0623.4573-.5996 1.0284-1.0899 1.7121-1.4688.6837-.379 1.4588-.6047 2.327-.6785.8548-.0725 1.653.0169 2.3933.2683.7409.252 1.3867.6328 1.9379 1.1412.5512.509 1.0008 1.1268 1.3474 1.8534.3461.7266.5583 1.522.6361 2.3855l.003.0344c.0785.8642.0116 1.6833-.2 2.4574-.2116.7742-.5454 1.4614-1.004 2.0617-.4573.6003-1.0285 1.0899-1.7122 1.4688-.6843.379-1.46.6053-2.3276.6791zm15.1538-7.7019-1.058-3.5874-2.2775 4.5179zm.6072 2.0573-6.1346 1.7096-.9764-1.6684 4.7261-9.2432 2.3315-.6497 2.0832 7.0597 1.6858-.4702.6065 2.0572-1.6858.4696.7326 2.485-2.6363.7353z" fill="#ffd600"/><path d="m326.0673 186.0549a1.9405 1.9405 0 0 1 1.9404 1.9405 1.9405 1.9405 0 1 1 -1.9404-1.9405z" fill="#ffd600"/><path d="m393.4795 186.0549a1.9405 1.9405 0 0 1 1.9405 1.9405 1.9405 1.9405 0 1 1 -1.9405-1.9405z" fill="#ffd600"/></g></g></svg>